<svg width="316" height="71" viewBox="0 0 316 71" fill="none" xmlns="http://www.w3.org/2000/svg">
<path d="M143.852 26.9798C143.915 27.3833 144.305 28.8083 144.727 30.145C145.196 31.57 145.555 33.0706 145.649 33.802C145.743 34.6469 145.915 35.2774 146.196 35.8449C146.649 36.715 146.774 37.7617 146.462 38.0139C146.368 38.0895 145.493 38.2156 144.54 38.2787L142.79 38.4048L142.415 38.0391C141.446 37.0933 138.977 33.512 138.087 31.7717L137.852 31.3051L138.462 30.9899C138.805 30.8133 139.087 30.5737 139.087 30.4476C139.087 30.1828 137.133 29.1866 135.712 28.7452C133.79 28.1273 133.102 28.0895 125.493 28.1021C116.399 28.1273 110.399 28.3669 96.0397 29.3001C87.2897 29.8549 85.571 30.0189 84.1647 30.3594C83.4772 30.5359 82.1647 30.7503 81.2585 30.8512C79.5553 31.0529 78.6491 31.2799 76.1491 32.1753C75.3522 32.4653 73.6647 32.9823 72.4147 33.3354C68.7897 34.3442 67.4772 34.9369 64.2428 37.0429C61.1803 39.0353 58.5553 41.3682 56.821 43.6507L56.2585 44.3821L54.196 44.4704C53.0553 44.5082 50.2428 44.6091 47.9147 44.6722C42.8053 44.8235 39.7116 45 37.5241 45.2522C35.5553 45.4792 35.4928 45.4918 35.4928 45.744C35.4928 45.8575 35.3053 46.198 35.0866 46.5133C34.1491 47.7995 34.4616 51.2926 35.8835 55.2523C36.2741 56.3116 36.2741 56.5259 35.8991 56.5259C35.7897 56.5259 35.5866 56.6268 35.4303 56.7529C35.2116 56.9673 35.196 57.106 35.3522 57.9888C35.5085 58.8967 36.2428 61.8349 36.321 61.9106C36.3522 61.9232 36.8835 61.9989 37.5241 62.0871C38.3366 62.188 40.5085 62.2132 44.5553 62.1754L50.4147 62.1124L50.8991 63.2599C51.1647 63.8904 51.5553 64.7353 51.7897 65.1389L52.2116 65.8829L51.2428 65.8072C50.696 65.7694 47.9772 65.7063 45.196 65.6559L40.1335 65.5802L40.2428 65.9837L40.3366 66.3999L38.4303 66.3116C34.8835 66.1603 22.1803 66.0972 16.1178 66.1981C10.2741 66.299 10.1022 66.3116 10.0553 66.5512C9.96158 66.98 9.77408 67.0178 8.99283 66.8034C7.97721 66.526 6.64908 66.5512 4.61783 66.8665C3.43033 67.0556 2.47721 67.1187 1.50846 67.0935L0.102206 67.0556L0.0553312 67.7114C-0.00716882 68.5184 0.0553312 68.531 1.77408 68.0771C2.86783 67.787 3.13346 67.7618 5.77408 67.7996C7.80533 67.8249 8.66471 67.8753 8.83658 68.0014C9.03971 68.1275 10.1803 68.1527 14.0553 68.1401C16.7741 68.1275 19.2741 68.0897 19.5866 68.0392C19.9772 67.9888 20.2741 68.0266 20.446 68.1401C20.6335 68.2788 21.1647 68.3041 22.6022 68.2788L24.4928 68.241L24.8835 68.7202C25.3678 69.3255 25.6491 69.3633 26.321 68.8968C26.9616 68.4428 27.4147 68.4049 28.6178 68.7454C29.3366 68.9346 29.8366 68.9724 31.821 68.9346C33.6647 68.8968 34.196 68.8463 34.3366 68.7076C34.4772 68.5437 35.0085 68.531 38.2428 68.6319C40.2897 68.695 43.8053 68.758 46.0397 68.758H50.1022L50.3835 69.1616L50.6647 69.5525L53.3522 69.4894L56.0397 69.4264V69.8804C56.0397 70.3217 56.0553 70.3343 56.6647 70.3722C57.0085 70.3974 59.1178 70.3217 61.3522 70.2082C64.7897 70.0191 67.4147 70.0065 68.5085 70.183C68.6178 70.1956 68.7116 70.0569 68.7428 69.8551C68.8053 69.4264 69.0866 69.4138 70.8366 69.7795C71.571 69.9308 72.3522 70.0191 72.696 69.9812C73.1803 69.9308 73.3053 69.9686 73.4772 70.2208L73.6647 70.5235H81.8991C93.5241 70.5235 99.0553 70.41 99.3522 70.1704C99.5397 70.0191 99.9147 69.9812 101.321 70.0317C102.29 70.0569 104.102 70.0821 105.368 70.0821H107.665L107.712 70.5235C107.758 71.0405 107.805 71.0405 110.024 70.8009C111.618 70.6244 115.837 70.6118 118.93 70.7757C122.571 70.9775 126.852 70.9396 128.555 70.7126C129.68 70.5487 130.212 70.5361 130.774 70.637C133.118 71.0405 136.149 70.9144 138.227 70.3217C139.071 70.0821 139.649 70.0065 140.79 70.0065C141.587 70.0065 142.446 70.0695 142.68 70.1452C142.946 70.2335 143.54 70.2713 144.196 70.2208C144.774 70.183 146.915 70.1073 148.93 70.0317C150.946 69.9686 153.618 69.8678 154.868 69.8173C156.602 69.7543 157.618 69.7795 159.196 69.9434C161.227 70.1578 161.29 70.1578 162.493 69.9056C163.915 69.6029 166.805 69.4516 174.633 69.2498C177.555 69.1742 180.587 69.0733 181.352 69.0102C182.133 68.9472 183.852 68.8337 185.18 68.758C186.508 68.6824 188.383 68.5563 189.352 68.4806C191.321 68.3167 194.962 68.4176 197.508 68.6824C199.227 68.8715 199.743 68.8085 199.93 68.4176C200.102 68.0519 199.493 67.7492 198.587 67.7492C198.165 67.7492 197.696 67.6988 197.54 67.6357C197.352 67.5474 197.04 67.5727 196.571 67.7114C195.79 67.9257 194.305 67.8753 193.54 67.6105L193.071 67.4466L193.54 67.3961C194.149 67.3331 194.399 67.1565 194.399 66.7908C194.399 66.3494 193.899 66.1981 192.696 66.2864C191.977 66.3368 191.477 66.3116 191.04 66.1729C190.399 65.9964 186.102 65.8955 185.587 66.0594C185.102 66.2107 185.337 66.3621 186.04 66.3621C186.43 66.3621 186.743 66.4125 186.743 66.4882C186.743 66.6269 185.93 66.6521 185.383 66.5386C185.212 66.5008 185.024 66.3621 184.977 66.2233C184.899 65.9964 184.727 65.9837 182.68 65.9837H180.477L180.774 65.6307C180.946 65.4415 181.368 64.8362 181.712 64.2813C182.055 63.7265 182.462 63.1842 182.618 63.0707C182.821 62.9194 183.352 62.8438 184.399 62.7933C185.212 62.7429 186.837 62.5663 187.993 62.3772C189.54 62.1376 190.915 62.0241 193.149 61.9484C195.915 61.8601 196.962 61.7467 197.462 61.4692C197.633 61.3809 197.758 60.9396 197.93 59.7038C198.024 59.1363 198.102 59.0102 198.493 58.8463C199.305 58.5058 199.415 57.7365 198.665 57.5852C198.321 57.5096 197.087 57.5978 196.352 57.7365C196.102 57.787 195.993 57.7113 195.837 57.3708C195.587 56.8034 194.977 56.5638 193.274 56.3746L191.977 56.2107L192.962 56.135C194.024 56.0467 194.493 55.845 194.087 55.6432C193.962 55.5802 193.087 55.5171 192.133 55.5045L190.415 55.4793L191.696 55.3532L192.962 55.2271L193.133 54.6848C193.227 54.3822 193.29 54.0669 193.274 53.9786C193.243 53.8904 193.524 53.7643 193.93 53.6886C194.446 53.5751 194.649 53.4742 194.68 53.2851C194.758 52.8563 193.837 52.6798 191.696 52.705C188.837 52.7302 188.868 52.7176 188.54 53.6886C188.399 54.13 188.305 54.7731 188.337 55.1262L188.383 55.7441L186.868 55.8324L185.337 55.9206V56.3998C185.337 56.879 185.337 56.879 186.118 56.9673C186.962 57.0556 188.087 56.9547 188.243 56.7655C188.29 56.7025 188.477 56.7151 188.665 56.8034C188.883 56.9169 189.696 56.9673 190.993 56.9673C192.196 56.9673 193.04 57.0177 193.149 57.106C193.446 57.3456 176.462 57.8879 165.118 58.0014L156.555 58.077L156.915 57.5222C157.165 57.1312 157.29 56.6773 157.337 55.9585C157.399 54.9118 157.165 53.5625 156.868 53.4238C156.524 53.2472 156.352 53.6886 156.274 55.0253C156.212 56.0594 156.133 56.4377 155.962 56.5259C155.399 56.816 154.462 56.9295 151.962 56.9925L149.29 57.0682L149.196 56.7655C149.102 56.4881 149.087 56.4881 148.805 56.6899C148.399 56.9925 147.54 57.1817 147.024 57.0808C146.649 57.0177 146.602 56.9673 146.68 56.7025C146.758 56.4377 146.727 56.3998 146.383 56.3998C146.133 56.3998 145.899 56.2737 145.727 56.072C145.477 55.7567 145.43 55.7441 144.462 55.8324C143.04 55.9459 136.415 55.7693 136.54 55.6054C136.602 55.5297 137.805 55.5045 139.852 55.5423C141.618 55.5802 143.587 55.5549 144.227 55.5045C145.555 55.3784 146.993 55.0379 146.79 54.874C146.727 54.8235 146.212 54.7605 145.649 54.7353L144.633 54.6974L145.415 54.5461C145.852 54.4704 146.524 54.357 146.946 54.3191L147.68 54.2435V53.7012C147.68 53.1842 147.696 53.1716 148.118 53.222C148.633 53.2725 149.087 52.9446 148.805 52.7176C148.602 52.5537 146.821 52.5663 145.415 52.7428C144.852 52.8185 142.54 52.8563 140.227 52.8437C137.415 52.8311 135.805 52.8689 135.337 52.9698C134.68 53.1085 134.618 53.0959 134.399 52.8437C133.524 51.8097 132.649 51.3178 131.399 51.1665C130.821 51.0909 130.649 51.0278 130.618 50.8134C130.587 50.5991 130.415 50.5234 129.868 50.4351C129.165 50.3342 123.118 50.4099 121.321 50.5612C120.383 50.6243 120.368 50.6369 120.258 51.053C120.102 51.734 119.555 52.1627 118.805 52.1627C118.04 52.1754 117.899 52.3015 116.618 54.193L115.68 55.5802L109.071 55.7063L102.462 55.8324L102.258 56.1476C101.993 56.5764 102.258 56.7782 103.087 56.7782C103.696 56.7782 103.758 56.8034 103.805 57.1186C103.852 57.4213 103.946 57.4843 104.477 57.56C104.821 57.6104 105.883 57.6483 106.852 57.6483C107.805 57.6609 108.696 57.6987 108.837 57.7365C109.383 57.9005 108.93 59.3002 108.133 59.8929C107.93 60.0442 107.399 60.2965 106.977 60.4604C106.227 60.7378 105.993 60.7504 101.29 60.8135C98.0866 60.8513 96.3678 60.8387 96.3366 60.7504C96.2116 60.3847 95.7897 52.188 95.8366 50.7252L95.8835 49.0228L97.2116 48.9975C97.946 48.9723 100.868 48.8714 103.696 48.7705C106.54 48.6697 110.055 48.5814 111.508 48.5814C119.008 48.5688 121.071 48.14 122.196 46.3367C122.446 45.9206 122.837 45.4162 123.071 45.2018C123.524 44.7604 123.133 44.7983 130.258 44.4704C135.149 44.256 141.258 43.8651 144.133 43.6003C146.524 43.3733 146.696 43.3733 146.493 43.5372C146.415 43.6003 145.571 43.7768 144.633 43.9155C143.68 44.0669 141.868 44.3821 140.587 44.6343L138.274 45.0757L138.352 45.4288C138.43 45.7314 138.383 45.7819 137.883 45.8828C137.087 46.0467 136.868 46.3746 137.352 46.7024C137.696 46.9294 137.962 46.942 141.071 46.9294C142.915 46.9294 144.446 46.942 144.493 46.9673C144.571 47.0429 140.133 47.3077 139.321 47.2825C138.837 47.2573 138.696 47.3077 138.649 47.4969C138.587 47.7239 138.68 47.7365 140.087 47.6734C141.665 47.6104 142.368 47.6608 142.368 47.8374C142.368 47.9004 141.383 47.9509 140.165 47.9509C138.212 47.9509 137.868 47.9887 137.196 48.2283C136.493 48.4931 136.102 48.8714 136.337 49.048C136.383 49.0984 138.399 49.1489 140.805 49.1867C145.118 49.2497 145.18 49.2371 145.18 48.9849C145.18 48.821 145.04 48.7075 144.758 48.6318C144.337 48.5436 144.337 48.5436 144.946 48.4427C145.29 48.3922 146.196 48.3418 146.946 48.3418L148.321 48.3292L148.274 49.048L148.227 49.7794L148.743 49.7668C149.321 49.7415 149.305 49.7163 149.055 50.3721C148.899 50.7882 148.915 50.8891 149.102 50.99C149.696 51.2926 149.977 50.9648 150.18 49.8172C150.258 49.3885 150.383 49.0101 150.446 48.9597C150.508 48.8966 150.93 48.9219 151.368 48.9975C152.883 49.2497 153.337 48.9723 154.087 47.3456C154.68 46.0593 154.805 45.2522 154.571 44.0921C154.477 43.6129 154.446 43.2094 154.493 43.1715C154.524 43.1337 154.868 43.3481 155.227 43.6381C155.727 44.0416 156.024 44.1677 156.399 44.1677C156.852 44.1677 156.899 44.1299 156.899 43.7894C156.899 43.5751 156.977 43.4111 157.071 43.4111C157.368 43.4111 157.087 45.8071 156.571 47.6987C156.321 48.6318 156.071 49.7794 156.008 50.2334C155.93 50.9648 155.962 51.0782 156.212 51.1665C156.68 51.3305 164.29 51.3431 172.008 51.2044C178.524 51.0782 180.805 51.1161 180.805 51.3305C180.805 51.3809 179.587 51.4313 178.087 51.4313C176.571 51.444 175.243 51.507 175.087 51.5827C174.837 51.6962 174.868 51.734 175.368 51.9231C175.852 52.1123 176.165 52.1249 177.805 52.0366C178.837 51.9736 179.837 51.9484 180.024 51.9862C180.352 52.0492 180.352 52.0619 180.071 52.251C179.915 52.3645 179.196 52.6924 178.477 52.9698C177.18 53.4616 177.149 53.4616 176.915 53.222C176.696 53.0203 176.493 52.9824 175.493 53.0203C174.368 53.0581 174.321 53.0707 174.274 53.386C174.227 53.7264 174.29 53.7138 172.68 53.739C172.462 53.7517 171.665 53.4868 170.899 53.1716C169.899 52.7554 169.321 52.5915 168.79 52.5789C168.087 52.5537 168.071 52.5663 168.024 52.9572C167.977 53.3481 167.93 53.3733 167.368 53.3733C166.79 53.3733 166.758 53.3986 166.524 53.966C166.102 54.9623 166.087 54.9496 167.633 54.9118C169.383 54.8488 170.446 55.0379 171.133 55.5297L171.665 55.8954L171.321 56.0972C170.868 56.3494 170.868 56.7655 171.29 57.2069C171.649 57.5726 172.337 57.6483 172.446 57.3456C172.68 56.7403 172.68 56.7403 172.899 56.9043C173.087 57.0177 173.165 56.9925 173.305 56.7782L173.477 56.5133L173.743 56.7782C173.899 56.9421 174.274 57.0682 174.649 57.1186C175.727 57.2321 176.415 56.7277 175.602 56.4377C175.258 56.3116 175.227 56.1981 175.133 55.0631C175.055 54.0669 175.071 53.7895 175.258 53.6382C175.446 53.4868 175.555 53.4868 175.899 53.6129L176.321 53.7643L176.212 54.9875C176.133 55.9459 176.149 56.2737 176.321 56.4503C176.54 56.6899 176.602 56.652 177.774 55.8828C178.837 55.1892 179.118 55.0757 179.79 55.0127C180.508 54.9496 180.571 54.9244 180.665 54.5461C180.712 54.3317 181.055 53.8778 181.415 53.5499C181.774 53.222 182.04 52.8941 182.008 52.8185C181.977 52.7428 181.727 52.5663 181.462 52.4276C181.196 52.2888 180.977 52.1375 180.962 52.0997C180.962 51.9988 191.18 52.0745 193.899 52.188C194.852 52.2258 195.649 52.3141 195.649 52.3771C195.649 52.4276 195.508 52.5915 195.337 52.7176C194.852 53.0707 194.649 55.5297 195.024 56.3242C195.18 56.6773 195.212 56.6773 195.462 56.4755C195.68 56.3116 195.743 55.9837 195.774 54.8488L195.821 53.4364L196.602 52.8563C197.352 52.2888 197.54 51.8853 197.243 51.5322C197.18 51.4566 196.68 51.3305 196.118 51.2422C195.571 51.1539 194.852 50.9774 194.54 50.8387C193.852 50.5612 193.102 49.8803 193.212 49.6407C193.477 49.0732 194.43 45.9332 194.649 44.8739C194.915 43.6129 194.899 41.0025 194.633 40.4729C194.462 40.1324 193.274 39.7541 191.993 39.628C191.18 39.5523 190.212 39.5776 188.243 39.7667C186.774 39.8928 184.727 40.0063 183.712 40.0063C182.68 40.0063 181.258 40.0946 180.524 40.2081C179.665 40.3342 178.915 40.372 178.399 40.3216C177.962 40.2711 176.571 40.2459 175.29 40.2585C173.165 40.2837 172.915 40.2585 171.93 39.9559C170.743 39.5902 165.993 38.947 163.071 38.7579C162.04 38.6822 158.946 38.5435 156.196 38.43C153.446 38.3165 150.555 38.203 149.758 38.1652L148.337 38.0895L147.618 36.8033C146.415 34.6343 146.383 34.5334 146.352 32.8184C146.321 31.3934 146.258 31.1034 145.758 29.8549C145.462 29.0857 145.133 28.0769 145.04 27.5977C144.868 26.6897 144.555 26.261 144.055 26.261C143.774 26.261 143.758 26.324 143.852 26.9798ZM130.462 29.237C130.758 29.5145 130.915 29.5523 131.305 29.4892C131.805 29.4136 134.383 29.6406 134.587 29.7793C134.649 29.8171 130.993 29.8549 126.462 29.8549C114.899 29.8549 105.493 30.1954 104.212 30.6494C102.618 31.2169 101.524 33.0075 100.258 37.1564C99.571 39.3884 99.5397 40.2333 100.149 40.7755C100.727 41.3052 101.79 41.5196 103.227 41.3935C103.837 41.3304 105.618 41.2295 107.212 41.1539C108.805 41.0656 114.712 40.6747 120.337 40.2585C130.524 39.5145 132.118 39.4262 140.727 39.0605C146.212 38.8335 153.399 38.9344 152.29 39.2371C151.93 39.3254 150.274 39.4388 148.305 39.5019C146.462 39.5523 144.696 39.6406 144.399 39.6784C142.774 39.9054 125.962 40.889 112.915 41.5196C98.6335 42.2131 94.8678 42.4023 94.0085 42.478C92.7585 42.5788 92.9616 42.4653 94.4772 42.2131C95.1647 42.0996 96.0085 41.8853 96.3522 41.7339C96.9147 41.4817 97.0241 41.3556 97.3991 40.4477C97.9772 39.0605 99.7428 34.256 100.18 32.9067C100.524 31.8474 100.524 31.7969 100.258 31.5573C99.5553 30.9268 97.5241 30.7881 93.7741 31.116C91.7116 31.2925 85.571 31.9987 82.7585 32.3896C76.9772 33.1841 70.3835 34.9622 67.2585 36.5889C65.5085 37.4842 61.9147 40.5233 61.446 41.4943C61.0241 42.3518 61.0085 43.2724 61.4303 43.6255C61.6803 43.8525 61.696 43.9029 61.4928 43.966C61.1491 44.0795 57.8366 44.2182 57.8366 44.1299C57.8366 44.0795 58.1491 43.7138 58.5085 43.3228C58.8835 42.9193 59.4772 42.251 59.821 41.8348C60.7741 40.6999 64.2585 37.9256 65.9616 36.9546C69.1491 35.1387 75.0866 33.0201 80.4303 31.8095C82.2741 31.3934 85.4616 30.9899 90.9616 30.4981C101.508 29.5397 125.493 28.5308 125.493 29.0353C125.493 29.1109 125.321 29.1361 125.087 29.0857C124.774 29.0227 124.696 29.0479 124.743 29.174C124.868 29.464 125.337 29.464 125.821 29.174C126.446 28.7957 127.477 28.8083 127.696 29.1866C127.837 29.4514 127.946 29.4766 128.712 29.4388C129.649 29.3884 129.837 29.0983 128.93 29.0983C128.618 29.0983 128.383 29.0227 128.337 28.9218C128.274 28.7831 128.43 28.7578 129.18 28.8209C129.915 28.8839 130.18 28.9596 130.462 29.237ZM132.79 31.343C133.321 31.3556 133.696 31.4186 133.633 31.4691C133.555 31.5321 133.227 31.5826 132.883 31.5826C132.555 31.57 132.149 31.6078 131.993 31.6456C131.696 31.7087 131.696 31.7213 131.977 31.8852C132.133 31.9861 132.493 32.0618 132.743 32.0618C133.118 32.0618 133.165 32.0996 132.993 32.1879C132.868 32.2509 132.43 32.314 132.024 32.314C131.493 32.314 131.274 32.3644 131.274 32.4905C131.274 32.7553 131.712 32.8436 132.602 32.7553C133.633 32.6418 133.743 32.5788 134.008 31.9861L134.212 31.5069L135.165 31.5195C136.399 31.5195 136.727 31.7591 137.555 33.1841C137.883 33.7642 138.649 34.8108 139.243 35.5296C140.243 36.715 141.118 38.0013 141.118 38.3039C141.118 38.4805 135.212 38.3039 132.915 38.0517C131.883 37.9382 130.368 37.7364 129.555 37.5977C128.743 37.459 127.649 37.2951 127.133 37.2194C126.618 37.1564 125.712 36.9798 125.102 36.8411C123.743 36.5132 123.055 36.5637 121.274 37.1564C120.54 37.396 119.462 37.6608 118.868 37.7364C118.274 37.8121 115.93 38.2787 113.633 38.7705C111.352 39.2623 108.712 39.8298 107.758 40.0315C105.883 40.4225 103.415 40.6116 102.524 40.4225C101.774 40.2585 101.54 39.6028 101.649 38.0517C101.79 36.0088 102.946 33.2597 104.008 32.4022C105.243 31.4186 109.571 31.1664 123.383 31.2673C128.024 31.2925 132.258 31.3304 132.79 31.343ZM95.7272 32.9319C95.821 33.058 93.946 34.0038 93.821 33.9029C93.7741 33.8777 93.8991 33.7894 94.071 33.7011C94.2585 33.6254 94.3991 33.4615 94.3991 33.3354C94.3991 33.1841 94.5866 33.0706 94.9928 32.9823C95.3053 32.9067 95.5866 32.8436 95.6022 32.831C95.6178 32.831 95.6647 32.8688 95.7272 32.9319ZM97.7272 32.894C97.7741 32.9445 96.9616 33.4741 95.9303 34.1046C93.8991 35.3026 91.2897 36.6519 91.1647 36.5637C91.0553 36.4628 93.2272 35.0756 95.3053 33.9281C97.2428 32.8562 97.5241 32.7301 97.7272 32.894ZM92.5241 32.9949C92.5241 33.0328 92.1022 33.3102 91.5866 33.6254C91.071 33.9407 90.6491 34.1677 90.6491 34.1173C90.6491 33.9659 92.0866 32.9445 92.3053 32.9445C92.4303 32.9445 92.5241 32.9697 92.5241 32.9949ZM94.2428 33.0075C94.2428 33.0328 94.0241 33.1589 93.7741 33.2597C93.5085 33.3732 92.5866 33.9029 91.696 34.4325C90.0085 35.4792 89.7116 35.6431 89.7116 35.5548C89.7116 35.454 91.8053 34.1299 92.9147 33.5246C93.9147 32.9823 94.2428 32.8562 94.2428 33.0075ZM90.6491 33.3859C90.5397 33.4867 90.3366 33.575 90.196 33.575C90.0085 33.5624 90.0241 33.512 90.321 33.3102C90.7272 33.0328 90.9616 33.0832 90.6491 33.3859ZM86.5866 33.4237C86.5866 33.5246 84.0553 35.0126 83.4616 35.2774C82.9772 35.4918 83.571 35.0883 85.0241 34.2181C86.6647 33.2471 86.5866 33.285 86.5866 33.4237ZM84.9303 33.6759C84.8366 33.7263 84.5241 33.9155 84.2272 34.1046C83.9303 34.2938 83.4772 34.5082 83.2272 34.5838L82.7585 34.7226L83.2272 34.319C83.6803 33.9281 84.8678 33.3985 85.0085 33.5246C85.0553 33.5624 85.0241 33.6254 84.9303 33.6759ZM83.2272 33.802C82.8366 34.0668 81.9147 34.5838 81.821 34.5838C81.6178 34.5838 82.0241 34.1803 82.4616 33.9407C82.8991 33.7137 83.5241 33.5876 83.2272 33.802ZM86.8366 36.5006C85.1178 40.599 84.9616 41.6204 86.0241 42.3518C86.7272 42.8437 86.6022 42.9067 84.8366 42.9067H83.5866L83.9772 42.3645C84.571 41.5322 85.0866 40.372 85.946 37.9634C86.9147 35.2522 87.571 33.7768 87.6491 34.1677C87.6803 34.3316 87.3053 35.3783 86.8366 36.5006ZM79.7428 34.4703C79.4616 34.6847 79.1803 34.8234 79.1335 34.7856C78.9928 34.6721 79.7272 34.0794 80.0085 34.0794C80.1803 34.0794 80.0866 34.2055 79.7428 34.4703ZM98.3991 34.6721C98.1647 34.836 97.6491 35.063 97.2428 35.1513C96.8366 35.2522 95.946 35.6809 95.2741 36.0971C93.7897 37.005 93.3835 37.1059 94.6178 36.2484C96.5241 34.9622 99.9147 33.5372 98.3991 34.6721ZM90.0241 34.6469C89.9147 34.7604 89.7897 34.8108 89.7272 34.773C89.6803 34.7352 89.7428 34.6469 89.8678 34.5838C90.196 34.4073 90.2428 34.4325 90.0241 34.6469ZM85.2741 35.1639C85.1022 35.2522 84.9303 35.3026 84.8835 35.2648C84.8366 35.227 84.9303 35.1135 85.0866 35.0126C85.2585 34.9243 85.4303 34.8739 85.4772 34.9117C85.5241 34.9495 85.4303 35.063 85.2741 35.1639ZM82.3678 35.0883C82.3678 35.1513 82.1335 35.3026 81.8678 35.4035L81.3522 35.6053L81.821 35.29C82.3522 34.9243 82.3678 34.9117 82.3678 35.0883ZM74.4616 35.517C74.3522 35.744 73.7116 36.0971 73.4303 36.0971C73.321 36.0845 73.4772 35.9205 73.7741 35.7188C74.3522 35.3026 74.5866 35.2396 74.4616 35.517ZM85.946 35.6683C85.8522 35.7692 85.6647 35.8449 85.5553 35.8449C85.2428 35.8449 85.2897 35.4918 85.6178 35.4287C86.0085 35.3657 86.1647 35.4666 85.946 35.6683ZM75.0241 35.9458C75.0241 36.1097 74.8366 36.2232 74.6803 36.1475C74.5241 36.0719 74.6647 35.8449 74.8835 35.8449C74.9616 35.8449 75.0241 35.8953 75.0241 35.9458ZM76.2741 36.0971C76.2741 36.1601 75.9616 36.9924 75.5866 37.9508C73.8053 42.4023 73.696 42.7932 74.1178 43.1337C74.3053 43.285 74.3522 43.2724 73.2741 43.512C72.5085 43.6759 72.3678 43.4994 72.8991 43.0454C73.1178 42.8563 73.3053 42.6041 73.3053 42.4906C73.3053 42.3771 73.4303 42.1753 73.5866 42.0492C73.7272 41.9357 74.0397 41.2926 74.2741 40.6368C74.7116 39.338 75.7741 36.3871 75.8835 36.1223C75.9616 35.9458 76.2741 35.9205 76.2741 36.0971ZM97.8366 36.2106C97.8366 36.3493 97.6647 36.9042 97.4616 37.4464C97.2585 37.9886 96.9303 38.884 96.7428 39.4388C96.3522 40.6116 96.1335 40.9395 95.446 41.2674C94.5866 41.6961 94.5085 41.6331 94.6178 40.6368C94.8366 38.8966 95.4303 37.7995 96.7897 36.6267C97.6335 35.9205 97.8366 35.8323 97.8366 36.2106ZM83.7428 36.4628C84.6335 36.5258 85.3835 36.6015 85.4147 36.6267C85.6178 36.7907 83.7741 41.1791 83.1491 41.9861C82.8678 42.3645 82.7585 42.4023 82.1022 42.4023C81.6803 42.4023 80.6178 42.4906 79.7116 42.5914C78.8053 42.6923 77.5553 42.7806 76.9147 42.7806H75.7585L75.8522 41.9861C75.8991 41.5574 76.0866 40.8638 76.2585 40.4477C77.1022 38.3417 77.8522 36.7907 78.0553 36.7024C78.6803 36.4123 81.3366 36.3115 83.7428 36.4628ZM74.4928 37.2068C74.2272 38.6192 72.9928 41.4187 72.1803 42.5284L71.6647 43.222L68.696 43.2094C65.071 43.1967 64.446 43.0833 64.5241 42.3897C64.5553 42.1501 64.6803 41.7718 64.8053 41.5448C65.0866 40.9899 66.6335 39.338 67.6178 38.5435C68.8053 37.5977 69.5085 37.3707 71.9303 37.1564C73.0553 37.0681 74.0553 36.9294 74.1491 36.8537C74.4616 36.6015 74.5866 36.7402 74.4928 37.2068ZM90.5553 37.6103C91.4616 38.1021 92.1491 38.7831 92.446 39.4893C92.696 40.0694 92.7585 41.3556 92.5553 41.5952C92.3991 41.797 89.0553 42.2005 88.3991 42.0996C87.7428 41.9988 87.3678 41.5322 87.3678 40.826C87.3678 40.5738 87.6491 39.6784 87.9928 38.8209C88.3366 37.976 88.6178 37.1816 88.6178 37.0681C88.6178 36.8789 88.6803 36.8789 89.2428 37.0429C89.5866 37.1438 90.1803 37.396 90.5553 37.6103ZM121.712 38.1904C122.399 38.5687 121.962 39.0984 121.165 38.8588C120.743 38.7327 120.54 38.2535 120.821 38.1021C121.133 37.9508 121.321 37.9634 121.712 38.1904ZM123.93 38.2156C124.29 38.3922 124.352 38.4805 124.212 38.5939C123.805 38.9218 122.837 38.657 122.837 38.2409C122.837 37.913 123.29 37.913 123.93 38.2156ZM126.196 38.4931C126.149 38.5561 126.04 38.6192 125.946 38.6192C125.868 38.6192 125.805 38.5561 125.805 38.4931C125.805 38.4174 125.915 38.367 126.055 38.367C126.18 38.367 126.243 38.4174 126.196 38.4931ZM119.977 38.6822C120.087 38.9344 119.977 39.0227 119.665 38.9218C119.274 38.8083 119.196 38.4931 119.571 38.4931C119.743 38.4931 119.915 38.5813 119.977 38.6822ZM118.68 38.9344C118.727 39.0479 118.665 39.1614 118.508 39.2119C118.243 39.3001 117.805 39.1236 117.712 38.8966C117.618 38.6696 118.571 38.7074 118.68 38.9344ZM116.868 39.2245C116.915 39.338 116.821 39.3884 116.571 39.3506C116.383 39.338 116.196 39.2371 116.149 39.1488C116.102 39.0353 116.196 38.9849 116.446 39.0227C116.633 39.0353 116.821 39.1362 116.868 39.2245ZM161.133 39.3758C165.008 39.6911 167.946 40.3468 169.727 41.3178L170.727 41.8474L170.743 42.5788C170.774 43.1715 170.868 43.4237 171.227 43.8399C171.68 44.3695 173.399 45.391 173.587 45.2522C173.774 45.0883 173.805 43.5372 173.618 43.1589C173.352 42.6293 172.352 41.9231 170.837 41.2043C170.133 40.8512 169.555 40.536 169.555 40.4981C169.555 40.4603 170.415 40.5864 171.477 40.7882C179.29 42.2762 184.305 45.1387 186.368 49.275C186.665 49.8676 186.899 50.3847 186.899 50.4225C186.899 50.4729 184.462 50.4856 181.493 50.4351C175.462 50.3595 175.696 50.3973 175.54 49.4767C175.493 49.1867 175.399 48.9219 175.321 48.884C175.055 48.7579 174.571 49.338 174.477 49.8929C174.368 50.4351 174.337 50.4729 173.868 50.4729C170.821 50.4603 157.149 50.2081 157.071 50.1577C157.008 50.1325 157.149 49.2876 157.415 48.304C157.821 46.7024 157.883 46.2359 157.899 44.1047C157.915 41.9105 157.883 41.6457 157.571 40.9521C157.368 40.5486 156.993 39.9937 156.743 39.7289L156.258 39.2497H157.883C158.79 39.2497 160.243 39.3127 161.133 39.3758ZM113.93 39.628C113.93 39.6911 113.743 39.7541 113.524 39.7541C113.305 39.7541 113.165 39.7037 113.227 39.628C113.274 39.5523 113.462 39.5019 113.633 39.5019C113.79 39.5019 113.93 39.5523 113.93 39.628ZM152.993 40.1955C152.993 40.2333 152.758 40.6116 152.477 41.0404L151.946 41.8348L151.79 41.4313C151.665 41.116 151.68 40.9773 151.837 40.8764C152.102 40.6999 152.118 40.2964 151.868 40.2207C151.758 40.1829 151.962 40.145 152.337 40.145C152.696 40.1324 152.993 40.1576 152.993 40.1955ZM148.102 41.507L148.133 42.6419L147.477 42.7176C145.118 42.9698 140.18 43.3102 136.477 43.4742C134.087 43.5751 130.899 43.739 129.399 43.8525C127.899 43.9534 122.133 44.2686 116.587 44.5461C111.04 44.8235 104.165 45.1892 101.305 45.3405C98.4303 45.4918 96.071 45.5927 96.0553 45.5549C95.9147 45.3657 96.4772 43.8273 96.8053 43.4868C97.1803 43.0833 97.2272 43.0706 98.7272 42.995C99.571 42.9445 101.633 42.8184 103.305 42.7176C106.899 42.5032 113.68 42.1753 125.18 41.6457C137.102 41.1034 143.055 40.7755 144.399 40.5738C145.04 40.4855 146.133 40.4098 146.821 40.3972L148.071 40.3846L148.102 41.507ZM191.071 40.5738C191.102 40.6494 190.962 40.7755 190.79 40.8764C190.493 41.0151 190.43 41.0151 190.321 40.8512C190.212 40.7125 190.024 40.6999 189.368 40.7755C188.915 40.8386 187.274 40.9395 185.727 41.0151C184.18 41.0782 181.993 41.2295 180.852 41.343C179.118 41.5322 178.649 41.5322 177.915 41.4061C177.446 41.3178 177.087 41.2043 177.118 41.1539C177.165 41.1034 177.571 41.053 178.024 41.0278C181.758 40.9017 189.93 40.5107 189.993 40.4477C190.149 40.3342 191.008 40.4351 191.071 40.5738ZM185.227 41.7339C184.852 41.7592 184.555 41.8222 184.555 41.8727C184.555 41.9231 183.915 41.9735 183.149 41.9735C182.368 41.9861 181.743 41.9483 181.743 41.8853C181.743 41.7213 182.227 41.6709 184.087 41.6835C185.071 41.6835 185.587 41.7087 185.227 41.7339ZM151.118 41.8979C151.118 41.9609 150.915 42.024 150.649 42.024C150.399 42.024 150.18 41.9609 150.18 41.8979C150.18 41.8222 150.399 41.7718 150.649 41.7718C150.915 41.7718 151.118 41.8222 151.118 41.8979ZM184.665 42.478C184.618 42.5158 184.477 42.5284 184.368 42.4906C184.243 42.4527 184.29 42.4149 184.462 42.4149C184.633 42.4023 184.727 42.4401 184.665 42.478ZM183.087 42.6923C182.524 42.831 182.493 42.8563 182.743 43.0328C183.008 43.1967 183.008 43.222 182.727 43.3733C182.493 43.5246 182.477 43.5624 182.68 43.6633C183.071 43.8651 183.493 43.802 183.571 43.5372C183.665 43.2472 184.477 43.0328 185.493 43.0328C186.133 43.0454 186.165 43.058 185.899 43.222C185.649 43.3733 185.633 43.4363 185.805 43.6003C185.977 43.7642 185.868 43.7894 184.899 43.7894C184.258 43.7894 183.743 43.8525 183.68 43.9281C183.524 44.1425 183.915 44.2812 184.54 44.2182C185.102 44.1677 185.102 44.1677 184.68 44.3191C184.18 44.4956 184.102 44.7983 184.555 44.7983C184.758 44.7983 184.868 44.8865 184.868 45.0379C184.868 45.1766 185.087 45.4036 185.337 45.5549C185.602 45.7062 185.805 45.9332 185.805 46.0719C185.805 46.2359 185.915 46.3115 186.18 46.3115C186.399 46.3115 186.618 46.2485 186.665 46.1854C186.852 45.9458 187.055 46.0593 186.977 46.3493C186.915 46.5385 186.962 46.7024 187.118 46.8033C187.383 46.9799 187.43 47.3077 187.274 47.7995L187.165 48.0896L186.805 47.8122C186.587 47.6482 186.196 47.2321 185.93 46.8916C185.212 45.971 184.415 45.1766 184.18 45.1766C184.071 45.1766 183.758 44.9244 183.477 44.6091C183.196 44.2812 182.68 43.8903 182.352 43.7138C181.868 43.4742 181.743 43.3355 181.743 43.0454C181.743 42.7932 181.649 42.6545 181.477 42.6167C181.321 42.5788 181.758 42.5536 182.446 42.5536C183.649 42.5536 183.665 42.5536 183.087 42.6923ZM152.899 43.1085C152.821 43.3355 152.899 43.512 153.165 43.739C153.462 43.9912 153.477 44.0416 153.243 44.0416C153.102 44.0416 152.946 43.9534 152.899 43.8525C152.774 43.6003 152.415 43.6129 152.227 43.8777C151.993 44.2308 151.883 43.9912 152.071 43.5246C152.305 42.995 152.493 42.7806 152.774 42.7806C152.93 42.7806 152.977 42.8689 152.899 43.1085ZM95.696 43.6759C95.4303 44.0038 95.2272 44.4452 95.1803 44.8361C95.1022 45.4162 95.0553 45.4792 94.6335 45.5801C94.3835 45.6432 92.5085 45.7693 90.4772 45.8702C88.446 45.9584 86.5866 46.0845 86.3366 46.135C85.6022 46.2737 85.9928 46.0719 86.9147 45.8323C87.8053 45.6053 88.2897 45.1514 88.0866 44.7352C88.0085 44.5461 87.8522 44.5208 87.0553 44.5839C86.1647 44.6469 86.1022 44.6343 85.7897 44.2812C85.3991 43.8399 84.8678 43.802 84.0866 44.1804C83.3366 44.5587 83.1491 44.7857 83.321 45.1514C83.6022 45.7314 83.4928 46.0215 82.9772 46.1728C82.696 46.2485 82.2741 46.3115 82.0241 46.3115C81.571 46.3115 81.5553 46.2989 81.6647 45.7693C81.7272 45.4792 81.9928 44.8992 82.2741 44.483L82.7897 43.7264L84.571 43.6255C87.6022 43.4616 96.0397 43.0833 96.0866 43.1085C96.1178 43.1211 95.946 43.3733 95.696 43.6759ZM151.118 43.8399C151.118 43.9408 151.055 44.0669 150.962 44.1047C150.883 44.1425 150.805 44.0669 150.805 43.9281C150.805 43.7768 150.883 43.6633 150.962 43.6633C151.055 43.6633 151.118 43.739 151.118 43.8399ZM81.3522 44.4452C81.1491 44.8109 80.8991 45.3783 80.8053 45.7062C80.6335 46.2611 80.5866 46.2863 79.9772 46.362C78.6803 46.5007 72.9928 46.8159 72.9928 46.7529C72.9928 46.7403 73.446 46.5385 74.0085 46.3241C75.6491 45.6684 75.7741 45.1387 74.321 44.9874C73.821 44.937 73.1491 44.8235 72.8053 44.7226C71.9303 44.4704 71.3835 44.4956 70.8835 44.8235C70.5085 45.0631 70.4616 45.1514 70.5397 45.6053C70.5866 45.8954 70.6803 46.2359 70.7272 46.3872C70.8835 46.7781 70.4303 47.0681 69.696 47.0681C68.9303 47.0681 68.9147 46.9799 69.696 45.4288L70.2741 44.2308L73.0866 44.1425C74.6178 44.0921 76.7272 43.9912 77.7585 43.9408C78.7897 43.8777 80.1022 43.8147 80.6803 43.802L81.7272 43.7894L81.3522 44.4452ZM189.868 44.0416C189.868 44.1047 189.805 44.1677 189.712 44.1677C189.633 44.1677 189.555 44.1047 189.555 44.0416C189.555 43.966 189.633 43.9155 189.712 43.9155C189.805 43.9155 189.868 43.966 189.868 44.0416ZM191.649 44.483C191.79 44.6469 192.04 44.8992 192.227 45.0379C192.415 45.1766 192.508 45.3405 192.462 45.4036C192.243 45.6936 192.321 46.9546 192.571 47.169C192.805 47.3708 192.805 47.4717 192.587 48.2031C192.462 48.6571 192.337 49.4515 192.321 49.9685L192.29 50.9143L192.883 51.0278C193.196 51.0909 193.462 51.1917 193.462 51.2548C193.462 51.3052 191.196 51.3557 188.43 51.3557C185.118 51.3557 183.462 51.3052 183.618 51.2296C183.743 51.1665 184.743 51.1035 185.837 51.1035C188.227 51.1035 188.196 51.1287 187.743 49.3632C187.68 49.1362 187.743 49.0858 188.071 49.0858C189.774 49.0858 190.899 47.6482 191.087 45.2018C191.118 44.6343 191.212 44.1677 191.274 44.1677C191.337 44.1677 191.508 44.3065 191.649 44.483ZM147.368 44.6974C147.368 44.7478 146.946 44.7983 146.415 44.7983C145.837 44.7983 145.508 44.7478 145.571 44.6722C145.618 44.5965 145.837 44.5461 146.04 44.5461C146.243 44.5461 146.446 44.4956 146.508 44.42C146.618 44.2812 147.368 44.5208 147.368 44.6974ZM69.071 44.9748C68.821 45.2901 68.4928 45.908 68.3522 46.362L68.1022 47.1816L67.321 47.3203C65.946 47.5599 64.7897 48.1652 63.4147 49.3506C62.3835 50.246 62.0866 50.4351 61.8678 50.3342C61.7272 50.2712 60.9772 50.0946 60.2272 49.9433C59.0241 49.6911 58.446 49.6533 55.571 49.6659C51.8991 49.6659 50.3991 49.8172 47.8835 50.4982C45.6803 51.0909 42.4616 52.768 40.821 54.1804C40.1022 54.8235 39.8678 54.8614 39.696 54.3696C39.6335 54.2056 39.1803 53.0707 38.696 51.8601C37.4147 48.6571 36.7272 46.0593 37.1803 46.0593C37.4616 46.0593 45.4147 45.6432 54.0085 45.1766C67.321 44.4578 67.3366 44.4578 68.4928 44.4326L69.5397 44.42L69.071 44.9748ZM85.0241 44.9244C85.0241 45.0883 84.9147 45.1766 84.7116 45.1766C84.5085 45.1766 84.3991 45.0883 84.3991 44.9244C84.3991 44.7604 84.5085 44.6722 84.7116 44.6722C84.9147 44.6722 85.0241 44.7604 85.0241 44.9244ZM121.899 45.0631C121.899 45.3153 120.477 46.7781 120.102 46.9168C119.227 47.2447 117.805 47.3456 107.915 47.7617C105.508 47.8626 102.415 47.9761 101.04 48.0139C99.6647 48.0518 97.8835 48.1148 97.1022 48.1526L95.6491 48.2157V47.4843C95.6491 46.1476 95.5241 46.2232 97.9616 46.135C102.696 45.9458 107.321 45.6432 107.915 45.4792C108.368 45.3531 109.477 45.3027 111.977 45.2901C113.868 45.2901 116.368 45.2018 117.524 45.1135C120.305 44.8992 121.899 44.8865 121.899 45.0631ZM72.2897 45.3783C72.6022 45.6306 72.5241 45.8575 72.1178 45.908C71.6491 45.9584 71.3835 45.744 71.5085 45.4414C71.6335 45.1261 71.9303 45.1009 72.2897 45.3783ZM145.102 45.4162C145.008 45.4792 144.102 45.5549 143.071 45.5801C141.352 45.6306 141.258 45.6179 141.977 45.4792C142.899 45.3027 145.321 45.2522 145.102 45.4162ZM146.508 46.0467C146.727 46.1224 146.493 46.1728 145.727 46.2359C145.133 46.2863 144.258 46.3493 143.821 46.3872C143.29 46.4376 142.993 46.425 142.993 46.3367C142.993 46.2611 143.399 46.1728 143.899 46.1224C144.383 46.0719 144.868 46.0215 144.946 45.9963C145.227 45.9206 146.196 45.9458 146.508 46.0467ZM142.133 46.3115C141.68 46.4628 139.821 46.4628 139.946 46.3115C139.993 46.2359 140.587 46.1854 141.243 46.198C142.055 46.198 142.352 46.2359 142.133 46.3115ZM94.7116 47.3077V48.2913L91.1647 48.3796C89.196 48.4175 86.1803 48.4931 84.4303 48.5309L81.2585 48.6192L81.3053 47.8122L81.3522 47.0051L82.2116 46.9168C82.6803 46.8664 85.5397 46.715 88.5397 46.5889C91.5553 46.4502 94.1647 46.3367 94.3678 46.3241C94.696 46.3115 94.7116 46.3493 94.7116 47.3077ZM139.243 46.362C139.243 46.4628 138.446 46.5259 138.368 46.425C138.321 46.362 138.508 46.3115 138.758 46.3115C139.024 46.3115 139.243 46.3367 139.243 46.362ZM146.399 46.879C146.352 46.9168 146.04 46.9799 145.712 47.0303C145.29 47.0808 145.149 47.0555 145.258 46.9673C145.352 46.8916 145.633 46.8159 145.883 46.7907C146.383 46.7403 146.54 46.7781 146.399 46.879ZM80.571 47.85C80.5085 48.2913 80.446 48.6571 80.4147 48.6823C80.3991 48.6949 78.8053 48.7705 76.8835 48.8462C74.9616 48.9093 72.3991 49.048 71.196 49.1362C69.9928 49.2245 68.9616 49.275 68.8991 49.2497C68.696 49.1615 68.7585 48.1652 68.9772 47.8248L69.1803 47.5095L73.4616 47.3077C75.821 47.1942 78.4147 47.0934 79.2116 47.0934L80.6803 47.0681L80.571 47.85ZM36.1803 47.7743C36.3522 48.14 36.2741 48.3292 35.9616 48.3292C35.6178 48.3292 35.6022 48.2913 35.7428 47.85C35.8522 47.5221 36.0397 47.4843 36.1803 47.7743ZM144.79 47.686C144.696 47.8248 144.087 47.8122 144.087 47.6734C144.087 47.623 144.274 47.5726 144.493 47.5726C144.712 47.5726 144.852 47.623 144.79 47.686ZM67.9928 48.6949V49.4263L67.2897 49.6533C66.3522 49.9433 65.8053 50.3216 65.0866 51.2044C64.7741 51.5953 64.4928 51.9358 64.4616 51.961C64.3991 52.0366 62.8366 51.4566 62.8366 51.3557C62.8366 51.3052 63.1178 50.9143 63.4772 50.4856C64.4303 49.3254 65.8678 48.4048 67.2116 48.0644C67.9616 47.8878 67.9928 47.913 67.9928 48.6949ZM149.415 49.048C149.258 49.2624 149.258 49.2624 149.243 49.0228C149.243 48.884 149.305 48.6318 149.368 48.4553L149.477 48.14L149.524 48.4805C149.555 48.6697 149.508 48.9219 149.415 49.048ZM142.258 48.4553C143.118 48.4553 143.79 48.4805 143.743 48.5183C143.712 48.5562 142.899 48.6066 141.93 48.6318C140.571 48.6697 140.133 48.6444 139.915 48.4931C139.665 48.3292 139.68 48.3166 140.165 48.3796C140.446 48.4175 141.399 48.4553 142.258 48.4553ZM138.43 48.5436C138.274 48.5688 138.024 48.5688 137.883 48.5436C137.727 48.5057 137.852 48.4805 138.149 48.4805C138.446 48.4805 138.571 48.5057 138.43 48.5436ZM94.6803 49.2371C94.7741 49.338 94.8366 50.3468 94.8522 51.6709C94.8678 54.1426 95.1022 58.014 95.3366 59.6155C95.4303 60.183 95.4303 60.6622 95.3522 60.7252C95.2741 60.7883 92.5085 60.8135 89.1491 60.7883C83.946 60.7504 82.9928 60.7126 82.5085 60.5361L81.9303 60.3343L81.8366 58.8967C81.7741 58.1149 81.6647 55.9333 81.5866 54.0669C81.4928 52.188 81.3835 50.4225 81.3366 50.1451L81.2428 49.6154L82.7897 49.5398C83.6335 49.5019 86.2897 49.4011 88.696 49.3254C91.0866 49.2624 93.0866 49.1741 93.1335 49.1362C93.2897 49.0101 94.5241 49.0984 94.6803 49.2371ZM36.946 50.1829C37.3678 51.3683 37.3678 51.4187 36.7741 51.4566C36.321 51.4944 36.2428 51.444 36.0553 51.0782C35.9303 50.8513 35.7897 50.3973 35.7272 50.0568L35.6178 49.4641H36.1491C36.6803 49.4641 36.696 49.4893 36.946 50.1829ZM80.5553 52.0745C80.696 55.5171 80.9616 59.8046 81.0553 60.1956C81.1491 60.5108 81.1178 60.5234 80.1491 60.6117C79.6178 60.6495 77.0085 60.6495 74.3835 60.6117L69.5866 60.5234L69.4928 59.9434C69.3835 59.212 69.1335 55.5297 68.9928 52.415L68.8991 50.0064L71.1335 49.9055C74.4616 49.7668 78.071 49.6281 79.3366 49.6154L80.4616 49.5902L80.5553 52.0745ZM57.8366 50.3468C58.6491 50.3847 59.071 50.4477 58.7741 50.4603C57.7116 50.4982 52.8678 50.536 52.9147 50.4982C52.946 50.4729 53.3053 50.4099 53.7272 50.3468C54.6647 50.2207 55.9147 50.2207 57.8366 50.3468ZM67.8366 50.6243C67.8366 50.7882 67.946 52.2762 68.0553 53.9408C68.1803 55.6054 68.3366 57.7744 68.3991 58.758L68.5085 60.5613H67.7897C66.9772 60.5613 66.321 60.9018 66.4772 61.2296C66.5553 61.3936 66.7897 61.444 67.5085 61.444C68.0241 61.444 68.4772 61.4944 68.5241 61.5575C68.6803 61.7467 67.821 61.8475 66.6647 61.7593L65.5553 61.671L65.3678 60.246C65.0866 58.0644 64.446 56.6142 63.3678 55.6432C62.5866 54.9496 61.9928 54.6974 60.7272 54.4957C59.2897 54.2687 55.071 54.2687 53.9303 54.4831C52.7897 54.71 51.5085 55.0884 51.0397 55.3406C50.7897 55.4793 50.5085 55.5171 50.1803 55.4541C49.2116 55.2775 47.6803 56.4503 47.0866 57.7996C46.7116 58.7075 46.4303 59.956 46.4303 60.8387V61.444H45.0553C44.2897 61.444 42.3991 61.4062 40.8522 61.3557L38.0397 61.2801L38.3053 60.5739C39.6178 57.1186 42.6178 54.2056 46.5085 52.6545C50.9616 50.8639 57.0397 50.6747 62.071 52.1627C62.6178 52.3267 63.4303 52.5789 63.8522 52.7176C64.3835 52.8941 64.7272 52.932 64.8991 52.8563C65.0397 52.7933 65.5397 52.2888 66.0241 51.7466C67.1491 50.4477 67.8366 50.0316 67.8366 50.6243ZM60.4147 50.7252C60.5397 50.8891 60.1803 50.8891 59.8678 50.7252C59.6803 50.6243 59.696 50.5991 59.9772 50.5991C60.1647 50.5991 60.3678 50.6495 60.4147 50.7252ZM131.321 52.3519C132.04 52.4906 132.618 52.8941 132.727 53.3229C132.79 53.6256 132.602 53.7517 132.493 53.4742C132.399 53.2472 131.915 53.449 131.727 53.8021C131.462 54.2435 131.649 54.5083 132.212 54.5083C132.837 54.5083 132.805 54.7353 132.133 55.2649C131.837 55.5045 131.587 55.7567 131.587 55.845C131.587 55.9206 131.805 56.362 132.055 56.816C132.321 57.2826 132.524 57.6861 132.524 57.7239C132.524 57.7618 132.368 57.7618 132.165 57.7239C131.837 57.6483 131.821 57.6861 131.774 58.6067C131.743 59.3633 131.774 59.5651 131.977 59.6281C132.29 59.729 132.274 59.8677 131.883 60.3091C131.696 60.5108 131.587 60.763 131.633 60.8639C131.805 61.2044 131.602 61.0909 131.352 60.6874C131.087 60.2838 131.04 59.0228 131.258 58.2536C131.43 57.6861 131.258 57.6483 130.649 58.1401C129.665 58.9471 130.008 61.3936 131.196 62.0241C131.508 62.188 131.555 62.2763 131.43 62.4654C131.337 62.5915 131.305 62.8438 131.368 63.0329C131.462 63.3356 131.446 63.3608 131.102 63.2725C129.462 62.869 128.587 60.183 129.383 58.0392C129.899 56.6899 129.587 55.9963 128.93 57.0304C127.696 58.985 127.993 62.1628 129.54 63.4995C130.462 64.3192 131.383 64.4327 131.915 63.8021C132.118 63.5878 132.68 63.0455 133.18 62.6042C134.087 61.8097 134.43 61.1666 133.774 61.444C133.337 61.6332 133.383 61.4818 133.93 60.99C134.43 60.5234 134.946 59.8046 134.758 59.8046C134.696 59.8046 134.493 59.9308 134.29 60.0821C133.727 60.5108 133.665 60.2208 134.227 59.7542C134.68 59.3759 134.712 59.2876 134.587 58.9093C134.446 58.4679 134.399 58.4553 133.852 58.6193C133.571 58.7075 133.571 58.6823 133.915 58.3797C134.29 58.0392 134.243 57.787 133.805 57.787C133.602 57.787 133.524 57.6861 133.54 57.4339C133.54 57.1943 133.43 57.0556 133.196 56.9673C132.993 56.9043 132.837 56.7782 132.837 56.7025C132.837 56.5512 133.649 55.6558 133.79 55.6432C133.837 55.6432 134.071 56.0341 134.321 56.5259C134.633 57.1565 134.727 57.5222 134.665 57.85C134.587 58.2157 134.618 58.2914 134.868 58.2914C135.087 58.2914 135.18 58.4553 135.321 59.0859C135.555 60.1956 135.54 60.3091 135.18 60.3091C134.899 60.3091 134.868 60.3973 134.868 61.3936C134.868 62.4781 134.868 62.4781 135.243 62.4276C135.555 62.3772 135.665 62.4402 135.821 62.7429C136.008 63.1086 136.977 63.5752 137.571 63.5878C137.883 63.5878 137.852 63.7643 137.274 65.2397C136.852 66.299 136.18 67.2322 135.618 67.5474C135.43 67.6609 134.915 67.951 134.477 68.1906C132.977 69.0355 132.087 69.3255 130.883 69.3255C129.649 69.3255 128.899 69.0607 127.321 68.0519C126.18 67.3331 125.837 66.9295 126.087 66.6017C126.258 66.3999 126.212 66.2612 125.883 65.8072C125.274 64.9749 124.587 63.3356 124.321 62.1124C124.071 60.9522 124.024 58.3797 124.243 57.3456C124.305 56.9925 124.337 56.6899 124.321 56.6773C124.29 56.652 124.118 56.6647 123.946 56.7151C123.587 56.8034 123.305 57.4087 123.133 58.4806C123.008 59.2372 123.008 59.2372 123.055 58.2914C123.087 57.7239 123.258 57.0177 123.462 56.5259C123.946 55.4162 125.008 53.7138 125.305 53.5751C125.446 53.5121 125.837 53.2472 126.18 52.9824C126.758 52.5663 126.946 52.5032 128.071 52.3897C129.743 52.2258 130.602 52.2258 131.321 52.3519ZM38.0553 52.9824C38.446 53.9534 38.4147 54.0039 37.5397 54.0039C36.7897 54.0039 36.7741 53.9913 36.5241 53.4994C36.3835 53.222 36.2741 52.8437 36.2741 52.6798C36.2741 52.3897 36.3366 52.3645 37.0397 52.3645H37.8053L38.0553 52.9824ZM180.649 52.932C180.649 52.9698 180.102 53.222 179.43 53.4868C178.743 53.7643 177.977 54.1426 177.712 54.3191C177.305 54.5966 177.212 54.6218 177.212 54.4452C177.212 54.0543 178.149 53.5121 179.368 53.1968C180.774 52.8311 180.649 52.8563 180.649 52.932ZM169.68 53.739C169.727 53.8651 169.649 53.8778 169.383 53.8147C168.962 53.7012 168.758 53.4994 168.883 53.3355C168.977 53.2094 169.587 53.5121 169.68 53.739ZM142.758 53.4742C142.54 53.6508 140.352 53.8651 138.774 53.8651C137.274 53.8778 135.337 53.6634 135.102 53.4868C135.071 53.4616 136.805 53.4364 138.946 53.4238C141.087 53.4238 142.805 53.449 142.758 53.4742ZM145.274 53.9408C145.102 54.0417 144.758 54.13 144.493 54.13C143.93 54.13 144.04 54.0039 144.743 53.8778C145.508 53.7264 145.602 53.739 145.274 53.9408ZM143.508 54.2182C143.399 54.2435 143.212 54.2435 143.118 54.2182C143.008 54.1804 143.087 54.1552 143.305 54.1552C143.524 54.1552 143.602 54.1804 143.508 54.2182ZM133.462 54.5083C133.571 54.6848 133.587 54.8361 133.477 54.9875C133.337 55.164 133.321 55.1514 133.305 54.8488C133.305 54.6596 133.243 54.5083 133.149 54.5083C133.071 54.5083 132.993 54.4452 132.993 54.3822C132.993 54.1678 133.29 54.2435 133.462 54.5083ZM173.008 54.5083C173.493 54.8235 173.196 54.8361 172.68 54.5083C172.462 54.3696 172.368 54.2561 172.462 54.2561C172.571 54.2561 172.805 54.3696 173.008 54.5083ZM191.477 54.5966C191.368 54.6218 191.149 54.6218 191.008 54.5966C190.852 54.5587 190.946 54.5335 191.196 54.5335C191.462 54.5335 191.571 54.5587 191.477 54.5966ZM40.9616 55.2019C40.8522 55.3153 40.7272 55.3658 40.6803 55.328C40.6335 55.3027 40.696 55.1892 40.8053 55.0757C40.9147 54.9623 41.0397 54.9118 41.0866 54.9496C41.1335 54.9749 41.071 55.0884 40.9616 55.2019ZM39.0866 55.2649C39.2897 55.3658 39.2585 55.4667 38.9147 55.9837C38.696 56.3116 38.3991 56.6268 38.2585 56.7025C37.8835 56.8916 37.4303 56.4629 37.2897 55.8072C37.2116 55.3658 37.2272 55.2775 37.4772 55.2271C37.9928 55.1262 38.8522 55.1388 39.0866 55.2649ZM58.4303 55.3153C57.8366 55.6684 58.3366 56.2107 59.321 56.299C59.7585 56.3368 59.7897 56.3116 59.8366 55.8576C59.8835 55.4288 59.9303 55.391 60.3522 55.391C61.0085 55.391 60.9147 55.7315 60.0085 56.652C59.7585 56.8916 59.5085 57.2826 59.4616 57.5222C59.3522 57.9257 59.3678 57.9383 59.6803 57.7996C59.8678 57.7239 60.3053 57.3204 60.6491 56.9043C61.4303 55.9711 61.7585 55.8072 62.2897 56.0972C62.6491 56.2863 62.6647 56.3242 62.4616 56.6268C62.3366 56.816 61.9147 57.27 61.5241 57.6483C60.4928 58.6067 60.4616 58.6823 60.7272 59.3128C60.8678 59.6155 60.9303 59.9308 60.8991 60.019C60.8522 60.1073 60.8835 60.2082 60.9616 60.246C61.0553 60.2965 61.1178 60.4478 61.1178 60.6117C61.1178 60.763 61.196 60.9522 61.3053 61.0405C61.4303 61.1414 61.4303 61.2296 61.2585 61.3936C61.1335 61.5071 60.7585 62.0367 60.3991 62.5663L59.7741 63.5247L58.1803 63.5625C56.6178 63.6004 56.5866 63.6004 56.5866 63.903C56.5866 64.1426 56.696 64.2309 57.1803 64.3318C57.4928 64.4074 57.9147 64.4705 58.1022 64.4705C58.8053 64.4705 60.1491 63.9409 61.4772 63.1338C62.8053 62.3267 62.8522 62.2763 62.7741 61.898C62.7116 61.6079 62.7897 61.3179 63.0553 60.9018C63.3835 60.3721 63.3991 60.2965 63.1803 60.1956C62.9616 60.0947 62.9616 60.0569 63.196 59.7542C63.4928 59.4011 64.0241 59.1237 64.1491 59.275C64.321 59.502 64.5553 60.9522 64.4616 61.2548C64.4147 61.4314 64.2272 61.6584 64.0553 61.7467C63.7897 61.898 63.7741 61.961 63.9303 62.2006C64.0866 62.4402 64.0397 62.6168 63.5397 63.3986C62.7272 64.7101 61.946 65.2902 60.6335 65.6054C59.9303 65.782 59.5085 65.9585 59.3835 66.1351C59.2272 66.3747 59.1022 66.3873 57.6647 66.3368L56.1178 66.2864V66.6395C56.1178 67.56 54.3678 66.589 53.0866 64.9497C51.071 62.3646 50.4772 59.2876 51.6647 57.4087C52.7428 55.7063 54.0241 55.164 56.9772 55.1514C58.446 55.1514 58.6491 55.1766 58.4303 55.3153ZM189.555 56.1476C189.68 56.2107 189.727 56.299 189.665 56.3494C189.602 56.3998 189.43 56.3494 189.29 56.2359C189.008 56.0089 189.165 55.9459 189.555 56.1476ZM116.43 57.2826C116.165 58.077 116.04 57.7744 116.29 56.9421C116.415 56.5007 116.524 56.3242 116.555 56.4881C116.587 56.6394 116.524 56.9925 116.43 57.2826ZM140.571 56.3998C140.118 56.5512 138.883 56.5512 139.008 56.3998C139.055 56.3242 139.508 56.2737 139.993 56.2863C140.633 56.2863 140.79 56.3242 140.571 56.3998ZM110.18 56.7782C110.18 56.9169 110.305 57.1312 110.462 57.2447C110.665 57.4213 110.696 57.5348 110.571 57.7492C110.493 57.9131 110.368 58.0392 110.305 58.0392C110.227 58.0392 110.18 57.9131 110.18 57.7492C110.165 57.5978 110.071 57.2573 109.962 56.9925C109.774 56.6016 109.774 56.5259 109.962 56.5259C110.087 56.5259 110.18 56.6394 110.18 56.7782ZM141.43 56.9043C141.712 57.0556 140.665 57.0556 139.946 56.9043C139.555 56.8286 139.618 56.8034 140.337 56.7908C140.805 56.7908 141.305 56.8412 141.43 56.9043ZM143.102 56.8538C143.055 56.8916 142.915 56.9043 142.805 56.8664C142.68 56.8286 142.727 56.7908 142.899 56.7908C143.071 56.7782 143.165 56.816 143.102 56.8538ZM62.8522 57.4465C62.5866 57.6609 62.4772 57.4591 62.7116 57.1691C62.8835 56.9421 62.9303 56.9295 62.9616 57.106C62.9928 57.2195 62.946 57.3708 62.8522 57.4465ZM144.508 57.0556C144.071 57.1439 143.852 57.1439 143.727 57.043C143.602 56.9421 143.758 56.9043 144.337 56.9169L145.102 56.9295L144.508 57.0556ZM37.5866 57.5474C37.6803 57.623 37.6178 57.8753 37.3991 58.2283C37.2116 58.5436 37.0553 58.8967 37.0553 58.9976C37.0553 59.4263 36.6022 58.8967 36.5085 58.3545C36.3522 57.5474 36.5085 57.2447 37.0241 57.3456C37.2585 57.3835 37.5085 57.4843 37.5866 57.5474ZM146.383 57.7618C151.29 57.8122 155.368 57.8879 155.43 57.9383C155.493 58.0014 154.602 58.0518 153.446 58.0518C152.29 58.0644 148.852 58.1022 145.805 58.1527C140.305 58.2283 140.258 58.2283 140.212 58.4932C140.165 58.7328 140.087 58.758 139.477 58.6949C139.102 58.6697 138.54 58.6823 138.212 58.7328L137.633 58.8084L137.977 59.0859C138.368 59.4011 138.962 59.4263 151.087 59.4642L157.696 59.4894L157.602 59.8046C157.555 59.9812 157.493 60.2208 157.477 60.3343C157.446 60.6117 157.212 60.6369 157.212 60.3595C157.212 60.0695 156.837 60.2208 156.774 60.5361C156.743 60.7378 156.837 60.8513 157.118 60.9396C157.321 61.0026 157.587 61.1666 157.68 61.3179C157.774 61.4566 157.915 61.5449 158.008 61.5071C158.087 61.4566 158.149 61.4818 158.149 61.5575C158.149 61.7214 157.633 61.9484 157.227 61.9484C157.055 61.9484 156.821 62.0619 156.696 62.2006C156.477 62.4654 156.415 62.4654 151.18 62.3267C148.258 62.2511 143.915 62.1502 141.524 62.0997L137.165 62.0115L136.805 60.019C136.618 58.9345 136.399 57.9131 136.352 57.7744C136.243 57.5222 136.274 57.5096 136.837 57.5978C137.18 57.6357 141.462 57.7239 146.383 57.7618ZM189.087 58.1653C188.774 58.3292 187.837 58.3292 187.837 58.1653C187.837 58.0896 188.165 58.0392 188.587 58.0392C189.118 58.0392 189.258 58.077 189.087 58.1653ZM116.04 58.8589C115.993 59.1867 115.899 59.4137 115.852 59.3759C115.805 59.3381 115.821 59.048 115.883 58.7328C115.93 58.4049 116.024 58.1779 116.071 58.2157C116.118 58.2536 116.102 58.5436 116.04 58.8589ZM182.758 58.2914C182.712 58.3545 182.602 58.4175 182.508 58.4175C182.43 58.4175 182.368 58.3545 182.368 58.2914C182.368 58.2157 182.477 58.1653 182.618 58.1653C182.743 58.1653 182.805 58.2157 182.758 58.2914ZM185.805 58.2914C185.493 58.4553 185.024 58.4553 185.024 58.2914C185.024 58.2157 185.258 58.1653 185.54 58.1653C185.915 58.1653 185.977 58.2031 185.805 58.2914ZM61.7116 58.5436C61.4928 58.821 61.3366 58.7832 61.4772 58.4806C61.5397 58.3797 61.6491 58.2914 61.7428 58.2914C61.8366 58.2914 61.8366 58.3797 61.7116 58.5436ZM63.7897 58.5184C63.6178 58.7706 62.9928 59.2498 62.9928 59.1237C62.9928 59.0732 63.1491 58.8715 63.3366 58.6697C63.7116 58.2662 64.0397 58.1527 63.7897 58.5184ZM197.258 58.5688C197.196 58.6571 197.04 59.1615 196.899 59.6785L196.665 60.6243L195.571 60.6622L194.462 60.7L194.524 59.8173C194.587 58.9471 194.587 58.9345 194.165 58.8463C193.946 58.7958 193.008 58.7958 192.087 58.821C189.899 58.8967 190.587 58.6949 192.977 58.5562C195.946 58.3923 197.399 58.3923 197.258 58.5688ZM154.212 58.8841C154.055 58.9093 153.774 58.9093 153.587 58.8841C153.383 58.8589 153.508 58.8336 153.852 58.8336C154.196 58.821 154.352 58.8463 154.212 58.8841ZM157.258 58.8841C157.149 58.9093 156.93 58.9093 156.79 58.8841C156.633 58.8463 156.727 58.821 156.977 58.821C157.243 58.821 157.352 58.8463 157.258 58.8841ZM188.618 58.8589C188.618 58.8967 188.477 59.0354 188.29 59.1867C187.993 59.4263 187.946 59.4263 187.696 59.2498C187.352 58.9976 187.29 58.9976 186.993 59.2498C186.665 59.502 186.68 60.1704 187.008 60.4604C187.337 60.7504 187.821 60.7504 187.962 60.4604C188.04 60.2965 188.087 60.3217 188.149 60.6243C188.227 60.927 188.305 61.0026 188.618 60.9774C188.837 60.9774 189.946 60.9018 191.102 60.8261C192.524 60.7252 193.258 60.7252 193.352 60.8009C193.446 60.8765 193.477 60.9774 193.415 61.0152C193.368 61.0657 191.524 61.1287 189.352 61.1666L185.383 61.2296L185.696 60.4352L186.024 59.6407L185.649 59.4011C185.337 59.1993 185.04 59.1741 183.368 59.1867C180.352 59.212 180.68 58.9976 183.774 58.9219C185.274 58.8841 186.977 58.8336 187.571 58.821C188.149 58.8084 188.618 58.821 188.618 58.8589ZM47.7897 59.3255C47.7428 59.4137 47.7116 59.3507 47.7116 59.1741C47.7116 58.9976 47.7428 58.9345 47.7897 59.0102C47.821 59.0985 47.821 59.2498 47.7897 59.3255ZM180.571 59.0354C180.477 59.1111 179.696 59.1993 178.805 59.2498C177.93 59.3002 177.087 59.4011 176.946 59.4894C176.571 59.7164 176.462 61.0783 176.805 61.3053C177.133 61.5323 177.743 61.3936 177.962 61.0405C178.133 60.7504 178.133 60.7504 178.133 61.0909L178.149 61.444H181.165C182.821 61.444 184.071 61.4944 183.962 61.5575C183.696 61.6836 178.524 61.7719 176.508 61.6836L175.587 61.6332L175.555 60.6622C175.54 60.1325 175.477 59.6281 175.415 59.5398C175.337 59.4516 175.071 59.4263 174.696 59.4768C174.352 59.5146 174.087 59.5272 174.087 59.4894C174.087 59.275 175.274 59.1237 177.68 59.048C179.18 58.9976 180.477 58.9598 180.571 58.9471C180.665 58.9345 180.665 58.9598 180.571 59.0354ZM172.446 59.4137C172.352 59.4768 171.602 59.5524 170.758 59.5777C169.508 59.6029 169.29 59.5903 169.508 59.4516C169.821 59.275 172.68 59.2372 172.446 59.4137ZM110.071 59.956C109.993 60.0695 109.555 60.0947 109.555 59.9938C109.555 59.956 109.649 59.8173 109.743 59.6785C109.93 59.4516 109.946 59.4389 110.04 59.6533C110.102 59.7668 110.118 59.9055 110.071 59.956ZM168.227 59.5524C168.18 59.6155 167.93 59.6785 167.665 59.6785C167.415 59.6785 167.212 59.6155 167.212 59.5524C167.212 59.4768 167.462 59.4263 167.774 59.4263C168.102 59.4263 168.29 59.4768 168.227 59.5524ZM166.383 60.5739C166.477 61.0909 166.571 61.5197 166.571 61.5449C166.587 61.5575 166.93 61.5449 167.352 61.4944C168.024 61.4188 168.133 61.444 168.29 61.6836C168.477 61.9484 168.54 61.9484 171.087 61.8854C173.102 61.8349 173.602 61.8475 173.305 61.961C173.071 62.0493 171.29 62.1502 168.93 62.2006C166.743 62.2637 164.79 62.352 164.602 62.3898C164.399 62.4402 164.243 62.4276 164.243 62.352C164.243 62.1628 164.587 61.9862 165.165 61.8854L165.696 61.7971L165.602 60.7504C165.508 59.7038 165.587 59.5146 166.04 59.6029C166.133 59.6155 166.274 60.0569 166.383 60.5739ZM47.6178 60.7883C47.4147 60.9396 47.3366 60.6748 47.4616 60.2208L47.5866 59.7416L47.6491 60.2334C47.6803 60.4982 47.6647 60.7504 47.6178 60.7883ZM123.102 61.4062C123.071 61.671 123.04 61.4566 123.04 60.9396C123.04 60.4226 123.071 60.2082 123.102 60.4604C123.133 60.7252 123.133 61.154 123.102 61.4062ZM109.368 60.5865C109.524 60.7126 109.462 60.7757 109.055 60.8891C108.399 61.0657 108.352 61.2548 108.868 61.5323C109.243 61.7214 109.665 61.7593 111.587 61.7719C114.696 61.7971 115.508 61.8475 115.446 61.9989C115.29 62.3646 105.149 62.3646 88.3835 62.0115C83.6647 61.9106 77.9928 61.8349 75.8053 61.8601C73.6178 61.8728 71.4772 61.8349 71.0397 61.7719L70.2585 61.6458L71.1178 61.5575C72.4147 61.4188 77.2272 61.4314 80.571 61.5827C82.2116 61.6584 88.7116 61.734 95.0241 61.7593L106.508 61.8097L107.321 61.4944C107.758 61.3305 108.321 61.0279 108.571 60.8261C109.087 60.3973 109.118 60.3847 109.368 60.5865ZM78.5241 62.8438C81.0085 62.9068 83.1803 63.0329 83.3366 63.096C83.5085 63.1716 83.8835 63.5499 84.196 63.9409C84.4928 64.3318 85.1647 64.9875 85.696 65.3911C86.2116 65.782 86.6022 66.1477 86.5553 66.1729C86.5085 66.2107 85.7116 66.1855 84.7741 66.1225C83.8366 66.0594 80.6803 65.9837 77.7585 65.9585L72.446 65.9207L72.3991 66.2486C72.3522 66.5638 72.2897 66.5764 71.1647 66.6647C69.7272 66.753 67.9928 66.7656 67.9928 66.6773C67.9928 66.6395 68.2585 66.1729 68.5866 65.6307C68.9303 65.101 69.3835 64.2183 69.6335 63.676L70.071 62.705H72.0397C73.1178 62.705 76.0397 62.7681 78.5241 62.8438ZM122.212 63.2221C122.212 63.4491 123.133 65.0632 123.774 65.9459C124.102 66.4125 124.352 66.816 124.337 66.8413C124.305 66.8665 123.837 66.7908 123.29 66.6647C122.118 66.4251 120.727 66.3999 114.399 66.5386C110.243 66.6269 109.93 66.6521 109.618 66.8791C109.29 67.1187 109.243 67.1313 108.805 66.9421C108.383 66.7656 107.43 66.7404 101.837 66.7404C94.5553 66.7404 94.821 66.7782 96.446 65.8576C97.4772 65.2776 97.7897 64.9749 98.4147 63.9661L98.8522 63.2725L110.29 63.2095C116.571 63.1716 121.774 63.1086 121.837 63.0581C121.962 62.9446 122.212 63.0581 122.212 63.2221ZM94.1491 63.5752C94.2428 63.6887 93.5241 63.84 92.9303 63.84C92.6178 63.8274 92.6178 63.8148 92.9928 63.6508C93.4303 63.4491 94.0241 63.4112 94.1491 63.5752ZM165.087 64.1048C165.227 64.357 165.868 65.0001 166.508 65.5298C167.149 66.072 167.68 66.5638 167.68 66.6395C167.68 66.7152 167.493 66.7404 167.18 66.6899C166.399 66.5638 155.868 66.3242 150.415 66.3116C146.524 66.299 145.368 66.3368 144.524 66.5008C143.68 66.6521 143.462 66.6647 143.462 66.5386C143.462 66.4503 143.712 65.8198 144.008 65.1389C144.321 64.4579 144.587 63.84 144.618 63.7769C144.649 63.6887 148.18 63.6508 154.758 63.6508H164.837L165.087 64.1048ZM91.7428 64.0796C91.7428 64.2057 91.0866 64.3696 90.9772 64.2687C90.8678 64.1931 91.2897 63.9661 91.5553 63.9661C91.6491 63.9661 91.7428 64.0165 91.7428 64.0796ZM138.93 64.2309C138.93 64.294 138.868 64.3444 138.774 64.3444C138.696 64.3444 138.618 64.2561 138.618 64.1426C138.618 64.0417 138.696 63.9913 138.774 64.0291C138.868 64.067 138.93 64.1552 138.93 64.2309ZM176.587 64.2813C176.587 64.3822 174.743 65.101 173.665 65.4289C172.821 65.6811 172.68 65.7063 172.68 65.5298C172.68 65.0001 173.633 64.4453 174.165 64.6849C174.321 64.7605 174.758 64.7101 175.462 64.5209C176.04 64.357 176.524 64.2309 176.555 64.2309C176.571 64.2183 176.587 64.2435 176.587 64.2813ZM86.6647 64.5966C86.7116 64.6597 86.696 64.7227 86.6022 64.7227C86.5241 64.7227 86.3991 64.6597 86.3522 64.5966C86.3053 64.5209 86.321 64.4705 86.4147 64.4705C86.4928 64.4705 86.6178 64.5209 86.6647 64.5966ZM93.3053 64.5966C92.9928 64.7605 92.7897 64.7605 92.9147 64.5966C92.9616 64.5209 93.1335 64.4705 93.2741 64.4705C93.5085 64.4705 93.5085 64.4957 93.3053 64.5966ZM138.805 65.1262C138.665 65.2397 138.571 65.2397 138.43 65.1262C138.29 65.0127 138.321 64.9749 138.618 64.9749C138.915 64.9749 138.946 65.0127 138.805 65.1262ZM170.743 65.2902C170.446 65.4667 169.868 65.555 169.868 65.4163C169.868 65.328 170.508 65.1136 170.805 65.1136C170.977 65.1136 170.962 65.1515 170.743 65.2902ZM91.9772 65.5928C91.8522 65.7568 91.2741 65.782 91.2741 65.618C91.2741 65.555 91.4303 65.4793 91.6335 65.4541C92.0553 65.3911 92.1178 65.4163 91.9772 65.5928ZM173.93 65.8576C173.93 65.9207 173.868 65.9837 173.774 65.9837C173.696 65.9837 173.618 65.9207 173.618 65.8576C173.618 65.782 173.696 65.7315 173.774 65.7315C173.868 65.7315 173.93 65.782 173.93 65.8576ZM42.3991 66.5134C42.2116 66.6647 41.7116 66.6017 41.6335 66.4125C41.6022 66.3242 41.7585 66.299 42.0553 66.3368C42.3835 66.3747 42.4928 66.4377 42.3991 66.5134ZM88.0866 66.6773L88.5397 66.98L87.8053 66.9926C87.0866 66.9926 87.0553 66.98 87.0553 66.6269C87.0553 66.1855 87.3678 66.2107 88.0866 66.6773ZM53.3366 66.7152C53.5553 66.8917 53.1022 66.9043 50.7272 66.7782C48.6803 66.6773 49.2116 66.4756 51.4616 66.526C52.5397 66.5386 53.2116 66.6143 53.3366 66.7152ZM75.1803 66.7025C75.8835 66.7656 75.9616 66.8034 75.6491 66.8791C75.4303 66.9295 74.8522 66.9674 74.3366 66.98C73.5397 66.9926 73.446 66.9674 73.6178 66.8034C73.8366 66.589 73.9772 66.5764 75.1803 66.7025ZM24.2741 66.9421C26.1647 67.0935 25.2116 67.2448 22.4147 67.2448C20.8991 67.2448 19.696 67.2196 19.7428 67.1817C20.0085 66.9547 22.6491 66.8286 24.2741 66.9421ZM57.0085 67.1943C56.9616 67.2322 56.821 67.2448 56.7116 67.207C56.5866 67.1691 56.6335 67.1313 56.8053 67.1313C56.9772 67.1187 57.071 67.1565 57.0085 67.1943ZM67.4772 67.3709C67.5241 67.5096 67.5553 67.6609 67.5397 67.7114C67.5241 67.8249 65.9616 67.9762 65.9616 67.8627C65.9616 67.8249 66.2116 67.6862 66.5085 67.5474C66.8053 67.4213 67.0553 67.27 67.0553 67.2196C67.0553 67.0052 67.3991 67.1313 67.4772 67.3709ZM143.133 67.5853C143.337 67.951 143.18 68.1275 142.633 68.1275C142.477 68.1275 142.212 68.3293 142.04 68.5689C141.852 68.8085 141.649 69.0102 141.571 69.0102C141.274 69.0102 141.446 68.6698 142.055 68.0771C142.399 67.7492 142.68 67.4213 142.68 67.3583C142.68 67.1187 142.946 67.2574 143.133 67.5853ZM118.852 67.497C118.602 67.5474 118.212 67.5979 117.993 67.6105C117.68 67.6105 117.649 67.5979 117.837 67.497C117.962 67.4339 118.352 67.3835 118.696 67.3835C119.305 67.3961 119.305 67.4087 118.852 67.497ZM82.4303 67.5853C83.2272 67.6357 83.571 67.6988 83.4147 67.7744C82.9928 67.951 81.4147 68.014 79.7897 67.9005C78.3366 67.7996 78.2585 67.787 78.7741 67.6609C79.4147 67.497 80.7585 67.4592 82.4303 67.5853ZM125.477 67.9257C125.649 68.0519 125.758 68.2158 125.712 68.2662C125.587 68.4428 125.071 68.3923 124.805 68.1906C124.68 68.0897 124.305 68.0014 123.962 68.0014C123.321 68.0014 122.368 67.787 122.368 67.6483C122.368 67.5979 122.993 67.5853 123.758 67.6231C124.821 67.6735 125.227 67.7366 125.477 67.9257ZM190.399 67.6231C190.29 67.7114 190.102 67.7114 189.852 67.6357C189.493 67.5222 189.508 67.5096 190.024 67.5096C190.383 67.497 190.508 67.5348 190.399 67.6231ZM69.321 67.7492C68.8991 67.9005 68.7741 67.9005 68.7741 67.7492C68.7741 67.6735 68.9616 67.6231 69.2116 67.6357C69.5866 67.6357 69.6022 67.6483 69.321 67.7492ZM72.3678 67.7492C72.6335 67.8123 72.2897 67.8501 71.3522 67.8501C70.4303 67.8501 70.0553 67.8249 70.2585 67.7492C70.6491 67.6105 71.8522 67.6105 72.3678 67.7492ZM77.6022 67.7492C77.5553 67.8123 77.3991 67.8753 77.2741 67.8753C77.1491 67.8753 77.0553 67.8123 77.0553 67.7492C77.0553 67.6735 77.196 67.6231 77.3835 67.6231C77.5553 67.6231 77.6491 67.6735 77.6022 67.7492ZM186.118 67.7492C186.118 67.8879 185.696 68.0014 185.165 68.0014C184.665 68.0014 184.54 67.7996 184.993 67.7114C185.43 67.6231 186.118 67.6483 186.118 67.7492ZM59.0085 69.3886C59.2272 69.4642 59.0085 69.5021 58.3053 69.4894C57.571 69.4894 57.3991 69.4642 57.6803 69.3886C58.196 69.2498 58.6178 69.2498 59.0085 69.3886ZM61.7428 69.3886C61.7428 69.4516 61.4616 69.5147 61.1178 69.5147C60.7741 69.5147 60.4928 69.4516 60.4928 69.3886C60.4928 69.3129 60.7741 69.2625 61.1178 69.2625C61.4616 69.2625 61.7428 69.3129 61.7428 69.3886ZM111.196 69.7669C111.149 69.8299 110.602 69.893 110.008 69.893C109.321 69.893 108.946 69.8425 109.008 69.7669C109.055 69.6912 109.602 69.6408 110.196 69.6408C110.883 69.6408 111.258 69.6912 111.196 69.7669ZM115.102 69.9056C115.212 69.9939 114.899 70.0065 114.165 69.9434C112.493 69.8047 112.071 69.6282 113.618 69.7038C114.352 69.7416 115.008 69.8299 115.102 69.9056Z" fill="black"/>
<path d="M111.477 29.5018C110.883 29.5397 110.446 29.6153 110.337 29.7288C110.165 29.8928 110.29 29.918 111.18 29.918C112.243 29.918 112.915 29.754 112.758 29.5271C112.696 29.464 112.618 29.4262 112.555 29.4388C112.493 29.4514 112.008 29.4766 111.477 29.5018Z" fill="black"/>
<path d="M115.571 29.5397C115.618 29.6027 115.805 29.6658 115.977 29.6658C116.133 29.6658 116.274 29.6027 116.274 29.5397C116.274 29.464 116.087 29.4136 115.868 29.4136C115.649 29.4136 115.508 29.464 115.571 29.5397Z" fill="black"/>
<path d="M116.665 29.5397C116.712 29.6027 116.899 29.6658 117.071 29.6658C117.227 29.6658 117.368 29.6027 117.368 29.5397C117.368 29.464 117.18 29.4136 116.962 29.4136C116.743 29.4136 116.602 29.464 116.665 29.5397Z" fill="black"/>
<path d="M127.665 31.923C127.321 32.15 127.305 32.1753 127.571 32.2635C127.727 32.3014 128.508 32.2887 129.29 32.2257L130.727 32.1122L130.149 31.8978C129.352 31.6078 128.133 31.6204 127.665 31.923Z" fill="black"/>
<path d="M110.743 31.8978C110.68 31.9609 109.399 32.0239 107.899 32.0618C105.399 32.1248 105.165 32.15 104.852 32.3896L104.524 32.6671L105.071 32.8058C105.508 32.9319 105.962 32.9193 107.258 32.7679C108.165 32.6544 109.258 32.5662 109.696 32.5662C110.946 32.5662 112.055 32.1122 111.337 31.8852C111.008 31.7843 110.883 31.7843 110.743 31.8978Z" fill="black"/>
<path d="M128.321 32.6797L127.633 32.7553L128.274 33.3606C128.633 33.7011 128.93 34.029 128.93 34.1046C128.93 34.1929 129.399 34.2055 130.383 34.1425C131.649 34.0668 131.79 34.0794 131.524 34.2434C131.243 34.4073 131.243 34.4199 131.649 34.5082C131.868 34.546 132.602 34.5586 133.274 34.5208C134.602 34.4325 135.149 34.5712 135.415 35.063C135.524 35.2522 135.696 35.3405 135.993 35.3405C136.54 35.3405 136.54 35.2522 136.024 34.6469C135.805 34.3821 135.555 34.029 135.477 33.865C135.383 33.6759 135.212 33.575 134.962 33.575C134.43 33.575 134.321 33.7768 134.743 34.0038C135.087 34.1929 135.071 34.2055 134.321 34.1929C133.633 34.1929 133.587 34.1677 133.93 34.0668C134.321 33.9407 134.321 33.9281 134.008 33.7516C133.805 33.6254 133.368 33.575 132.633 33.5876C132.055 33.6002 131.54 33.575 131.477 33.5246C131.43 33.4867 131.524 33.4489 131.712 33.4489C132.118 33.4489 132.321 33.2093 132.04 33.058C131.915 32.9949 131.196 32.9571 130.415 32.9697C129.149 33.0075 129.008 32.9823 129.055 32.7805C129.087 32.6671 129.087 32.5788 129.055 32.5914C129.024 32.5914 128.696 32.6418 128.321 32.6797ZM131.118 33.575C131.118 33.7263 130.993 33.7263 130.571 33.575C130.29 33.4741 130.305 33.4615 130.696 33.4615C130.93 33.4489 131.118 33.4993 131.118 33.575ZM133.118 34.1677C132.962 34.1929 132.68 34.1929 132.493 34.1677C132.29 34.1425 132.415 34.1173 132.758 34.1173C133.102 34.1046 133.258 34.1299 133.118 34.1677Z" fill="black"/>
<path d="M107.993 33.0201C107.43 33.121 106.837 33.1841 106.68 33.1463C106.508 33.1084 106.212 33.1841 106.024 33.3102C105.821 33.4363 105.383 33.5876 105.071 33.6254C104.118 33.7642 103.602 33.9659 103.649 34.1929C103.696 34.3442 103.883 34.3947 104.352 34.3821C105.087 34.3695 105.18 34.483 105.18 35.4918C105.18 35.971 105.243 36.0971 105.493 36.1601C105.665 36.198 105.868 36.198 105.962 36.1601C106.165 36.0593 106.165 36.261 105.962 36.425C105.868 36.5006 105.837 36.6646 105.899 36.778C106.008 37.005 106.29 37.0176 107.524 36.8033C107.883 36.7402 107.868 36.7402 107.477 36.8789C107.133 37.005 107.055 37.1059 107.087 37.3581C107.133 37.6986 107.415 37.7364 108.383 37.5473C108.837 37.4716 108.868 37.4842 108.852 37.8247C108.852 38.1021 108.915 38.1778 109.165 38.1652C109.493 38.14 112.571 37.5977 112.649 37.5473C112.665 37.5347 112.571 37.3455 112.415 37.1437C112.165 36.778 112.087 36.7528 110.946 36.6898C109.571 36.6141 109.149 36.488 109.696 36.3241C110.212 36.1727 110.008 35.9205 109.305 35.8323C108.977 35.7944 108.805 35.744 108.946 35.7314C109.087 35.7314 109.243 35.6053 109.29 35.4666C109.352 35.2522 109.29 35.2144 108.915 35.2144C108.665 35.2144 108.462 35.1513 108.462 35.0883C108.462 35.0126 108.54 34.9621 108.633 34.9621C108.727 34.9621 109.227 34.7478 109.743 34.4956C110.415 34.1677 110.868 34.0164 111.29 34.0164C111.805 34.0164 111.899 33.9785 111.899 33.7515C111.899 33.4111 111.633 33.3228 110.633 33.3228C110.149 33.3228 109.883 33.2724 109.946 33.1967C110.04 33.0832 109.383 32.7932 109.118 32.831C109.055 32.8436 108.555 32.9193 107.993 33.0201ZM108.696 33.9533C108.962 34.0416 108.915 34.0668 108.493 34.0668C108.18 34.0794 108.008 34.029 108.071 33.9533C108.18 33.802 108.274 33.802 108.696 33.9533ZM108.899 36.6898C108.743 36.715 108.493 36.715 108.352 36.6898C108.196 36.6519 108.321 36.6267 108.618 36.6267C108.915 36.6267 109.04 36.6519 108.899 36.6898Z" fill="black"/>
<path d="M132.774 33.058C133.055 33.2976 133.696 33.3354 134.008 33.1463C134.305 32.9697 134.258 32.9571 133.477 32.9445C132.946 32.9445 132.68 32.9949 132.774 33.058Z" fill="black"/>
<path d="M111.93 34.6091C111.977 34.6973 112.165 34.836 112.352 34.9243L112.712 35.063L112.383 35.2144C111.946 35.3909 112.102 35.5927 112.696 35.5927C113.071 35.5927 113.149 35.5422 113.149 35.3026C113.149 34.8739 112.712 34.4577 112.274 34.4577C112.024 34.4577 111.899 34.5208 111.93 34.6091Z" fill="black"/>
<path d="M132.368 34.7982C132.243 34.836 132.04 34.9243 131.93 35C131.649 35.1891 132.055 35.3152 132.915 35.3279C133.649 35.3405 134.087 35.1639 133.837 34.9622C133.633 34.7982 132.696 34.6847 132.368 34.7982Z" fill="black"/>
<path d="M110.758 35.4161C110.868 35.6431 111.602 35.6179 111.712 35.3657C111.743 35.2648 111.587 35.2144 111.212 35.2144C110.774 35.2144 110.68 35.2522 110.758 35.4161Z" fill="black"/>
<path d="M134.415 35.7062C134.024 35.9079 134.399 36.0971 135.18 36.0971C135.962 36.0971 136.337 35.9079 135.946 35.7062C135.821 35.6431 135.477 35.5927 135.18 35.5927C134.883 35.5927 134.54 35.6431 134.415 35.7062Z" fill="black"/>
<path d="M136.352 35.7188C136.196 35.9205 136.415 36.0971 136.79 36.0971C137.149 36.0971 137.649 35.8953 137.524 35.807C137.337 35.6809 136.43 35.6179 136.352 35.7188Z" fill="black"/>
<path d="M189.118 49.5902C188.462 49.7163 188.415 49.7668 188.54 50.0946C188.68 50.4729 189.243 50.7252 190.118 50.8008C191.243 50.8891 191.383 50.763 190.93 50.0568C190.54 49.4263 190.305 49.3632 189.118 49.5902Z" fill="black"/>
<path d="M51.4303 45.9332C51.3053 45.9963 50.9772 46.0593 50.7116 46.0593C50.2428 46.0593 50.196 46.1097 49.6335 47.1438C49.321 47.7491 49.0241 48.5436 48.9772 48.9219L48.8835 49.6281L49.4928 49.5524C49.821 49.5019 51.4147 49.4389 53.0241 49.3885L55.9303 49.3002L56.196 48.7832C57.2585 46.6898 57.4928 46.0593 57.2741 45.9206C57.1335 45.8197 56.821 45.8071 56.3835 45.8702C56.0241 45.9206 55.2428 45.9584 54.6491 45.9458C54.0553 45.9206 53.3678 45.9836 53.1178 46.0719C52.7116 46.2106 52.6178 46.198 52.4928 46.0215C52.3366 45.7819 51.7897 45.744 51.4303 45.9332Z" fill="black"/>
<path d="M129.274 54.3443C128.618 54.4452 127.462 56.0341 126.962 57.5348C126.008 60.4352 127.524 64.3444 129.79 64.7984C130.196 64.874 130.212 64.874 130.024 64.5966C129.915 64.4327 129.524 63.9661 129.149 63.5499C128.758 63.1338 128.462 62.6672 128.462 62.4781C128.462 62.3015 128.29 61.9232 128.071 61.6332C127.587 60.9648 127.43 59.8047 127.665 58.531C127.899 57.1312 128.368 56.2233 129.274 55.4288C130.227 54.5839 130.227 54.2056 129.274 54.3443Z" fill="black"/>
<path d="M131.399 64.9371C130.477 64.9749 130.18 65.0254 130.18 65.1641C130.18 65.6307 131.774 65.9333 132.54 65.6054C132.821 65.4793 132.993 64.811 132.727 64.874C132.649 64.8866 132.055 64.9245 131.399 64.9371Z" fill="black"/>
<path d="M55.196 55.8702C54.8522 56.1602 54.4772 56.6899 54.2428 57.2195C53.8991 57.9888 53.8522 58.3166 53.8522 59.6785C53.8522 61.2296 53.8678 61.2801 54.3991 62.1376C54.7897 62.7807 55.1335 63.1212 55.6022 63.386C55.9772 63.5878 56.3053 63.7265 56.3522 63.6887C56.4147 63.6508 56.0866 63.0329 55.6335 62.3141C54.8991 61.1287 54.8053 60.9018 54.7428 59.9812C54.6647 58.7958 54.8835 58.0518 55.8053 56.4503C56.3835 55.4415 56.3991 55.391 56.0866 55.391C55.8991 55.391 55.5085 55.6054 55.196 55.8702Z" fill="black"/>
<path d="M61.1647 56.9043C60.5866 57.2447 60.0241 57.9635 60.2116 58.1022C60.3835 58.241 61.3678 57.56 61.6491 57.1186C61.8053 56.8538 61.8991 56.6142 61.8678 56.589C61.8366 56.5512 61.5085 56.7025 61.1647 56.9043Z" fill="black"/>
<path d="M56.1647 56.8412C55.6491 57.1312 55.1803 58.2914 55.1803 59.275C55.1803 60.3217 55.3991 60.9648 55.8835 61.4062L56.2585 61.7593L56.2741 61.444C56.2741 61.2675 56.1647 60.6243 56.0397 60.0064C55.7897 58.7958 55.821 58.5562 56.2897 57.623C56.696 56.8412 56.6491 56.5638 56.1647 56.8412Z" fill="black"/>
<path d="M57.0397 59.1615C56.8053 59.7794 56.9772 60.6874 57.3835 61.1161C57.7272 61.4692 58.3835 61.5449 58.9303 61.3179C59.4928 61.0783 59.7741 59.4768 59.321 59.1741C59.1335 59.048 59.071 59.0733 58.9303 59.3633C58.8522 59.5398 58.7741 59.8425 58.7741 60.0316C58.7741 60.3721 58.5397 60.8009 58.4147 60.6874C58.2585 60.5361 57.8366 59.3381 57.8366 59.0228C57.8366 58.758 57.7585 58.6697 57.5241 58.6697C57.3053 58.6697 57.1803 58.8084 57.0397 59.1615Z" fill="black"/>
<path d="M154.868 60.1199C154.79 60.2965 154.712 60.763 154.712 61.1287C154.712 61.8097 154.712 61.8097 155.258 61.898C156.008 62.0115 156.274 61.898 156.274 61.4818C156.274 61.2927 156.321 60.927 156.352 60.6874C156.462 60.1199 156.337 59.9686 155.618 59.8677C155.087 59.7794 155.008 59.8046 154.868 60.1199Z" fill="black"/>
<path d="M152.274 49.6028C151.415 49.9433 150.29 50.8639 150.43 51.1413C150.555 51.4187 151.055 51.4187 151.18 51.1539C151.258 50.9774 151.524 50.9647 153.383 51.0404C154.805 51.1035 155.493 51.0909 155.493 51.0026C155.493 50.6621 155.243 50.4351 154.54 50.1577C154.118 49.9811 153.712 49.7289 153.618 49.5902C153.415 49.275 153.102 49.275 152.274 49.6028Z" fill="black"/>
<path d="M145.18 50.8134C144.633 50.9648 143.337 51.0278 139.399 51.1035C136.602 51.1539 134.305 51.2044 134.29 51.217C134.258 51.217 134.243 51.3305 134.243 51.4692C134.243 51.6079 134.43 51.7592 134.727 51.8601C134.993 51.961 135.165 52.0871 135.118 52.188C135.071 52.2888 135.258 52.3771 135.665 52.4276C136.008 52.478 140.743 52.4528 146.165 52.3771C151.602 52.3015 160.133 52.2132 165.133 52.2006C170.133 52.188 174.274 52.1249 174.352 52.0745C174.415 52.0114 174.337 51.8727 174.165 51.7718C173.883 51.5953 172.555 51.5827 162.524 51.6583C151.665 51.734 145.087 51.6709 145.727 51.4818C145.899 51.4313 146.43 51.4187 146.899 51.4439C147.93 51.5196 148.508 51.2674 148.212 50.8891C147.977 50.5864 146.165 50.536 145.18 50.8134ZM144.946 51.734C145.008 51.8097 144.821 51.8601 144.493 51.8601C144.18 51.8601 143.93 51.797 143.93 51.734C143.93 51.6583 144.133 51.6079 144.383 51.6079C144.649 51.6079 144.899 51.6583 144.946 51.734Z" fill="black"/>
<path d="M150.383 52.7428C149.649 52.9824 149.962 53.159 151.321 53.3229C151.727 53.3607 152.055 53.449 152.055 53.4995C152.055 53.5625 151.915 53.5751 151.743 53.5373C151.571 53.4995 151.258 53.5121 151.04 53.5499C150.727 53.6129 150.633 53.7012 150.68 53.9156C150.712 54.13 150.852 54.2056 151.243 54.2309C151.524 54.2561 151.805 54.357 151.852 54.4578C151.899 54.5839 152.18 54.6344 152.743 54.6218C153.868 54.6092 154.118 54.4957 154.321 53.9282C154.477 53.449 154.493 53.4364 155.305 53.3986C156.04 53.3607 156.118 53.3355 156.118 53.0707C156.118 52.6672 155.68 52.5915 154.008 52.7554C153.087 52.8311 152.352 52.8311 151.774 52.7428C150.774 52.5915 150.837 52.5915 150.383 52.7428Z" fill="black"/>
<path d="M185.696 53.1211C185.305 53.3103 185.18 53.4616 185.18 53.739C185.18 53.9408 185.29 54.1804 185.43 54.2687C185.649 54.4074 185.712 54.3948 185.899 54.193C186.024 54.0669 186.118 53.903 186.118 53.8399C186.118 53.7264 186.415 53.7516 187.18 53.9408C187.493 54.0291 187.524 53.9912 187.524 53.5247C187.524 53.1842 187.446 52.995 187.274 52.9446C186.821 52.8059 186.196 52.8689 185.696 53.1211Z" fill="black"/>
<path d="M158.243 53.449C158.196 53.5625 158.149 53.8021 158.149 54.0039C158.149 54.6974 158.258 54.7605 159.399 54.7605C159.977 54.7605 160.665 54.6974 160.946 54.6218C161.383 54.4957 161.43 54.4326 161.43 53.9912C161.43 53.3607 161.165 53.2472 159.587 53.2472C158.587 53.2472 158.321 53.2851 158.243 53.449Z" fill="black"/>
<path d="M162.305 53.5625C162.165 53.8651 162.196 54.6722 162.352 54.874C162.446 55.0001 162.774 55.0253 163.602 54.9875C164.993 54.9244 165.571 54.6344 165.571 53.9913C165.571 53.5877 165.54 53.5625 165.024 53.5499C164.727 53.5499 164.008 53.4994 163.446 53.449C162.555 53.3733 162.399 53.386 162.305 53.5625Z" fill="black"/>
<path d="M183.587 53.5751C183.352 53.7643 183.227 53.7769 182.696 53.6508C181.712 53.3986 181.274 53.7264 181.805 54.3191C181.977 54.5083 182.274 54.5713 183.118 54.6092C184.196 54.6596 184.227 54.647 184.321 54.3443C184.571 53.5751 184.133 53.1337 183.587 53.5751Z" fill="black"/>
<path d="M148.43 53.8904C147.946 54.1174 148.087 54.3822 148.696 54.3822C149.133 54.3822 149.243 54.3317 149.243 54.1426C149.243 54.0165 149.133 53.8651 148.993 53.8273C148.696 53.739 148.758 53.7264 148.43 53.8904Z" fill="black"/>
<path d="M148.149 54.8488C148.149 55.2271 148.399 55.4288 148.743 55.3406C149.133 55.2397 149.321 54.874 149.055 54.7353C148.68 54.5461 148.149 54.6218 148.149 54.8488Z" fill="black"/>
<path d="M148.337 55.6684C148.227 55.7567 148.149 55.9333 148.149 56.0594C148.149 56.2737 148.227 56.299 148.649 56.2233C149.258 56.1224 149.477 55.9711 149.352 55.7189C149.243 55.4793 148.602 55.4541 148.337 55.6684Z" fill="black"/>
<path d="M158.993 55.6054C158.602 55.6684 158.196 55.9963 158.149 56.2737C157.993 57.1565 158.368 57.4087 159.883 57.4087C161.008 57.4087 161.368 57.2826 161.477 56.816C161.524 56.6268 161.618 56.362 161.665 56.2359C161.758 56.072 161.649 55.9837 161.258 55.845C160.649 55.6432 159.477 55.5171 158.993 55.6054Z" fill="black"/>
<path d="M182.68 55.7567C182.352 55.8324 182.274 55.9332 182.243 56.3746L182.196 56.9043H183.024C184.071 56.9043 184.633 56.6773 184.633 56.2737C184.633 55.7693 183.727 55.5171 182.68 55.7567Z" fill="black"/>
<path d="M162.868 55.9963C162.79 56.1855 162.946 57.2321 163.087 57.4213C163.196 57.5726 164.337 57.56 165.071 57.3961C165.774 57.2447 166.165 56.816 166.087 56.2737L166.04 55.8702L164.493 55.8576C163.352 55.8324 162.93 55.8702 162.868 55.9963Z" fill="black"/>
<path d="M168.071 55.845C167.024 56.0594 166.899 56.1602 166.899 56.7403C166.899 57.2573 166.946 57.3078 167.446 57.4843C168.305 57.7744 169.555 57.6735 169.555 57.3204C169.555 57.2195 169.712 56.9169 169.899 56.652C170.149 56.2989 170.212 56.1224 170.087 56.0215C169.899 55.8702 168.54 55.7567 168.071 55.845Z" fill="black"/>
<path d="M179.821 56.2485C179.29 56.7277 179.477 56.9043 180.493 56.9043C181.368 56.9043 181.43 56.879 181.43 56.6142C181.43 56.4503 181.352 56.2611 181.243 56.1728C180.962 55.9459 180.102 55.9963 179.821 56.2485Z" fill="black"/>
<path d="M177.352 56.4124C177.18 56.5512 177.055 56.7277 177.102 56.816C177.18 57.0051 177.868 57.1438 178.368 57.0682C178.712 57.0051 178.774 56.9295 178.774 56.5764C178.774 56.1728 178.743 56.1476 178.227 56.1476C177.883 56.1476 177.555 56.2485 177.352 56.4124Z" fill="black"/>
<path d="M164.893 26.0601L162.861 28.5015L163.239 34.3181L159.039 34.4957L157.718 14.1377L161.917 13.9601L162.516 23.1883L164.2 20.5794L168.959 13.6622L174.124 13.4438L167.474 22.7963L175.656 33.7929L170.659 34.0042L164.893 26.0601ZM184.747 22.0377C184.192 21.9864 183.704 21.9696 183.284 21.9874C181.754 22.0521 180.784 22.6119 180.375 23.6667L181.018 33.5661L176.972 33.7372L175.99 18.6085L179.812 18.4469L180.041 20.2458C180.762 18.8226 181.842 18.0806 183.279 18.0198C183.727 18.0009 184.151 18.0437 184.551 18.1483L184.747 22.0377ZM195.801 32.9408C195.591 32.5852 195.426 32.1388 195.307 31.6017C194.398 32.7338 193.159 33.3329 191.591 33.3993C190.108 33.462 188.848 33.0853 187.812 32.2692C186.786 31.4527 186.23 30.3919 186.146 29.087C186.042 27.4837 186.554 26.2282 187.684 25.3205C188.823 24.4124 190.516 23.9061 192.765 23.8016L194.627 23.7229L194.571 22.856C194.525 22.1569 194.307 21.6053 193.916 21.2012C193.534 20.7968 192.956 20.6109 192.181 20.6437C191.5 20.6725 190.974 20.8583 190.603 21.2012C190.241 21.5436 190.079 21.9991 190.116 22.5677L186.07 22.7388C186.013 21.8626 186.231 21.0402 186.724 20.2716C187.217 19.503 187.945 18.888 188.907 18.4267C189.868 17.9561 190.965 17.6947 192.197 17.6426C194.063 17.5637 195.573 17.9718 196.726 18.8671C197.888 19.7527 198.524 21.0437 198.634 22.7402L199.06 29.2978C199.162 30.7329 199.434 31.8104 199.873 32.5302L199.889 32.7679L195.801 32.9408ZM192.273 30.2719C192.87 30.2466 193.412 30.0929 193.899 29.8105C194.386 29.5189 194.736 29.1442 194.949 28.6865L194.78 26.0859L193.268 26.1498C191.243 26.2355 190.211 26.9802 190.171 28.3839L190.172 28.6222C190.205 29.1256 190.409 29.5329 190.785 29.8441C191.161 30.1554 191.657 30.298 192.273 30.2719ZM205.136 17.3758L205.375 19.1182C206.37 17.7208 207.778 16.9836 209.597 16.9066C211.203 16.8387 212.428 17.2589 213.273 18.1672C214.118 19.0756 214.611 20.4661 214.751 22.3389L215.386 32.1124L211.34 32.2836L210.712 22.6079C210.656 21.7504 210.429 21.1384 210.031 20.772C209.632 20.3963 208.999 20.2268 208.131 20.2635C206.992 20.3116 206.17 20.8325 205.664 21.826L206.356 32.4944L202.311 32.6655L201.328 17.5368L205.136 17.3758ZM222.902 28.5278L230.307 28.2145L230.519 31.4724L217.948 32.0041L217.788 29.5432L224.303 19.8459L217.388 20.1384L217.175 16.8665L229.312 16.3532L229.468 18.7441L222.902 28.5278ZM240.46 23.9435L232.578 24.2768L232.367 21.019L240.248 20.6857L240.46 23.9435ZM251.495 23.1122L248.15 23.2537L248.633 30.7062L244.434 30.8838L243.112 10.5258L250.685 10.2055C253.093 10.1037 254.985 10.5611 256.361 11.5778C257.737 12.5945 258.489 14.0816 258.616 16.0391C258.706 17.428 258.478 18.6013 257.932 19.5591C257.395 20.5072 256.533 21.2821 255.346 21.8838L260.296 30.0166L260.309 30.2124L255.801 30.403L251.495 23.1122ZM247.929 19.856L251.317 19.7128C252.371 19.6681 253.171 19.3679 253.715 18.8121C254.258 18.247 254.499 17.4937 254.438 16.5523C254.376 15.5922 254.052 14.8488 253.465 14.3221C252.888 13.795 252.035 13.5554 250.906 13.6032L247.532 13.7459L247.929 19.856ZM269.468 30.1053C267.247 30.1993 265.392 29.5954 263.904 28.2937C262.425 26.9916 261.612 25.208 261.465 22.9429L261.44 22.5514C261.341 21.032 261.547 19.6633 262.057 18.4453C262.567 17.2179 263.338 16.26 264.369 15.5714C265.41 14.8731 266.62 14.4948 268.002 14.4363C270.073 14.3487 271.744 14.9323 273.014 16.1872C274.294 17.4417 275.011 19.2667 275.167 21.6623L275.274 23.3122L265.628 23.7202C265.823 24.7027 266.267 25.4785 266.959 26.0474C267.66 26.6159 268.515 26.8789 269.523 26.8363C271.081 26.7703 272.263 26.1549 273.067 24.9899L275.199 27.129C274.648 28.0122 273.87 28.7181 272.866 29.2466C271.861 29.7658 270.728 30.0521 269.468 30.1053ZM268.2 17.7088C267.397 17.7427 266.762 18.0407 266.293 18.6026C265.833 19.1642 265.566 19.9513 265.492 20.9639L271.119 20.7259L271.098 20.4043C271.022 19.5102 270.734 18.8307 270.236 18.3657C269.737 17.8914 269.059 17.6724 268.2 17.7088ZM282.259 29.2839L278.199 29.4556L277.217 14.327L281.277 14.1553L282.259 29.2839ZM276.725 10.422C276.686 9.81615 276.854 9.30896 277.23 8.90049C277.615 8.49162 278.157 8.27239 278.857 8.24278C279.548 8.21357 280.111 8.38603 280.547 8.76016C280.984 9.13429 281.221 9.6243 281.261 10.2302C281.301 10.8454 281.123 11.3576 280.729 11.7669C280.343 12.1758 279.81 12.3946 279.129 12.4234C278.448 12.4523 277.884 12.2798 277.439 11.9061C277.003 11.5319 276.765 11.0373 276.725 10.422ZM293.537 24.6148C293.505 24.1207 293.232 23.7444 292.72 23.4856C292.216 23.2172 291.415 22.994 290.318 22.8161C286.666 22.2134 284.766 20.7609 284.616 18.4585C284.529 17.1162 285.012 15.9742 286.064 15.0323C287.126 14.0808 288.557 13.5669 290.358 13.4907C292.281 13.4094 293.845 13.7966 295.052 14.6522C296.268 15.5074 296.923 16.6575 297.016 18.1023L292.971 18.2734C292.933 17.6955 292.716 17.228 292.318 16.8709C291.92 16.5045 291.324 16.3381 290.531 16.3717C289.85 16.4005 289.332 16.5766 288.979 16.9C288.626 17.2234 288.465 17.6228 288.495 18.0982C288.525 18.5456 288.758 18.9002 289.196 19.1621C289.643 19.4143 290.377 19.6216 291.398 19.784C292.419 19.9371 293.283 20.1249 293.99 20.3474C296.178 21.04 297.335 22.3511 297.46 24.2806C297.549 25.6602 297.029 26.8038 295.9 27.7115C294.77 28.6099 293.267 29.0988 291.391 29.1781C290.122 29.2318 288.978 29.0558 287.959 28.6502C286.95 28.2349 286.14 27.6476 285.529 26.8883C284.917 26.1197 284.582 25.2786 284.523 24.3651L288.358 24.2029C288.442 24.9191 288.744 25.4578 289.264 25.819C289.783 26.1803 290.458 26.3433 291.289 26.3082C292.063 26.2754 292.637 26.1063 293.01 25.8008C293.392 25.4855 293.568 25.0902 293.537 24.6148ZM307.35 28.5031C305.129 28.597 303.274 27.9932 301.785 26.6914C300.307 25.3893 299.494 23.6057 299.346 21.3406L299.321 20.9491C299.222 19.4297 299.428 18.061 299.939 16.843C300.449 15.6157 301.219 14.6577 302.251 13.9692C303.291 13.2709 304.502 12.8925 305.883 12.8341C307.955 12.7465 309.626 13.3301 310.896 14.5849C312.175 15.8394 312.893 17.6645 313.048 20.0601L313.155 21.7099L303.51 22.1179C303.705 23.1005 304.148 23.8762 304.84 24.4451C305.542 25.0137 306.396 25.2766 307.404 25.234C308.963 25.1681 310.144 24.5526 310.948 23.3876L313.08 25.5267C312.529 26.4099 311.752 27.1158 310.747 27.6443C309.742 28.1636 308.61 28.4498 307.35 28.5031ZM306.081 16.1065C305.279 16.1404 304.643 16.4384 304.174 17.0004C303.715 17.5619 303.448 18.349 303.373 19.3617L309.001 19.1236L308.98 18.802C308.903 17.908 308.616 17.2285 308.117 16.7635C307.619 16.2892 306.94 16.0702 306.081 16.1065Z" fill="black"/>
</svg>
