<svg width="381" height="229" viewBox="0 0 381 229" fill="none" xmlns="http://www.w3.org/2000/svg">
<g style="mix-blend-mode:color-burn" filter="url(#filter0_if_6_10)">
<ellipse cx="190.5" cy="114.5" rx="130.5" ry="54.5" fill="#1820E4" fill-opacity="0.69"/>
<ellipse cx="190.5" cy="114.5" rx="130.5" ry="54.5" fill="#80691B" fill-opacity="0.58"/>
</g>
<g filter="url(#filter1_d_6_10)">
<g filter="url(#filter2_d_6_10)">
<path d="M248.515 95.8578C248.578 96.3393 248.971 98.0398 249.396 99.6349C249.868 101.335 250.23 103.126 250.324 103.999C250.418 105.007 250.591 105.76 250.875 106.437C251.331 107.475 251.457 108.724 251.142 109.025C251.048 109.115 250.167 109.266 249.207 109.341L247.445 109.492L247.068 109.055C246.093 107.927 243.607 103.653 242.711 101.576L242.475 101.019L243.088 100.643C243.434 100.433 243.717 100.147 243.717 99.9961C243.717 99.6801 241.751 98.4913 240.32 97.9646C238.385 97.2272 237.693 97.182 230.032 97.1971C220.877 97.2272 214.837 97.5131 200.381 98.6267C191.572 99.2888 189.841 99.4845 188.426 99.8908C187.734 100.101 186.412 100.357 185.5 100.478C183.785 100.718 182.873 100.989 180.356 102.058C179.554 102.404 177.855 103.021 176.597 103.442C172.947 104.646 171.626 105.353 168.37 107.866C165.287 110.244 162.644 113.028 160.898 115.752L160.332 116.625L158.255 116.73C157.107 116.775 154.276 116.896 151.932 116.971C146.788 117.151 143.673 117.362 141.471 117.663C139.489 117.934 139.426 117.949 139.426 118.25C139.426 118.385 139.237 118.792 139.017 119.168C138.073 120.703 138.388 124.871 139.819 129.596C140.213 130.861 140.213 131.116 139.835 131.116C139.725 131.116 139.521 131.237 139.363 131.387C139.143 131.643 139.127 131.809 139.285 132.862C139.442 133.946 140.181 137.452 140.26 137.542C140.291 137.557 140.826 137.647 141.471 137.753C142.289 137.873 144.476 137.903 148.55 137.858L154.449 137.783L154.936 139.152C155.204 139.905 155.597 140.913 155.833 141.395L156.258 142.282L155.282 142.192C154.732 142.147 151.995 142.072 149.195 142.011L144.098 141.921L144.208 142.403L144.303 142.899L142.384 142.794C138.813 142.613 126.024 142.538 119.921 142.659C114.038 142.779 113.865 142.794 113.817 143.08C113.723 143.592 113.534 143.637 112.748 143.381C111.725 143.05 110.388 143.08 108.343 143.456C107.148 143.682 106.188 143.757 105.213 143.727L103.797 143.682L103.75 144.464C103.687 145.427 103.75 145.443 105.48 144.901C106.582 144.555 106.849 144.525 109.507 144.57C111.552 144.6 112.417 144.66 112.591 144.811C112.795 144.961 113.943 144.991 117.844 144.976C120.581 144.961 123.098 144.916 123.413 144.856C123.806 144.795 124.105 144.841 124.278 144.976C124.467 145.142 125.002 145.172 126.449 145.142L128.352 145.096L128.745 145.668C129.233 146.391 129.516 146.436 130.193 145.879C130.838 145.337 131.294 145.292 132.505 145.698C133.229 145.924 133.732 145.969 135.73 145.924C137.586 145.879 138.121 145.819 138.262 145.653C138.404 145.458 138.939 145.443 142.195 145.563C144.255 145.638 147.795 145.713 150.044 145.713H154.134L154.417 146.195L154.7 146.661L157.406 146.586L160.111 146.511V147.053C160.111 147.579 160.127 147.594 160.741 147.64C161.087 147.67 163.21 147.579 165.46 147.444C168.92 147.218 171.563 147.203 172.664 147.414C172.774 147.429 172.869 147.263 172.9 147.023C172.963 146.511 173.246 146.496 175.008 146.932C175.747 147.113 176.534 147.218 176.88 147.173C177.367 147.113 177.493 147.158 177.666 147.459L177.855 147.82H186.145C197.848 147.82 203.417 147.685 203.716 147.399C203.904 147.218 204.282 147.173 205.698 147.233C206.673 147.263 208.497 147.294 209.772 147.294H212.084L212.131 147.82C212.178 148.437 212.226 148.437 214.459 148.151C216.064 147.941 220.311 147.926 223.425 148.121C227.091 148.362 231.401 148.317 233.115 148.046C234.248 147.85 234.783 147.835 235.349 147.956C237.708 148.437 240.76 148.287 242.852 147.579C243.702 147.294 244.284 147.203 245.432 147.203C246.234 147.203 247.099 147.278 247.335 147.369C247.603 147.474 248.201 147.519 248.861 147.459C249.443 147.414 251.598 147.324 253.627 147.233C255.657 147.158 258.346 147.038 259.605 146.977C261.351 146.902 262.373 146.932 263.962 147.128C266.007 147.384 266.07 147.384 267.281 147.083C268.713 146.722 271.623 146.541 279.504 146.3C282.445 146.21 285.497 146.09 286.268 146.014C287.054 145.939 288.784 145.804 290.121 145.713C291.459 145.623 293.346 145.473 294.321 145.382C296.303 145.187 299.969 145.307 302.533 145.623C304.263 145.849 304.782 145.774 304.971 145.307C305.144 144.871 304.53 144.51 303.618 144.51C303.193 144.51 302.721 144.449 302.564 144.374C302.375 144.269 302.061 144.299 301.589 144.464C300.802 144.72 299.308 144.66 298.537 144.344L298.065 144.148L298.537 144.088C299.151 144.013 299.402 143.802 299.402 143.366C299.402 142.839 298.899 142.659 297.688 142.764C296.964 142.824 296.461 142.794 296.02 142.628C295.375 142.418 291.05 142.297 290.53 142.493C290.043 142.674 290.279 142.854 290.987 142.854C291.38 142.854 291.694 142.914 291.694 143.005C291.694 143.17 290.877 143.2 290.326 143.065C290.153 143.02 289.964 142.854 289.917 142.689C289.838 142.418 289.665 142.403 287.605 142.403H285.387L285.686 141.981C285.859 141.756 286.283 141.033 286.629 140.371C286.975 139.709 287.384 139.062 287.542 138.927C287.746 138.746 288.281 138.656 289.335 138.595C290.153 138.535 291.789 138.325 292.953 138.099C294.51 137.813 295.894 137.678 298.144 137.587C300.928 137.482 301.982 137.346 302.485 137.015C302.658 136.91 302.784 136.383 302.957 134.909C303.052 134.231 303.13 134.081 303.524 133.885C304.342 133.479 304.452 132.561 303.697 132.38C303.351 132.29 302.108 132.396 301.369 132.561C301.117 132.621 301.007 132.531 300.849 132.125C300.598 131.447 299.984 131.162 298.27 130.936L296.964 130.74L297.955 130.65C299.025 130.545 299.497 130.304 299.088 130.063C298.962 129.988 298.081 129.913 297.121 129.897L295.391 129.867L296.681 129.717L297.955 129.566L298.128 128.919C298.223 128.558 298.285 128.182 298.27 128.077C298.238 127.971 298.521 127.821 298.93 127.73C299.449 127.595 299.654 127.475 299.685 127.249C299.764 126.737 298.836 126.527 296.681 126.557C293.802 126.587 293.834 126.572 293.503 127.73C293.362 128.257 293.268 129.025 293.299 129.446L293.346 130.183L291.82 130.289L290.279 130.394V130.966C290.279 131.538 290.279 131.538 291.065 131.643C291.915 131.748 293.047 131.628 293.205 131.402C293.252 131.327 293.441 131.342 293.629 131.447C293.85 131.583 294.667 131.643 295.973 131.643C297.184 131.643 298.034 131.703 298.144 131.809C298.443 132.095 281.344 132.742 269.924 132.877L261.304 132.967L261.666 132.305C261.917 131.839 262.043 131.297 262.09 130.439C262.153 129.19 261.917 127.58 261.618 127.414C261.272 127.204 261.099 127.73 261.021 129.326C260.958 130.56 260.879 131.011 260.706 131.116C260.14 131.462 259.196 131.598 256.679 131.673L253.989 131.763L253.895 131.402C253.8 131.071 253.785 131.071 253.502 131.312C253.093 131.673 252.227 131.899 251.708 131.779C251.331 131.703 251.284 131.643 251.362 131.327C251.441 131.011 251.409 130.966 251.063 130.966C250.812 130.966 250.576 130.815 250.403 130.575C250.151 130.198 250.104 130.183 249.129 130.289C247.697 130.424 241.028 130.213 241.153 130.018C241.216 129.928 242.428 129.897 244.488 129.943C246.266 129.988 248.248 129.958 248.893 129.897C250.23 129.747 251.677 129.341 251.472 129.145C251.409 129.085 250.89 129.01 250.324 128.979L249.302 128.934L250.088 128.754C250.529 128.663 251.205 128.528 251.63 128.483L252.369 128.393V127.746C252.369 127.129 252.385 127.113 252.809 127.174C253.329 127.234 253.785 126.843 253.502 126.572C253.297 126.376 251.504 126.391 250.088 126.602C249.522 126.692 247.194 126.737 244.866 126.722C242.034 126.707 240.414 126.752 239.942 126.873C239.281 127.038 239.219 127.023 238.998 126.722C238.117 125.488 237.237 124.901 235.978 124.721C235.396 124.63 235.223 124.555 235.192 124.299C235.16 124.044 234.987 123.953 234.437 123.848C233.729 123.728 227.641 123.818 225.832 123.998C224.888 124.074 224.873 124.089 224.763 124.585C224.605 125.398 224.055 125.91 223.3 125.91C222.529 125.925 222.387 126.075 221.097 128.332L220.154 129.988L213.5 130.138L206.846 130.289L206.641 130.665C206.374 131.177 206.641 131.417 207.475 131.417C208.089 131.417 208.151 131.447 208.199 131.824C208.246 132.185 208.34 132.26 208.875 132.35C209.221 132.411 210.291 132.456 211.266 132.456C212.226 132.471 213.122 132.516 213.264 132.561C213.814 132.757 213.358 134.427 212.556 135.134C212.351 135.315 211.817 135.616 211.392 135.812C210.637 136.143 210.401 136.158 205.666 136.233C202.441 136.278 200.711 136.263 200.68 136.158C200.554 135.721 200.129 125.94 200.176 124.194L200.223 122.163L201.56 122.132C202.3 122.102 205.241 121.982 208.089 121.862C210.951 121.741 214.491 121.636 215.954 121.636C223.504 121.621 225.58 121.109 226.713 118.957C226.965 118.461 227.358 117.859 227.594 117.603C228.05 117.076 227.657 117.121 234.83 116.73C239.753 116.474 245.904 116.008 248.798 115.692C251.205 115.421 251.378 115.421 251.174 115.616C251.095 115.692 250.245 115.902 249.302 116.068C248.342 116.248 246.517 116.625 245.227 116.926L242.899 117.452L242.978 117.874C243.057 118.235 243.01 118.295 242.506 118.415C241.704 118.611 241.484 119.002 241.971 119.394C242.317 119.664 242.585 119.68 245.715 119.664C247.571 119.664 249.113 119.68 249.16 119.71C249.239 119.8 244.771 120.116 243.953 120.086C243.466 120.056 243.324 120.116 243.277 120.342C243.214 120.613 243.308 120.628 244.724 120.552C246.313 120.477 247.021 120.537 247.021 120.748C247.021 120.823 246.03 120.883 244.803 120.883C242.837 120.883 242.49 120.929 241.814 121.214C241.106 121.53 240.713 121.982 240.949 122.193C240.996 122.253 243.025 122.313 245.448 122.358C249.789 122.433 249.852 122.418 249.852 122.117C249.852 121.922 249.711 121.786 249.427 121.696C249.003 121.591 249.003 121.591 249.616 121.47C249.962 121.41 250.875 121.35 251.63 121.35L253.014 121.335L252.967 122.193L252.92 123.065L253.439 123.05C254.021 123.02 254.005 122.99 253.753 123.773C253.596 124.269 253.612 124.39 253.8 124.51C254.398 124.871 254.681 124.48 254.886 123.111C254.964 122.599 255.09 122.147 255.153 122.087C255.216 122.012 255.641 122.042 256.081 122.132C257.607 122.433 258.063 122.102 258.818 120.161C259.416 118.626 259.542 117.663 259.306 116.279C259.212 115.707 259.18 115.225 259.227 115.18C259.259 115.135 259.605 115.391 259.967 115.737C260.47 116.218 260.769 116.369 261.146 116.369C261.603 116.369 261.65 116.324 261.65 115.917C261.65 115.662 261.728 115.466 261.823 115.466C262.122 115.466 261.839 118.325 261.319 120.582C261.068 121.696 260.816 123.065 260.753 123.607C260.675 124.48 260.706 124.615 260.958 124.721C261.43 124.916 269.09 124.931 276.861 124.766C283.42 124.615 285.717 124.661 285.717 124.916C285.717 124.977 284.49 125.037 282.98 125.037C281.454 125.052 280.117 125.127 279.96 125.217C279.708 125.353 279.74 125.398 280.243 125.624C280.731 125.849 281.045 125.864 282.697 125.759C283.735 125.684 284.742 125.654 284.931 125.699C285.261 125.774 285.261 125.789 284.978 126.015C284.82 126.15 284.097 126.542 283.373 126.873C282.068 127.46 282.036 127.46 281.8 127.174C281.58 126.933 281.375 126.888 280.369 126.933C279.236 126.978 279.189 126.993 279.142 127.369C279.095 127.776 279.158 127.761 277.537 127.791C277.317 127.806 276.515 127.49 275.744 127.113C274.737 126.617 274.155 126.421 273.62 126.406C272.913 126.376 272.897 126.391 272.85 126.858C272.803 127.324 272.755 127.354 272.189 127.354C271.607 127.354 271.576 127.384 271.34 128.062C270.915 129.25 270.899 129.235 272.456 129.19C274.218 129.115 275.288 129.341 275.98 129.928L276.515 130.364L276.169 130.605C275.713 130.906 275.713 131.402 276.137 131.929C276.499 132.365 277.191 132.456 277.301 132.095C277.537 131.372 277.537 131.372 277.758 131.568C277.946 131.703 278.025 131.673 278.167 131.417L278.34 131.101L278.607 131.417C278.764 131.613 279.142 131.763 279.519 131.824C280.605 131.959 281.297 131.357 280.479 131.011C280.133 130.861 280.101 130.725 280.007 129.371C279.928 128.182 279.944 127.851 280.133 127.67C280.322 127.49 280.432 127.49 280.778 127.64L281.202 127.821L281.092 129.28C281.014 130.424 281.029 130.815 281.202 131.026C281.423 131.312 281.486 131.267 282.665 130.349C283.735 129.521 284.018 129.386 284.695 129.311C285.418 129.235 285.481 129.205 285.575 128.754C285.623 128.498 285.969 127.956 286.33 127.565C286.692 127.174 286.96 126.782 286.928 126.692C286.897 126.602 286.645 126.391 286.378 126.226C286.11 126.06 285.89 125.88 285.874 125.834C285.874 125.714 296.162 125.804 298.899 125.94C299.858 125.985 300.661 126.09 300.661 126.165C300.661 126.226 300.519 126.421 300.346 126.572C299.858 126.993 299.654 129.928 300.031 130.876C300.189 131.297 300.22 131.297 300.472 131.056C300.692 130.861 300.755 130.469 300.787 129.115L300.834 127.43L301.62 126.737C302.375 126.06 302.564 125.579 302.265 125.157C302.202 125.067 301.699 124.916 301.133 124.811C300.582 124.706 299.858 124.495 299.544 124.33C298.852 123.998 298.097 123.186 298.207 122.9C298.474 122.223 299.434 118.476 299.654 117.212C299.921 115.707 299.906 112.592 299.638 111.96C299.465 111.553 298.27 111.102 296.98 110.951C296.162 110.861 295.187 110.891 293.205 111.117C291.726 111.267 289.665 111.403 288.643 111.403C287.605 111.403 286.173 111.508 285.434 111.644C284.569 111.794 283.814 111.839 283.295 111.779C282.854 111.719 281.454 111.689 280.164 111.704C278.025 111.734 277.773 111.704 276.782 111.343C275.587 110.906 270.805 110.139 267.863 109.913C266.825 109.823 263.71 109.657 260.942 109.522C258.173 109.386 255.263 109.251 254.461 109.206L253.03 109.115L252.306 107.581C251.095 104.992 251.063 104.872 251.032 102.825C251 101.125 250.938 100.779 250.434 99.2888C250.135 98.3709 249.805 97.167 249.711 96.5951C249.538 95.5117 249.223 95 248.72 95C248.436 95 248.421 95.0753 248.515 95.8578ZM235.034 98.5514C235.333 98.8825 235.491 98.9277 235.884 98.8524C236.387 98.7621 238.983 99.033 239.187 99.1985C239.25 99.2437 235.569 99.2888 231.007 99.2888C219.367 99.2888 209.897 99.6951 208.608 100.237C207.003 100.914 205.902 103.051 204.628 108.002C203.936 110.665 203.904 111.674 204.518 112.321C205.1 112.953 206.169 113.209 207.617 113.058C208.23 112.983 210.023 112.863 211.628 112.772C213.232 112.667 219.178 112.2 224.841 111.704C235.097 110.816 236.702 110.711 245.369 110.274C250.89 110.003 258.126 110.124 257.009 110.485C256.648 110.59 254.98 110.726 252.998 110.801C251.142 110.861 249.365 110.966 249.066 111.012C247.43 111.282 230.504 112.456 217.369 113.209C202.992 114.036 199.201 114.262 198.336 114.352C197.077 114.473 197.282 114.337 198.808 114.036C199.5 113.901 200.349 113.645 200.695 113.465C201.262 113.164 201.372 113.013 201.749 111.93C202.331 110.274 204.109 104.541 204.549 102.931C204.895 101.666 204.895 101.606 204.628 101.32C203.92 100.568 201.875 100.402 198.1 100.794C196.023 101.004 189.841 101.847 187.01 102.314C181.19 103.262 174.552 105.383 171.406 107.325C169.644 108.393 166.026 112.02 165.554 113.179C165.129 114.202 165.114 115.3 165.538 115.722C165.79 115.993 165.806 116.053 165.601 116.128C165.255 116.264 161.92 116.429 161.92 116.324C161.92 116.264 162.235 115.827 162.597 115.361C162.974 114.879 163.572 114.081 163.918 113.585C164.878 112.231 168.386 108.92 170.1 107.761C173.309 105.594 179.287 103.066 184.666 101.621C186.522 101.125 189.731 100.643 195.268 100.056C205.886 98.9126 230.032 97.7087 230.032 98.3107C230.032 98.401 229.859 98.4311 229.623 98.3709C229.309 98.2956 229.23 98.3257 229.277 98.4762C229.403 98.8223 229.875 98.8223 230.362 98.4762C230.992 98.0248 232.03 98.0398 232.25 98.4913C232.392 98.8073 232.502 98.8374 233.273 98.7922C234.216 98.732 234.405 98.3859 233.493 98.3859C233.178 98.3859 232.942 98.2956 232.895 98.1752C232.832 98.0097 232.989 97.9796 233.744 98.0549C234.484 98.1301 234.751 98.2204 235.034 98.5514ZM237.378 101.065C237.913 101.08 238.29 101.155 238.228 101.215C238.149 101.29 237.819 101.35 237.473 101.35C237.142 101.335 236.733 101.381 236.576 101.426C236.277 101.501 236.277 101.516 236.56 101.712C236.717 101.832 237.079 101.922 237.331 101.922C237.708 101.922 237.756 101.967 237.583 102.073C237.457 102.148 237.016 102.223 236.607 102.223C236.073 102.223 235.852 102.283 235.852 102.434C235.852 102.75 236.293 102.855 237.189 102.75C238.228 102.615 238.338 102.539 238.605 101.832L238.81 101.26L239.769 101.275C241.012 101.275 241.342 101.561 242.176 103.262C242.506 103.954 243.277 105.203 243.875 106.061C244.881 107.475 245.762 109.01 245.762 109.371C245.762 109.582 239.816 109.371 237.504 109.07C236.466 108.935 234.94 108.694 234.122 108.529C233.304 108.363 232.203 108.167 231.684 108.077C231.165 108.002 230.252 107.791 229.639 107.626C228.27 107.234 227.578 107.295 225.785 108.002C225.046 108.288 223.96 108.604 223.363 108.694C222.765 108.784 220.405 109.341 218.093 109.928C215.796 110.515 213.138 111.192 212.178 111.433C210.291 111.899 207.805 112.125 206.909 111.899C206.154 111.704 205.918 110.921 206.028 109.07C206.169 106.632 207.333 103.352 208.403 102.329C209.646 101.155 214.003 100.854 227.909 100.974C232.58 101.004 236.843 101.05 237.378 101.065ZM200.066 102.961C200.16 103.111 198.273 104.24 198.147 104.119C198.1 104.089 198.226 103.984 198.399 103.879C198.587 103.788 198.729 103.593 198.729 103.442C198.729 103.262 198.918 103.126 199.327 103.021C199.641 102.931 199.925 102.855 199.94 102.84C199.956 102.84 200.003 102.885 200.066 102.961ZM202.08 102.916C202.127 102.976 201.309 103.608 200.271 104.36C198.226 105.79 195.599 107.4 195.473 107.295C195.363 107.174 197.549 105.519 199.641 104.149C201.592 102.87 201.875 102.72 202.08 102.916ZM196.841 103.036C196.841 103.081 196.417 103.412 195.898 103.788C195.379 104.165 194.954 104.435 194.954 104.375C194.954 104.195 196.401 102.976 196.621 102.976C196.747 102.976 196.841 103.006 196.841 103.036ZM198.572 103.051C198.572 103.081 198.352 103.232 198.1 103.352C197.832 103.487 196.904 104.119 196.008 104.751C194.309 106 194.01 106.196 194.01 106.091C194.01 105.97 196.118 104.39 197.235 103.668C198.241 103.021 198.572 102.87 198.572 103.051ZM194.954 103.502C194.844 103.623 194.639 103.728 194.498 103.728C194.309 103.713 194.325 103.653 194.623 103.412C195.032 103.081 195.268 103.141 194.954 103.502ZM190.864 103.548C190.864 103.668 188.316 105.444 187.718 105.76C187.23 106.016 187.828 105.534 189.291 104.496C190.943 103.337 190.864 103.382 190.864 103.548ZM189.197 103.849C189.102 103.909 188.788 104.134 188.489 104.36C188.19 104.586 187.734 104.842 187.482 104.932L187.01 105.098L187.482 104.616C187.938 104.149 189.134 103.517 189.275 103.668C189.322 103.713 189.291 103.788 189.197 103.849ZM187.482 103.999C187.089 104.315 186.161 104.932 186.066 104.932C185.862 104.932 186.271 104.45 186.711 104.165C187.152 103.894 187.781 103.743 187.482 103.999ZM191.116 107.219C189.385 112.11 189.228 113.329 190.298 114.202C191.006 114.789 190.88 114.864 189.102 114.864H187.844L188.237 114.217C188.835 113.224 189.354 111.839 190.219 108.965C191.194 105.73 191.855 103.969 191.934 104.435C191.965 104.631 191.588 105.88 191.116 107.219ZM183.974 104.797C183.691 105.052 183.408 105.218 183.361 105.173C183.219 105.037 183.958 104.33 184.242 104.33C184.415 104.33 184.32 104.481 183.974 104.797ZM202.756 105.037C202.52 105.233 202.001 105.504 201.592 105.609C201.183 105.73 200.286 106.241 199.61 106.738C198.116 107.821 197.707 107.942 198.949 106.918C200.868 105.383 204.282 103.683 202.756 105.037ZM194.325 105.007C194.214 105.143 194.089 105.203 194.026 105.158C193.979 105.113 194.041 105.007 194.167 104.932C194.498 104.721 194.545 104.751 194.325 105.007ZM189.543 105.624C189.37 105.73 189.197 105.79 189.149 105.745C189.102 105.699 189.197 105.564 189.354 105.444C189.527 105.338 189.7 105.278 189.747 105.323C189.794 105.368 189.7 105.504 189.543 105.624ZM186.617 105.534C186.617 105.609 186.381 105.79 186.113 105.91L185.594 106.151L186.066 105.775C186.601 105.338 186.617 105.323 186.617 105.534ZM178.657 106.046C178.547 106.316 177.902 106.738 177.619 106.738C177.509 106.723 177.666 106.527 177.965 106.286C178.547 105.79 178.783 105.715 178.657 106.046ZM190.219 106.226C190.125 106.347 189.936 106.437 189.826 106.437C189.511 106.437 189.558 106.016 189.889 105.94C190.282 105.865 190.439 105.985 190.219 106.226ZM179.224 106.557C179.224 106.753 179.035 106.888 178.878 106.798C178.72 106.708 178.862 106.437 179.082 106.437C179.161 106.437 179.224 106.497 179.224 106.557ZM180.482 106.738C180.482 106.813 180.167 107.806 179.79 108.95C177.997 114.262 177.887 114.729 178.311 115.135C178.5 115.315 178.547 115.3 177.462 115.586C176.691 115.782 176.549 115.571 177.084 115.03C177.305 114.804 177.493 114.503 177.493 114.367C177.493 114.232 177.619 113.991 177.776 113.841C177.918 113.705 178.233 112.938 178.469 112.155C178.909 110.605 179.979 107.084 180.089 106.768C180.167 106.557 180.482 106.527 180.482 106.738ZM202.19 106.873C202.19 107.039 202.017 107.701 201.812 108.348C201.608 108.995 201.277 110.064 201.089 110.726C200.695 112.125 200.475 112.516 199.783 112.908C198.918 113.419 198.839 113.344 198.949 112.155C199.169 110.079 199.767 108.769 201.136 107.37C201.985 106.527 202.19 106.422 202.19 106.873ZM188.001 107.174C188.898 107.249 189.653 107.34 189.684 107.37C189.889 107.565 188.033 112.802 187.403 113.765C187.12 114.217 187.01 114.262 186.349 114.262C185.925 114.262 184.855 114.367 183.943 114.488C183.03 114.608 181.772 114.714 181.127 114.714H179.963L180.057 113.765C180.105 113.254 180.293 112.426 180.466 111.93C181.316 109.416 182.071 107.565 182.275 107.46C182.904 107.114 185.579 106.994 188.001 107.174ZM178.689 108.062C178.421 109.748 177.179 113.088 176.361 114.413L175.842 115.24L172.853 115.225C169.203 115.21 168.574 115.075 168.653 114.247C168.684 113.961 168.81 113.51 168.936 113.239C169.219 112.577 170.776 110.605 171.768 109.657C172.963 108.529 173.671 108.258 176.109 108.002C177.242 107.897 178.248 107.731 178.343 107.641C178.657 107.34 178.783 107.505 178.689 108.062ZM194.859 108.544C195.772 109.131 196.464 109.943 196.763 110.786C197.014 111.478 197.077 113.013 196.873 113.299C196.716 113.54 193.349 114.021 192.689 113.901C192.028 113.781 191.65 113.224 191.65 112.381C191.65 112.08 191.934 111.012 192.28 109.988C192.626 108.98 192.909 108.032 192.909 107.897C192.909 107.671 192.972 107.671 193.538 107.866C193.884 107.987 194.482 108.288 194.859 108.544ZM226.225 109.236C226.918 109.687 226.477 110.319 225.675 110.033C225.25 109.883 225.046 109.311 225.329 109.131C225.643 108.95 225.832 108.965 226.225 109.236ZM228.459 109.266C228.821 109.477 228.884 109.582 228.742 109.717C228.333 110.109 227.358 109.793 227.358 109.296C227.358 108.905 227.814 108.905 228.459 109.266ZM230.74 109.597C230.693 109.672 230.583 109.748 230.488 109.748C230.41 109.748 230.347 109.672 230.347 109.597C230.347 109.507 230.457 109.447 230.598 109.447C230.724 109.447 230.787 109.507 230.74 109.597ZM224.479 109.823C224.589 110.124 224.479 110.229 224.165 110.109C223.772 109.973 223.693 109.597 224.07 109.597C224.243 109.597 224.416 109.702 224.479 109.823ZM223.174 110.124C223.221 110.259 223.158 110.395 223.001 110.455C222.733 110.56 222.293 110.349 222.198 110.079C222.104 109.808 223.064 109.853 223.174 110.124ZM221.349 110.47C221.396 110.605 221.302 110.665 221.05 110.62C220.861 110.605 220.673 110.485 220.625 110.38C220.578 110.244 220.673 110.184 220.924 110.229C221.113 110.244 221.302 110.365 221.349 110.47ZM265.913 110.65C269.814 111.027 272.771 111.809 274.564 112.968L275.571 113.6L275.587 114.473C275.618 115.18 275.713 115.481 276.074 115.978C276.531 116.61 278.261 117.829 278.45 117.663C278.638 117.467 278.67 115.616 278.481 115.165C278.214 114.533 277.207 113.69 275.681 112.832C274.973 112.411 274.391 112.035 274.391 111.99C274.391 111.945 275.256 112.095 276.326 112.336C284.191 114.112 289.241 117.528 291.317 122.464C291.616 123.171 291.852 123.788 291.852 123.833C291.852 123.893 289.398 123.908 286.409 123.848C280.337 123.758 280.573 123.803 280.416 122.704C280.369 122.358 280.274 122.042 280.196 121.997C279.928 121.847 279.441 122.539 279.346 123.201C279.236 123.848 279.205 123.893 278.733 123.893C275.665 123.878 261.902 123.577 261.823 123.517C261.76 123.487 261.902 122.479 262.169 121.305C262.578 119.394 262.641 118.837 262.657 116.294C262.672 113.675 262.641 113.359 262.326 112.531C262.122 112.05 261.744 111.388 261.493 111.072L261.005 110.5H262.641C263.553 110.5 265.016 110.575 265.913 110.65ZM218.392 110.951C218.392 111.027 218.203 111.102 217.983 111.102C217.763 111.102 217.621 111.042 217.684 110.951C217.731 110.861 217.92 110.801 218.093 110.801C218.25 110.801 218.392 110.861 218.392 110.951ZM257.717 111.629C257.717 111.674 257.481 112.125 257.198 112.637L256.663 113.585L256.506 113.103C256.38 112.727 256.396 112.562 256.553 112.441C256.821 112.231 256.836 111.749 256.585 111.659C256.475 111.614 256.679 111.568 257.057 111.568C257.418 111.553 257.717 111.583 257.717 111.629ZM252.794 113.194L252.825 114.548L252.165 114.638C249.789 114.939 244.819 115.346 241.09 115.541C238.684 115.662 235.475 115.857 233.965 115.993C232.455 116.113 226.65 116.489 221.066 116.82C215.482 117.151 208.56 117.588 205.682 117.768C202.787 117.949 200.412 118.069 200.396 118.024C200.255 117.798 200.821 115.963 201.151 115.556C201.529 115.075 201.576 115.06 203.086 114.969C203.936 114.909 206.012 114.759 207.695 114.638C211.313 114.382 218.14 113.991 229.718 113.359C241.72 112.712 247.713 112.321 249.066 112.08C249.711 111.975 250.812 111.884 251.504 111.869L252.762 111.854L252.794 113.194ZM296.052 112.08C296.083 112.17 295.942 112.321 295.769 112.441C295.47 112.607 295.407 112.607 295.297 112.411C295.187 112.246 294.998 112.231 294.337 112.321C293.881 112.396 292.229 112.516 290.672 112.607C289.115 112.682 286.913 112.863 285.764 112.998C284.018 113.224 283.546 113.224 282.807 113.073C282.335 112.968 281.973 112.832 282.005 112.772C282.052 112.712 282.461 112.652 282.917 112.622C286.677 112.471 294.903 112.005 294.966 111.93C295.124 111.794 295.989 111.915 296.052 112.08ZM290.169 113.465C289.791 113.495 289.492 113.57 289.492 113.63C289.492 113.69 288.847 113.75 288.077 113.75C287.29 113.765 286.661 113.72 286.661 113.645C286.661 113.449 287.148 113.389 289.02 113.404C290.011 113.404 290.53 113.434 290.169 113.465ZM255.83 113.66C255.83 113.735 255.625 113.811 255.358 113.811C255.106 113.811 254.886 113.735 254.886 113.66C254.886 113.57 255.106 113.51 255.358 113.51C255.625 113.51 255.83 113.57 255.83 113.66ZM289.602 114.352C289.555 114.398 289.414 114.413 289.303 114.367C289.178 114.322 289.225 114.277 289.398 114.277C289.571 114.262 289.665 114.307 289.602 114.352ZM288.014 114.608C287.447 114.774 287.416 114.804 287.668 115.014C287.935 115.21 287.935 115.24 287.652 115.421C287.416 115.601 287.4 115.647 287.605 115.767C287.998 116.008 288.423 115.932 288.501 115.616C288.596 115.27 289.414 115.014 290.436 115.014C291.081 115.03 291.112 115.045 290.845 115.24C290.593 115.421 290.578 115.496 290.751 115.692C290.924 115.887 290.814 115.917 289.838 115.917C289.193 115.917 288.674 115.993 288.611 116.083C288.454 116.339 288.847 116.504 289.477 116.429C290.043 116.369 290.043 116.369 289.618 116.549C289.115 116.76 289.036 117.121 289.492 117.121C289.697 117.121 289.807 117.227 289.807 117.407C289.807 117.573 290.027 117.844 290.279 118.024C290.546 118.205 290.751 118.476 290.751 118.641C290.751 118.837 290.861 118.927 291.128 118.927C291.348 118.927 291.569 118.852 291.616 118.777C291.805 118.491 292.009 118.626 291.93 118.972C291.868 119.198 291.915 119.394 292.072 119.514C292.339 119.725 292.387 120.116 292.229 120.703L292.119 121.049L291.757 120.718C291.537 120.522 291.144 120.026 290.877 119.619C290.153 118.521 289.351 117.573 289.115 117.573C289.005 117.573 288.69 117.272 288.407 116.896C288.124 116.504 287.605 116.038 287.274 115.827C286.787 115.541 286.661 115.376 286.661 115.03C286.661 114.729 286.566 114.563 286.393 114.518C286.236 114.473 286.677 114.443 287.369 114.443C288.58 114.443 288.596 114.443 288.014 114.608ZM257.623 115.105C257.544 115.376 257.623 115.586 257.89 115.857C258.189 116.158 258.205 116.218 257.969 116.218C257.827 116.218 257.67 116.113 257.623 115.993C257.497 115.692 257.135 115.707 256.946 116.023C256.711 116.444 256.6 116.158 256.789 115.601C257.025 114.969 257.214 114.714 257.497 114.714C257.654 114.714 257.702 114.819 257.623 115.105ZM200.035 115.782C199.767 116.173 199.563 116.7 199.516 117.166C199.437 117.859 199.39 117.934 198.965 118.054C198.713 118.13 196.826 118.28 194.781 118.4C192.736 118.506 190.864 118.656 190.612 118.716C189.873 118.882 190.266 118.641 191.194 118.355C192.091 118.084 192.579 117.543 192.374 117.046C192.295 116.82 192.138 116.79 191.336 116.865C190.439 116.941 190.376 116.926 190.062 116.504C189.668 115.978 189.134 115.932 188.347 116.384C187.592 116.835 187.403 117.106 187.576 117.543C187.859 118.235 187.749 118.581 187.23 118.762C186.947 118.852 186.522 118.927 186.271 118.927C185.815 118.927 185.799 118.912 185.909 118.28C185.972 117.934 186.239 117.242 186.522 116.745L187.042 115.842L188.835 115.722C191.886 115.526 200.381 115.075 200.428 115.105C200.459 115.12 200.286 115.421 200.035 115.782ZM255.83 115.978C255.83 116.098 255.767 116.248 255.672 116.294C255.594 116.339 255.515 116.248 255.515 116.083C255.515 115.902 255.594 115.767 255.672 115.767C255.767 115.767 255.83 115.857 255.83 115.978ZM185.594 116.7C185.39 117.136 185.138 117.814 185.044 118.205C184.871 118.867 184.824 118.897 184.21 118.987C182.904 119.153 177.179 119.529 177.179 119.454C177.179 119.439 177.635 119.198 178.201 118.942C179.853 118.16 179.979 117.528 178.516 117.347C178.012 117.287 177.336 117.151 176.99 117.031C176.109 116.73 175.558 116.76 175.055 117.151C174.678 117.437 174.63 117.543 174.709 118.084C174.756 118.431 174.851 118.837 174.898 119.017C175.055 119.484 174.599 119.83 173.86 119.83C173.089 119.83 173.073 119.725 173.86 117.874L174.442 116.444L177.273 116.339C178.815 116.279 180.938 116.158 181.976 116.098C183.015 116.023 184.336 115.948 184.918 115.932L185.972 115.917L185.594 116.7ZM294.841 116.218C294.841 116.294 294.778 116.369 294.683 116.369C294.605 116.369 294.526 116.294 294.526 116.218C294.526 116.128 294.605 116.068 294.683 116.068C294.778 116.068 294.841 116.128 294.841 116.218ZM296.634 116.745C296.775 116.941 297.027 117.242 297.216 117.407C297.405 117.573 297.499 117.768 297.452 117.844C297.232 118.19 297.31 119.695 297.562 119.95C297.798 120.191 297.798 120.312 297.578 121.184C297.452 121.726 297.326 122.674 297.31 123.291L297.279 124.42L297.876 124.555C298.191 124.63 298.458 124.751 298.458 124.826C298.458 124.886 296.178 124.947 293.393 124.947C290.059 124.947 288.391 124.886 288.548 124.796C288.674 124.721 289.681 124.646 290.782 124.646C293.189 124.646 293.157 124.676 292.701 122.569C292.638 122.298 292.701 122.238 293.032 122.238C294.746 122.238 295.879 120.522 296.067 117.603C296.099 116.926 296.193 116.369 296.256 116.369C296.319 116.369 296.492 116.534 296.634 116.745ZM252.054 117.001C252.054 117.061 251.63 117.121 251.095 117.121C250.513 117.121 250.183 117.061 250.245 116.971C250.293 116.881 250.513 116.82 250.717 116.82C250.922 116.82 251.126 116.76 251.189 116.67C251.299 116.504 252.054 116.79 252.054 117.001ZM173.23 117.332C172.979 117.708 172.648 118.446 172.507 118.987L172.255 119.965L171.469 120.131C170.084 120.417 168.92 121.139 167.536 122.554C166.498 123.622 166.199 123.848 165.979 123.728C165.837 123.652 165.082 123.442 164.327 123.261C163.116 122.96 162.534 122.915 159.64 122.93C155.943 122.93 154.433 123.111 151.9 123.923C149.682 124.63 146.442 126.632 144.79 128.317C144.067 129.085 143.831 129.13 143.658 128.543C143.595 128.347 143.139 126.993 142.651 125.548C141.361 121.726 140.669 118.626 141.125 118.626C141.408 118.626 149.415 118.13 158.067 117.573C171.469 116.715 171.484 116.715 172.648 116.685L173.702 116.67L173.23 117.332ZM189.291 117.272C189.291 117.467 189.181 117.573 188.976 117.573C188.772 117.573 188.662 117.467 188.662 117.272C188.662 117.076 188.772 116.971 188.976 116.971C189.181 116.971 189.291 117.076 189.291 117.272ZM226.414 117.437C226.414 117.738 224.983 119.484 224.605 119.649C223.724 120.041 222.293 120.161 212.336 120.658C209.913 120.778 206.799 120.914 205.414 120.959C204.03 121.004 202.237 121.079 201.45 121.124L199.987 121.199V120.327C199.987 118.731 199.862 118.822 202.316 118.716C207.082 118.491 211.738 118.13 212.336 117.934C212.792 117.783 213.909 117.723 216.426 117.708C218.329 117.708 220.846 117.603 222.01 117.497C224.81 117.242 226.414 117.227 226.414 117.437ZM176.471 117.814C176.785 118.114 176.707 118.385 176.298 118.446C175.826 118.506 175.558 118.25 175.684 117.889C175.81 117.513 176.109 117.482 176.471 117.814ZM249.774 117.859C249.679 117.934 248.767 118.024 247.729 118.054C245.998 118.114 245.904 118.099 246.627 117.934C247.556 117.723 249.994 117.663 249.774 117.859ZM251.189 118.611C251.409 118.701 251.174 118.762 250.403 118.837C249.805 118.897 248.924 118.972 248.484 119.017C247.949 119.078 247.65 119.063 247.65 118.957C247.65 118.867 248.059 118.762 248.562 118.701C249.05 118.641 249.538 118.581 249.616 118.551C249.899 118.461 250.875 118.491 251.189 118.611ZM246.785 118.927C246.329 119.108 244.457 119.108 244.583 118.927C244.63 118.837 245.228 118.777 245.888 118.792C246.706 118.792 247.005 118.837 246.785 118.927ZM199.044 120.116V121.29L195.473 121.395C193.491 121.44 190.455 121.53 188.693 121.576L185.5 121.681L185.547 120.718L185.594 119.755L186.459 119.649C186.931 119.589 189.81 119.409 192.83 119.258C195.866 119.093 198.493 118.957 198.698 118.942C199.028 118.927 199.044 118.972 199.044 120.116ZM243.875 118.987C243.875 119.108 243.072 119.183 242.994 119.063C242.947 118.987 243.135 118.927 243.387 118.927C243.654 118.927 243.875 118.957 243.875 118.987ZM251.079 119.604C251.032 119.649 250.717 119.725 250.387 119.785C249.962 119.845 249.821 119.815 249.931 119.71C250.025 119.619 250.308 119.529 250.56 119.499C251.063 119.439 251.221 119.484 251.079 119.604ZM184.808 120.763C184.745 121.29 184.682 121.726 184.651 121.756C184.635 121.771 183.03 121.862 181.096 121.952C179.161 122.027 176.581 122.193 175.37 122.298C174.158 122.403 173.12 122.464 173.057 122.433C172.853 122.328 172.916 121.139 173.136 120.733L173.341 120.357L177.651 120.116C180.026 119.981 182.637 119.86 183.439 119.86L184.918 119.83L184.808 120.763ZM140.118 120.673C140.291 121.109 140.213 121.335 139.898 121.335C139.552 121.335 139.536 121.29 139.678 120.763C139.788 120.372 139.977 120.327 140.118 120.673ZM249.459 120.567C249.365 120.733 248.751 120.718 248.751 120.552C248.751 120.492 248.94 120.432 249.16 120.432C249.38 120.432 249.522 120.492 249.459 120.567ZM172.145 121.771V122.644L171.437 122.915C170.493 123.261 169.943 123.713 169.219 124.766C168.905 125.232 168.621 125.639 168.59 125.669C168.527 125.759 166.954 125.067 166.954 124.947C166.954 124.886 167.237 124.42 167.599 123.908C168.559 122.524 170.006 121.425 171.359 121.019C172.114 120.808 172.145 120.838 172.145 121.771ZM254.115 122.193C253.958 122.448 253.958 122.448 253.942 122.163C253.942 121.997 254.005 121.696 254.068 121.485L254.178 121.109L254.225 121.515C254.257 121.741 254.209 122.042 254.115 122.193ZM246.911 121.485C247.776 121.485 248.452 121.515 248.405 121.561C248.374 121.606 247.556 121.666 246.58 121.696C245.212 121.741 244.771 121.711 244.551 121.53C244.299 121.335 244.315 121.32 244.803 121.395C245.086 121.44 246.045 121.485 246.911 121.485ZM243.057 121.591C242.899 121.621 242.648 121.621 242.506 121.591C242.349 121.546 242.475 121.515 242.774 121.515C243.072 121.515 243.198 121.546 243.057 121.591ZM199.012 122.418C199.107 122.539 199.169 123.743 199.185 125.323C199.201 128.272 199.437 132.892 199.673 134.803C199.767 135.48 199.767 136.052 199.689 136.128C199.61 136.203 196.826 136.233 193.444 136.203C188.206 136.158 187.246 136.112 186.758 135.902L186.176 135.661L186.082 133.946C186.019 133.012 185.909 130.409 185.83 128.182C185.736 125.94 185.626 123.833 185.579 123.502L185.484 122.87L187.042 122.78C187.891 122.734 190.565 122.614 192.988 122.524C195.394 122.448 197.408 122.343 197.455 122.298C197.612 122.147 198.855 122.253 199.012 122.418ZM140.889 123.547C141.314 124.962 141.314 125.022 140.716 125.067C140.26 125.112 140.181 125.052 139.993 124.615C139.867 124.345 139.725 123.803 139.662 123.397L139.552 122.689H140.087C140.622 122.689 140.637 122.719 140.889 123.547ZM184.792 125.804C184.934 129.913 185.201 135.029 185.295 135.495C185.39 135.872 185.358 135.887 184.383 135.992C183.848 136.037 181.221 136.037 178.579 135.992L173.75 135.887L173.655 135.195C173.545 134.322 173.293 129.928 173.152 126.211L173.057 123.336L175.307 123.216C178.657 123.05 182.291 122.885 183.565 122.87L184.698 122.84L184.792 125.804ZM161.92 123.743C162.738 123.788 163.163 123.863 162.864 123.878C161.795 123.923 156.918 123.968 156.965 123.923C156.997 123.893 157.359 123.818 157.783 123.743C158.727 123.592 159.986 123.592 161.92 123.743ZM171.988 124.074C171.988 124.269 172.098 126.045 172.208 128.031C172.334 130.018 172.491 132.606 172.554 133.78L172.664 135.932H171.941C171.123 135.932 170.462 136.338 170.619 136.729C170.698 136.925 170.934 136.985 171.657 136.985C172.176 136.985 172.633 137.045 172.68 137.121C172.837 137.346 171.972 137.467 170.808 137.362L169.691 137.256L169.502 135.556C169.219 132.952 168.574 131.222 167.489 130.063C166.702 129.235 166.105 128.934 164.83 128.694C163.383 128.423 159.136 128.423 157.988 128.679C156.84 128.949 155.55 129.401 155.078 129.702C154.826 129.867 154.543 129.913 154.213 129.837C153.237 129.627 151.696 131.026 151.098 132.636C150.721 133.72 150.437 135.21 150.437 136.263V136.985H149.053C148.282 136.985 146.379 136.94 144.822 136.88L141.99 136.79L142.258 135.947C143.579 131.824 146.599 128.347 150.516 126.496C154.999 124.36 161.118 124.134 166.183 125.91C166.734 126.105 167.552 126.406 167.977 126.572C168.511 126.782 168.857 126.828 169.03 126.737C169.172 126.662 169.675 126.06 170.163 125.413C171.296 123.863 171.988 123.366 171.988 124.074ZM164.516 124.194C164.642 124.39 164.28 124.39 163.965 124.194C163.777 124.074 163.792 124.044 164.075 124.044C164.264 124.044 164.469 124.104 164.516 124.194ZM235.899 126.135C236.623 126.301 237.205 126.782 237.315 127.294C237.378 127.655 237.189 127.806 237.079 127.475C236.985 127.204 236.497 127.445 236.308 127.866C236.041 128.393 236.23 128.709 236.796 128.709C237.425 128.709 237.394 128.979 236.717 129.612C236.419 129.897 236.167 130.198 236.167 130.304C236.167 130.394 236.387 130.921 236.639 131.462C236.906 132.019 237.111 132.501 237.111 132.546C237.111 132.591 236.953 132.591 236.749 132.546C236.419 132.456 236.403 132.501 236.356 133.599C236.324 134.502 236.356 134.743 236.56 134.818C236.875 134.939 236.859 135.104 236.466 135.631C236.277 135.872 236.167 136.173 236.214 136.293C236.387 136.699 236.183 136.564 235.931 136.082C235.664 135.601 235.616 134.096 235.837 133.178C236.01 132.501 235.837 132.456 235.223 133.043C234.232 134.006 234.578 136.925 235.774 137.678C236.088 137.873 236.135 137.978 236.01 138.204C235.915 138.355 235.884 138.656 235.947 138.881C236.041 139.243 236.025 139.273 235.679 139.167C234.028 138.686 233.147 135.48 233.949 132.922C234.468 131.312 234.153 130.484 233.493 131.718C232.25 134.051 232.549 137.843 234.106 139.438C235.034 140.416 235.962 140.552 236.497 139.799C236.702 139.544 237.268 138.896 237.771 138.37C238.684 137.422 239.03 136.654 238.369 136.985C237.929 137.211 237.976 137.03 238.526 136.444C239.03 135.887 239.549 135.029 239.36 135.029C239.297 135.029 239.093 135.179 238.888 135.36C238.322 135.872 238.259 135.526 238.825 134.969C239.281 134.517 239.313 134.412 239.187 133.961C239.046 133.434 238.998 133.419 238.448 133.614C238.165 133.72 238.165 133.69 238.511 133.329C238.888 132.922 238.841 132.621 238.401 132.621C238.196 132.621 238.117 132.501 238.133 132.2C238.133 131.914 238.023 131.748 237.787 131.643C237.583 131.568 237.425 131.417 237.425 131.327C237.425 131.146 238.243 130.078 238.385 130.063C238.432 130.063 238.668 130.529 238.92 131.116C239.234 131.869 239.329 132.305 239.266 132.696C239.187 133.133 239.219 133.223 239.47 133.223C239.69 133.223 239.785 133.419 239.926 134.171C240.162 135.495 240.147 135.631 239.785 135.631C239.502 135.631 239.47 135.736 239.47 136.925C239.47 138.219 239.47 138.219 239.848 138.159C240.162 138.099 240.272 138.174 240.43 138.535C240.619 138.972 241.594 139.528 242.192 139.544C242.506 139.544 242.475 139.754 241.893 141.515C241.468 142.779 240.792 143.893 240.225 144.269C240.037 144.404 239.517 144.75 239.077 145.036C237.567 146.044 236.67 146.391 235.459 146.391C234.216 146.391 233.461 146.075 231.873 144.871C230.724 144.013 230.378 143.531 230.63 143.14C230.803 142.899 230.756 142.734 230.425 142.192C229.812 141.199 229.12 139.243 228.852 137.783C228.601 136.398 228.553 133.329 228.774 132.095C228.837 131.673 228.868 131.312 228.852 131.297C228.821 131.267 228.648 131.282 228.475 131.342C228.113 131.447 227.83 132.17 227.657 133.449C227.531 134.352 227.531 134.352 227.578 133.223C227.61 132.546 227.783 131.703 227.987 131.116C228.475 129.792 229.544 127.761 229.843 127.595C229.985 127.52 230.378 127.204 230.724 126.888C231.306 126.391 231.495 126.316 232.628 126.18C234.311 125.985 235.176 125.985 235.899 126.135ZM142.006 126.888C142.399 128.046 142.368 128.107 141.487 128.107C140.732 128.107 140.716 128.092 140.464 127.505C140.323 127.174 140.213 126.722 140.213 126.527C140.213 126.18 140.276 126.15 140.984 126.15H141.754L142.006 126.888ZM285.56 126.828C285.56 126.873 285.009 127.174 284.333 127.49C283.641 127.821 282.87 128.272 282.602 128.483C282.193 128.814 282.099 128.844 282.099 128.633C282.099 128.167 283.043 127.52 284.27 127.144C285.686 126.707 285.56 126.737 285.56 126.828ZM274.517 127.791C274.564 127.941 274.486 127.956 274.218 127.881C273.794 127.746 273.589 127.505 273.715 127.309C273.809 127.159 274.423 127.52 274.517 127.791ZM247.414 127.475C247.194 127.685 244.992 127.941 243.403 127.941C241.893 127.956 239.942 127.7 239.706 127.49C239.675 127.46 241.421 127.43 243.576 127.414C245.731 127.414 247.461 127.445 247.414 127.475ZM249.947 128.031C249.774 128.152 249.427 128.257 249.16 128.257C248.594 128.257 248.704 128.107 249.412 127.956C250.183 127.776 250.277 127.791 249.947 128.031ZM248.169 128.363C248.059 128.393 247.87 128.393 247.776 128.363C247.666 128.317 247.744 128.287 247.965 128.287C248.185 128.287 248.263 128.317 248.169 128.363ZM238.055 128.709C238.165 128.919 238.18 129.1 238.07 129.28C237.929 129.491 237.913 129.476 237.897 129.115C237.897 128.889 237.834 128.709 237.74 128.709C237.661 128.709 237.583 128.633 237.583 128.558C237.583 128.302 237.882 128.393 238.055 128.709ZM277.868 128.709C278.355 129.085 278.056 129.1 277.537 128.709C277.317 128.543 277.223 128.408 277.317 128.408C277.427 128.408 277.663 128.543 277.868 128.709ZM296.461 128.814C296.351 128.844 296.13 128.844 295.989 128.814C295.832 128.769 295.926 128.739 296.178 128.739C296.445 128.739 296.555 128.769 296.461 128.814ZM144.932 129.536C144.822 129.672 144.696 129.732 144.649 129.687C144.601 129.657 144.664 129.521 144.774 129.386C144.885 129.25 145.01 129.19 145.058 129.235C145.105 129.265 145.042 129.401 144.932 129.536ZM143.044 129.612C143.249 129.732 143.217 129.852 142.871 130.469C142.651 130.861 142.352 131.237 142.21 131.327C141.833 131.553 141.377 131.041 141.235 130.259C141.157 129.732 141.172 129.627 141.424 129.566C141.943 129.446 142.808 129.461 143.044 129.612ZM162.518 129.672C161.92 130.093 162.424 130.74 163.415 130.846C163.855 130.891 163.887 130.861 163.934 130.319C163.981 129.807 164.028 129.762 164.453 129.762C165.114 129.762 165.019 130.168 164.107 131.267C163.855 131.553 163.604 132.019 163.556 132.305C163.446 132.787 163.462 132.802 163.777 132.636C163.965 132.546 164.406 132.064 164.752 131.568C165.538 130.454 165.869 130.259 166.404 130.605C166.765 130.83 166.781 130.876 166.577 131.237C166.451 131.462 166.026 132.004 165.633 132.456C164.595 133.599 164.563 133.69 164.83 134.442C164.972 134.803 165.035 135.179 165.004 135.285C164.956 135.39 164.988 135.511 165.066 135.556C165.161 135.616 165.224 135.796 165.224 135.992C165.224 136.173 165.302 136.398 165.413 136.504C165.538 136.624 165.538 136.729 165.365 136.925C165.239 137.061 164.862 137.693 164.5 138.325L163.871 139.468L162.266 139.513C160.693 139.559 160.662 139.559 160.662 139.92C160.662 140.206 160.772 140.311 161.26 140.431C161.574 140.522 161.999 140.597 162.188 140.597C162.896 140.597 164.248 139.965 165.586 139.002C166.923 138.039 166.97 137.978 166.891 137.527C166.828 137.181 166.907 136.835 167.174 136.338C167.505 135.706 167.52 135.616 167.3 135.495C167.08 135.375 167.08 135.33 167.316 134.969C167.615 134.547 168.15 134.216 168.275 134.397C168.448 134.668 168.684 136.398 168.59 136.76C168.543 136.97 168.354 137.241 168.181 137.346C167.914 137.527 167.898 137.602 168.055 137.888C168.212 138.174 168.165 138.385 167.662 139.318C166.844 140.883 166.057 141.575 164.736 141.951C164.028 142.162 163.604 142.373 163.478 142.583C163.32 142.869 163.195 142.884 161.747 142.824L160.19 142.764V143.185C160.19 144.284 158.428 143.125 157.138 141.169C155.109 138.084 154.511 134.412 155.707 132.17C156.792 130.138 158.082 129.491 161.055 129.476C162.534 129.476 162.738 129.506 162.518 129.672ZM294.526 130.665C294.652 130.74 294.699 130.846 294.636 130.906C294.573 130.966 294.4 130.906 294.259 130.77C293.975 130.499 294.133 130.424 294.526 130.665ZM220.909 132.019C220.641 132.967 220.515 132.606 220.767 131.613C220.893 131.086 221.003 130.876 221.034 131.071C221.066 131.252 221.003 131.673 220.909 132.019ZM245.212 130.966C244.756 131.146 243.513 131.146 243.639 130.966C243.686 130.876 244.142 130.815 244.63 130.83C245.275 130.83 245.432 130.876 245.212 130.966ZM214.617 131.417C214.617 131.583 214.742 131.839 214.9 131.974C215.104 132.185 215.136 132.32 215.01 132.576C214.931 132.772 214.805 132.922 214.742 132.922C214.664 132.922 214.617 132.772 214.617 132.576C214.601 132.396 214.506 131.989 214.396 131.673C214.208 131.207 214.208 131.116 214.396 131.116C214.522 131.116 214.617 131.252 214.617 131.417ZM246.077 131.568C246.36 131.748 245.306 131.748 244.583 131.568C244.189 131.478 244.252 131.447 244.976 131.432C245.448 131.432 245.951 131.493 246.077 131.568ZM247.76 131.508C247.713 131.553 247.571 131.568 247.461 131.523C247.335 131.478 247.383 131.432 247.556 131.432C247.729 131.417 247.823 131.462 247.76 131.508ZM166.97 132.215C166.702 132.471 166.592 132.23 166.828 131.884C167.001 131.613 167.048 131.598 167.08 131.809C167.111 131.944 167.064 132.125 166.97 132.215ZM249.176 131.748C248.735 131.854 248.515 131.854 248.389 131.733C248.263 131.613 248.421 131.568 249.003 131.583L249.774 131.598L249.176 131.748ZM141.534 132.335C141.628 132.426 141.566 132.727 141.345 133.148C141.157 133.524 140.999 133.946 140.999 134.066C140.999 134.578 140.543 133.946 140.449 133.298C140.291 132.335 140.449 131.974 140.968 132.095C141.204 132.14 141.455 132.26 141.534 132.335ZM251.063 132.591C256.003 132.651 260.108 132.742 260.171 132.802C260.234 132.877 259.337 132.937 258.173 132.937C257.009 132.952 253.549 132.997 250.481 133.058C244.944 133.148 244.897 133.148 244.85 133.464C244.803 133.75 244.724 133.78 244.111 133.705C243.733 133.675 243.167 133.69 242.837 133.75L242.254 133.84L242.601 134.171C242.994 134.547 243.592 134.578 255.798 134.623L262.452 134.653L262.358 135.029C262.31 135.24 262.248 135.526 262.232 135.661C262.2 135.992 261.964 136.022 261.964 135.691C261.964 135.345 261.587 135.526 261.524 135.902C261.493 136.143 261.587 136.278 261.87 136.383C262.075 136.459 262.342 136.654 262.436 136.835C262.531 137 262.672 137.106 262.767 137.061C262.845 137 262.908 137.03 262.908 137.121C262.908 137.316 262.389 137.587 261.98 137.587C261.807 137.587 261.571 137.723 261.445 137.888C261.225 138.204 261.162 138.204 255.893 138.039C252.951 137.948 248.578 137.828 246.171 137.768L241.783 137.662L241.421 135.285C241.232 133.991 241.012 132.772 240.965 132.606C240.855 132.305 240.886 132.29 241.452 132.396C241.798 132.441 246.108 132.546 251.063 132.591ZM294.054 133.073C293.739 133.268 292.796 133.268 292.796 133.073C292.796 132.982 293.126 132.922 293.551 132.922C294.085 132.922 294.227 132.967 294.054 133.073ZM220.515 133.9C220.468 134.292 220.374 134.562 220.327 134.517C220.279 134.472 220.295 134.126 220.358 133.75C220.405 133.359 220.5 133.088 220.547 133.133C220.594 133.178 220.578 133.524 220.515 133.9ZM287.683 133.223C287.636 133.298 287.526 133.374 287.432 133.374C287.353 133.374 287.29 133.298 287.29 133.223C287.29 133.133 287.4 133.073 287.542 133.073C287.668 133.073 287.73 133.133 287.683 133.223ZM290.751 133.223C290.436 133.419 289.964 133.419 289.964 133.223C289.964 133.133 290.2 133.073 290.483 133.073C290.861 133.073 290.924 133.118 290.751 133.223ZM165.821 133.524C165.601 133.855 165.444 133.81 165.586 133.449C165.648 133.329 165.759 133.223 165.853 133.223C165.947 133.223 165.947 133.329 165.821 133.524ZM167.914 133.494C167.741 133.795 167.111 134.367 167.111 134.216C167.111 134.156 167.269 133.915 167.457 133.675C167.835 133.193 168.165 133.058 167.914 133.494ZM302.281 133.554C302.218 133.66 302.061 134.262 301.919 134.879L301.683 136.007L300.582 136.052L299.465 136.097L299.528 135.044C299.591 134.006 299.591 133.991 299.166 133.885C298.946 133.825 298.002 133.825 297.074 133.855C294.872 133.946 295.564 133.705 297.971 133.539C300.96 133.344 302.422 133.344 302.281 133.554ZM258.944 133.93C258.787 133.961 258.504 133.961 258.315 133.93C258.111 133.9 258.236 133.87 258.582 133.87C258.928 133.855 259.086 133.885 258.944 133.93ZM262.012 133.93C261.902 133.961 261.681 133.961 261.54 133.93C261.382 133.885 261.477 133.855 261.728 133.855C261.996 133.855 262.106 133.885 262.012 133.93ZM293.582 133.9C293.582 133.946 293.441 134.111 293.252 134.292C292.953 134.578 292.906 134.578 292.654 134.367C292.308 134.066 292.245 134.066 291.946 134.367C291.616 134.668 291.632 135.465 291.962 135.812C292.292 136.158 292.78 136.158 292.921 135.812C293 135.616 293.047 135.646 293.11 136.007C293.189 136.368 293.268 136.459 293.582 136.429C293.802 136.429 294.919 136.338 296.083 136.248C297.515 136.128 298.254 136.128 298.348 136.218C298.443 136.308 298.474 136.429 298.411 136.474C298.364 136.534 296.508 136.609 294.321 136.654L290.326 136.729L290.641 135.781L290.971 134.833L290.593 134.547C290.279 134.307 289.98 134.277 288.297 134.292C285.261 134.322 285.591 134.066 288.706 133.976C290.216 133.93 291.93 133.87 292.528 133.855C293.11 133.84 293.582 133.855 293.582 133.9ZM151.806 134.457C151.759 134.562 151.727 134.487 151.727 134.277C151.727 134.066 151.759 133.991 151.806 134.081C151.837 134.186 151.837 134.367 151.806 134.457ZM285.481 134.111C285.387 134.201 284.6 134.307 283.704 134.367C282.823 134.427 281.973 134.547 281.832 134.653C281.454 134.924 281.344 136.549 281.69 136.82C282.02 137.091 282.634 136.925 282.854 136.504C283.027 136.158 283.027 136.158 283.027 136.564L283.043 136.985H286.079C287.746 136.985 289.005 137.045 288.895 137.121C288.627 137.271 283.42 137.377 281.391 137.271L280.463 137.211L280.432 136.052C280.416 135.42 280.353 134.818 280.29 134.713C280.211 134.608 279.944 134.578 279.567 134.638C279.22 134.683 278.953 134.698 278.953 134.653C278.953 134.397 280.149 134.216 282.571 134.126C284.081 134.066 285.387 134.021 285.481 134.006C285.575 133.991 285.575 134.021 285.481 134.111ZM277.301 134.562C277.207 134.638 276.452 134.728 275.603 134.758C274.344 134.788 274.124 134.773 274.344 134.608C274.659 134.397 277.537 134.352 277.301 134.562ZM214.506 135.21C214.428 135.345 213.987 135.375 213.987 135.255C213.987 135.21 214.082 135.044 214.176 134.879C214.365 134.608 214.381 134.593 214.475 134.848C214.538 134.984 214.554 135.149 214.506 135.21ZM273.054 134.728C273.007 134.803 272.755 134.879 272.488 134.879C272.236 134.879 272.032 134.803 272.032 134.728C272.032 134.638 272.283 134.578 272.598 134.578C272.928 134.578 273.117 134.638 273.054 134.728ZM271.198 135.947C271.292 136.564 271.387 137.076 271.387 137.106C271.403 137.121 271.749 137.106 272.173 137.045C272.85 136.955 272.96 136.985 273.117 137.271C273.306 137.587 273.369 137.587 275.933 137.512C277.962 137.452 278.465 137.467 278.167 137.602C277.931 137.708 276.137 137.828 273.762 137.888C271.56 137.963 269.594 138.069 269.405 138.114C269.2 138.174 269.043 138.159 269.043 138.069C269.043 137.843 269.389 137.632 269.971 137.512L270.506 137.407L270.412 136.158C270.317 134.909 270.396 134.683 270.852 134.788C270.946 134.803 271.088 135.33 271.198 135.947ZM151.633 136.203C151.428 136.383 151.35 136.067 151.476 135.526L151.601 134.954L151.664 135.541C151.696 135.857 151.68 136.158 151.633 136.203ZM227.625 136.94C227.594 137.256 227.562 137 227.562 136.383C227.562 135.766 227.594 135.511 227.625 135.812C227.657 136.128 227.657 136.639 227.625 136.94ZM213.799 135.962C213.956 136.112 213.893 136.188 213.484 136.323C212.823 136.534 212.776 136.76 213.295 137.091C213.673 137.316 214.097 137.362 216.032 137.377C219.163 137.407 219.981 137.467 219.918 137.647C219.76 138.084 209.551 138.084 192.673 137.662C187.922 137.542 182.212 137.452 180.01 137.482C177.808 137.497 175.653 137.452 175.212 137.377L174.426 137.226L175.291 137.121C176.597 136.955 181.442 136.97 184.808 137.151C186.46 137.241 193.003 137.331 199.358 137.362L210.92 137.422L211.738 137.045C212.178 136.85 212.745 136.489 212.996 136.248C213.515 135.736 213.547 135.721 213.799 135.962ZM182.747 138.656C185.248 138.731 187.435 138.881 187.592 138.957C187.765 139.047 188.143 139.498 188.457 139.965C188.756 140.431 189.433 141.214 189.967 141.695C190.486 142.162 190.88 142.598 190.832 142.628C190.785 142.674 189.983 142.644 189.039 142.568C188.095 142.493 184.918 142.403 181.976 142.373L176.628 142.328L176.581 142.719C176.534 143.095 176.471 143.11 175.338 143.215C173.891 143.321 172.145 143.336 172.145 143.23C172.145 143.185 172.412 142.628 172.743 141.981C173.089 141.349 173.545 140.296 173.797 139.649L174.237 138.49H176.219C177.305 138.49 180.246 138.565 182.747 138.656ZM226.729 139.107C226.729 139.378 227.657 141.304 228.302 142.358C228.632 142.914 228.884 143.396 228.868 143.426C228.837 143.456 228.365 143.366 227.814 143.215C226.634 142.929 225.234 142.899 218.864 143.065C214.679 143.17 214.365 143.2 214.05 143.471C213.72 143.757 213.673 143.772 213.232 143.546C212.808 143.336 211.848 143.306 206.217 143.306C198.886 143.306 199.154 143.351 200.79 142.252C201.828 141.56 202.142 141.199 202.772 139.995L203.212 139.167L214.727 139.092C221.05 139.047 226.288 138.972 226.351 138.912C226.477 138.776 226.729 138.912 226.729 139.107ZM198.477 139.528C198.572 139.664 197.848 139.845 197.25 139.845C196.936 139.829 196.936 139.814 197.313 139.619C197.754 139.378 198.352 139.333 198.477 139.528ZM269.892 140.161C270.034 140.461 270.679 141.229 271.324 141.861C271.969 142.508 272.504 143.095 272.504 143.185C272.504 143.276 272.315 143.306 272 143.245C271.214 143.095 260.612 142.809 255.122 142.794C251.205 142.779 250.041 142.824 249.192 143.02C248.342 143.2 248.122 143.215 248.122 143.065C248.122 142.96 248.374 142.207 248.672 141.395C248.987 140.582 249.254 139.845 249.286 139.769C249.317 139.664 252.872 139.619 259.495 139.619H269.641L269.892 140.161ZM196.055 140.13C196.055 140.281 195.394 140.477 195.284 140.356C195.174 140.266 195.599 139.995 195.866 139.995C195.961 139.995 196.055 140.055 196.055 140.13ZM243.56 140.311C243.56 140.386 243.497 140.446 243.403 140.446C243.324 140.446 243.245 140.341 243.245 140.206C243.245 140.085 243.324 140.025 243.403 140.07C243.497 140.115 243.56 140.221 243.56 140.311ZM281.47 140.371C281.47 140.492 279.614 141.349 278.528 141.741C277.679 142.042 277.537 142.072 277.537 141.861C277.537 141.229 278.497 140.567 279.032 140.853C279.189 140.943 279.629 140.883 280.337 140.657C280.919 140.461 281.407 140.311 281.438 140.311C281.454 140.296 281.47 140.326 281.47 140.371ZM190.943 140.747C190.99 140.823 190.974 140.898 190.88 140.898C190.801 140.898 190.675 140.823 190.628 140.747C190.581 140.657 190.597 140.597 190.691 140.597C190.77 140.597 190.895 140.657 190.943 140.747ZM197.628 140.747C197.313 140.943 197.109 140.943 197.235 140.747C197.282 140.657 197.455 140.597 197.596 140.597C197.832 140.597 197.832 140.627 197.628 140.747ZM243.434 141.379C243.293 141.515 243.198 141.515 243.057 141.379C242.915 141.244 242.947 141.199 243.245 141.199C243.544 141.199 243.576 141.244 243.434 141.379ZM275.587 141.575C275.288 141.786 274.706 141.891 274.706 141.726C274.706 141.62 275.351 141.364 275.65 141.364C275.823 141.364 275.807 141.41 275.587 141.575ZM196.291 141.936C196.165 142.132 195.583 142.162 195.583 141.966C195.583 141.891 195.74 141.801 195.945 141.771C196.37 141.695 196.432 141.726 196.291 141.936ZM278.796 142.252C278.796 142.328 278.733 142.403 278.638 142.403C278.56 142.403 278.481 142.328 278.481 142.252C278.481 142.162 278.56 142.102 278.638 142.102C278.733 142.102 278.796 142.162 278.796 142.252ZM146.379 143.035C146.19 143.215 145.687 143.14 145.608 142.914C145.577 142.809 145.734 142.779 146.033 142.824C146.363 142.869 146.473 142.944 146.379 143.035ZM192.374 143.23L192.83 143.592L192.091 143.607C191.367 143.607 191.336 143.592 191.336 143.17C191.336 142.644 191.65 142.674 192.374 143.23ZM157.39 143.276C157.61 143.486 157.154 143.501 154.763 143.351C152.703 143.23 153.237 142.99 155.502 143.05C156.588 143.065 157.264 143.155 157.39 143.276ZM179.381 143.261C180.089 143.336 180.167 143.381 179.853 143.471C179.633 143.531 179.051 143.577 178.531 143.592C177.729 143.607 177.635 143.577 177.808 143.381C178.028 143.125 178.17 143.11 179.381 143.261ZM128.132 143.546C130.035 143.727 129.076 143.908 126.26 143.908C124.734 143.908 123.523 143.878 123.57 143.832C123.838 143.561 126.496 143.411 128.132 143.546ZM161.087 143.847C161.04 143.893 160.898 143.908 160.788 143.862C160.662 143.817 160.709 143.772 160.882 143.772C161.055 143.757 161.15 143.802 161.087 143.847ZM171.626 144.058C171.673 144.224 171.705 144.404 171.689 144.464C171.673 144.6 170.1 144.78 170.1 144.645C170.1 144.6 170.352 144.434 170.651 144.269C170.95 144.118 171.201 143.938 171.201 143.878C171.201 143.622 171.547 143.772 171.626 144.058ZM247.792 144.314C247.996 144.75 247.839 144.961 247.288 144.961C247.131 144.961 246.863 145.202 246.69 145.488C246.502 145.774 246.297 146.014 246.219 146.014C245.92 146.014 246.093 145.608 246.706 144.901C247.052 144.51 247.335 144.118 247.335 144.043C247.335 143.757 247.603 143.923 247.792 144.314ZM223.347 144.209C223.095 144.269 222.702 144.329 222.482 144.344C222.167 144.344 222.136 144.329 222.324 144.209C222.45 144.133 222.843 144.073 223.189 144.073C223.803 144.088 223.803 144.103 223.347 144.209ZM186.68 144.314C187.482 144.374 187.828 144.449 187.671 144.54C187.246 144.75 185.657 144.826 184.021 144.69C182.558 144.57 182.48 144.555 182.999 144.404C183.644 144.209 184.997 144.163 186.68 144.314ZM230.016 144.72C230.189 144.871 230.3 145.066 230.252 145.127C230.127 145.337 229.607 145.277 229.34 145.036C229.214 144.916 228.837 144.811 228.491 144.811C227.846 144.811 226.886 144.555 226.886 144.389C226.886 144.329 227.515 144.314 228.286 144.359C229.356 144.419 229.765 144.494 230.016 144.72ZM295.375 144.359C295.265 144.464 295.076 144.464 294.825 144.374C294.463 144.239 294.479 144.224 294.998 144.224C295.36 144.209 295.485 144.254 295.375 144.359ZM173.482 144.51C173.057 144.69 172.932 144.69 172.932 144.51C172.932 144.419 173.12 144.359 173.372 144.374C173.75 144.374 173.765 144.389 173.482 144.51ZM176.549 144.51C176.817 144.585 176.471 144.63 175.527 144.63C174.599 144.63 174.221 144.6 174.426 144.51C174.819 144.344 176.03 144.344 176.549 144.51ZM181.819 144.51C181.772 144.585 181.615 144.66 181.489 144.66C181.363 144.66 181.269 144.585 181.269 144.51C181.269 144.419 181.41 144.359 181.599 144.359C181.772 144.359 181.866 144.419 181.819 144.51ZM291.065 144.51C291.065 144.675 290.641 144.811 290.106 144.811C289.602 144.811 289.477 144.57 289.933 144.464C290.373 144.359 291.065 144.389 291.065 144.51ZM163.1 146.466C163.32 146.556 163.1 146.601 162.392 146.586C161.653 146.586 161.48 146.556 161.763 146.466C162.282 146.3 162.707 146.3 163.1 146.466ZM165.853 146.466C165.853 146.541 165.57 146.616 165.224 146.616C164.878 146.616 164.595 146.541 164.595 146.466C164.595 146.376 164.878 146.315 165.224 146.315C165.57 146.315 165.853 146.376 165.853 146.466ZM215.639 146.917C215.592 146.993 215.041 147.068 214.444 147.068C213.751 147.068 213.374 147.008 213.437 146.917C213.484 146.827 214.035 146.767 214.632 146.767C215.324 146.767 215.702 146.827 215.639 146.917ZM219.572 147.083C219.682 147.188 219.367 147.203 218.628 147.128C216.945 146.962 216.52 146.752 218.077 146.842C218.817 146.887 219.477 146.993 219.572 147.083Z" fill="black"/>
</g>
<path d="M215.922 98.8674C215.324 98.9126 214.884 99.0029 214.774 99.1383C214.601 99.3339 214.727 99.364 215.623 99.364C216.693 99.364 217.369 99.1684 217.212 98.8975C217.149 98.8223 217.07 98.7771 217.008 98.7922C216.945 98.8072 216.457 98.8373 215.922 98.8674Z" fill="black"/>
<path d="M220.044 98.9126C220.091 98.9878 220.279 99.063 220.453 99.063C220.61 99.063 220.751 98.9878 220.751 98.9126C220.751 98.8223 220.563 98.7621 220.342 98.7621C220.122 98.7621 219.981 98.8223 220.044 98.9126Z" fill="black"/>
<path d="M221.145 98.9126C221.192 98.9878 221.381 99.063 221.554 99.063C221.711 99.063 221.852 98.9878 221.852 98.9126C221.852 98.8223 221.664 98.7621 221.443 98.7621C221.223 98.7621 221.082 98.8223 221.145 98.9126Z" fill="black"/>
<path d="M232.219 101.757C231.873 102.028 231.857 102.058 232.124 102.163C232.282 102.208 233.068 102.193 233.855 102.118L235.302 101.982L234.72 101.727C233.918 101.381 232.691 101.396 232.219 101.757Z" fill="black"/>
<path d="M215.183 101.727C215.12 101.802 213.83 101.877 212.32 101.922C209.803 101.998 209.567 102.028 209.253 102.314L208.922 102.645L209.473 102.81C209.913 102.961 210.369 102.946 211.675 102.765C212.587 102.63 213.689 102.524 214.129 102.524C215.387 102.524 216.504 101.982 215.781 101.712C215.45 101.591 215.324 101.591 215.183 101.727Z" fill="black"/>
<path d="M232.879 102.66L232.187 102.75L232.832 103.472C233.194 103.879 233.493 104.27 233.493 104.36C233.493 104.466 233.965 104.481 234.956 104.405C236.23 104.315 236.371 104.33 236.104 104.526C235.821 104.721 235.821 104.736 236.23 104.842C236.45 104.887 237.189 104.902 237.866 104.857C239.203 104.751 239.753 104.917 240.021 105.504C240.131 105.73 240.304 105.835 240.603 105.835C241.153 105.835 241.153 105.73 240.634 105.007C240.414 104.691 240.162 104.27 240.084 104.074C239.989 103.849 239.816 103.728 239.565 103.728C239.03 103.728 238.92 103.969 239.344 104.24C239.691 104.466 239.675 104.481 238.92 104.466C238.228 104.466 238.18 104.435 238.526 104.315C238.92 104.165 238.92 104.149 238.605 103.939C238.401 103.788 237.96 103.728 237.221 103.743C236.639 103.758 236.12 103.728 236.057 103.668C236.01 103.623 236.104 103.578 236.293 103.578C236.702 103.578 236.906 103.292 236.623 103.111C236.497 103.036 235.774 102.991 234.987 103.006C233.713 103.051 233.571 103.021 233.619 102.78C233.65 102.645 233.65 102.539 233.619 102.554C233.587 102.554 233.257 102.615 232.879 102.66ZM235.695 103.728C235.695 103.909 235.569 103.909 235.145 103.728C234.861 103.608 234.877 103.593 235.27 103.593C235.506 103.578 235.695 103.638 235.695 103.728ZM237.709 104.435C237.551 104.466 237.268 104.466 237.079 104.435C236.875 104.405 237.001 104.375 237.347 104.375C237.693 104.36 237.85 104.39 237.709 104.435Z" fill="black"/>
<path d="M212.414 103.066C211.848 103.186 211.25 103.262 211.093 103.216C210.92 103.171 210.621 103.262 210.432 103.412C210.228 103.563 209.787 103.743 209.473 103.788C208.513 103.954 207.994 104.195 208.041 104.466C208.089 104.646 208.277 104.706 208.749 104.691C209.489 104.676 209.583 104.812 209.583 106.015C209.583 106.587 209.646 106.738 209.898 106.813C210.071 106.858 210.275 106.858 210.369 106.813C210.574 106.693 210.574 106.933 210.369 107.129C210.275 107.219 210.244 107.415 210.306 107.55C210.417 107.821 210.7 107.836 211.942 107.581C212.304 107.505 212.289 107.505 211.895 107.671C211.549 107.821 211.471 107.942 211.502 108.243C211.549 108.649 211.832 108.694 212.808 108.468C213.264 108.378 213.295 108.393 213.28 108.799C213.28 109.131 213.342 109.221 213.594 109.206C213.924 109.176 217.023 108.529 217.102 108.468C217.118 108.453 217.023 108.228 216.866 107.987C216.614 107.55 216.536 107.52 215.387 107.445C214.003 107.355 213.578 107.204 214.129 107.009C214.648 106.828 214.444 106.527 213.736 106.422C213.405 106.377 213.232 106.316 213.374 106.301C213.515 106.301 213.673 106.151 213.72 105.985C213.783 105.73 213.72 105.684 213.342 105.684C213.091 105.684 212.886 105.609 212.886 105.534C212.886 105.444 212.965 105.383 213.059 105.383C213.154 105.383 213.657 105.128 214.176 104.827C214.853 104.435 215.309 104.255 215.733 104.255C216.253 104.255 216.347 104.21 216.347 103.939C216.347 103.533 216.08 103.427 215.073 103.427C214.585 103.427 214.318 103.367 214.381 103.277C214.475 103.141 213.814 102.795 213.547 102.84C213.484 102.855 212.981 102.946 212.414 103.066ZM213.122 104.18C213.39 104.285 213.342 104.315 212.918 104.315C212.603 104.33 212.43 104.27 212.493 104.18C212.603 103.999 212.697 103.999 213.122 104.18ZM213.327 107.445C213.169 107.475 212.918 107.475 212.776 107.445C212.619 107.4 212.745 107.37 213.044 107.37C213.342 107.37 213.468 107.4 213.327 107.445Z" fill="black"/>
<path d="M237.362 103.111C237.646 103.397 238.291 103.442 238.605 103.216C238.904 103.006 238.857 102.991 238.07 102.976C237.536 102.976 237.268 103.036 237.362 103.111Z" fill="black"/>
<path d="M216.378 104.962C216.426 105.067 216.614 105.233 216.803 105.338L217.165 105.504L216.835 105.684C216.394 105.895 216.551 106.136 217.149 106.136C217.527 106.136 217.605 106.076 217.605 105.79C217.605 105.278 217.165 104.781 216.724 104.781C216.473 104.781 216.347 104.857 216.378 104.962Z" fill="black"/>
<path d="M236.953 105.188C236.828 105.233 236.623 105.338 236.513 105.429C236.23 105.654 236.639 105.805 237.504 105.82C238.243 105.835 238.684 105.624 238.432 105.383C238.228 105.188 237.284 105.052 236.953 105.188Z" fill="black"/>
<path d="M215.199 105.925C215.309 106.196 216.048 106.166 216.158 105.865C216.19 105.745 216.032 105.684 215.655 105.684C215.214 105.684 215.12 105.73 215.199 105.925Z" fill="black"/>
<path d="M239.014 106.271C238.621 106.512 238.998 106.738 239.785 106.738C240.571 106.738 240.949 106.512 240.556 106.271C240.43 106.196 240.084 106.136 239.785 106.136C239.486 106.136 239.14 106.196 239.014 106.271Z" fill="black"/>
<path d="M240.965 106.286C240.807 106.527 241.028 106.738 241.405 106.738C241.767 106.738 242.27 106.497 242.144 106.392C241.956 106.241 241.043 106.166 240.965 106.286Z" fill="black"/>
<path d="M294.085 122.84C293.425 122.99 293.378 123.05 293.503 123.442C293.645 123.893 294.211 124.194 295.092 124.284C296.225 124.39 296.366 124.239 295.91 123.397C295.517 122.644 295.281 122.569 294.085 122.84Z" fill="black"/>
<path d="M155.471 118.476C155.345 118.551 155.015 118.626 154.747 118.626C154.276 118.626 154.228 118.686 153.662 119.92C153.348 120.643 153.049 121.591 153.001 122.042L152.907 122.885L153.521 122.795C153.851 122.734 155.455 122.659 157.076 122.599L160.001 122.494L160.269 121.877C161.338 119.379 161.574 118.626 161.354 118.461C161.213 118.34 160.898 118.325 160.458 118.4C160.096 118.461 159.309 118.506 158.711 118.491C158.114 118.461 157.422 118.536 157.17 118.641C156.761 118.807 156.667 118.792 156.541 118.581C156.383 118.295 155.833 118.25 155.471 118.476Z" fill="black"/>
<path d="M233.839 128.513C233.178 128.633 232.014 130.529 231.511 132.32C230.551 135.781 232.077 140.446 234.358 140.988C234.767 141.078 234.783 141.078 234.594 140.747C234.484 140.552 234.091 139.995 233.713 139.498C233.32 139.002 233.021 138.445 233.021 138.219C233.021 138.009 232.848 137.557 232.628 137.211C232.14 136.413 231.983 135.029 232.219 133.509C232.455 131.839 232.927 130.755 233.839 129.807C234.798 128.799 234.798 128.347 233.839 128.513Z" fill="black"/>
<path d="M235.978 141.154C235.05 141.199 234.751 141.259 234.751 141.425C234.751 141.981 236.356 142.343 237.126 141.951C237.41 141.801 237.583 141.003 237.315 141.078C237.237 141.093 236.639 141.139 235.978 141.154Z" fill="black"/>
<path d="M159.262 130.334C158.916 130.68 158.538 131.312 158.302 131.944C157.956 132.862 157.909 133.253 157.909 134.878C157.909 136.729 157.925 136.79 158.46 137.813C158.853 138.58 159.199 138.987 159.671 139.303C160.049 139.544 160.379 139.709 160.426 139.664C160.489 139.619 160.159 138.881 159.702 138.024C158.963 136.609 158.869 136.338 158.806 135.24C158.727 133.825 158.947 132.937 159.876 131.026C160.458 129.822 160.473 129.762 160.159 129.762C159.97 129.762 159.577 130.018 159.262 130.334Z" fill="black"/>
<path d="M165.271 131.568C164.689 131.974 164.123 132.832 164.311 132.997C164.484 133.163 165.475 132.35 165.759 131.824C165.916 131.508 166.01 131.222 165.979 131.192C165.947 131.146 165.617 131.327 165.271 131.568Z" fill="black"/>
<path d="M160.237 131.493C159.718 131.839 159.246 133.223 159.246 134.397C159.246 135.646 159.467 136.413 159.954 136.94L160.332 137.362L160.347 136.985C160.347 136.775 160.237 136.007 160.112 135.27C159.86 133.825 159.891 133.539 160.363 132.426C160.772 131.493 160.725 131.162 160.237 131.493Z" fill="black"/>
<path d="M161.118 134.262C160.882 134.999 161.055 136.082 161.464 136.594C161.81 137.015 162.471 137.106 163.022 136.835C163.588 136.549 163.871 134.638 163.415 134.277C163.226 134.126 163.163 134.156 163.022 134.502C162.943 134.713 162.864 135.074 162.864 135.3C162.864 135.706 162.628 136.218 162.502 136.082C162.345 135.902 161.92 134.472 161.92 134.096C161.92 133.78 161.842 133.675 161.606 133.675C161.386 133.675 161.26 133.84 161.118 134.262Z" fill="black"/>
<path d="M259.605 135.405C259.526 135.616 259.448 136.173 259.448 136.609C259.448 137.422 259.448 137.422 259.998 137.527C260.753 137.662 261.021 137.527 261.021 137.03C261.021 136.805 261.068 136.368 261.099 136.082C261.209 135.405 261.084 135.225 260.36 135.104C259.825 134.999 259.747 135.029 259.605 135.405Z" fill="black"/>
<path d="M256.994 122.855C256.129 123.261 254.996 124.36 255.138 124.691C255.263 125.022 255.767 125.022 255.893 124.706C255.971 124.495 256.239 124.48 258.111 124.57C259.542 124.646 260.234 124.63 260.234 124.525C260.234 124.119 259.982 123.848 259.275 123.517C258.85 123.306 258.441 123.005 258.347 122.84C258.142 122.463 257.827 122.463 256.994 122.855Z" fill="black"/>
<path d="M249.852 124.299C249.302 124.48 247.996 124.555 244.032 124.646C241.216 124.706 238.904 124.766 238.888 124.781C238.857 124.781 238.841 124.916 238.841 125.082C238.841 125.247 239.03 125.428 239.329 125.548C239.596 125.669 239.769 125.819 239.722 125.94C239.675 126.06 239.864 126.165 240.273 126.226C240.619 126.286 245.385 126.256 250.843 126.165C256.317 126.075 264.906 125.97 269.94 125.955C274.973 125.94 279.142 125.864 279.221 125.804C279.283 125.729 279.205 125.563 279.032 125.443C278.749 125.232 277.412 125.217 267.313 125.308C256.38 125.398 249.758 125.323 250.403 125.097C250.576 125.037 251.111 125.022 251.583 125.052C252.621 125.142 253.203 124.841 252.904 124.39C252.668 124.029 250.843 123.968 249.852 124.299ZM249.616 125.398C249.679 125.488 249.49 125.548 249.16 125.548C248.846 125.548 248.594 125.473 248.594 125.398C248.594 125.308 248.798 125.247 249.05 125.247C249.317 125.247 249.569 125.308 249.616 125.398Z" fill="black"/>
<path d="M255.09 126.602C254.351 126.888 254.666 127.098 256.034 127.294C256.443 127.339 256.773 127.445 256.773 127.505C256.773 127.58 256.632 127.595 256.459 127.55C256.286 127.505 255.971 127.52 255.751 127.565C255.436 127.64 255.342 127.745 255.389 128.001C255.421 128.257 255.562 128.347 255.956 128.378C256.239 128.408 256.522 128.528 256.569 128.648C256.616 128.799 256.899 128.859 257.466 128.844C258.598 128.829 258.85 128.694 259.054 128.016C259.212 127.445 259.227 127.429 260.045 127.384C260.785 127.339 260.863 127.309 260.863 126.993C260.863 126.512 260.423 126.421 258.74 126.617C257.812 126.707 257.072 126.707 256.49 126.602C255.484 126.421 255.547 126.421 255.09 126.602Z" fill="black"/>
<path d="M290.641 127.053C290.247 127.279 290.121 127.46 290.121 127.791C290.121 128.031 290.232 128.317 290.373 128.423C290.593 128.588 290.656 128.573 290.845 128.332C290.971 128.182 291.065 127.986 291.065 127.911C291.065 127.776 291.364 127.806 292.135 128.031C292.45 128.137 292.481 128.092 292.481 127.535C292.481 127.128 292.402 126.903 292.229 126.843C291.773 126.677 291.144 126.752 290.641 127.053Z" fill="black"/>
<path d="M263.003 127.445C262.955 127.58 262.908 127.866 262.908 128.107C262.908 128.934 263.018 129.01 264.167 129.01C264.749 129.01 265.441 128.934 265.724 128.844C266.164 128.694 266.212 128.618 266.212 128.092C266.212 127.339 265.944 127.204 264.355 127.204C263.349 127.204 263.081 127.249 263.003 127.445Z" fill="black"/>
<path d="M267.092 127.58C266.951 127.941 266.982 128.904 267.14 129.145C267.234 129.295 267.564 129.326 268.398 129.28C269.798 129.205 270.38 128.859 270.38 128.092C270.38 127.61 270.349 127.58 269.83 127.565C269.531 127.565 268.807 127.505 268.241 127.445C267.344 127.354 267.187 127.369 267.092 127.58Z" fill="black"/>
<path d="M288.517 127.595C288.281 127.821 288.155 127.836 287.62 127.685C286.629 127.384 286.189 127.776 286.724 128.483C286.897 128.709 287.196 128.784 288.045 128.829C289.13 128.889 289.162 128.874 289.256 128.513C289.508 127.595 289.068 127.068 288.517 127.595Z" fill="black"/>
<path d="M253.124 127.971C252.637 128.242 252.778 128.558 253.392 128.558C253.832 128.558 253.942 128.498 253.942 128.272C253.942 128.122 253.832 127.941 253.69 127.896C253.392 127.791 253.455 127.776 253.124 127.971Z" fill="black"/>
<path d="M252.841 129.115C252.841 129.566 253.093 129.807 253.439 129.702C253.832 129.581 254.021 129.145 253.753 128.98C253.376 128.754 252.841 128.844 252.841 129.115Z" fill="black"/>
<path d="M253.03 130.093C252.92 130.198 252.841 130.409 252.841 130.56C252.841 130.815 252.92 130.845 253.344 130.755C253.958 130.635 254.178 130.454 254.052 130.153C253.942 129.867 253.297 129.837 253.03 130.093Z" fill="black"/>
<path d="M263.758 130.018C263.365 130.093 262.956 130.484 262.908 130.815C262.751 131.869 263.129 132.17 264.654 132.17C265.787 132.17 266.149 132.019 266.259 131.462C266.306 131.237 266.4 130.921 266.448 130.77C266.542 130.575 266.432 130.469 266.039 130.304C265.425 130.063 264.245 129.913 263.758 130.018Z" fill="black"/>
<path d="M287.605 130.198C287.274 130.289 287.196 130.409 287.164 130.936L287.117 131.568H287.951C289.005 131.568 289.571 131.297 289.571 130.815C289.571 130.213 288.659 129.912 287.605 130.198Z" fill="black"/>
<path d="M267.659 130.484C267.58 130.71 267.737 131.959 267.879 132.185C267.989 132.365 269.137 132.35 269.877 132.155C270.585 131.974 270.978 131.463 270.899 130.815L270.852 130.334L269.295 130.319C268.146 130.289 267.722 130.334 267.659 130.484Z" fill="black"/>
<path d="M272.897 130.304C271.843 130.56 271.717 130.68 271.717 131.372C271.717 131.989 271.764 132.049 272.268 132.26C273.133 132.606 274.391 132.486 274.391 132.064C274.391 131.944 274.549 131.583 274.737 131.267C274.989 130.845 275.052 130.635 274.926 130.514C274.737 130.334 273.369 130.198 272.897 130.304Z" fill="black"/>
<path d="M284.726 130.785C284.191 131.357 284.38 131.568 285.402 131.568C286.283 131.568 286.346 131.538 286.346 131.222C286.346 131.026 286.268 130.8 286.158 130.695C285.874 130.424 285.009 130.484 284.726 130.785Z" fill="black"/>
<path d="M282.241 130.981C282.068 131.146 281.942 131.357 281.989 131.463C282.068 131.688 282.76 131.854 283.263 131.763C283.609 131.688 283.672 131.598 283.672 131.177C283.672 130.695 283.641 130.665 283.122 130.665C282.776 130.665 282.445 130.785 282.241 130.981Z" fill="black"/>
</g>
<g filter="url(#filter3_d_6_10)">
<path d="M157.266 81.8164C157.266 82.0508 157.189 82.2559 157.037 82.4316C156.896 82.6074 156.709 82.707 156.475 82.7305C155.186 82.9062 153.908 83.041 152.643 83.1348C151.389 83.2168 150.117 83.2578 148.828 83.2578C146.332 83.2578 143.801 83.082 141.234 82.7305C141 82.707 140.807 82.6074 140.654 82.4316C140.514 82.2559 140.443 82.0508 140.443 81.8164C140.443 81.5703 140.531 81.3535 140.707 81.166C140.895 80.9785 141.123 80.8848 141.393 80.8848C141.416 80.8848 141.434 80.8906 141.445 80.9023C141.457 80.9141 141.475 80.9199 141.498 80.9199C143.01 81.1191 144.352 81.2715 145.523 81.377C146.707 81.4824 147.838 81.5352 148.916 81.5352C149.479 81.5352 150.041 81.5234 150.604 81.5C151.178 81.4766 151.758 81.4414 152.344 81.3945C152.941 81.3359 153.557 81.2715 154.189 81.2012C154.822 81.1191 155.496 81.0254 156.211 80.9199C156.234 80.9199 156.258 80.9141 156.281 80.9023C156.305 80.8906 156.328 80.8848 156.352 80.8848C156.609 80.8848 156.826 80.9785 157.002 81.166C157.178 81.3535 157.266 81.5703 157.266 81.8164ZM178.201 83.3281C178.166 83.5625 178.055 83.7559 177.867 83.9082C177.691 84.0605 177.486 84.1367 177.252 84.1367C177.018 84.1367 176.812 84.0547 176.637 83.8906C176.473 83.7266 176.379 83.5156 176.355 83.2578C176.355 82.7539 176.25 82.2266 176.039 81.6758C175.828 81.125 175.541 80.6211 175.178 80.1641C174.814 79.707 174.398 79.332 173.93 79.0391C173.461 78.7344 172.963 78.582 172.436 78.582C171.779 78.582 171.199 78.7227 170.695 79.0039C170.191 79.2734 169.752 79.6367 169.377 80.0938C169.002 80.5508 168.691 81.0723 168.445 81.6582C168.199 82.2441 168 82.8477 167.848 83.4688C167.695 84.0781 167.584 84.6816 167.514 85.2793C167.455 85.877 167.426 86.416 167.426 86.8965C167.426 87.7168 167.514 88.5371 167.689 89.3574C167.877 90.1777 168.158 90.916 168.533 91.5723C168.908 92.2168 169.389 92.7441 169.975 93.1543C170.561 93.5645 171.258 93.7695 172.066 93.7695C172.664 93.7695 173.227 93.6348 173.754 93.3652C174.281 93.0957 174.75 92.75 175.16 92.3281C175.582 91.8945 175.939 91.4199 176.232 90.9043C176.525 90.3887 176.736 89.8848 176.865 89.3926C176.924 89.1699 177.029 88.9883 177.182 88.8477C177.346 88.707 177.539 88.6367 177.762 88.6367C178.02 88.6367 178.236 88.7363 178.412 88.9355C178.6 89.123 178.693 89.334 178.693 89.5684C178.693 89.6387 178.682 89.6973 178.658 89.7441C178.576 90.1309 178.436 90.5527 178.236 91.0098C178.037 91.4668 177.773 91.9238 177.445 92.3809C177.129 92.8379 176.742 93.2832 176.285 93.7168C175.828 94.1387 175.307 94.5137 174.721 94.8418C174.135 95.1699 173.484 95.4336 172.77 95.6328C172.055 95.832 171.27 95.9316 170.414 95.9316C169.066 95.9316 167.824 95.7031 166.688 95.2461C165.551 94.8008 164.572 94.1738 163.752 93.3652C162.932 92.5449 162.287 91.5664 161.818 90.4297C161.361 89.2812 161.133 88.0215 161.133 86.6504C161.133 85.1738 161.332 83.8027 161.73 82.5371C162.141 81.2715 162.732 80.1758 163.506 79.25C164.291 78.3242 165.252 77.5977 166.389 77.0703C167.537 76.543 168.855 76.2793 170.344 76.2793C171.68 76.2793 172.922 76.5488 174.07 77.0879C175.219 77.6152 176.162 78.4121 176.9 79.4785L177.48 75.8926C177.516 75.6699 177.615 75.4883 177.779 75.3477C177.955 75.207 178.154 75.1367 178.377 75.1367C178.67 75.1367 178.898 75.2363 179.062 75.4355C179.227 75.6348 179.309 75.834 179.309 76.0332V76.1738L178.201 83.3281ZM193.758 88.8477C193.734 88.6484 193.717 88.4434 193.705 88.2324C193.693 88.0215 193.688 87.8047 193.688 87.582H193.037C192.568 87.582 192.012 87.6172 191.367 87.6875C190.734 87.7578 190.078 87.8691 189.398 88.0215C188.719 88.1738 188.045 88.3789 187.377 88.6367C186.709 88.8828 186.111 89.1875 185.584 89.5508C185.057 89.9023 184.629 90.3184 184.301 90.7988C183.984 91.2793 183.826 91.8301 183.826 92.4512C183.826 92.7793 183.902 93.0605 184.055 93.2949C184.219 93.5293 184.418 93.7227 184.652 93.875C184.898 94.0156 185.168 94.1211 185.461 94.1914C185.754 94.25 186.035 94.2793 186.305 94.2793C187.137 94.2793 187.922 94.1211 188.66 93.8047C189.41 93.4766 190.102 93.0547 190.734 92.5391C191.367 92.0117 191.936 91.4258 192.439 90.7812C192.943 90.1367 193.383 89.4922 193.758 88.8477ZM202.178 94.9297H202.107C201.908 94.9062 201.703 94.8945 201.492 94.8945C201.281 94.8945 201.076 94.8945 200.877 94.8945C199.775 94.8945 198.715 94.9648 197.695 95.1055C196.688 95.2461 195.674 95.4629 194.654 95.7559C194.619 95.7559 194.584 95.7617 194.549 95.7734C194.514 95.7852 194.467 95.791 194.408 95.791C194.139 95.791 193.916 95.6855 193.74 95.4746C193.576 95.2754 193.494 95.0703 193.494 94.8594V94.7188C193.494 94.6953 193.523 94.4609 193.582 94.0156C193.641 93.5586 193.699 92.9258 193.758 92.1172C193.254 92.6797 192.715 93.207 192.141 93.6992C191.578 94.1797 190.98 94.6016 190.348 94.9648C189.727 95.3164 189.082 95.5918 188.414 95.791C187.746 96.002 187.055 96.1074 186.34 96.1074C185.777 96.1074 185.232 96.0195 184.705 95.8438C184.178 95.6797 183.709 95.4395 183.299 95.123C182.9 94.8066 182.578 94.4258 182.332 93.9805C182.098 93.5234 181.98 93.0137 181.98 92.4512C181.98 91.5723 182.168 90.7988 182.543 90.1309C182.93 89.4629 183.434 88.8828 184.055 88.3906C184.676 87.8867 185.379 87.4707 186.164 87.1426C186.961 86.8027 187.77 86.5332 188.59 86.334C189.41 86.123 190.207 85.9766 190.98 85.8945C191.754 85.8008 192.439 85.7539 193.037 85.7539H193.459C193.459 85.0391 193.33 84.3418 193.072 83.6621C192.826 82.9824 192.475 82.3789 192.018 81.8516C191.572 81.3242 191.039 80.9023 190.418 80.5859C189.797 80.2578 189.111 80.0938 188.361 80.0938C187.811 80.0938 187.271 80.252 186.744 80.5684C186.217 80.873 185.748 81.2656 185.338 81.7461C184.928 82.2266 184.594 82.7656 184.336 83.3633C184.09 83.9609 183.967 84.541 183.967 85.1035C183.967 85.3379 183.867 85.5371 183.668 85.7012C183.48 85.8535 183.27 85.9297 183.035 85.9297C182.777 85.9297 182.555 85.8359 182.367 85.6484C182.18 85.4492 182.086 85.2324 182.086 84.998C182.086 84.4355 182.186 83.8496 182.385 83.2402C182.584 82.6191 182.871 82.0156 183.246 81.4297C183.633 80.832 184.096 80.2695 184.635 79.7422C185.186 79.2148 185.807 78.752 186.498 78.3535C187.201 77.9434 187.969 77.6211 188.801 77.3867C189.633 77.1523 190.518 77.0352 191.455 77.0352C192.768 77.0352 193.887 77.2402 194.812 77.6504C195.75 78.0605 196.529 78.6172 197.15 79.3203C197.783 80.0234 198.281 80.8379 198.645 81.7637C199.008 82.6895 199.283 83.668 199.471 84.6992C199.658 85.7305 199.775 86.7793 199.822 87.8457C199.881 88.9121 199.91 89.9316 199.91 90.9043C199.91 91.3965 199.904 91.8184 199.893 92.1699C199.881 92.5215 199.875 92.8145 199.875 93.0488C200.051 93.0488 200.227 93.043 200.402 93.0312C200.59 93.0195 200.771 93.0137 200.947 93.0137C201.146 93.0137 201.352 93.0195 201.562 93.0312C201.785 93.043 202.002 93.0488 202.213 93.0488C202.471 93.0723 202.676 93.1719 202.828 93.3477C202.992 93.5234 203.074 93.7402 203.074 93.998C203.074 94.2441 202.986 94.4609 202.811 94.6484C202.646 94.8359 202.436 94.9297 202.178 94.9297ZM219.826 86.2812C219.393 86.2812 218.982 86.1992 218.596 86.0352C218.221 85.8711 217.893 85.6484 217.611 85.3672C217.33 85.0859 217.107 84.7578 216.943 84.3828C216.779 83.9961 216.697 83.5859 216.697 83.1523C216.697 82.7188 216.779 82.3145 216.943 81.9395C217.107 81.5527 217.33 81.2188 217.611 80.9375C217.893 80.6445 218.221 80.416 218.596 80.252C218.982 80.0762 219.393 79.9883 219.826 79.9883C219.885 79.9883 219.938 79.9941 219.984 80.0059C220.043 80.0176 220.102 80.0234 220.16 80.0234C219.855 79.7891 219.498 79.6133 219.088 79.4961C218.689 79.3672 218.227 79.3027 217.699 79.3027C217.031 79.3027 216.451 79.4434 215.959 79.7246C215.467 79.9941 215.045 80.3398 214.693 80.7617C214.354 81.1719 214.078 81.623 213.867 82.1152C213.656 82.5957 213.486 83.0527 213.357 83.4863C213.24 83.9082 213.158 84.2715 213.111 84.5762C213.076 84.8809 213.059 85.0566 213.059 85.1035L213.023 92.9082C213.434 92.9434 213.844 92.9961 214.254 93.0664C214.676 93.1367 215.104 93.207 215.537 93.2773C215.76 93.3359 215.941 93.4531 216.082 93.6289C216.223 93.793 216.293 93.9863 216.293 94.209C216.293 94.4668 216.193 94.6836 215.994 94.8594C215.795 95.0234 215.584 95.1055 215.361 95.1055H215.186C214.236 94.9297 213.334 94.7949 212.479 94.7012C211.623 94.6074 210.773 94.5605 209.93 94.5605C209.086 94.5605 208.242 94.6074 207.398 94.7012C206.555 94.7949 205.658 94.9297 204.709 95.1055H204.533C204.264 95.1055 204.047 95.0176 203.883 94.8418C203.719 94.6543 203.637 94.4434 203.637 94.209C203.637 93.9863 203.701 93.793 203.83 93.6289C203.959 93.4531 204.135 93.3359 204.357 93.2773C204.768 93.207 205.178 93.1367 205.588 93.0664C205.998 92.9961 206.402 92.9434 206.801 92.9082V79.8125C206.062 79.7773 205.441 79.7305 204.938 79.6719C204.434 79.6133 204.152 79.5723 204.094 79.5488C203.859 79.5254 203.666 79.4316 203.514 79.2676C203.373 79.0918 203.303 78.8867 203.303 78.6523C203.303 78.3594 203.402 78.1309 203.602 77.9668C203.812 77.8027 204.023 77.7207 204.234 77.7207H204.357C204.369 77.7324 204.504 77.7559 204.762 77.791C205.02 77.8145 205.354 77.8438 205.764 77.8789C206.174 77.9141 206.643 77.9434 207.17 77.9668C207.709 77.9902 208.254 78.002 208.805 78.002C209.367 78.002 209.918 77.9844 210.457 77.9492C210.996 77.9141 211.494 77.8496 211.951 77.7559C211.975 77.7324 212.033 77.7207 212.127 77.7207C212.396 77.7207 212.619 77.8203 212.795 78.0195C212.971 78.207 213.059 78.418 213.059 78.6523V79.918C213.562 79.2148 214.195 78.6348 214.957 78.1777C215.73 77.709 216.645 77.4746 217.699 77.4746C218.496 77.498 219.223 77.6387 219.879 77.8965C220.535 78.1426 221.098 78.4883 221.566 78.9336C222.047 79.3672 222.416 79.8945 222.674 80.5156C222.943 81.125 223.078 81.8105 223.078 82.5723C223.078 83.0527 223.002 83.5156 222.85 83.9609C222.697 84.4062 222.48 84.8047 222.199 85.1562C221.918 85.4961 221.572 85.7715 221.162 85.9824C220.764 86.1816 220.318 86.2812 219.826 86.2812Z" fill="black"/>
</g>
<g filter="url(#filter4_d_6_10)">
<path d="M136.324 126.359C136.525 129.76 135.925 132.838 134.523 135.593C133.119 138.317 131.238 140.656 128.881 142.611C126.522 144.535 123.857 146.051 120.886 147.158C117.947 148.265 115.01 148.886 112.076 149.022C106.581 149.277 101.45 148.514 96.6804 146.734C91.911 144.953 87.6013 142.213 83.7513 138.512L83.8177 139.635C83.8768 140.634 83.9506 141.616 84.039 142.581C84.1275 143.547 84.2315 144.512 84.3512 145.476L84.3622 145.663C84.3992 146.287 84.2129 146.843 83.8036 147.331C83.4255 147.818 82.8949 148.109 82.2118 148.203C81.4938 148.236 80.8878 148.045 80.3937 147.63C79.8996 147.215 79.6011 146.666 79.498 145.983C79.3765 144.987 79.2706 143.991 79.1803 142.994C79.0882 141.966 79.0126 140.953 78.9535 139.955C78.7652 136.773 78.7478 133.834 78.9012 131.136C79.0528 128.408 79.3155 125.705 79.6892 123.029C79.8102 122.429 80.0626 121.933 80.4462 121.539C80.8611 121.145 81.3651 120.934 81.9582 120.906C82.6762 120.873 83.2859 121.126 83.7874 121.666C84.287 122.174 84.5534 122.71 84.5867 123.271C84.5904 123.333 84.595 123.411 84.6005 123.505C84.6042 123.567 84.5776 123.647 84.5207 123.743C84.4071 124.468 84.3063 125.145 84.2184 125.775C84.1598 126.372 84.0856 126.97 83.9958 127.568C83.9354 128.134 83.8768 128.731 83.8201 129.36C83.7927 129.955 83.7544 130.629 83.705 131.383C87.4671 135.712 91.6677 138.99 96.3068 141.214C100.944 143.408 106.072 144.374 111.691 144.113C113.283 144.039 114.976 143.82 116.77 143.455C118.595 143.089 120.251 142.511 121.739 141.723C123.255 140.902 124.477 139.86 125.404 138.597C126.36 137.301 126.782 135.702 126.669 133.799C126.59 132.458 126.159 131.258 125.376 130.199C124.592 129.109 123.596 128.155 122.39 127.335C121.183 126.515 119.827 125.811 118.321 125.224C116.844 124.605 115.358 124.079 113.861 123.648C112.364 123.217 110.935 122.877 109.575 122.627C108.243 122.345 107.104 122.132 106.156 121.988C103.912 121.623 101.681 121.211 99.4626 120.751C97.2423 120.259 95.1249 119.654 93.1103 118.934C91.0957 118.214 89.2132 117.348 87.4629 116.334C85.7126 115.32 84.1698 114.109 82.8343 112.701C81.5283 111.26 80.4581 109.574 79.6239 107.642C78.8208 105.708 78.3436 103.463 78.1922 100.905C78.0446 98.4091 78.2367 96.101 78.7685 93.9805C79.3298 91.8273 80.1537 89.8809 81.2402 88.1413C82.3267 86.4017 83.6291 84.871 85.1473 83.5493C86.6949 82.1949 88.3958 81.0524 90.2502 80.1218C92.1027 79.1599 94.0627 78.4277 96.1302 77.9251C98.2271 77.3898 100.352 77.0722 102.506 76.9722C103.818 76.9113 105.213 76.9561 106.693 77.1063C108.203 77.2239 109.702 77.4359 111.191 77.7421C112.679 78.0172 114.14 78.3717 115.574 78.8056C117.038 79.2069 118.396 79.6756 119.648 80.2118C120.899 80.7168 122.012 81.2751 122.987 81.8868C123.961 82.4672 124.748 83.072 125.348 83.701C125.715 82.4953 126.114 81.3037 126.545 80.1263C127.006 78.9162 127.482 77.7055 127.974 76.4939C128.198 76.0456 128.49 75.7036 128.852 75.4678C129.243 75.1994 129.657 75.0551 130.094 75.0348C130.812 75.0015 131.421 75.2391 131.921 75.7477C132.418 76.2251 132.686 76.7757 132.723 77.3996C132.743 77.7428 132.671 78.1059 132.505 78.4889C131.081 81.9334 129.939 85.3804 129.079 88.8299C128.249 92.2469 127.717 95.6968 127.485 99.1798C127.459 99.8066 127.225 100.334 126.78 100.761C126.365 101.156 125.846 101.367 125.221 101.396C124.504 101.43 123.895 101.192 123.395 100.683C122.895 100.175 122.63 99.6554 122.599 99.1251L122.582 98.8443C122.761 95.5202 123.239 92.2291 124.017 88.9711C123.796 88.4183 123.277 87.848 122.46 87.2603C121.641 86.6414 120.636 86.0625 119.446 85.5233C118.287 84.9828 116.974 84.4807 115.507 84.017C114.038 83.5221 112.542 83.1067 111.019 82.7707C109.497 82.4347 107.979 82.1767 106.466 81.9967C104.953 81.8167 103.572 81.7557 102.323 81.8136C100.419 81.902 98.605 82.1895 96.8809 82.6762C95.1568 83.1629 93.6347 83.8905 92.3147 84.8589C91.026 85.8259 90.0026 87.0464 89.2447 88.5205C88.4849 89.9634 88.1485 91.6839 88.2354 93.6818C88.4636 95.423 89.0214 96.9142 89.9087 98.1555C90.8254 99.3642 91.9202 100.408 93.193 101.288C94.497 102.166 95.9488 102.896 97.5484 103.478C99.1461 104.03 100.755 104.503 102.375 104.897C104.024 105.258 105.623 105.575 107.173 105.847C108.721 106.088 110.128 106.32 111.393 106.543C114.59 107.145 117.652 107.847 120.58 108.65C123.507 109.453 126.093 110.568 128.337 111.997C130.613 113.424 132.461 115.293 133.881 117.605C135.299 119.885 136.114 122.803 136.324 126.359Z" fill="black"/>
</g>
<defs>
<filter id="filter0_if_6_10" x="0" y="0" width="381" height="229" filterUnits="userSpaceOnUse" color-interpolation-filters="sRGB">
<feFlood flood-opacity="0" result="BackgroundImageFix"/>
<feBlend mode="normal" in="SourceGraphic" in2="BackgroundImageFix" result="shape"/>
<feColorMatrix in="SourceAlpha" type="matrix" values="0 0 0 0 0 0 0 0 0 0 0 0 0 0 0 0 0 0 127 0" result="hardAlpha"/>
<feMorphology radius="40" operator="erode" in="SourceAlpha" result="effect1_innerShadow_6_10"/>
<feOffset dx="40" dy="10"/>
<feGaussianBlur stdDeviation="35"/>
<feComposite in2="hardAlpha" operator="arithmetic" k2="-1" k3="1"/>
<feColorMatrix type="matrix" values="0 0 0 0 0 0 0 0 0 0 0 0 0 0 0 0 0 0 0.26 0"/>
<feBlend mode="normal" in2="shape" result="effect1_innerShadow_6_10"/>
<feGaussianBlur stdDeviation="30" result="effect2_foregroundBlur_6_10"/>
</filter>
<filter id="filter1_d_6_10" x="99.7353" y="95" width="209.265" height="61.336" filterUnits="userSpaceOnUse" color-interpolation-filters="sRGB">
<feFlood flood-opacity="0" result="BackgroundImageFix"/>
<feColorMatrix in="SourceAlpha" type="matrix" values="0 0 0 0 0 0 0 0 0 0 0 0 0 0 0 0 0 0 127 0" result="hardAlpha"/>
<feOffset dy="4"/>
<feGaussianBlur stdDeviation="2"/>
<feComposite in2="hardAlpha" operator="out"/>
<feColorMatrix type="matrix" values="0 0 0 0 0 0 0 0 0 0 0 0 0 0 0 0 0 0 0.25 0"/>
<feBlend mode="normal" in2="BackgroundImageFix" result="effect1_dropShadow_6_10"/>
<feBlend mode="normal" in="SourceGraphic" in2="effect1_dropShadow_6_10" result="shape"/>
</filter>
<filter id="filter2_d_6_10" x="101.735" y="95" width="205.265" height="59.336" filterUnits="userSpaceOnUse" color-interpolation-filters="sRGB">
<feFlood flood-opacity="0" result="BackgroundImageFix"/>
<feColorMatrix in="SourceAlpha" type="matrix" values="0 0 0 0 0 0 0 0 0 0 0 0 0 0 0 0 0 0 127 0" result="hardAlpha"/>
<feOffset dy="4"/>
<feGaussianBlur stdDeviation="1"/>
<feComposite in2="hardAlpha" operator="out"/>
<feColorMatrix type="matrix" values="0 0 0 0 0 0 0 0 0 0 0 0 0 0 0 0 0 0 0.5 0"/>
<feBlend mode="normal" in2="BackgroundImageFix" result="effect1_dropShadow_6_10"/>
<feBlend mode="normal" in="SourceGraphic" in2="effect1_dropShadow_6_10" result="shape"/>
</filter>
<filter id="filter3_d_6_10" x="136.443" y="75.1367" width="90.6348" height="28.9707" filterUnits="userSpaceOnUse" color-interpolation-filters="sRGB">
<feFlood flood-opacity="0" result="BackgroundImageFix"/>
<feColorMatrix in="SourceAlpha" type="matrix" values="0 0 0 0 0 0 0 0 0 0 0 0 0 0 0 0 0 0 127 0" result="hardAlpha"/>
<feOffset dy="4"/>
<feGaussianBlur stdDeviation="2"/>
<feComposite in2="hardAlpha" operator="out"/>
<feColorMatrix type="matrix" values="0 0 0 0 0 0 0 0 0 0 0 0 0 0 0 0 0 0 0.25 0"/>
<feBlend mode="normal" in2="BackgroundImageFix" result="effect1_dropShadow_6_10"/>
<feBlend mode="normal" in="SourceGraphic" in2="effect1_dropShadow_6_10" result="shape"/>
</filter>
<filter id="filter4_d_6_10" x="73.2626" y="74.887" width="66.3324" height="81.6434" filterUnits="userSpaceOnUse" color-interpolation-filters="sRGB">
<feFlood flood-opacity="0" result="BackgroundImageFix"/>
<feColorMatrix in="SourceAlpha" type="matrix" values="0 0 0 0 0 0 0 0 0 0 0 0 0 0 0 0 0 0 127 0" result="hardAlpha"/>
<feOffset dy="4"/>
<feGaussianBlur stdDeviation="1"/>
<feComposite in2="hardAlpha" operator="out"/>
<feColorMatrix type="matrix" values="0 0 0 0 0 0 0 0 0 0 0 0 0 0 0 0 0 0 0.5 0"/>
<feBlend mode="normal" in2="BackgroundImageFix" result="effect1_dropShadow_6_10"/>
<feBlend mode="normal" in="SourceGraphic" in2="effect1_dropShadow_6_10" result="shape"/>
</filter>
</defs>
</svg>
