<svg width="241" height="114" viewBox="0 0 241 114" fill="none" xmlns="http://www.w3.org/2000/svg">
<g filter="url(#filter0_d_6_10)">
<g filter="url(#filter1_d_6_10)">
<path d="M180.515 52.8578C180.578 53.3393 180.971 55.0398 181.396 56.6349C181.868 58.3354 182.23 60.1262 182.324 60.999C182.418 62.0073 182.591 62.7597 182.875 63.4369C183.331 64.4752 183.457 65.7242 183.142 66.0252C183.048 66.1155 182.167 66.266 181.207 66.3412L179.445 66.4917L179.068 66.0553C178.093 64.9267 175.607 60.6529 174.711 58.5762L174.475 58.0194L175.088 57.6432C175.434 57.4325 175.717 57.1466 175.717 56.9961C175.717 56.6801 173.751 55.4913 172.32 54.9646C170.385 54.2272 169.693 54.182 162.032 54.1971C152.877 54.2272 146.837 54.5131 132.381 55.6267C123.572 56.2888 121.841 56.4845 120.426 56.8908C119.734 57.1014 118.412 57.3573 117.5 57.4777C115.785 57.7184 114.873 57.9893 112.356 59.0577C111.554 59.4039 109.855 60.0208 108.597 60.4422C104.947 61.6461 103.626 62.3534 100.37 64.8665C97.2867 67.2441 94.644 70.0281 92.8979 72.7519L92.3317 73.6247L90.2553 73.73C89.107 73.7752 86.2755 73.8956 83.9317 73.9708C78.788 74.1514 75.6734 74.3621 73.4711 74.663C71.4891 74.9339 71.4262 74.949 71.4262 75.2499C71.4262 75.3854 71.2375 75.7917 71.0172 76.1679C70.0734 77.7028 70.388 81.8713 71.8195 86.5965C72.2127 87.8606 72.2127 88.1164 71.8352 88.1164C71.7251 88.1164 71.5206 88.2368 71.3633 88.3873C71.1431 88.6431 71.1274 88.8086 71.2847 89.862C71.442 90.9455 72.1813 94.4518 72.2599 94.5421C72.2914 94.5571 72.8262 94.6474 73.4711 94.7528C74.2891 94.8732 76.4756 94.9033 80.5497 94.8581L86.4486 94.7829L86.9362 96.1523C87.2036 96.9047 87.5969 97.913 87.8328 98.3945L88.2575 99.2824L87.2823 99.1921C86.7317 99.1469 83.9946 99.0717 81.1947 99.0115L76.0981 98.9212L76.2082 99.4028L76.3026 99.8994L74.3835 99.794C70.8127 99.6134 58.0241 99.5382 51.9208 99.6586C46.0377 99.779 45.8647 99.794 45.8175 100.08C45.7231 100.592 45.5343 100.637 44.7478 100.381C43.7254 100.05 42.3883 100.08 40.3434 100.456C39.1479 100.682 38.1883 100.757 37.2131 100.727L35.7973 100.682L35.7501 101.464C35.6872 102.427 35.7501 102.443 37.4805 101.901C38.5816 101.555 38.849 101.525 41.5074 101.57C43.5523 101.6 44.4175 101.66 44.5905 101.811C44.795 101.961 45.9433 101.991 49.8444 101.976C52.5815 101.961 55.0983 101.916 55.4129 101.856C55.8061 101.795 56.105 101.841 56.278 101.976C56.4668 102.142 57.0016 102.172 58.4488 102.142L60.3522 102.096L60.7454 102.668C61.2331 103.391 61.5162 103.436 62.1926 102.879C62.8375 102.337 63.2937 102.292 64.5049 102.698C65.2285 102.924 65.7319 102.969 67.7296 102.924C69.5858 102.879 70.1206 102.819 70.2622 102.653C70.4038 102.458 70.9386 102.443 74.1947 102.563C76.2554 102.638 79.7947 102.713 82.0441 102.713H86.134L86.4171 103.195L86.7002 103.661L89.4058 103.586L92.1114 103.511V104.053C92.1114 104.579 92.1272 104.594 92.7406 104.64C93.0867 104.67 95.2103 104.579 97.4597 104.444C100.92 104.218 103.563 104.203 104.664 104.414C104.774 104.429 104.869 104.263 104.9 104.023C104.963 103.511 105.246 103.496 107.008 103.932C107.747 104.113 108.534 104.218 108.88 104.173C109.367 104.113 109.493 104.158 109.666 104.459L109.855 104.82H118.145C129.848 104.82 135.417 104.685 135.716 104.399C135.904 104.218 136.282 104.173 137.698 104.233C138.673 104.263 140.497 104.294 141.772 104.294H144.084L144.131 104.82C144.178 105.437 144.226 105.437 146.459 105.151C148.064 104.941 152.311 104.926 155.425 105.121C159.091 105.362 163.401 105.317 165.115 105.046C166.248 104.85 166.783 104.835 167.349 104.956C169.708 105.437 172.76 105.287 174.852 104.579C175.702 104.294 176.284 104.203 177.432 104.203C178.234 104.203 179.099 104.278 179.335 104.369C179.603 104.474 180.201 104.519 180.861 104.459C181.443 104.414 183.598 104.324 185.627 104.233C187.657 104.158 190.346 104.038 191.605 103.977C193.351 103.902 194.373 103.932 195.962 104.128C198.007 104.384 198.07 104.384 199.281 104.083C200.713 103.722 203.623 103.541 211.504 103.3C214.445 103.21 217.497 103.09 218.268 103.014C219.054 102.939 220.784 102.804 222.121 102.713C223.459 102.623 225.346 102.473 226.321 102.382C228.303 102.187 231.969 102.307 234.533 102.623C236.263 102.849 236.782 102.774 236.971 102.307C237.144 101.871 236.53 101.51 235.618 101.51C235.193 101.51 234.721 101.449 234.564 101.374C234.375 101.269 234.061 101.299 233.589 101.464C232.802 101.72 231.308 101.66 230.537 101.344L230.065 101.148L230.537 101.088C231.151 101.013 231.402 100.802 231.402 100.366C231.402 99.8392 230.899 99.6586 229.688 99.7639C228.964 99.8241 228.461 99.794 228.02 99.6285C227.375 99.4178 223.05 99.2974 222.53 99.493C222.043 99.6736 222.279 99.8542 222.987 99.8542C223.38 99.8542 223.694 99.9144 223.694 100.005C223.694 100.17 222.877 100.2 222.326 100.065C222.153 100.02 221.964 99.8542 221.917 99.6887C221.838 99.4178 221.665 99.4028 219.605 99.4028H217.387L217.686 98.9814C217.859 98.7557 218.283 98.0333 218.629 97.3712C218.975 96.7091 219.384 96.062 219.542 95.9266C219.746 95.746 220.281 95.6557 221.335 95.5955C222.153 95.5353 223.789 95.3246 224.953 95.0989C226.51 94.813 227.894 94.6775 230.144 94.5872C232.928 94.4819 233.982 94.3465 234.485 94.0154C234.658 93.9101 234.784 93.3834 234.957 91.9086C235.052 91.2314 235.13 91.0809 235.524 90.8853C236.342 90.479 236.452 89.561 235.697 89.3805C235.351 89.2902 234.108 89.3955 233.369 89.561C233.117 89.6212 233.007 89.5309 232.849 89.1246C232.598 88.4474 231.984 88.1615 230.27 87.9358L228.964 87.7402L229.955 87.6499C231.025 87.5445 231.497 87.3038 231.088 87.063C230.962 86.9877 230.081 86.9125 229.121 86.8975L227.391 86.8674L228.681 86.7169L229.955 86.5664L230.128 85.9193C230.223 85.5581 230.285 85.1819 230.27 85.0766C230.238 84.9713 230.521 84.8208 230.93 84.7305C231.449 84.595 231.654 84.4746 231.685 84.2489C231.764 83.7373 230.836 83.5266 228.681 83.5567C225.802 83.5868 225.834 83.5717 225.503 84.7305C225.362 85.2572 225.268 86.0246 225.299 86.446L225.346 87.1834L223.82 87.2887L222.279 87.3941V87.9659C222.279 88.5377 222.279 88.5377 223.065 88.6431C223.915 88.7484 225.047 88.628 225.205 88.4023C225.252 88.3271 225.441 88.3421 225.629 88.4475C225.85 88.5829 226.667 88.6431 227.973 88.6431C229.184 88.6431 230.034 88.7033 230.144 88.8086C230.443 89.0945 213.344 89.7416 201.924 89.8771L193.304 89.9673L193.666 89.3052C193.917 88.8387 194.043 88.297 194.09 87.4392C194.153 86.1902 193.917 84.58 193.618 84.4145C193.272 84.2038 193.099 84.7305 193.021 86.3256C192.958 87.5596 192.879 88.011 192.706 88.1164C192.14 88.4625 191.196 88.5979 188.679 88.6732L185.989 88.7635L185.895 88.4023C185.8 88.0712 185.785 88.0712 185.502 88.312C185.093 88.6732 184.227 88.8989 183.708 88.7785C183.331 88.7033 183.284 88.6431 183.362 88.3271C183.441 88.011 183.409 87.9659 183.063 87.9659C182.812 87.9659 182.576 87.8154 182.403 87.5746C182.151 87.1984 182.104 87.1834 181.129 87.2887C179.697 87.4242 173.028 87.2135 173.153 87.0178C173.216 86.9276 174.428 86.8975 176.488 86.9426C178.266 86.9877 180.248 86.9577 180.893 86.8975C182.23 86.747 183.677 86.3407 183.472 86.145C183.409 86.0848 182.89 86.0096 182.324 85.9795L181.302 85.9344L182.088 85.7538C182.529 85.6635 183.205 85.528 183.63 85.4829L184.369 85.3926V84.7455C184.369 84.1285 184.385 84.1135 184.809 84.1737C185.329 84.2339 185.785 83.8426 185.502 83.5717C185.297 83.3761 183.504 83.3912 182.088 83.6018C181.522 83.6921 179.194 83.7373 176.866 83.7222C174.034 83.7072 172.414 83.7523 171.942 83.8727C171.281 84.0382 171.219 84.0232 170.998 83.7222C170.117 82.4882 169.237 81.9014 167.978 81.7208C167.396 81.6305 167.223 81.5552 167.192 81.2994C167.16 81.0436 166.987 80.9533 166.437 80.848C165.729 80.7276 159.641 80.8179 157.832 80.9984C156.888 81.0737 156.873 81.0887 156.763 81.5853C156.605 82.398 156.055 82.9096 155.3 82.9096C154.529 82.9247 154.387 83.0751 153.097 85.3324L152.154 86.9877L145.5 87.1382L138.846 87.2887L138.641 87.6649C138.374 88.1766 138.641 88.4174 139.475 88.4174C140.089 88.4174 140.151 88.4475 140.199 88.8237C140.246 89.1848 140.34 89.2601 140.875 89.3504C141.221 89.4106 142.291 89.4557 143.266 89.4557C144.226 89.4707 145.122 89.5159 145.264 89.561C145.814 89.7567 145.358 91.4271 144.556 92.1343C144.351 92.3149 143.817 92.6159 143.392 92.8115C142.637 93.1426 142.401 93.1576 137.666 93.2329C134.441 93.278 132.711 93.263 132.68 93.1576C132.554 92.7212 132.129 82.9397 132.176 81.1941L132.223 79.1625L133.56 79.1324C134.3 79.1023 137.241 78.982 140.089 78.8616C142.951 78.7412 146.491 78.6358 147.954 78.6358C155.504 78.6208 157.58 78.1091 158.713 75.9572C158.965 75.4606 159.358 74.8587 159.594 74.6028C160.05 74.0761 159.657 74.1213 166.83 73.73C171.753 73.4742 177.904 73.0077 180.798 72.6917C183.205 72.4208 183.378 72.4208 183.174 72.6164C183.095 72.6917 182.245 72.9024 181.302 73.0679C180.342 73.2485 178.517 73.6247 177.227 73.9257L174.899 74.4524L174.978 74.8737C175.057 75.2349 175.01 75.2951 174.506 75.4155C173.704 75.6111 173.484 76.0023 173.971 76.3936C174.317 76.6645 174.585 76.6795 177.715 76.6645C179.571 76.6645 181.113 76.6795 181.16 76.7096C181.239 76.7999 176.771 77.1159 175.953 77.0858C175.466 77.0557 175.324 77.1159 175.277 77.3417C175.214 77.6125 175.308 77.6276 176.724 77.5523C178.313 77.4771 179.021 77.5373 179.021 77.748C179.021 77.8232 178.03 77.8834 176.803 77.8834C174.837 77.8834 174.49 77.9286 173.814 78.2145C173.106 78.5305 172.713 78.9819 172.949 79.1926C172.996 79.2528 175.025 79.313 177.448 79.3582C181.789 79.4334 181.852 79.4184 181.852 79.1174C181.852 78.9218 181.711 78.7863 181.427 78.696C181.003 78.5907 181.003 78.5907 181.616 78.4703C181.962 78.4101 182.875 78.3499 183.63 78.3499L185.014 78.3349L184.967 79.1926L184.92 80.0654L185.439 80.0504C186.021 80.0203 186.005 79.9902 185.753 80.7727C185.596 81.2693 185.612 81.3897 185.8 81.5101C186.398 81.8713 186.681 81.48 186.886 80.1106C186.964 79.5989 187.09 79.1475 187.153 79.0873C187.216 79.012 187.641 79.0421 188.081 79.1324C189.607 79.4334 190.063 79.1023 190.818 77.1611C191.416 75.6261 191.542 74.663 191.306 73.2786C191.212 72.7067 191.18 72.2252 191.227 72.18C191.259 72.1349 191.605 72.3907 191.967 72.7368C192.47 73.2184 192.769 73.3689 193.146 73.3689C193.603 73.3689 193.65 73.3237 193.65 72.9174C193.65 72.6616 193.728 72.466 193.823 72.466C194.122 72.466 193.839 75.3252 193.319 77.5824C193.068 78.696 192.816 80.0654 192.753 80.6072C192.675 81.48 192.706 81.6154 192.958 81.7208C193.43 81.9164 201.09 81.9315 208.861 81.7659C215.42 81.6154 217.717 81.6606 217.717 81.9164C217.717 81.9766 216.49 82.0368 214.98 82.0368C213.454 82.0518 212.117 82.1271 211.96 82.2174C211.708 82.3528 211.74 82.398 212.243 82.6237C212.731 82.8494 213.045 82.8645 214.697 82.7591C215.735 82.6839 216.742 82.6538 216.931 82.6989C217.261 82.7742 217.261 82.7892 216.978 83.0149C216.82 83.1504 216.097 83.5416 215.373 83.8727C214.068 84.4596 214.036 84.4596 213.8 84.1737C213.58 83.9329 213.375 83.8878 212.369 83.9329C211.236 83.978 211.189 83.9931 211.142 84.3693C211.095 84.7756 211.158 84.7606 209.537 84.7907C209.317 84.8057 208.515 84.4897 207.744 84.1135C206.737 83.6169 206.155 83.4213 205.62 83.4062C204.913 83.3761 204.897 83.3912 204.85 83.8577C204.803 84.3242 204.755 84.3543 204.189 84.3543C203.607 84.3543 203.576 84.3844 203.34 85.0615C202.915 86.2504 202.899 86.2353 204.456 86.1902C206.218 86.1149 207.288 86.3407 207.98 86.9276L208.515 87.364L208.169 87.6047C207.713 87.9057 207.713 88.4023 208.137 88.929C208.499 89.3654 209.191 89.4557 209.301 89.0945C209.537 88.3722 209.537 88.3722 209.758 88.5678C209.946 88.7033 210.025 88.6732 210.167 88.4174L210.34 88.1013L210.607 88.4174C210.764 88.613 211.142 88.7635 211.519 88.8237C212.605 88.9591 213.297 88.3572 212.479 88.011C212.133 87.8606 212.101 87.7251 212.007 86.3708C211.928 85.1819 211.944 84.8509 212.133 84.6703C212.322 84.4897 212.432 84.4897 212.778 84.6402L213.202 84.8208L213.092 86.2805C213.014 87.4242 213.029 87.8154 213.202 88.0261C213.423 88.312 213.486 88.2669 214.665 87.3489C215.735 86.5212 216.018 86.3858 216.695 86.3106C217.418 86.2353 217.481 86.2052 217.575 85.7538C217.623 85.4979 217.969 84.9562 218.33 84.5649C218.692 84.1737 218.96 83.7824 218.928 83.6921C218.897 83.6018 218.645 83.3912 218.378 83.2256C218.11 83.0601 217.89 82.8795 217.874 82.8344C217.874 82.714 228.162 82.8043 230.899 82.9397C231.858 82.9848 232.661 83.0902 232.661 83.1654C232.661 83.2256 232.519 83.4213 232.346 83.5717C231.858 83.9931 231.654 86.9276 232.031 87.8756C232.189 88.297 232.22 88.297 232.472 88.0562C232.692 87.8606 232.755 87.4693 232.787 86.1149L232.834 84.4295L233.62 83.7373C234.375 83.0601 234.564 82.5785 234.265 82.1572C234.202 82.0669 233.699 81.9164 233.133 81.8111C232.582 81.7057 231.858 81.495 231.544 81.3295C230.852 80.9984 230.097 80.1858 230.207 79.8999C230.474 79.2227 231.434 75.4757 231.654 74.2116C231.921 72.7067 231.906 69.5917 231.638 68.9597C231.465 68.5533 230.27 68.1019 228.98 67.9514C228.162 67.8611 227.187 67.8912 225.205 68.1169C223.726 68.2674 221.665 68.4029 220.643 68.4029C219.605 68.4029 218.173 68.5082 217.434 68.6436C216.569 68.7941 215.814 68.8393 215.295 68.7791C214.854 68.7189 213.454 68.6888 212.164 68.7038C210.025 68.7339 209.773 68.7038 208.782 68.3427C207.587 67.9063 202.805 67.1388 199.863 66.9131C198.825 66.8228 195.71 66.6572 192.942 66.5218C190.173 66.3864 187.263 66.2509 186.461 66.2058L185.03 66.1155L184.306 64.5805C183.095 61.9922 183.063 61.8718 183.032 59.8252C183 58.1247 182.938 57.7786 182.434 56.2888C182.135 55.3709 181.805 54.167 181.711 53.5951C181.538 52.5117 181.223 52 180.72 52C180.436 52 180.421 52.0753 180.515 52.8578ZM167.034 55.5514C167.333 55.8825 167.491 55.9277 167.884 55.8524C168.387 55.7621 170.983 56.033 171.187 56.1985C171.25 56.2437 167.569 56.2888 163.007 56.2888C151.367 56.2888 141.897 56.6951 140.608 57.2369C139.003 57.9141 137.902 60.0509 136.628 65.0019C135.936 67.6655 135.904 68.6737 136.518 69.3208C137.1 69.9529 138.169 70.2087 139.617 70.0582C140.23 69.983 142.023 69.8626 143.628 69.7723C145.232 69.6669 151.178 69.2004 156.841 68.7038C167.097 67.816 168.702 67.7106 177.369 67.2742C182.89 67.0034 190.126 67.1237 189.009 67.4849C188.648 67.5902 186.98 67.7257 184.998 67.8009C183.142 67.8611 181.365 67.9665 181.066 68.0116C179.43 68.2825 162.504 69.4563 149.369 70.2087C134.992 71.0363 131.201 71.2621 130.336 71.3524C129.077 71.4728 129.282 71.3373 130.808 71.0363C131.5 70.9009 132.349 70.6451 132.695 70.4645C133.262 70.1635 133.372 70.013 133.749 68.9296C134.331 67.2742 136.109 61.5407 136.549 59.9306C136.895 58.6665 136.895 58.6063 136.628 58.3204C135.92 57.5679 133.875 57.4024 130.1 57.7937C128.023 58.0044 121.841 58.8471 119.01 59.3136C113.19 60.2616 106.552 62.3835 103.406 64.3247C101.644 65.3932 98.026 69.0199 97.5541 70.1786C97.1294 71.2019 97.1136 72.3004 97.5383 72.7218C97.79 72.9927 97.8058 73.0528 97.6013 73.1281C97.2552 73.2635 93.9204 73.4291 93.9204 73.3237C93.9204 73.2635 94.235 72.8271 94.5968 72.3606C94.9743 71.8791 95.5721 71.0815 95.9181 70.5849C96.8777 69.2305 100.386 65.9199 102.1 64.7611C105.309 62.5941 111.287 60.066 116.666 58.6213C118.522 58.1247 121.731 57.6432 127.268 57.0563C137.886 55.9126 162.032 54.7087 162.032 55.3107C162.032 55.401 161.859 55.4311 161.623 55.3709C161.309 55.2956 161.23 55.3257 161.277 55.4762C161.403 55.8223 161.875 55.8223 162.362 55.4762C162.992 55.0248 164.03 55.0398 164.25 55.4913C164.392 55.8073 164.502 55.8374 165.273 55.7922C166.216 55.732 166.405 55.3859 165.493 55.3859C165.178 55.3859 164.942 55.2956 164.895 55.1752C164.832 55.0097 164.989 54.9796 165.744 55.0549C166.484 55.1301 166.751 55.2204 167.034 55.5514ZM169.378 58.0645C169.913 58.0796 170.29 58.1548 170.228 58.215C170.149 58.2903 169.819 58.3505 169.473 58.3505C169.142 58.3354 168.733 58.3806 168.576 58.4257C168.277 58.501 168.277 58.516 168.56 58.7116C168.717 58.832 169.079 58.9223 169.331 58.9223C169.708 58.9223 169.756 58.9675 169.583 59.0728C169.457 59.148 169.016 59.2233 168.607 59.2233C168.073 59.2233 167.852 59.2835 167.852 59.434C167.852 59.75 168.293 59.8553 169.189 59.75C170.228 59.6145 170.338 59.5393 170.605 58.832L170.81 58.2602L171.769 58.2752C173.012 58.2752 173.342 58.5612 174.176 60.2616C174.506 60.9539 175.277 62.2029 175.875 63.0606C176.881 64.4752 177.762 66.0102 177.762 66.3713C177.762 66.582 171.816 66.3713 169.504 66.0703C168.466 65.9349 166.94 65.6941 166.122 65.5286C165.304 65.3631 164.203 65.1674 163.684 65.0771C163.165 65.0019 162.252 64.7912 161.639 64.6257C160.27 64.2344 159.578 64.2946 157.785 65.0019C157.046 65.2878 155.96 65.6038 155.363 65.6941C154.765 65.7844 152.405 66.3412 150.093 66.9281C147.796 67.515 145.138 68.1922 144.178 68.433C142.291 68.8995 139.805 69.1252 138.909 68.8995C138.154 68.7038 137.918 67.9213 138.028 66.0703C138.169 63.6325 139.333 60.3519 140.403 59.3286C141.646 58.1548 146.003 57.8539 159.909 57.9743C164.58 58.0044 168.843 58.0495 169.378 58.0645ZM132.066 59.9607C132.16 60.1111 130.273 61.2398 130.147 61.1194C130.1 61.0893 130.226 60.984 130.399 60.8786C130.587 60.7883 130.729 60.5927 130.729 60.4422C130.729 60.2616 130.918 60.1262 131.327 60.0209C131.641 59.9306 131.925 59.8553 131.94 59.8403C131.956 59.8403 132.003 59.8854 132.066 59.9607ZM134.08 59.9155C134.127 59.9757 133.309 60.6077 132.271 61.3602C130.226 62.7898 127.599 64.4 127.473 64.2946C127.363 64.1742 129.549 62.5189 131.641 61.1495C133.592 59.8704 133.875 59.7199 134.08 59.9155ZM128.841 60.0359C128.841 60.081 128.417 60.4121 127.898 60.7883C127.379 61.1645 126.954 61.4354 126.954 61.3752C126.954 61.1946 128.401 59.9757 128.621 59.9757C128.747 59.9757 128.841 60.0058 128.841 60.0359ZM130.572 60.0509C130.572 60.081 130.352 60.2315 130.1 60.3519C129.832 60.4874 128.904 61.1194 128.008 61.7514C126.309 63.0005 126.01 63.1961 126.01 63.0907C126.01 62.9704 128.118 61.3903 129.235 60.6679C130.241 60.0209 130.572 59.8704 130.572 60.0509ZM126.954 60.5024C126.844 60.6228 126.639 60.7281 126.498 60.7281C126.309 60.7131 126.325 60.6529 126.623 60.4121C127.032 60.081 127.268 60.1412 126.954 60.5024ZM122.864 60.5476C122.864 60.6679 120.316 62.4437 119.718 62.7597C119.23 63.0155 119.828 62.5339 121.291 61.4956C122.943 60.3369 122.864 60.382 122.864 60.5476ZM121.197 60.8485C121.102 60.9087 120.788 61.1344 120.489 61.3602C120.19 61.5859 119.734 61.8417 119.482 61.932L119.01 62.0975L119.482 61.616C119.938 61.1495 121.134 60.5175 121.275 60.6679C121.322 60.7131 121.291 60.7883 121.197 60.8485ZM119.482 60.999C119.089 61.315 118.161 61.932 118.066 61.932C117.862 61.932 118.271 61.4505 118.711 61.1645C119.152 60.8937 119.781 60.7432 119.482 60.999ZM123.116 64.2194C121.385 69.1101 121.228 70.3291 122.298 71.2019C123.006 71.7888 122.88 71.864 121.102 71.864H119.844L120.237 71.2169C120.835 70.2237 121.354 68.8393 122.219 65.965C123.194 62.7296 123.855 60.9689 123.934 61.4354C123.965 61.631 123.588 62.8801 123.116 64.2194ZM115.974 61.7966C115.691 62.0524 115.408 62.2179 115.361 62.1728C115.219 62.0374 115.958 61.3301 116.242 61.3301C116.415 61.3301 116.32 61.4806 115.974 61.7966ZM134.756 62.0373C134.52 62.233 134.001 62.5039 133.592 62.6092C133.183 62.7296 132.286 63.2412 131.61 63.7378C130.116 64.8213 129.707 64.9417 130.949 63.9184C132.868 62.3835 136.282 60.683 134.756 62.0373ZM126.325 62.0073C126.214 62.1427 126.089 62.2029 126.026 62.1577C125.979 62.1126 126.041 62.0073 126.167 61.932C126.498 61.7213 126.545 61.7514 126.325 62.0073ZM121.543 62.6242C121.37 62.7296 121.197 62.7898 121.149 62.7446C121.102 62.6995 121.197 62.564 121.354 62.4437C121.527 62.3383 121.7 62.2781 121.747 62.3233C121.794 62.3684 121.7 62.5039 121.543 62.6242ZM118.617 62.534C118.617 62.6092 118.381 62.7898 118.113 62.9102L117.594 63.1509L118.066 62.7747C118.601 62.3383 118.617 62.3233 118.617 62.534ZM110.657 63.0456C110.547 63.3165 109.902 63.7378 109.619 63.7378C109.509 63.7228 109.666 63.5272 109.965 63.2864C110.547 62.7898 110.783 62.7145 110.657 63.0456ZM122.219 63.2262C122.125 63.3466 121.936 63.4369 121.826 63.4369C121.511 63.4369 121.558 63.0155 121.889 62.9403C122.282 62.865 122.439 62.9854 122.219 63.2262ZM111.224 63.5572C111.224 63.7529 111.035 63.8883 110.878 63.798C110.72 63.7077 110.862 63.4369 111.082 63.4369C111.161 63.4369 111.224 63.4971 111.224 63.5572ZM112.482 63.7378C112.482 63.8131 112.167 64.8063 111.79 65.95C109.997 71.2621 109.887 71.7286 110.311 72.1349C110.5 72.3155 110.547 72.3004 109.462 72.5863C108.691 72.782 108.549 72.5713 109.084 72.0295C109.305 71.8038 109.493 71.5028 109.493 71.3674C109.493 71.232 109.619 70.9912 109.776 70.8407C109.918 70.7053 110.233 69.9378 110.469 69.1553C110.909 67.6053 111.979 64.0839 112.089 63.7679C112.167 63.5572 112.482 63.5272 112.482 63.7378ZM134.19 63.8733C134.19 64.0388 134.017 64.7009 133.812 65.348C133.608 65.9951 133.277 67.0635 133.089 67.7257C132.695 69.1252 132.475 69.5165 131.783 69.9077C130.918 70.4194 130.839 70.3441 130.949 69.1553C131.169 67.0786 131.767 65.7694 133.136 64.3699C133.985 63.5271 134.19 63.4218 134.19 63.8733ZM120.001 64.1742C120.898 64.2495 121.653 64.3398 121.684 64.3699C121.889 64.5655 120.033 69.8024 119.403 70.7655C119.12 71.2169 119.01 71.2621 118.349 71.2621C117.925 71.2621 116.855 71.3674 115.943 71.4878C115.03 71.6082 113.772 71.7135 113.127 71.7135H111.963L112.057 70.7655C112.105 70.2538 112.293 69.4262 112.466 68.9296C113.316 66.4165 114.071 64.5655 114.275 64.4602C114.904 64.114 117.579 63.9937 120.001 64.1742ZM110.689 65.0621C110.421 66.7475 109.179 70.0883 108.361 71.4126L107.842 72.2402L104.853 72.2252C101.203 72.2101 100.574 72.0747 100.653 71.247C100.684 70.9611 100.81 70.5096 100.936 70.2388C101.219 69.5766 102.776 67.6053 103.768 66.6572C104.963 65.5286 105.671 65.2577 108.109 65.0019C109.242 64.8966 110.248 64.731 110.343 64.6407C110.657 64.3398 110.783 64.5053 110.689 65.0621ZM126.859 65.5436C127.772 66.1305 128.464 66.9432 128.763 67.7859C129.014 68.4781 129.077 70.0131 128.873 70.299C128.716 70.5397 125.349 71.0213 124.689 70.9009C124.028 70.7805 123.65 70.2237 123.65 69.381C123.65 69.08 123.934 68.0116 124.28 66.9883C124.626 65.9801 124.909 65.032 124.909 64.8966C124.909 64.6708 124.972 64.6708 125.538 64.8665C125.884 64.9869 126.482 65.2878 126.859 65.5436ZM158.225 66.2359C158.918 66.6873 158.477 67.3194 157.675 67.0334C157.25 66.883 157.046 66.3111 157.329 66.1305C157.643 65.95 157.832 65.965 158.225 66.2359ZM160.459 66.266C160.821 66.4767 160.884 66.582 160.742 66.7174C160.333 67.1087 159.358 66.7927 159.358 66.2961C159.358 65.9048 159.814 65.9048 160.459 66.266ZM162.74 66.597C162.693 66.6723 162.583 66.7475 162.488 66.7475C162.41 66.7475 162.347 66.6723 162.347 66.597C162.347 66.5068 162.457 66.4466 162.598 66.4466C162.724 66.4466 162.787 66.5068 162.74 66.597ZM156.479 66.8228C156.589 67.1237 156.479 67.2291 156.165 67.1087C155.772 66.9733 155.693 66.597 156.07 66.597C156.243 66.597 156.416 66.7024 156.479 66.8228ZM155.174 67.1237C155.221 67.2592 155.158 67.3946 155.001 67.4548C154.733 67.5601 154.293 67.3495 154.198 67.0786C154.104 66.8077 155.064 66.8529 155.174 67.1237ZM153.349 67.4699C153.396 67.6053 153.302 67.6655 153.05 67.6203C152.861 67.6053 152.673 67.4849 152.625 67.3796C152.578 67.2441 152.673 67.1839 152.924 67.2291C153.113 67.2441 153.302 67.3645 153.349 67.4699ZM197.913 67.6504C201.814 68.0266 204.771 68.8092 206.564 69.9679L207.571 70.5999L207.587 71.4728C207.618 72.18 207.713 72.481 208.074 72.9776C208.531 73.6096 210.261 74.8286 210.45 74.663C210.638 74.4674 210.67 72.6164 210.481 72.165C210.214 71.5329 209.207 70.6902 207.681 69.8325C206.973 69.4111 206.391 69.0349 206.391 68.9898C206.391 68.9446 207.256 69.0951 208.326 69.3359C216.191 71.1116 221.241 74.5276 223.317 79.4635C223.616 80.1708 223.852 80.7878 223.852 80.8329C223.852 80.8931 221.398 80.9082 218.409 80.848C212.337 80.7577 212.573 80.8028 212.416 79.7043C212.369 79.3582 212.274 79.0421 212.196 78.997C211.928 78.8465 211.441 79.5387 211.346 80.2009C211.236 80.848 211.205 80.8931 210.733 80.8931C207.665 80.8781 193.902 80.5771 193.823 80.5169C193.76 80.4868 193.902 79.4785 194.169 78.3048C194.578 76.3936 194.641 75.8368 194.657 73.2936C194.672 70.6752 194.641 70.3592 194.326 69.5315C194.122 69.0499 193.744 68.3878 193.493 68.0718L193.005 67.5H194.641C195.553 67.5 197.016 67.5752 197.913 67.6504ZM150.392 67.9514C150.392 68.0266 150.203 68.1019 149.983 68.1019C149.763 68.1019 149.621 68.0417 149.684 67.9514C149.731 67.8611 149.92 67.8009 150.093 67.8009C150.25 67.8009 150.392 67.8611 150.392 67.9514ZM189.717 68.6286C189.717 68.6737 189.481 69.1252 189.198 69.6368L188.663 70.5849L188.506 70.1033C188.38 69.7271 188.396 69.5616 188.553 69.4412C188.821 69.2305 188.836 68.749 188.585 68.6587C188.475 68.6135 188.679 68.5684 189.057 68.5684C189.418 68.5533 189.717 68.5834 189.717 68.6286ZM184.794 70.1936L184.825 71.548L184.165 71.6383C181.789 71.9393 176.819 72.3456 173.09 72.5412C170.684 72.6616 167.475 72.8572 165.965 72.9926C164.455 73.113 158.65 73.4893 153.066 73.8203C147.482 74.1514 140.56 74.5878 137.682 74.7684C134.787 74.949 132.412 75.0693 132.396 75.0242C132.255 74.7985 132.821 72.9626 133.151 72.5562C133.529 72.0747 133.576 72.0596 135.086 71.9694C135.936 71.9092 138.012 71.7587 139.695 71.6383C143.313 71.3825 150.14 70.9912 161.718 70.3592C173.72 69.7121 179.713 69.3208 181.066 69.08C181.711 68.9747 182.812 68.8844 183.504 68.8694L184.762 68.8543L184.794 70.1936ZM228.052 69.08C228.083 69.1703 227.942 69.3208 227.769 69.4412C227.47 69.6067 227.407 69.6067 227.297 69.4111C227.187 69.2456 226.998 69.2305 226.337 69.3208C225.881 69.3961 224.229 69.5165 222.672 69.6067C221.115 69.682 218.913 69.8626 217.764 69.998C216.018 70.2237 215.546 70.2237 214.807 70.0732C214.335 69.9679 213.973 69.8325 214.005 69.7723C214.052 69.7121 214.461 69.6519 214.917 69.6218C218.677 69.4713 226.903 69.0048 226.966 68.9296C227.124 68.7941 227.989 68.9145 228.052 69.08ZM222.169 70.4645C221.791 70.4946 221.492 70.5698 221.492 70.63C221.492 70.6902 220.847 70.7504 220.077 70.7504C219.29 70.7655 218.661 70.7203 218.661 70.6451C218.661 70.4495 219.148 70.3893 221.02 70.4043C222.011 70.4043 222.53 70.4344 222.169 70.4645ZM187.83 70.6601C187.83 70.7354 187.625 70.8106 187.358 70.8106C187.106 70.8106 186.886 70.7354 186.886 70.6601C186.886 70.5698 187.106 70.5097 187.358 70.5097C187.625 70.5097 187.83 70.5698 187.83 70.6601ZM221.602 71.3524C221.555 71.3975 221.414 71.4126 221.303 71.3674C221.178 71.3223 221.225 71.2771 221.398 71.2771C221.571 71.2621 221.665 71.3072 221.602 71.3524ZM220.014 71.6082C219.447 71.7737 219.416 71.8038 219.668 72.0145C219.935 72.2101 219.935 72.2402 219.652 72.4208C219.416 72.6014 219.4 72.6465 219.605 72.7669C219.998 73.0077 220.423 72.9325 220.501 72.6164C220.596 72.2703 221.414 72.0145 222.436 72.0145C223.081 72.0295 223.112 72.0446 222.845 72.2402C222.593 72.4208 222.578 72.4961 222.751 72.6917C222.924 72.8873 222.814 72.9174 221.838 72.9174C221.193 72.9174 220.674 72.9927 220.611 73.0829C220.454 73.3388 220.847 73.5043 221.477 73.4291C222.043 73.3689 222.043 73.3689 221.618 73.5494C221.115 73.7601 221.036 74.1213 221.492 74.1213C221.697 74.1213 221.807 74.2266 221.807 74.4072C221.807 74.5727 222.027 74.8436 222.279 75.0242C222.546 75.2048 222.751 75.4757 222.751 75.6412C222.751 75.8368 222.861 75.9271 223.128 75.9271C223.348 75.9271 223.569 75.8519 223.616 75.7766C223.805 75.4907 224.009 75.6261 223.93 75.9723C223.868 76.198 223.915 76.3936 224.072 76.514C224.339 76.7247 224.387 77.1159 224.229 77.7028L224.119 78.0489L223.757 77.7179C223.537 77.5222 223.144 77.0256 222.877 76.6193C222.153 75.5208 221.351 74.5727 221.115 74.5727C221.005 74.5727 220.69 74.2718 220.407 73.8956C220.124 73.5043 219.605 73.0378 219.274 72.8271C218.787 72.5412 218.661 72.3757 218.661 72.0295C218.661 71.7286 218.566 71.563 218.393 71.5179C218.236 71.4728 218.677 71.4427 219.369 71.4427C220.58 71.4427 220.596 71.4427 220.014 71.6082ZM189.623 72.1048C189.544 72.3757 189.623 72.5863 189.89 72.8572C190.189 73.1582 190.205 73.2184 189.969 73.2184C189.827 73.2184 189.67 73.113 189.623 72.9926C189.497 72.6917 189.135 72.7067 188.946 73.0227C188.711 73.4441 188.6 73.1582 188.789 72.6014C189.025 71.9694 189.214 71.7135 189.497 71.7135C189.654 71.7135 189.702 71.8189 189.623 72.1048ZM132.035 72.782C131.767 73.1732 131.563 73.6999 131.516 74.1664C131.437 74.8587 131.39 74.9339 130.965 75.0543C130.713 75.1295 128.826 75.28 126.781 75.4004C124.736 75.5057 122.864 75.6562 122.612 75.7164C121.873 75.882 122.266 75.6412 123.194 75.3553C124.091 75.0844 124.579 74.5426 124.374 74.046C124.295 73.8203 124.138 73.7902 123.336 73.8655C122.439 73.9407 122.376 73.9257 122.062 73.5043C121.668 72.9776 121.134 72.9325 120.347 73.3839C119.592 73.8354 119.403 74.1062 119.576 74.5426C119.859 75.2349 119.749 75.581 119.23 75.7616C118.947 75.8519 118.522 75.9271 118.271 75.9271C117.815 75.9271 117.799 75.9121 117.909 75.28C117.972 74.9339 118.239 74.2417 118.522 73.7451L119.042 72.8422L120.835 72.7218C123.886 72.5261 132.381 72.0747 132.428 72.1048C132.459 72.1198 132.286 72.4208 132.035 72.782ZM187.83 72.9776C187.83 73.098 187.767 73.2485 187.672 73.2936C187.594 73.3388 187.515 73.2485 187.515 73.0829C187.515 72.9024 187.594 72.7669 187.672 72.7669C187.767 72.7669 187.83 72.8572 187.83 72.9776ZM117.594 73.6999C117.39 74.1363 117.138 74.8135 117.044 75.2048C116.871 75.8669 116.824 75.897 116.21 75.9873C114.904 76.1528 109.179 76.529 109.179 76.4538C109.179 76.4388 109.635 76.198 110.201 75.9422C111.853 75.1596 111.979 74.5276 110.516 74.347C110.012 74.2868 109.336 74.1514 108.99 74.031C108.109 73.73 107.558 73.7601 107.055 74.1514C106.678 74.4373 106.63 74.5426 106.709 75.0844C106.756 75.4305 106.851 75.8368 106.898 76.0174C107.055 76.4839 106.599 76.83 105.86 76.83C105.089 76.83 105.073 76.7247 105.86 74.8737L106.442 73.4441L109.273 73.3388C110.815 73.2786 112.938 73.1582 113.976 73.098C115.015 73.0227 116.336 72.9475 116.918 72.9325L117.972 72.9174L117.594 73.6999ZM226.841 73.2184C226.841 73.2936 226.778 73.3689 226.683 73.3689C226.605 73.3689 226.526 73.2936 226.526 73.2184C226.526 73.1281 226.605 73.0679 226.683 73.0679C226.778 73.0679 226.841 73.1281 226.841 73.2184ZM228.634 73.7451C228.775 73.9407 229.027 74.2417 229.216 74.4072C229.405 74.5727 229.499 74.7684 229.452 74.8436C229.232 75.1897 229.31 76.6946 229.562 76.9504C229.798 77.1912 229.798 77.3116 229.578 78.1844C229.452 78.7261 229.326 79.6742 229.31 80.2912L229.279 81.4198L229.876 81.5552C230.191 81.6305 230.458 81.7509 230.458 81.8261C230.458 81.8863 228.178 81.9465 225.393 81.9465C222.059 81.9465 220.391 81.8863 220.548 81.796C220.674 81.7208 221.681 81.6455 222.782 81.6455C225.189 81.6455 225.157 81.6756 224.701 79.5688C224.638 79.298 224.701 79.2378 225.032 79.2378C226.746 79.2378 227.879 77.5222 228.067 74.6028C228.099 73.9257 228.193 73.3689 228.256 73.3689C228.319 73.3689 228.492 73.5344 228.634 73.7451ZM184.054 74.0009C184.054 74.0611 183.63 74.1213 183.095 74.1213C182.513 74.1213 182.183 74.0611 182.245 73.9708C182.293 73.8805 182.513 73.8203 182.717 73.8203C182.922 73.8203 183.126 73.7601 183.189 73.6698C183.299 73.5043 184.054 73.7902 184.054 74.0009ZM105.23 74.332C104.979 74.7082 104.648 75.4456 104.507 75.9873L104.255 76.9655L103.469 77.131C102.084 77.4169 100.92 78.1392 99.5361 79.5538C98.4979 80.6222 98.199 80.848 97.9788 80.7276C97.8372 80.6523 97.0822 80.4417 96.3271 80.2611C95.1159 79.9601 94.5339 79.915 91.6395 79.93C87.9429 79.93 86.4328 80.1106 83.9003 80.9232C81.6823 81.6305 78.4419 83.6319 76.7902 85.3174C76.0666 86.0848 75.8307 86.13 75.6576 85.5431C75.5947 85.3475 75.1386 83.9931 74.6509 82.5484C73.361 78.7261 72.6689 75.6261 73.1251 75.6261C73.4082 75.6261 81.4149 75.1295 90.0665 74.5727C103.469 73.715 103.484 73.715 104.648 73.6849L105.702 73.6698L105.23 74.332ZM121.291 74.2718C121.291 74.4674 121.181 74.5727 120.976 74.5727C120.772 74.5727 120.662 74.4674 120.662 74.2718C120.662 74.0761 120.772 73.9708 120.976 73.9708C121.181 73.9708 121.291 74.0761 121.291 74.2718ZM158.414 74.4373C158.414 74.7383 156.983 76.4839 156.605 76.6494C155.724 77.0407 154.293 77.1611 144.336 77.6577C141.913 77.7781 138.799 77.9135 137.414 77.9587C136.03 78.0038 134.237 78.079 133.45 78.1242L131.987 78.1994V77.3266C131.987 75.7315 131.862 75.8218 134.316 75.7164C139.082 75.4907 143.738 75.1295 144.336 74.9339C144.792 74.7834 145.909 74.7232 148.426 74.7082C150.329 74.7082 152.846 74.6028 154.01 74.4975C156.81 74.2417 158.414 74.2266 158.414 74.4373ZM108.471 74.8135C108.785 75.1145 108.707 75.3854 108.298 75.4456C107.826 75.5057 107.558 75.2499 107.684 74.8888C107.81 74.5125 108.109 74.4825 108.471 74.8135ZM181.774 74.8587C181.679 74.9339 180.767 75.0242 179.729 75.0543C177.998 75.1145 177.904 75.0994 178.627 74.9339C179.556 74.7232 181.994 74.663 181.774 74.8587ZM183.189 75.6111C183.409 75.7014 183.174 75.7616 182.403 75.8368C181.805 75.897 180.924 75.9723 180.484 76.0174C179.949 76.0776 179.65 76.0625 179.65 75.9572C179.65 75.8669 180.059 75.7616 180.562 75.7014C181.05 75.6412 181.538 75.581 181.616 75.5509C181.899 75.4606 182.875 75.4907 183.189 75.6111ZM178.785 75.9271C178.329 76.1077 176.457 76.1077 176.583 75.9271C176.63 75.8368 177.228 75.7766 177.888 75.7917C178.706 75.7917 179.005 75.8368 178.785 75.9271ZM131.044 77.1159V78.2897L127.473 78.3951C125.491 78.4402 122.455 78.5305 120.693 78.5756L117.5 78.681L117.547 77.7179L117.594 76.7548L118.459 76.6494C118.931 76.5892 121.81 76.4087 124.83 76.2582C127.866 76.0926 130.493 75.9572 130.698 75.9422C131.028 75.9271 131.044 75.9723 131.044 77.1159ZM175.875 75.9873C175.875 76.1077 175.072 76.1829 174.994 76.0625C174.947 75.9873 175.135 75.9271 175.387 75.9271C175.654 75.9271 175.875 75.9572 175.875 75.9873ZM183.079 76.6043C183.032 76.6494 182.717 76.7247 182.387 76.7849C181.962 76.8451 181.821 76.815 181.931 76.7096C182.025 76.6193 182.308 76.529 182.56 76.4989C183.063 76.4388 183.221 76.4839 183.079 76.6043ZM116.808 77.763C116.745 78.2897 116.682 78.7261 116.651 78.7562C116.635 78.7713 115.03 78.8616 113.096 78.9519C111.161 79.0271 108.581 79.1926 107.37 79.298C106.158 79.4033 105.12 79.4635 105.057 79.4334C104.853 79.3281 104.916 78.1392 105.136 77.7329L105.341 77.3567L109.651 77.1159C112.026 76.9805 114.637 76.8601 115.439 76.8601L116.918 76.83L116.808 77.763ZM72.1184 77.6727C72.2914 78.1091 72.2127 78.3349 71.8981 78.3349C71.5521 78.3349 71.5363 78.2897 71.6779 77.763C71.788 77.3718 71.9768 77.3266 72.1184 77.6727ZM181.459 77.5674C181.365 77.7329 180.751 77.7179 180.751 77.5523C180.751 77.4921 180.94 77.432 181.16 77.432C181.38 77.432 181.522 77.4921 181.459 77.5674ZM104.145 78.7713V79.6441L103.437 79.915C102.493 80.2611 101.943 80.7125 101.219 81.7659C100.905 82.2324 100.621 82.6387 100.59 82.6688C100.527 82.7591 98.9541 82.0669 98.9541 81.9465C98.9541 81.8863 99.2372 81.4198 99.599 80.9082C100.559 79.5237 102.006 78.4252 103.359 78.0188C104.114 77.8082 104.145 77.8383 104.145 78.7713ZM186.115 79.1926C185.958 79.4485 185.958 79.4485 185.942 79.1625C185.942 78.997 186.005 78.696 186.068 78.4853L186.178 78.1091L186.225 78.5154C186.257 78.7412 186.209 79.0421 186.115 79.1926ZM178.911 78.4853C179.776 78.4853 180.452 78.5154 180.405 78.5606C180.374 78.6057 179.556 78.6659 178.58 78.696C177.212 78.7412 176.771 78.7111 176.551 78.5305C176.299 78.3349 176.315 78.3198 176.803 78.3951C177.086 78.4402 178.045 78.4853 178.911 78.4853ZM175.057 78.5907C174.899 78.6208 174.648 78.6208 174.506 78.5907C174.349 78.5455 174.475 78.5154 174.774 78.5154C175.072 78.5154 175.198 78.5455 175.057 78.5907ZM131.012 79.4184C131.107 79.5387 131.169 80.7426 131.185 82.3227C131.201 85.2722 131.437 89.8921 131.673 91.8033C131.767 92.4804 131.767 93.0523 131.689 93.1275C131.61 93.2028 128.826 93.2329 125.444 93.2028C120.206 93.1576 119.246 93.1125 118.758 92.9018L118.176 92.661L118.082 90.9455C118.019 90.0125 117.909 87.4091 117.83 85.1819C117.736 82.9397 117.626 80.8329 117.579 80.5018L117.484 79.8698L119.042 79.7795C119.891 79.7344 122.565 79.614 124.988 79.5237C127.394 79.4485 129.408 79.3431 129.455 79.298C129.612 79.1475 130.855 79.2528 131.012 79.4184ZM72.8891 80.547C73.3138 81.9616 73.3138 82.0217 72.7161 82.0669C72.2599 82.112 72.1813 82.0518 71.9925 81.6154C71.8667 81.3446 71.7251 80.8028 71.6622 80.3965L71.5521 79.6892H72.0869C72.6217 79.6892 72.6375 79.7193 72.8891 80.547ZM116.792 82.8043C116.934 86.9125 117.201 92.029 117.295 92.4955C117.39 92.8717 117.358 92.8868 116.383 92.9921C115.848 93.0372 113.221 93.0372 110.579 92.9921L105.75 92.8868L105.655 92.1945C105.545 91.3217 105.293 86.9276 105.152 83.2106L105.057 80.3363L107.307 80.2159C110.657 80.0504 114.291 79.8849 115.565 79.8698L116.698 79.8397L116.792 82.8043ZM93.9204 80.7426C94.7384 80.7878 95.1631 80.863 94.8642 80.8781C93.7946 80.9232 88.9182 80.9683 88.9654 80.9232C88.9969 80.8931 89.3586 80.8179 89.7834 80.7426C90.7272 80.5921 91.9856 80.5921 93.9204 80.7426ZM103.988 81.0737C103.988 81.2693 104.098 83.045 104.208 85.0314C104.334 87.0178 104.491 89.6062 104.554 90.78L104.664 92.9319H103.941C103.123 92.9319 102.462 93.3382 102.619 93.7295C102.698 93.9251 102.934 93.9853 103.657 93.9853C104.176 93.9853 104.633 94.0455 104.68 94.1207C104.837 94.3465 103.972 94.4668 102.808 94.3615L101.691 94.2562L101.502 92.5557C101.219 89.9523 100.574 88.2217 99.4889 87.063C98.7024 86.2353 98.1046 85.9344 96.8305 85.6936C95.3833 85.4227 91.1362 85.4227 89.9879 85.6785C88.8395 85.9494 87.5497 86.4009 87.0778 86.7018C86.8261 86.8674 86.5429 86.9125 86.2126 86.8373C85.2373 86.6266 83.6958 88.0261 83.098 89.6363C82.7205 90.7198 82.4374 92.2096 82.4374 93.263V93.9853H81.0531C80.2823 93.9853 78.379 93.9402 76.8217 93.88L73.9902 93.7897L74.2577 92.947C75.579 88.8237 78.5992 85.3475 82.516 83.4965C86.9991 81.3596 93.1182 81.1339 98.1833 82.9096C98.7338 83.1052 99.5518 83.4062 99.9765 83.5717C100.511 83.7824 100.857 83.8276 101.03 83.7373C101.172 83.662 101.675 83.0601 102.163 82.413C103.296 80.863 103.988 80.3664 103.988 81.0737ZM96.5159 81.1941C96.6417 81.3897 96.2799 81.3897 95.9653 81.1941C95.7766 81.0737 95.7923 81.0436 96.0754 81.0436C96.2642 81.0436 96.4687 81.1038 96.5159 81.1941ZM167.899 83.1353C168.623 83.3009 169.205 83.7824 169.315 84.2941C169.378 84.6552 169.189 84.8057 169.079 84.4746C168.985 84.2038 168.497 84.4446 168.308 84.8659C168.041 85.3926 168.23 85.7086 168.796 85.7086C169.425 85.7086 169.394 85.9795 168.717 86.6115C168.419 86.8975 168.167 87.1984 168.167 87.3038C168.167 87.3941 168.387 87.9208 168.639 88.4625C168.906 89.0193 169.111 89.5008 169.111 89.546C169.111 89.5911 168.953 89.5911 168.749 89.546C168.419 89.4557 168.403 89.5008 168.356 90.5994C168.324 91.5023 168.356 91.7431 168.56 91.8183C168.875 91.9387 168.859 92.1042 168.466 92.6309C168.277 92.8717 168.167 93.1727 168.214 93.2931C168.387 93.6994 168.183 93.5639 167.931 93.0824C167.664 92.6008 167.616 91.096 167.837 90.178C168.01 89.5008 167.837 89.4557 167.223 90.0426C166.232 91.0057 166.578 93.9251 167.774 94.6775C168.088 94.8732 168.135 94.9785 168.01 95.2042C167.915 95.3547 167.884 95.6557 167.947 95.8814C168.041 96.2426 168.025 96.2727 167.679 96.1673C166.028 95.6858 165.147 92.4804 165.949 89.9222C166.468 88.312 166.153 87.4843 165.493 88.7183C164.25 91.0508 164.549 94.8431 166.106 96.4382C167.034 97.4164 167.962 97.5518 168.497 96.7994C168.702 96.5435 169.268 95.8965 169.771 95.3698C170.684 94.4217 171.03 93.6542 170.369 93.9853C169.929 94.211 169.976 94.0304 170.526 93.4436C171.03 92.8868 171.549 92.029 171.36 92.029C171.297 92.029 171.093 92.1795 170.888 92.3601C170.322 92.8717 170.259 92.5256 170.825 91.9688C171.281 91.5173 171.313 91.412 171.187 90.9605C171.046 90.4339 170.998 90.4188 170.448 90.6144C170.165 90.7198 170.165 90.6897 170.511 90.3285C170.888 89.9222 170.841 89.6212 170.401 89.6212C170.196 89.6212 170.117 89.5008 170.133 89.1999C170.133 88.914 170.023 88.7484 169.787 88.6431C169.583 88.5678 169.425 88.4174 169.425 88.3271C169.425 88.1465 170.243 87.078 170.385 87.063C170.432 87.063 170.668 87.5295 170.92 88.1164C171.234 88.8688 171.329 89.3052 171.266 89.6965C171.187 90.1329 171.219 90.2232 171.47 90.2232C171.69 90.2232 171.785 90.4188 171.926 91.1712C172.162 92.4955 172.147 92.6309 171.785 92.6309C171.502 92.6309 171.47 92.7363 171.47 93.9251C171.47 95.2193 171.47 95.2193 171.848 95.1591C172.162 95.0989 172.272 95.1741 172.43 95.5353C172.619 95.9717 173.594 96.5285 174.192 96.5435C174.506 96.5435 174.475 96.7542 173.893 98.5149C173.468 99.779 172.792 100.893 172.225 101.269C172.037 101.404 171.517 101.75 171.077 102.036C169.567 103.044 168.67 103.391 167.459 103.391C166.216 103.391 165.461 103.075 163.873 101.871C162.724 101.013 162.378 100.531 162.63 100.14C162.803 99.8994 162.756 99.7338 162.425 99.1921C161.812 98.1989 161.12 96.2426 160.852 94.7829C160.601 93.3984 160.553 90.3285 160.774 89.0945C160.837 88.6732 160.868 88.312 160.852 88.297C160.821 88.2669 160.648 88.2819 160.475 88.3421C160.113 88.4475 159.83 89.1698 159.657 90.4489C159.531 91.3518 159.531 91.3518 159.578 90.2232C159.61 89.546 159.783 88.7033 159.987 88.1164C160.475 86.7921 161.544 84.7606 161.843 84.595C161.985 84.5198 162.378 84.2038 162.724 83.8878C163.306 83.3912 163.495 83.3159 164.628 83.1805C166.311 82.9848 167.176 82.9848 167.899 83.1353ZM74.006 83.8878C74.3992 85.0465 74.3678 85.1067 73.4869 85.1067C72.7318 85.1067 72.7161 85.0916 72.4644 84.5047C72.3228 84.1737 72.2127 83.7222 72.2127 83.5266C72.2127 83.1805 72.2757 83.1504 72.9835 83.1504H73.7543L74.006 83.8878ZM217.56 83.8276C217.56 83.8727 217.009 84.1737 216.333 84.4897C215.641 84.8208 214.87 85.2722 214.602 85.4829C214.193 85.814 214.099 85.8441 214.099 85.6334C214.099 85.1669 215.043 84.5198 216.27 84.1436C217.686 83.7072 217.56 83.7373 217.56 83.8276ZM206.517 84.7907C206.564 84.9412 206.486 84.9562 206.218 84.881C205.794 84.7455 205.589 84.5047 205.715 84.3091C205.809 84.1586 206.423 84.5198 206.517 84.7907ZM179.414 84.4746C179.194 84.6853 176.992 84.9412 175.403 84.9412C173.893 84.9562 171.942 84.7004 171.706 84.4897C171.675 84.4596 173.421 84.4295 175.576 84.4145C177.731 84.4145 179.461 84.4446 179.414 84.4746ZM181.947 85.0314C181.774 85.1518 181.427 85.2572 181.16 85.2572C180.594 85.2572 180.704 85.1067 181.412 84.9562C182.183 84.7756 182.277 84.7907 181.947 85.0314ZM180.169 85.3625C180.059 85.3926 179.87 85.3926 179.776 85.3625C179.666 85.3174 179.744 85.2873 179.965 85.2873C180.185 85.2873 180.263 85.3174 180.169 85.3625ZM170.055 85.7086C170.165 85.9193 170.18 86.0999 170.07 86.2805C169.929 86.4911 169.913 86.4761 169.897 86.1149C169.897 85.8892 169.834 85.7086 169.74 85.7086C169.661 85.7086 169.583 85.6334 169.583 85.5581C169.583 85.3023 169.882 85.3926 170.055 85.7086ZM209.868 85.7086C210.355 86.0848 210.056 86.0999 209.537 85.7086C209.317 85.5431 209.223 85.4077 209.317 85.4077C209.427 85.4077 209.663 85.5431 209.868 85.7086ZM228.461 85.814C228.351 85.8441 228.13 85.8441 227.989 85.814C227.832 85.7688 227.926 85.7387 228.178 85.7387C228.445 85.7387 228.555 85.7688 228.461 85.814ZM76.9318 86.5363C76.8217 86.6717 76.6958 86.7319 76.6487 86.6868C76.6015 86.6567 76.6644 86.5212 76.7745 86.3858C76.8846 86.2504 77.0104 86.1902 77.0576 86.2353C77.1048 86.2654 77.0419 86.4009 76.9318 86.5363ZM75.0442 86.6115C75.2487 86.7319 75.2172 86.8523 74.8711 87.4693C74.6509 87.8606 74.352 88.2368 74.2105 88.3271C73.8329 88.5528 73.3768 88.0411 73.2352 87.2586C73.1565 86.7319 73.1723 86.6266 73.424 86.5664C73.9431 86.446 74.8082 86.4611 75.0442 86.6115ZM94.5182 86.6717C93.9204 87.0931 94.4238 87.7402 95.4148 87.8455C95.8552 87.8907 95.8867 87.8606 95.9339 87.3188C95.9811 86.8072 96.0282 86.762 96.453 86.762C97.1136 86.762 97.0193 87.1683 96.1069 88.2669C95.8552 88.5528 95.6035 89.0193 95.5563 89.3052C95.4462 89.7868 95.462 89.8018 95.7766 89.6363C95.9653 89.546 96.4058 89.0644 96.7518 88.5678C97.5383 87.4543 97.8687 87.2586 98.4035 87.6047C98.7653 87.8305 98.781 87.8756 98.5765 88.2368C98.4507 88.4625 98.026 89.0042 97.6327 89.4557C96.5945 90.5994 96.5631 90.6897 96.8305 91.4421C96.9721 91.8033 97.035 92.1795 97.0035 92.2848C96.9563 92.3902 96.9878 92.5105 97.0664 92.5557C97.1608 92.6159 97.2237 92.7965 97.2237 92.9921C97.2237 93.1727 97.3024 93.3984 97.4125 93.5037C97.5383 93.6241 97.5383 93.7295 97.3653 93.9251C97.2395 94.0605 96.8619 94.6926 96.5002 95.3246L95.8709 96.4683L94.2665 96.5134C92.6934 96.5586 92.662 96.5586 92.662 96.9198C92.662 97.2057 92.7721 97.311 93.2597 97.4314C93.5743 97.5217 93.9991 97.5969 94.1878 97.5969C94.8957 97.5969 96.2485 96.9649 97.5855 96.0018C98.9226 95.0387 98.9698 94.9785 98.8911 94.527C98.8282 94.1809 98.9069 93.8348 99.1743 93.3382C99.5046 92.7062 99.5204 92.6159 99.3001 92.4955C99.0799 92.3751 99.0799 92.33 99.3159 91.9688C99.6147 91.5474 100.15 91.2164 100.275 91.397C100.448 91.6678 100.684 93.3984 100.59 93.7596C100.543 93.9702 100.354 94.2411 100.181 94.3465C99.9136 94.527 99.8979 94.6023 100.055 94.8882C100.212 95.1741 100.165 95.3848 99.6619 96.3178C98.844 97.8829 98.0574 98.5751 96.7361 98.9513C96.0282 99.162 95.6035 99.3727 95.4777 99.5833C95.3204 99.8693 95.1945 99.8843 93.7474 99.8241L92.1901 99.7639V100.185C92.1901 101.284 90.4283 100.125 89.1384 98.1688C87.1092 95.0838 86.5115 91.412 87.707 89.1698C88.7924 87.1382 90.0822 86.4911 93.0552 86.4761C94.5339 86.4761 94.7384 86.5062 94.5182 86.6717ZM226.526 87.6649C226.652 87.7402 226.699 87.8455 226.636 87.9057C226.573 87.9659 226.4 87.9057 226.259 87.7703C225.975 87.4994 226.133 87.4242 226.526 87.6649ZM152.909 89.0193C152.641 89.9673 152.515 89.6062 152.767 88.613C152.893 88.0863 153.003 87.8756 153.034 88.0712C153.066 88.2518 153.003 88.6732 152.909 89.0193ZM177.212 87.9659C176.756 88.1465 175.513 88.1465 175.639 87.9659C175.686 87.8756 176.142 87.8154 176.63 87.8305C177.275 87.8305 177.432 87.8756 177.212 87.9659ZM146.617 88.4174C146.617 88.5829 146.742 88.8387 146.9 88.9741C147.104 89.1848 147.136 89.3203 147.01 89.5761C146.931 89.7717 146.805 89.9222 146.742 89.9222C146.664 89.9222 146.617 89.7717 146.617 89.5761C146.601 89.3955 146.506 88.9892 146.396 88.6732C146.208 88.2067 146.208 88.1164 146.396 88.1164C146.522 88.1164 146.617 88.2518 146.617 88.4174ZM178.077 88.5678C178.36 88.7484 177.306 88.7484 176.583 88.5678C176.189 88.4775 176.252 88.4475 176.976 88.4324C177.448 88.4324 177.951 88.4926 178.077 88.5678ZM179.76 88.5076C179.713 88.5528 179.571 88.5678 179.461 88.5227C179.335 88.4775 179.383 88.4324 179.556 88.4324C179.729 88.4174 179.823 88.4625 179.76 88.5076ZM98.9698 89.2149C98.7024 89.4707 98.5923 89.23 98.8282 88.8839C99.0013 88.613 99.0484 88.5979 99.0799 88.8086C99.1114 88.9441 99.0642 89.1246 98.9698 89.2149ZM181.176 88.7484C180.735 88.8538 180.515 88.8538 180.389 88.7334C180.263 88.613 180.421 88.5678 181.003 88.5829L181.774 88.5979L181.176 88.7484ZM73.5341 89.3353C73.6285 89.4256 73.5655 89.7266 73.3453 90.1479C73.1565 90.5241 72.9992 90.9455 72.9992 91.0659C72.9992 91.5775 72.5431 90.9455 72.4487 90.2984C72.2914 89.3353 72.4487 88.9741 72.9678 89.0945C73.2037 89.1397 73.4554 89.2601 73.5341 89.3353ZM183.063 89.5911C188.003 89.6513 192.108 89.7416 192.171 89.8018C192.234 89.8771 191.337 89.9373 190.173 89.9373C189.009 89.9523 185.549 89.9974 182.481 90.0576C176.944 90.1479 176.897 90.1479 176.85 90.4639C176.803 90.7499 176.724 90.78 176.111 90.7047C175.733 90.6746 175.167 90.6897 174.837 90.7499L174.254 90.8402L174.601 91.1712C174.994 91.5474 175.592 91.5775 187.798 91.6227L194.452 91.6528L194.358 92.029C194.31 92.2397 194.248 92.5256 194.232 92.661C194.2 92.9921 193.964 93.0222 193.964 92.6911C193.964 92.345 193.587 92.5256 193.524 92.9018C193.493 93.1426 193.587 93.278 193.87 93.3834C194.075 93.4586 194.342 93.6542 194.436 93.8348C194.531 94.0003 194.672 94.1057 194.767 94.0605C194.845 94.0003 194.908 94.0304 194.908 94.1207C194.908 94.3164 194.389 94.5872 193.98 94.5872C193.807 94.5872 193.571 94.7227 193.445 94.8882C193.225 95.2042 193.162 95.2042 187.893 95.0387C184.951 94.9484 180.578 94.828 178.171 94.7678L173.783 94.6625L173.421 92.2848C173.232 90.9906 173.012 89.7717 172.965 89.6062C172.855 89.3052 172.886 89.2902 173.452 89.3955C173.798 89.4407 178.108 89.546 183.063 89.5911ZM226.054 90.0727C225.739 90.2683 224.796 90.2683 224.796 90.0727C224.796 89.9824 225.126 89.9222 225.551 89.9222C226.085 89.9222 226.227 89.9673 226.054 90.0727ZM152.515 90.9004C152.468 91.2916 152.374 91.5625 152.327 91.5173C152.279 91.4722 152.295 91.1261 152.358 90.7499C152.405 90.3586 152.5 90.0877 152.547 90.1329C152.594 90.178 152.578 90.5241 152.515 90.9004ZM219.683 90.2232C219.636 90.2984 219.526 90.3737 219.432 90.3737C219.353 90.3737 219.29 90.2984 219.29 90.2232C219.29 90.1329 219.4 90.0727 219.542 90.0727C219.668 90.0727 219.73 90.1329 219.683 90.2232ZM222.751 90.2232C222.436 90.4188 221.964 90.4188 221.964 90.2232C221.964 90.1329 222.2 90.0727 222.483 90.0727C222.861 90.0727 222.924 90.1178 222.751 90.2232ZM97.8215 90.5241C97.6013 90.8552 97.444 90.8101 97.5855 90.4489C97.6485 90.3285 97.7586 90.2232 97.853 90.2232C97.9473 90.2232 97.9473 90.3285 97.8215 90.5241ZM99.9136 90.494C99.7406 90.795 99.1114 91.3669 99.1114 91.2164C99.1114 91.1562 99.2687 90.9154 99.4574 90.6746C99.835 90.1931 100.165 90.0576 99.9136 90.494ZM234.281 90.5542C234.218 90.6596 234.061 91.2615 233.919 91.8785L233.683 93.0071L232.582 93.0523L231.465 93.0974L231.528 92.044C231.591 91.0057 231.591 90.9906 231.166 90.8853C230.946 90.8251 230.002 90.8251 229.074 90.8552C226.872 90.9455 227.564 90.7047 229.971 90.5392C232.96 90.3436 234.422 90.3436 234.281 90.5542ZM190.944 90.9305C190.787 90.9605 190.504 90.9605 190.315 90.9305C190.111 90.9004 190.236 90.8703 190.582 90.8703C190.928 90.8552 191.086 90.8853 190.944 90.9305ZM194.012 90.9305C193.902 90.9605 193.681 90.9605 193.54 90.9305C193.382 90.8853 193.477 90.8552 193.728 90.8552C193.996 90.8552 194.106 90.8853 194.012 90.9305ZM225.582 90.9004C225.582 90.9455 225.441 91.111 225.252 91.2916C224.953 91.5775 224.906 91.5775 224.654 91.3669C224.308 91.0659 224.245 91.0659 223.946 91.3669C223.616 91.6678 223.632 92.4654 223.962 92.8115C224.292 93.1576 224.78 93.1576 224.921 92.8115C225 92.6159 225.047 92.646 225.11 93.0071C225.189 93.3683 225.268 93.4586 225.582 93.4285C225.802 93.4285 226.919 93.3382 228.083 93.2479C229.515 93.1275 230.254 93.1275 230.348 93.2178C230.443 93.3081 230.474 93.4285 230.411 93.4736C230.364 93.5338 228.508 93.6091 226.321 93.6542L222.326 93.7295L222.641 92.7814L222.971 91.8334L222.593 91.5474C222.279 91.3067 221.98 91.2766 220.297 91.2916C217.261 91.3217 217.591 91.0659 220.706 90.9756C222.216 90.9305 223.93 90.8703 224.528 90.8552C225.11 90.8402 225.582 90.8552 225.582 90.9004ZM83.8059 91.4571C83.7587 91.5625 83.7272 91.4872 83.7272 91.2766C83.7272 91.0659 83.7587 90.9906 83.8059 91.0809C83.8373 91.1863 83.8373 91.3669 83.8059 91.4571ZM217.481 91.111C217.387 91.2013 216.6 91.3067 215.704 91.3669C214.823 91.4271 213.973 91.5474 213.832 91.6528C213.454 91.9237 213.344 93.5489 213.69 93.8198C214.02 94.0906 214.634 93.9251 214.854 93.5037C215.027 93.1576 215.027 93.1576 215.027 93.5639L215.043 93.9853H218.079C219.746 93.9853 221.005 94.0455 220.895 94.1207C220.627 94.2712 215.42 94.3766 213.391 94.2712L212.463 94.211L212.432 93.0523C212.416 92.4203 212.353 91.8183 212.29 91.713C212.211 91.6076 211.944 91.5775 211.567 91.6377C211.22 91.6829 210.953 91.6979 210.953 91.6528C210.953 91.397 212.149 91.2164 214.571 91.1261C216.081 91.0659 217.387 91.0207 217.481 91.0057C217.575 90.9906 217.575 91.0207 217.481 91.111ZM209.301 91.5625C209.207 91.6377 208.452 91.728 207.603 91.7581C206.344 91.7882 206.124 91.7732 206.344 91.6076C206.659 91.397 209.537 91.3518 209.301 91.5625ZM146.506 92.2096C146.428 92.345 145.987 92.3751 145.987 92.2547C145.987 92.2096 146.082 92.044 146.176 91.8785C146.365 91.6076 146.381 91.5926 146.475 91.8484C146.538 91.9838 146.554 92.1494 146.506 92.2096ZM205.054 91.728C205.007 91.8033 204.755 91.8785 204.488 91.8785C204.236 91.8785 204.032 91.8033 204.032 91.728C204.032 91.6377 204.283 91.5775 204.598 91.5775C204.928 91.5775 205.117 91.6377 205.054 91.728ZM203.198 92.947C203.292 93.5639 203.387 94.0756 203.387 94.1057C203.403 94.1207 203.749 94.1057 204.173 94.0455C204.85 93.9552 204.96 93.9853 205.117 94.2712C205.306 94.5872 205.369 94.5872 207.933 94.512C209.962 94.4518 210.465 94.4668 210.167 94.6023C209.931 94.7076 208.137 94.828 205.762 94.8882C203.56 94.9634 201.594 95.0688 201.405 95.1139C201.2 95.1741 201.043 95.1591 201.043 95.0688C201.043 94.8431 201.389 94.6324 201.971 94.512L202.506 94.4067L202.412 93.1576C202.317 91.9086 202.396 91.6829 202.852 91.7882C202.946 91.8033 203.088 92.33 203.198 92.947ZM83.6329 93.2028C83.4284 93.3834 83.3497 93.0673 83.4756 92.5256L83.6014 91.9537L83.6643 92.5406C83.6958 92.8567 83.68 93.1576 83.6329 93.2028ZM159.625 93.9402C159.594 94.2562 159.562 94.0003 159.562 93.3834C159.562 92.7664 159.594 92.5105 159.625 92.8115C159.657 93.1275 159.657 93.6392 159.625 93.9402ZM145.799 92.962C145.956 93.1125 145.893 93.1877 145.484 93.3232C144.823 93.5338 144.776 93.7596 145.295 94.0906C145.673 94.3164 146.097 94.3615 148.032 94.3766C151.163 94.4067 151.981 94.4668 151.918 94.6474C151.76 95.0838 141.551 95.0838 124.673 94.6625C119.922 94.5421 114.212 94.4518 112.01 94.4819C109.808 94.4969 107.653 94.4518 107.212 94.3766L106.426 94.2261L107.291 94.1207C108.597 93.9552 113.442 93.9702 116.808 94.1508C118.46 94.2411 125.003 94.3314 131.358 94.3615L142.92 94.4217L143.738 94.0455C144.178 93.8499 144.745 93.4887 144.996 93.2479C145.515 92.7363 145.547 92.7212 145.799 92.962ZM114.747 95.6557C117.248 95.7309 119.435 95.8814 119.592 95.9566C119.765 96.0469 120.143 96.4984 120.457 96.9649C120.756 97.4314 121.433 98.2139 121.967 98.6955C122.486 99.162 122.88 99.5984 122.832 99.6285C122.785 99.6736 121.983 99.6435 121.039 99.5683C120.095 99.493 116.918 99.4028 113.976 99.3727L108.628 99.3275L108.581 99.7188C108.534 100.095 108.471 100.11 107.338 100.215C105.891 100.321 104.145 100.336 104.145 100.23C104.145 100.185 104.412 99.6285 104.743 98.9814C105.089 98.3494 105.545 97.296 105.797 96.6489L106.237 95.4901H108.219C109.305 95.4901 112.246 95.5654 114.747 95.6557ZM158.729 96.1071C158.729 96.378 159.657 98.3042 160.302 99.3576C160.632 99.9144 160.884 100.396 160.868 100.426C160.837 100.456 160.365 100.366 159.814 100.215C158.634 99.9295 157.234 99.8994 150.864 100.065C146.679 100.17 146.365 100.2 146.05 100.471C145.72 100.757 145.673 100.772 145.232 100.546C144.808 100.336 143.848 100.306 138.217 100.306C130.886 100.306 131.154 100.351 132.79 99.2523C133.828 98.56 134.142 98.1989 134.772 96.995L135.212 96.1673L146.727 96.0921C153.05 96.0469 158.288 95.9717 158.351 95.9115C158.477 95.7761 158.729 95.9115 158.729 96.1071ZM130.477 96.5285C130.572 96.6639 129.848 96.8445 129.25 96.8445C128.936 96.8295 128.936 96.8144 129.313 96.6188C129.754 96.378 130.352 96.3329 130.477 96.5285ZM201.892 97.1605C202.034 97.4615 202.679 98.229 203.324 98.861C203.969 99.5081 204.504 100.095 204.504 100.185C204.504 100.276 204.315 100.306 204 100.245C203.214 100.095 192.612 99.8091 187.122 99.794C183.205 99.779 182.041 99.8241 181.192 100.02C180.342 100.2 180.122 100.215 180.122 100.065C180.122 99.9595 180.374 99.2071 180.672 98.3945C180.987 97.5819 181.254 96.8445 181.286 96.7693C181.317 96.6639 184.872 96.6188 191.495 96.6188H201.641L201.892 97.1605ZM128.055 97.1304C128.055 97.2809 127.394 97.4765 127.284 97.3562C127.174 97.2659 127.599 96.995 127.866 96.995C127.961 96.995 128.055 97.0552 128.055 97.1304ZM175.56 97.311C175.56 97.3863 175.497 97.4464 175.403 97.4464C175.324 97.4464 175.245 97.3411 175.245 97.2057C175.245 97.0853 175.324 97.0251 175.403 97.0702C175.497 97.1154 175.56 97.2207 175.56 97.311ZM213.47 97.3712C213.47 97.4916 211.614 98.3494 210.528 98.7406C209.679 99.0416 209.537 99.0717 209.537 98.861C209.537 98.229 210.497 97.5668 211.032 97.8528C211.189 97.943 211.629 97.8829 212.337 97.6571C212.919 97.4615 213.407 97.311 213.438 97.311C213.454 97.296 213.47 97.3261 213.47 97.3712ZM122.943 97.7474C122.99 97.8227 122.974 97.8979 122.88 97.8979C122.801 97.8979 122.675 97.8227 122.628 97.7474C122.581 97.6571 122.597 97.5969 122.691 97.5969C122.77 97.5969 122.895 97.6571 122.943 97.7474ZM129.628 97.7474C129.313 97.943 129.109 97.943 129.235 97.7474C129.282 97.6571 129.455 97.5969 129.596 97.5969C129.832 97.5969 129.832 97.627 129.628 97.7474ZM175.434 98.3795C175.293 98.5149 175.198 98.5149 175.057 98.3795C174.915 98.244 174.947 98.1989 175.245 98.1989C175.544 98.1989 175.576 98.244 175.434 98.3795ZM207.587 98.5751C207.288 98.7858 206.706 98.8911 206.706 98.7256C206.706 98.6202 207.351 98.3644 207.65 98.3644C207.823 98.3644 207.807 98.4096 207.587 98.5751ZM128.291 98.9362C128.165 99.1319 127.583 99.162 127.583 98.9663C127.583 98.8911 127.74 98.8008 127.945 98.7707C128.37 98.6955 128.432 98.7256 128.291 98.9362ZM210.796 99.2523C210.796 99.3275 210.733 99.4028 210.638 99.4028C210.56 99.4028 210.481 99.3275 210.481 99.2523C210.481 99.162 210.56 99.1018 210.638 99.1018C210.733 99.1018 210.796 99.162 210.796 99.2523ZM78.379 100.035C78.1902 100.215 77.6868 100.14 77.6082 99.9144C77.5767 99.8091 77.734 99.779 78.0329 99.8241C78.3632 99.8693 78.4734 99.9445 78.379 100.035ZM124.374 100.23L124.83 100.592L124.091 100.607C123.367 100.607 123.336 100.592 123.336 100.17C123.336 99.6435 123.65 99.6736 124.374 100.23ZM89.3901 100.276C89.6103 100.486 89.1542 100.501 86.7632 100.351C84.7025 100.23 85.2373 99.9896 87.5025 100.05C88.5879 100.065 89.2643 100.155 89.3901 100.276ZM111.381 100.261C112.089 100.336 112.167 100.381 111.853 100.471C111.633 100.531 111.051 100.577 110.531 100.592C109.729 100.607 109.635 100.577 109.808 100.381C110.028 100.125 110.17 100.11 111.381 100.261ZM60.1319 100.546C62.0353 100.727 61.0758 100.908 58.2601 100.908C56.7342 100.908 55.523 100.878 55.5702 100.832C55.8376 100.561 58.496 100.411 60.1319 100.546ZM93.0867 100.847C93.0395 100.893 92.8979 100.908 92.7878 100.862C92.662 100.817 92.7092 100.772 92.8822 100.772C93.0552 100.757 93.1496 100.802 93.0867 100.847ZM103.626 101.058C103.673 101.224 103.705 101.404 103.689 101.464C103.673 101.6 102.1 101.78 102.1 101.645C102.1 101.6 102.352 101.434 102.651 101.269C102.95 101.118 103.201 100.938 103.201 100.878C103.201 100.622 103.547 100.772 103.626 101.058ZM179.792 101.314C179.996 101.75 179.839 101.961 179.288 101.961C179.131 101.961 178.863 102.202 178.69 102.488C178.502 102.774 178.297 103.014 178.219 103.014C177.92 103.014 178.093 102.608 178.706 101.901C179.052 101.51 179.335 101.118 179.335 101.043C179.335 100.757 179.603 100.923 179.792 101.314ZM155.347 101.209C155.095 101.269 154.702 101.329 154.482 101.344C154.167 101.344 154.136 101.329 154.324 101.209C154.45 101.133 154.843 101.073 155.189 101.073C155.803 101.088 155.803 101.103 155.347 101.209ZM118.68 101.314C119.482 101.374 119.828 101.449 119.671 101.54C119.246 101.75 117.657 101.826 116.021 101.69C114.558 101.57 114.48 101.555 114.999 101.404C115.644 101.209 116.997 101.163 118.68 101.314ZM162.016 101.72C162.189 101.871 162.3 102.066 162.252 102.127C162.127 102.337 161.607 102.277 161.34 102.036C161.214 101.916 160.837 101.811 160.491 101.811C159.846 101.811 158.886 101.555 158.886 101.389C158.886 101.329 159.515 101.314 160.286 101.359C161.356 101.419 161.765 101.494 162.016 101.72ZM227.375 101.359C227.265 101.464 227.076 101.464 226.825 101.374C226.463 101.239 226.479 101.224 226.998 101.224C227.36 101.209 227.485 101.254 227.375 101.359ZM105.482 101.51C105.057 101.69 104.932 101.69 104.932 101.51C104.932 101.419 105.12 101.359 105.372 101.374C105.75 101.374 105.765 101.389 105.482 101.51ZM108.549 101.51C108.817 101.585 108.471 101.63 107.527 101.63C106.599 101.63 106.221 101.6 106.426 101.51C106.819 101.344 108.03 101.344 108.549 101.51ZM113.819 101.51C113.772 101.585 113.615 101.66 113.489 101.66C113.363 101.66 113.269 101.585 113.269 101.51C113.269 101.419 113.41 101.359 113.599 101.359C113.772 101.359 113.866 101.419 113.819 101.51ZM223.065 101.51C223.065 101.675 222.641 101.811 222.106 101.811C221.602 101.811 221.477 101.57 221.933 101.464C222.373 101.359 223.065 101.389 223.065 101.51ZM95.1002 103.466C95.3204 103.556 95.1002 103.601 94.3923 103.586C93.653 103.586 93.48 103.556 93.7631 103.466C94.2822 103.3 94.7069 103.3 95.1002 103.466ZM97.853 103.466C97.853 103.541 97.5698 103.616 97.2237 103.616C96.8777 103.616 96.5945 103.541 96.5945 103.466C96.5945 103.376 96.8777 103.315 97.2237 103.315C97.5698 103.315 97.853 103.376 97.853 103.466ZM147.639 103.917C147.592 103.993 147.041 104.068 146.444 104.068C145.751 104.068 145.374 104.008 145.437 103.917C145.484 103.827 146.035 103.767 146.632 103.767C147.324 103.767 147.702 103.827 147.639 103.917ZM151.572 104.083C151.682 104.188 151.367 104.203 150.628 104.128C148.945 103.962 148.52 103.752 150.077 103.842C150.817 103.887 151.477 103.993 151.572 104.083Z" fill="black"/>
</g>
<path d="M147.922 55.8674C147.324 55.9126 146.884 56.0029 146.774 56.1383C146.601 56.3339 146.727 56.364 147.623 56.364C148.693 56.364 149.369 56.1684 149.212 55.8975C149.149 55.8223 149.07 55.7771 149.008 55.7922C148.945 55.8072 148.457 55.8373 147.922 55.8674Z" fill="black"/>
<path d="M152.044 55.9126C152.091 55.9878 152.279 56.063 152.453 56.063C152.61 56.063 152.751 55.9878 152.751 55.9126C152.751 55.8223 152.563 55.7621 152.342 55.7621C152.122 55.7621 151.981 55.8223 152.044 55.9126Z" fill="black"/>
<path d="M153.145 55.9126C153.192 55.9878 153.381 56.063 153.554 56.063C153.711 56.063 153.852 55.9878 153.852 55.9126C153.852 55.8223 153.664 55.7621 153.443 55.7621C153.223 55.7621 153.082 55.8223 153.145 55.9126Z" fill="black"/>
<path d="M164.219 58.7567C163.873 59.0276 163.857 59.0577 164.124 59.163C164.282 59.2082 165.068 59.1931 165.855 59.1179L167.302 58.9824L166.72 58.7266C165.918 58.3805 164.691 58.3956 164.219 58.7567Z" fill="black"/>
<path d="M147.183 58.7267C147.12 58.8019 145.83 58.8771 144.32 58.9223C141.803 58.9975 141.567 59.0276 141.253 59.3136L140.922 59.6446L141.473 59.8102C141.913 59.9606 142.369 59.9456 143.675 59.765C144.587 59.6296 145.689 59.5242 146.129 59.5242C147.387 59.5242 148.504 58.9825 147.781 58.7116C147.45 58.5912 147.324 58.5912 147.183 58.7267Z" fill="black"/>
<path d="M164.879 59.6597L164.187 59.75L164.832 60.4723C165.194 60.8786 165.493 61.2699 165.493 61.3602C165.493 61.4655 165.965 61.4805 166.956 61.4053C168.23 61.315 168.371 61.3301 168.104 61.5257C167.821 61.7213 167.821 61.7364 168.23 61.8417C168.45 61.8869 169.189 61.9019 169.866 61.8568C171.203 61.7514 171.753 61.917 172.021 62.5038C172.131 62.7296 172.304 62.8349 172.603 62.8349C173.153 62.8349 173.153 62.7296 172.634 62.0072C172.414 61.6912 172.162 61.2699 172.084 61.0742C171.989 60.8485 171.816 60.7281 171.565 60.7281C171.03 60.7281 170.92 60.9689 171.344 61.2398C171.691 61.4655 171.675 61.4805 170.92 61.4655C170.228 61.4655 170.18 61.4354 170.526 61.315C170.92 61.1645 170.92 61.1495 170.605 60.9388C170.401 60.7883 169.96 60.7281 169.221 60.7432C168.639 60.7582 168.12 60.7281 168.057 60.6679C168.01 60.6228 168.104 60.5776 168.293 60.5776C168.702 60.5776 168.906 60.2917 168.623 60.1112C168.497 60.0359 167.774 59.9908 166.987 60.0058C165.713 60.051 165.571 60.0209 165.619 59.7801C165.65 59.6447 165.65 59.5393 165.619 59.5544C165.587 59.5544 165.257 59.6146 164.879 59.6597ZM167.695 60.7281C167.695 60.9087 167.569 60.9087 167.145 60.7281C166.861 60.6077 166.877 60.5927 167.27 60.5927C167.506 60.5776 167.695 60.6378 167.695 60.7281ZM169.709 61.4354C169.551 61.4655 169.268 61.4655 169.079 61.4354C168.875 61.4053 169.001 61.3752 169.347 61.3752C169.693 61.3602 169.85 61.3903 169.709 61.4354Z" fill="black"/>
<path d="M144.414 60.066C143.848 60.1864 143.25 60.2616 143.093 60.2165C142.92 60.1713 142.621 60.2616 142.432 60.4121C142.228 60.5626 141.787 60.7432 141.473 60.7883C140.513 60.9539 139.994 61.1946 140.041 61.4655C140.089 61.6461 140.277 61.7063 140.749 61.6912C141.489 61.6762 141.583 61.8116 141.583 63.0155C141.583 63.5873 141.646 63.7378 141.898 63.8131C142.071 63.8582 142.275 63.8582 142.369 63.8131C142.574 63.6927 142.574 63.9334 142.369 64.1291C142.275 64.2194 142.244 64.415 142.306 64.5504C142.417 64.8213 142.7 64.8364 143.942 64.5805C144.304 64.5053 144.289 64.5053 143.895 64.6708C143.549 64.8213 143.471 64.9417 143.502 65.2427C143.549 65.649 143.832 65.6941 144.808 65.4684C145.264 65.3781 145.295 65.3931 145.28 65.7994C145.28 66.1305 145.342 66.2208 145.594 66.2058C145.924 66.1757 149.023 65.5286 149.102 65.4684C149.118 65.4533 149.023 65.2276 148.866 64.9868C148.614 64.5504 148.536 64.5203 147.387 64.4451C146.003 64.3548 145.578 64.2043 146.129 64.0087C146.648 63.8281 146.444 63.5271 145.736 63.4218C145.405 63.3767 145.232 63.3165 145.374 63.3014C145.515 63.3014 145.673 63.1509 145.72 62.9854C145.783 62.7296 145.72 62.6844 145.342 62.6844C145.091 62.6844 144.886 62.6092 144.886 62.5339C144.886 62.4437 144.965 62.3835 145.059 62.3835C145.154 62.3835 145.657 62.1276 146.176 61.8267C146.853 61.4354 147.309 61.2548 147.733 61.2548C148.253 61.2548 148.347 61.2097 148.347 60.9388C148.347 60.5325 148.08 60.4272 147.073 60.4272C146.585 60.4272 146.318 60.367 146.381 60.2767C146.475 60.1413 145.814 59.7951 145.547 59.8403C145.484 59.8553 144.981 59.9456 144.414 60.066ZM145.122 61.1796C145.39 61.2849 145.342 61.315 144.918 61.315C144.603 61.3301 144.43 61.2699 144.493 61.1796C144.603 60.999 144.697 60.999 145.122 61.1796ZM145.327 64.4451C145.169 64.4752 144.918 64.4752 144.776 64.4451C144.619 64.3999 144.745 64.3699 145.044 64.3699C145.342 64.3699 145.468 64.3999 145.327 64.4451Z" fill="black"/>
<path d="M169.362 60.1111C169.646 60.397 170.291 60.4422 170.605 60.2165C170.904 60.0058 170.857 59.9908 170.07 59.9757C169.536 59.9757 169.268 60.0359 169.362 60.1111Z" fill="black"/>
<path d="M148.378 61.9621C148.426 62.0674 148.614 62.2329 148.803 62.3383L149.165 62.5038L148.835 62.6844C148.394 62.8951 148.551 63.1359 149.149 63.1359C149.527 63.1359 149.605 63.0757 149.605 62.7898C149.605 62.2781 149.165 61.7815 148.724 61.7815C148.473 61.7815 148.347 61.8567 148.378 61.9621Z" fill="black"/>
<path d="M168.953 62.1878C168.828 62.233 168.623 62.3383 168.513 62.4286C168.23 62.6543 168.639 62.8048 169.504 62.8198C170.243 62.8349 170.684 62.6242 170.432 62.3834C170.228 62.1878 169.284 62.0524 168.953 62.1878Z" fill="black"/>
<path d="M147.199 62.9251C147.309 63.196 148.048 63.1659 148.158 62.865C148.19 62.7446 148.032 62.6844 147.655 62.6844C147.214 62.6844 147.12 62.7296 147.199 62.9251Z" fill="black"/>
<path d="M171.014 63.2713C170.621 63.5121 170.998 63.7378 171.785 63.7378C172.571 63.7378 172.949 63.5121 172.556 63.2713C172.43 63.1961 172.084 63.1359 171.785 63.1359C171.486 63.1359 171.14 63.1961 171.014 63.2713Z" fill="black"/>
<path d="M172.965 63.2863C172.807 63.5271 173.028 63.7378 173.405 63.7378C173.767 63.7378 174.27 63.497 174.144 63.3917C173.956 63.2412 173.043 63.1659 172.965 63.2863Z" fill="black"/>
<path d="M226.085 79.8397C225.425 79.9902 225.378 80.0504 225.503 80.4417C225.645 80.8931 226.211 81.1941 227.092 81.2844C228.225 81.3897 228.366 81.2392 227.91 80.3965C227.517 79.6441 227.281 79.5688 226.085 79.8397Z" fill="black"/>
<path d="M87.4711 75.4756C87.3452 75.5509 87.0149 75.6261 86.7475 75.6261C86.2756 75.6261 86.2284 75.6863 85.6621 76.9203C85.3475 77.6426 85.0486 78.5907 85.0015 79.0421L84.9071 79.8848L85.5205 79.7945C85.8509 79.7343 87.4554 79.6591 89.0756 79.5989L92.0014 79.4936L92.2688 78.8766C93.3384 76.3785 93.5744 75.6261 93.3541 75.4606C93.2126 75.3402 92.898 75.3251 92.4575 75.4004C92.0957 75.4606 91.3092 75.5057 90.7115 75.4907C90.1137 75.4606 89.4216 75.5358 89.1699 75.6412C88.761 75.8067 88.6666 75.7916 88.5407 75.581C88.3834 75.295 87.8329 75.2499 87.4711 75.4756Z" fill="black"/>
<path d="M165.839 85.513C165.178 85.6334 164.014 87.5295 163.511 89.3203C162.551 92.7814 164.077 97.4464 166.358 97.9882C166.767 98.0785 166.783 98.0785 166.594 97.7474C166.484 97.5518 166.091 96.995 165.713 96.4984C165.32 96.0018 165.021 95.445 165.021 95.2193C165.021 95.0086 164.848 94.5571 164.628 94.211C164.14 93.4135 163.983 92.029 164.219 90.5091C164.455 88.8387 164.927 87.7552 165.839 86.8072C166.798 85.7989 166.798 85.3475 165.839 85.513Z" fill="black"/>
<path d="M167.978 98.1537C167.05 98.1988 166.751 98.259 166.751 98.4246C166.751 98.9814 168.356 99.3426 169.126 98.9513C169.41 98.8008 169.583 98.0032 169.315 98.0784C169.237 98.0935 168.639 98.1386 167.978 98.1537Z" fill="black"/>
<path d="M91.2621 87.3338C90.916 87.6799 90.5385 88.3119 90.3025 88.944C89.9564 89.862 89.9092 90.2532 89.9092 91.8785C89.9092 93.7294 89.925 93.7896 90.4598 94.813C90.8531 95.5804 91.1991 95.9867 91.671 96.3028C92.0486 96.5435 92.3789 96.7091 92.4261 96.6639C92.489 96.6188 92.1587 95.8814 91.7025 95.0236C90.9632 93.6091 90.8688 93.3382 90.8059 92.2396C90.7272 90.8251 90.9474 89.9372 91.8755 88.026C92.4576 86.8221 92.4733 86.7619 92.1587 86.7619C91.9699 86.7619 91.5767 87.0178 91.2621 87.3338Z" fill="black"/>
<path d="M97.271 88.5678C96.689 88.9741 96.1227 89.8319 96.3114 89.9974C96.4845 90.163 97.4755 89.3503 97.7586 88.8236C97.9159 88.5076 98.0103 88.2217 97.9788 88.1916C97.9474 88.1464 97.617 88.327 97.271 88.5678Z" fill="black"/>
<path d="M92.2373 88.4926C91.7183 88.8387 91.2464 90.2232 91.2464 91.397C91.2464 92.646 91.4666 93.4135 91.9542 93.9402L92.3317 94.3615L92.3474 93.9853C92.3474 93.7746 92.2373 93.0072 92.1115 92.2698C91.8598 90.8251 91.8913 90.5392 92.3632 89.4256C92.7722 88.4926 92.725 88.1615 92.2373 88.4926Z" fill="black"/>
<path d="M93.1182 91.2615C92.8822 91.9989 93.0553 93.0824 93.4643 93.594C93.8103 94.0154 94.471 94.1057 95.0216 93.8348C95.5879 93.5489 95.871 91.6378 95.4148 91.2766C95.2261 91.1261 95.1631 91.1562 95.0216 91.5023C94.9429 91.713 94.8643 92.0742 94.8643 92.2999C94.8643 92.7062 94.6283 93.2178 94.5025 93.0824C94.3452 92.9018 93.9204 91.4722 93.9204 91.096C93.9204 90.78 93.8418 90.6747 93.6058 90.6747C93.3856 90.6747 93.2598 90.8402 93.1182 91.2615Z" fill="black"/>
<path d="M191.605 92.4052C191.526 92.6159 191.448 93.1727 191.448 93.6091C191.448 94.4217 191.448 94.4217 191.998 94.5271C192.753 94.6625 193.021 94.5271 193.021 94.0304C193.021 93.8047 193.068 93.3683 193.099 93.0824C193.209 92.4052 193.084 92.2246 192.36 92.1042C191.825 91.9989 191.747 92.029 191.605 92.4052Z" fill="black"/>
<path d="M188.994 79.8548C188.129 80.2611 186.996 81.3596 187.138 81.6907C187.263 82.0217 187.767 82.0217 187.893 81.7057C187.971 81.495 188.239 81.48 190.111 81.5703C191.542 81.6455 192.234 81.6305 192.234 81.5251C192.234 81.1188 191.982 80.8479 191.275 80.5169C190.85 80.3062 190.441 80.0052 190.347 79.8397C190.142 79.4635 189.827 79.4635 188.994 79.8548Z" fill="black"/>
<path d="M181.852 81.2994C181.302 81.48 179.996 81.5552 176.032 81.6455C173.216 81.7057 170.904 81.7659 170.888 81.7809C170.857 81.7809 170.841 81.9164 170.841 82.0819C170.841 82.2474 171.03 82.428 171.329 82.5484C171.596 82.6688 171.769 82.8193 171.722 82.9397C171.675 83.06 171.864 83.1654 172.273 83.2256C172.619 83.2858 177.385 83.2557 182.843 83.1654C188.317 83.0751 196.906 82.9697 201.94 82.9547C206.973 82.9397 211.142 82.8644 211.221 82.8042C211.283 82.729 211.205 82.5634 211.032 82.4431C210.749 82.2324 209.412 82.2173 199.313 82.3076C188.38 82.3979 181.758 82.3227 182.403 82.097C182.576 82.0368 183.111 82.0217 183.583 82.0518C184.621 82.1421 185.203 81.8411 184.904 81.3897C184.668 81.0285 182.843 80.9683 181.852 81.2994ZM181.616 82.3979C181.679 82.4882 181.49 82.5484 181.16 82.5484C180.846 82.5484 180.594 82.4732 180.594 82.3979C180.594 82.3076 180.798 82.2474 181.05 82.2474C181.317 82.2474 181.569 82.3076 181.616 82.3979Z" fill="black"/>
<path d="M187.09 83.6018C186.351 83.8877 186.666 84.0984 188.034 84.294C188.443 84.3392 188.773 84.4445 188.773 84.5047C188.773 84.58 188.632 84.595 188.459 84.5499C188.286 84.5047 187.971 84.5198 187.751 84.5649C187.436 84.6402 187.342 84.7455 187.389 85.0013C187.421 85.2571 187.562 85.3474 187.956 85.3775C188.239 85.4076 188.522 85.528 188.569 85.6484C188.616 85.7989 188.899 85.8591 189.466 85.844C190.598 85.829 190.85 85.6935 191.054 85.0164C191.212 84.4445 191.227 84.4295 192.045 84.3843C192.785 84.3392 192.863 84.3091 192.863 83.9931C192.863 83.5115 192.423 83.4213 190.74 83.6169C189.812 83.7072 189.072 83.7072 188.49 83.6018C187.484 83.4213 187.547 83.4213 187.09 83.6018Z" fill="black"/>
<path d="M222.641 84.0532C222.247 84.279 222.121 84.4596 222.121 84.7906C222.121 85.0314 222.232 85.3173 222.373 85.4227C222.593 85.5882 222.656 85.5731 222.845 85.3324C222.971 85.1819 223.065 84.9863 223.065 84.911C223.065 84.7756 223.364 84.8057 224.135 85.0314C224.45 85.1367 224.481 85.0916 224.481 84.5348C224.481 84.1285 224.402 83.9028 224.229 83.8426C223.773 83.677 223.144 83.7523 222.641 84.0532Z" fill="black"/>
<path d="M195.003 84.4445C194.955 84.58 194.908 84.8659 194.908 85.1067C194.908 85.9343 195.018 86.0096 196.167 86.0096C196.749 86.0096 197.441 85.9343 197.724 85.844C198.164 85.6936 198.212 85.6183 198.212 85.0916C198.212 84.3392 197.944 84.2038 196.355 84.2038C195.349 84.2038 195.081 84.2489 195.003 84.4445Z" fill="black"/>
<path d="M199.092 84.58C198.951 84.9411 198.982 85.9042 199.14 86.145C199.234 86.2955 199.564 86.3256 200.398 86.2804C201.798 86.2052 202.38 85.8591 202.38 85.0916C202.38 84.6101 202.349 84.58 201.83 84.5649C201.531 84.5649 200.807 84.5047 200.241 84.4445C199.344 84.3542 199.187 84.3693 199.092 84.58Z" fill="black"/>
<path d="M220.517 84.595C220.281 84.8207 220.155 84.8358 219.62 84.6853C218.629 84.3843 218.189 84.7756 218.724 85.4829C218.897 85.7086 219.196 85.7839 220.045 85.829C221.13 85.8892 221.162 85.8741 221.256 85.513C221.508 84.595 221.068 84.0683 220.517 84.595Z" fill="black"/>
<path d="M185.124 84.9712C184.637 85.2421 184.778 85.5581 185.392 85.5581C185.832 85.5581 185.942 85.4979 185.942 85.2722C185.942 85.1217 185.832 84.9412 185.69 84.896C185.392 84.7907 185.455 84.7756 185.124 84.9712Z" fill="black"/>
<path d="M184.841 86.115C184.841 86.5664 185.093 86.8072 185.439 86.7019C185.832 86.5815 186.021 86.1451 185.753 85.9795C185.376 85.7538 184.841 85.8441 184.841 86.115Z" fill="black"/>
<path d="M185.03 87.093C184.92 87.1984 184.841 87.4091 184.841 87.5596C184.841 87.8154 184.92 87.8455 185.344 87.7552C185.958 87.6348 186.178 87.4542 186.052 87.1532C185.942 86.8673 185.297 86.8372 185.03 87.093Z" fill="black"/>
<path d="M195.758 87.0179C195.365 87.0931 194.956 87.4843 194.908 87.8154C194.751 88.8688 195.129 89.1697 196.654 89.1697C197.787 89.1697 198.149 89.0192 198.259 88.4625C198.306 88.2367 198.4 87.9207 198.448 87.7703C198.542 87.5746 198.432 87.4693 198.039 87.3038C197.425 87.063 196.245 86.9125 195.758 87.0179Z" fill="black"/>
<path d="M219.605 87.1984C219.274 87.2887 219.196 87.4091 219.164 87.9358L219.117 88.5678H219.951C221.005 88.5678 221.571 88.2969 221.571 87.8154C221.571 87.2135 220.659 86.9125 219.605 87.1984Z" fill="black"/>
<path d="M199.659 87.4843C199.58 87.7101 199.737 88.9591 199.879 89.1848C199.989 89.3654 201.137 89.3504 201.877 89.1547C202.585 88.9742 202.978 88.4625 202.899 87.8154L202.852 87.3338L201.295 87.3188C200.146 87.2887 199.722 87.3338 199.659 87.4843Z" fill="black"/>
<path d="M204.897 87.3037C203.843 87.5596 203.717 87.6799 203.717 88.3722C203.717 88.9892 203.764 89.0494 204.268 89.26C205.133 89.6062 206.391 89.4858 206.391 89.0644C206.391 88.944 206.549 88.5829 206.737 88.2668C206.989 87.8455 207.052 87.6348 206.926 87.5144C206.737 87.3338 205.369 87.1984 204.897 87.3037Z" fill="black"/>
<path d="M216.726 87.7853C216.191 88.3571 216.38 88.5678 217.402 88.5678C218.283 88.5678 218.346 88.5377 218.346 88.2217C218.346 88.0261 218.268 87.8004 218.158 87.695C217.874 87.4242 217.009 87.4844 216.726 87.7853Z" fill="black"/>
<path d="M214.241 87.981C214.068 88.1465 213.942 88.3572 213.989 88.4625C214.068 88.6882 214.76 88.8538 215.263 88.7635C215.609 88.6882 215.672 88.5979 215.672 88.1766C215.672 87.695 215.641 87.6649 215.122 87.6649C214.776 87.6649 214.445 87.7853 214.241 87.981Z" fill="black"/>
</g>
<g filter="url(#filter2_d_6_10)">
<path d="M89.2656 38.8164C89.2656 39.0508 89.1895 39.2559 89.0371 39.4316C88.8965 39.6074 88.709 39.707 88.4746 39.7305C87.1855 39.9062 85.9082 40.041 84.6426 40.1348C83.3887 40.2168 82.1172 40.2578 80.8281 40.2578C78.332 40.2578 75.8008 40.082 73.2344 39.7305C73 39.707 72.8066 39.6074 72.6543 39.4316C72.5137 39.2559 72.4434 39.0508 72.4434 38.8164C72.4434 38.5703 72.5312 38.3535 72.707 38.166C72.8945 37.9785 73.123 37.8848 73.3926 37.8848C73.416 37.8848 73.4336 37.8906 73.4453 37.9023C73.457 37.9141 73.4746 37.9199 73.498 37.9199C75.0098 38.1191 76.3516 38.2715 77.5234 38.377C78.707 38.4824 79.8379 38.5352 80.916 38.5352C81.4785 38.5352 82.041 38.5234 82.6035 38.5C83.1777 38.4766 83.7578 38.4414 84.3438 38.3945C84.9414 38.3359 85.5566 38.2715 86.1895 38.2012C86.8223 38.1191 87.4961 38.0254 88.2109 37.9199C88.2344 37.9199 88.2578 37.9141 88.2812 37.9023C88.3047 37.8906 88.3281 37.8848 88.3516 37.8848C88.6094 37.8848 88.8262 37.9785 89.002 38.166C89.1777 38.3535 89.2656 38.5703 89.2656 38.8164ZM110.201 40.3281C110.166 40.5625 110.055 40.7559 109.867 40.9082C109.691 41.0605 109.486 41.1367 109.252 41.1367C109.018 41.1367 108.812 41.0547 108.637 40.8906C108.473 40.7266 108.379 40.5156 108.355 40.2578C108.355 39.7539 108.25 39.2266 108.039 38.6758C107.828 38.125 107.541 37.6211 107.178 37.1641C106.814 36.707 106.398 36.332 105.93 36.0391C105.461 35.7344 104.963 35.582 104.436 35.582C103.779 35.582 103.199 35.7227 102.695 36.0039C102.191 36.2734 101.752 36.6367 101.377 37.0938C101.002 37.5508 100.691 38.0723 100.445 38.6582C100.199 39.2441 100 39.8477 99.8477 40.4688C99.6953 41.0781 99.584 41.6816 99.5137 42.2793C99.4551 42.877 99.4258 43.416 99.4258 43.8965C99.4258 44.7168 99.5137 45.5371 99.6895 46.3574C99.877 47.1777 100.158 47.916 100.533 48.5723C100.908 49.2168 101.389 49.7441 101.975 50.1543C102.561 50.5645 103.258 50.7695 104.066 50.7695C104.664 50.7695 105.227 50.6348 105.754 50.3652C106.281 50.0957 106.75 49.75 107.16 49.3281C107.582 48.8945 107.939 48.4199 108.232 47.9043C108.525 47.3887 108.736 46.8848 108.865 46.3926C108.924 46.1699 109.029 45.9883 109.182 45.8477C109.346 45.707 109.539 45.6367 109.762 45.6367C110.02 45.6367 110.236 45.7363 110.412 45.9355C110.6 46.123 110.693 46.334 110.693 46.5684C110.693 46.6387 110.682 46.6973 110.658 46.7441C110.576 47.1309 110.436 47.5527 110.236 48.0098C110.037 48.4668 109.773 48.9238 109.445 49.3809C109.129 49.8379 108.742 50.2832 108.285 50.7168C107.828 51.1387 107.307 51.5137 106.721 51.8418C106.135 52.1699 105.484 52.4336 104.77 52.6328C104.055 52.832 103.27 52.9316 102.414 52.9316C101.066 52.9316 99.8242 52.7031 98.6875 52.2461C97.5508 51.8008 96.5723 51.1738 95.752 50.3652C94.9316 49.5449 94.2871 48.5664 93.8184 47.4297C93.3613 46.2812 93.1328 45.0215 93.1328 43.6504C93.1328 42.1738 93.332 40.8027 93.7305 39.5371C94.1406 38.2715 94.7324 37.1758 95.5059 36.25C96.291 35.3242 97.252 34.5977 98.3887 34.0703C99.5371 33.543 100.855 33.2793 102.344 33.2793C103.68 33.2793 104.922 33.5488 106.07 34.0879C107.219 34.6152 108.162 35.4121 108.9 36.4785L109.48 32.8926C109.516 32.6699 109.615 32.4883 109.779 32.3477C109.955 32.207 110.154 32.1367 110.377 32.1367C110.67 32.1367 110.898 32.2363 111.062 32.4355C111.227 32.6348 111.309 32.834 111.309 33.0332V33.1738L110.201 40.3281ZM125.758 45.8477C125.734 45.6484 125.717 45.4434 125.705 45.2324C125.693 45.0215 125.688 44.8047 125.688 44.582H125.037C124.568 44.582 124.012 44.6172 123.367 44.6875C122.734 44.7578 122.078 44.8691 121.398 45.0215C120.719 45.1738 120.045 45.3789 119.377 45.6367C118.709 45.8828 118.111 46.1875 117.584 46.5508C117.057 46.9023 116.629 47.3184 116.301 47.7988C115.984 48.2793 115.826 48.8301 115.826 49.4512C115.826 49.7793 115.902 50.0605 116.055 50.2949C116.219 50.5293 116.418 50.7227 116.652 50.875C116.898 51.0156 117.168 51.1211 117.461 51.1914C117.754 51.25 118.035 51.2793 118.305 51.2793C119.137 51.2793 119.922 51.1211 120.66 50.8047C121.41 50.4766 122.102 50.0547 122.734 49.5391C123.367 49.0117 123.936 48.4258 124.439 47.7812C124.943 47.1367 125.383 46.4922 125.758 45.8477ZM134.178 51.9297H134.107C133.908 51.9062 133.703 51.8945 133.492 51.8945C133.281 51.8945 133.076 51.8945 132.877 51.8945C131.775 51.8945 130.715 51.9648 129.695 52.1055C128.688 52.2461 127.674 52.4629 126.654 52.7559C126.619 52.7559 126.584 52.7617 126.549 52.7734C126.514 52.7852 126.467 52.791 126.408 52.791C126.139 52.791 125.916 52.6855 125.74 52.4746C125.576 52.2754 125.494 52.0703 125.494 51.8594V51.7188C125.494 51.6953 125.523 51.4609 125.582 51.0156C125.641 50.5586 125.699 49.9258 125.758 49.1172C125.254 49.6797 124.715 50.207 124.141 50.6992C123.578 51.1797 122.98 51.6016 122.348 51.9648C121.727 52.3164 121.082 52.5918 120.414 52.791C119.746 53.002 119.055 53.1074 118.34 53.1074C117.777 53.1074 117.232 53.0195 116.705 52.8438C116.178 52.6797 115.709 52.4395 115.299 52.123C114.9 51.8066 114.578 51.4258 114.332 50.9805C114.098 50.5234 113.98 50.0137 113.98 49.4512C113.98 48.5723 114.168 47.7988 114.543 47.1309C114.93 46.4629 115.434 45.8828 116.055 45.3906C116.676 44.8867 117.379 44.4707 118.164 44.1426C118.961 43.8027 119.77 43.5332 120.59 43.334C121.41 43.123 122.207 42.9766 122.98 42.8945C123.754 42.8008 124.439 42.7539 125.037 42.7539H125.459C125.459 42.0391 125.33 41.3418 125.072 40.6621C124.826 39.9824 124.475 39.3789 124.018 38.8516C123.572 38.3242 123.039 37.9023 122.418 37.5859C121.797 37.2578 121.111 37.0938 120.361 37.0938C119.811 37.0938 119.271 37.252 118.744 37.5684C118.217 37.873 117.748 38.2656 117.338 38.7461C116.928 39.2266 116.594 39.7656 116.336 40.3633C116.09 40.9609 115.967 41.541 115.967 42.1035C115.967 42.3379 115.867 42.5371 115.668 42.7012C115.48 42.8535 115.27 42.9297 115.035 42.9297C114.777 42.9297 114.555 42.8359 114.367 42.6484C114.18 42.4492 114.086 42.2324 114.086 41.998C114.086 41.4355 114.186 40.8496 114.385 40.2402C114.584 39.6191 114.871 39.0156 115.246 38.4297C115.633 37.832 116.096 37.2695 116.635 36.7422C117.186 36.2148 117.807 35.752 118.498 35.3535C119.201 34.9434 119.969 34.6211 120.801 34.3867C121.633 34.1523 122.518 34.0352 123.455 34.0352C124.768 34.0352 125.887 34.2402 126.812 34.6504C127.75 35.0605 128.529 35.6172 129.15 36.3203C129.783 37.0234 130.281 37.8379 130.645 38.7637C131.008 39.6895 131.283 40.668 131.471 41.6992C131.658 42.7305 131.775 43.7793 131.822 44.8457C131.881 45.9121 131.91 46.9316 131.91 47.9043C131.91 48.3965 131.904 48.8184 131.893 49.1699C131.881 49.5215 131.875 49.8145 131.875 50.0488C132.051 50.0488 132.227 50.043 132.402 50.0312C132.59 50.0195 132.771 50.0137 132.947 50.0137C133.146 50.0137 133.352 50.0195 133.562 50.0312C133.785 50.043 134.002 50.0488 134.213 50.0488C134.471 50.0723 134.676 50.1719 134.828 50.3477C134.992 50.5234 135.074 50.7402 135.074 50.998C135.074 51.2441 134.986 51.4609 134.811 51.6484C134.646 51.8359 134.436 51.9297 134.178 51.9297ZM151.826 43.2812C151.393 43.2812 150.982 43.1992 150.596 43.0352C150.221 42.8711 149.893 42.6484 149.611 42.3672C149.33 42.0859 149.107 41.7578 148.943 41.3828C148.779 40.9961 148.697 40.5859 148.697 40.1523C148.697 39.7188 148.779 39.3145 148.943 38.9395C149.107 38.5527 149.33 38.2188 149.611 37.9375C149.893 37.6445 150.221 37.416 150.596 37.252C150.982 37.0762 151.393 36.9883 151.826 36.9883C151.885 36.9883 151.938 36.9941 151.984 37.0059C152.043 37.0176 152.102 37.0234 152.16 37.0234C151.855 36.7891 151.498 36.6133 151.088 36.4961C150.689 36.3672 150.227 36.3027 149.699 36.3027C149.031 36.3027 148.451 36.4434 147.959 36.7246C147.467 36.9941 147.045 37.3398 146.693 37.7617C146.354 38.1719 146.078 38.623 145.867 39.1152C145.656 39.5957 145.486 40.0527 145.357 40.4863C145.24 40.9082 145.158 41.2715 145.111 41.5762C145.076 41.8809 145.059 42.0566 145.059 42.1035L145.023 49.9082C145.434 49.9434 145.844 49.9961 146.254 50.0664C146.676 50.1367 147.104 50.207 147.537 50.2773C147.76 50.3359 147.941 50.4531 148.082 50.6289C148.223 50.793 148.293 50.9863 148.293 51.209C148.293 51.4668 148.193 51.6836 147.994 51.8594C147.795 52.0234 147.584 52.1055 147.361 52.1055H147.186C146.236 51.9297 145.334 51.7949 144.479 51.7012C143.623 51.6074 142.773 51.5605 141.93 51.5605C141.086 51.5605 140.242 51.6074 139.398 51.7012C138.555 51.7949 137.658 51.9297 136.709 52.1055H136.533C136.264 52.1055 136.047 52.0176 135.883 51.8418C135.719 51.6543 135.637 51.4434 135.637 51.209C135.637 50.9863 135.701 50.793 135.83 50.6289C135.959 50.4531 136.135 50.3359 136.357 50.2773C136.768 50.207 137.178 50.1367 137.588 50.0664C137.998 49.9961 138.402 49.9434 138.801 49.9082V36.8125C138.062 36.7773 137.441 36.7305 136.938 36.6719C136.434 36.6133 136.152 36.5723 136.094 36.5488C135.859 36.5254 135.666 36.4316 135.514 36.2676C135.373 36.0918 135.303 35.8867 135.303 35.6523C135.303 35.3594 135.402 35.1309 135.602 34.9668C135.812 34.8027 136.023 34.7207 136.234 34.7207H136.357C136.369 34.7324 136.504 34.7559 136.762 34.791C137.02 34.8145 137.354 34.8438 137.764 34.8789C138.174 34.9141 138.643 34.9434 139.17 34.9668C139.709 34.9902 140.254 35.002 140.805 35.002C141.367 35.002 141.918 34.9844 142.457 34.9492C142.996 34.9141 143.494 34.8496 143.951 34.7559C143.975 34.7324 144.033 34.7207 144.127 34.7207C144.396 34.7207 144.619 34.8203 144.795 35.0195C144.971 35.207 145.059 35.418 145.059 35.6523V36.918C145.562 36.2148 146.195 35.6348 146.957 35.1777C147.73 34.709 148.645 34.4746 149.699 34.4746C150.496 34.498 151.223 34.6387 151.879 34.8965C152.535 35.1426 153.098 35.4883 153.566 35.9336C154.047 36.3672 154.416 36.8945 154.674 37.5156C154.943 38.125 155.078 38.8105 155.078 39.5723C155.078 40.0527 155.002 40.5156 154.85 40.9609C154.697 41.4062 154.48 41.8047 154.199 42.1562C153.918 42.4961 153.572 42.7715 153.162 42.9824C152.764 43.1816 152.318 43.2812 151.826 43.2812Z" fill="black"/>
</g>
<g filter="url(#filter3_d_6_10)">
<path d="M68.324 83.3595C68.5252 86.7598 67.9248 89.8375 66.5227 92.5928C65.1188 95.3169 63.2383 97.6564 60.8811 99.6114C58.5221 101.535 55.8572 103.051 52.8864 104.158C49.9468 105.265 47.0099 105.886 44.0756 106.022C38.5815 106.277 33.4497 105.514 28.6804 103.734C23.911 101.953 19.6013 99.2126 15.7513 95.5125L15.8177 96.6355C15.8768 97.6337 15.9506 98.6157 16.039 99.5813C16.1275 100.547 16.2315 101.512 16.3512 102.476L16.3622 102.663C16.3992 103.287 16.2129 103.843 15.8036 104.331C15.4255 104.818 14.8949 105.109 14.2118 105.203C13.4938 105.236 12.8878 105.045 12.3937 104.63C11.8996 104.215 11.6011 103.666 11.498 102.983C11.3765 101.987 11.2706 100.991 11.1803 99.9945C11.0882 98.9665 11.0126 97.9534 10.9535 96.9551C10.7652 93.7732 10.7478 90.8336 10.9012 88.1363C11.0528 85.4078 11.3155 82.7054 11.6892 80.0292C11.8102 79.4292 12.0626 78.9326 12.4462 78.5395C12.8611 78.1448 13.3651 77.9337 13.9582 77.9062C14.6762 77.8729 15.2859 78.1261 15.7874 78.6659C16.287 79.1745 16.5534 79.7095 16.5867 80.2711C16.5904 80.3334 16.595 80.4114 16.6005 80.505C16.6042 80.5674 16.5776 80.6469 16.5207 80.7433C16.4071 81.4681 16.3063 82.1453 16.2184 82.775C16.1598 83.3721 16.0856 83.9698 15.9958 84.5684C15.9354 85.1342 15.8768 85.7313 15.8201 86.3595C15.7927 86.9551 15.7544 87.6295 15.705 88.3825C19.4671 92.7124 23.6677 95.9896 28.3068 98.2142C32.9441 100.408 38.0722 101.374 43.6912 101.113C45.2832 101.039 46.9762 100.82 48.7701 100.455C50.5953 100.089 52.2514 99.5114 53.7386 98.7229C55.2551 97.9018 56.4768 96.8597 57.4038 95.5968C58.3601 94.3011 58.7819 92.7018 58.6693 90.7989C58.5899 89.4575 58.159 88.2576 57.3764 87.199C56.5919 86.1093 55.5964 85.1546 54.3897 84.3347C53.183 83.5148 51.8267 82.8114 50.3207 82.2244C48.8442 81.6047 47.3576 81.0794 45.8608 80.6484C44.3641 80.2174 42.9354 79.877 41.5746 79.6274C40.2432 79.3451 39.1038 79.1321 38.1562 78.9884C35.9121 78.6233 33.6809 78.2107 31.4626 77.7506C29.2423 77.2594 27.1249 76.6538 25.1103 75.934C23.0957 75.2142 21.2132 74.3475 19.4629 73.3339C17.7126 72.3203 16.1698 71.1094 14.8343 69.7012C13.5283 68.2603 12.4581 66.5739 11.6239 64.6419C10.8208 62.7085 10.3436 60.4627 10.1922 57.9047C10.0446 55.4091 10.2367 53.101 10.7685 50.9805C11.3298 48.8273 12.1537 46.8809 13.2402 45.1413C14.3267 43.4017 15.6291 41.871 17.1473 40.5493C18.6949 39.1949 20.3958 38.0524 22.2502 37.1218C24.1027 36.1599 26.0627 35.4277 28.1302 34.9251C30.2271 34.3898 32.3525 34.0722 34.5064 33.9722C35.8175 33.9113 37.2131 33.9561 38.6932 34.1063C40.2027 34.2239 41.7021 34.4359 43.1914 34.7421C44.6788 35.0172 46.1397 35.3717 47.574 35.8056C49.0376 36.2069 50.3957 36.6756 51.6482 37.2118C52.8989 37.7168 54.0119 38.2751 54.9871 38.8868C55.9605 39.4672 56.7476 40.072 57.3482 40.701C57.7151 39.4953 58.1141 38.3037 58.5453 37.1263C59.0058 35.9162 59.482 34.7055 59.9737 33.4939C60.1976 33.0456 60.4904 32.7036 60.8521 32.4678C61.2431 32.1994 61.6571 32.0551 62.0942 32.0348C62.8121 32.0015 63.4209 32.2391 63.9206 32.7477C64.4184 33.2251 64.6857 33.7757 64.7226 34.3996C64.7429 34.7428 64.6705 35.1059 64.5054 35.4889C63.0815 38.9334 61.9394 42.3804 61.0793 45.8299C60.2485 49.2469 59.7171 52.6968 59.4849 56.1798C59.4594 56.8066 59.2245 57.3336 58.7803 57.7609C58.3654 58.1555 57.8458 58.3674 57.2215 58.3963C56.5035 58.4297 55.8947 58.192 55.3951 57.6834C54.8954 57.1748 54.6299 56.6554 54.5986 56.1251L54.5819 55.8443C54.7609 52.5202 55.2391 49.2291 56.0167 45.9711C55.7962 45.4183 55.2773 44.848 54.4599 44.2603C53.6408 43.6414 52.6361 43.0625 51.446 42.5233C50.2872 41.9828 48.9741 41.4807 47.5067 41.017C46.0376 40.5221 44.5418 40.1067 43.0194 39.7707C41.497 39.4347 39.9792 39.1767 38.4661 38.9967C36.9529 38.8167 35.572 38.7557 34.3234 38.8136C32.4192 38.902 30.605 39.1895 28.8809 39.6762C27.1568 40.1629 25.6347 40.8905 24.3147 41.8589C23.026 42.8259 22.0026 44.0464 21.2447 45.5205C20.4849 46.9634 20.1485 48.6839 20.2354 50.6818C20.4636 52.423 21.0214 53.9142 21.9087 55.1555C22.8254 56.3642 23.9202 57.4083 25.193 58.2876C26.497 59.1655 27.9488 59.8958 29.5484 60.4785C31.1461 61.0299 32.7549 61.5027 34.3746 61.8967C36.0237 62.2581 37.6232 62.5749 39.1731 62.847C40.7212 63.088 42.1278 63.3199 43.3931 63.5427C46.5903 64.145 49.6525 64.8475 52.5798 65.65C55.507 66.4526 58.0929 67.5682 60.3373 68.9968C62.6129 70.4239 64.4607 72.2932 65.8809 74.6047C67.2992 76.8849 68.1136 79.8032 68.324 83.3595Z" fill="black"/>
</g>
<defs>
<filter id="filter0_d_6_10" x="31.7353" y="52" width="209.265" height="61.336" filterUnits="userSpaceOnUse" color-interpolation-filters="sRGB">
<feFlood flood-opacity="0" result="BackgroundImageFix"/>
<feColorMatrix in="SourceAlpha" type="matrix" values="0 0 0 0 0 0 0 0 0 0 0 0 0 0 0 0 0 0 127 0" result="hardAlpha"/>
<feOffset dy="4"/>
<feGaussianBlur stdDeviation="2"/>
<feComposite in2="hardAlpha" operator="out"/>
<feColorMatrix type="matrix" values="0 0 0 0 0 0 0 0 0 0 0 0 0 0 0 0 0 0 0.25 0"/>
<feBlend mode="normal" in2="BackgroundImageFix" result="effect1_dropShadow_6_10"/>
<feBlend mode="normal" in="SourceGraphic" in2="effect1_dropShadow_6_10" result="shape"/>
</filter>
<filter id="filter1_d_6_10" x="33.7353" y="52" width="205.265" height="59.336" filterUnits="userSpaceOnUse" color-interpolation-filters="sRGB">
<feFlood flood-opacity="0" result="BackgroundImageFix"/>
<feColorMatrix in="SourceAlpha" type="matrix" values="0 0 0 0 0 0 0 0 0 0 0 0 0 0 0 0 0 0 127 0" result="hardAlpha"/>
<feOffset dy="4"/>
<feGaussianBlur stdDeviation="1"/>
<feComposite in2="hardAlpha" operator="out"/>
<feColorMatrix type="matrix" values="0 0 0 0 0 0 0 0 0 0 0 0 0 0 0 0 0 0 0.5 0"/>
<feBlend mode="normal" in2="BackgroundImageFix" result="effect1_dropShadow_6_10"/>
<feBlend mode="normal" in="SourceGraphic" in2="effect1_dropShadow_6_10" result="shape"/>
</filter>
<filter id="filter2_d_6_10" x="68.4434" y="32.1367" width="90.6348" height="28.9707" filterUnits="userSpaceOnUse" color-interpolation-filters="sRGB">
<feFlood flood-opacity="0" result="BackgroundImageFix"/>
<feColorMatrix in="SourceAlpha" type="matrix" values="0 0 0 0 0 0 0 0 0 0 0 0 0 0 0 0 0 0 127 0" result="hardAlpha"/>
<feOffset dy="4"/>
<feGaussianBlur stdDeviation="2"/>
<feComposite in2="hardAlpha" operator="out"/>
<feColorMatrix type="matrix" values="0 0 0 0 0 0 0 0 0 0 0 0 0 0 0 0 0 0 0.25 0"/>
<feBlend mode="normal" in2="BackgroundImageFix" result="effect1_dropShadow_6_10"/>
<feBlend mode="normal" in="SourceGraphic" in2="effect1_dropShadow_6_10" result="shape"/>
</filter>
<filter id="filter3_d_6_10" x="5.26257" y="31.887" width="66.3324" height="81.6434" filterUnits="userSpaceOnUse" color-interpolation-filters="sRGB">
<feFlood flood-opacity="0" result="BackgroundImageFix"/>
<feColorMatrix in="SourceAlpha" type="matrix" values="0 0 0 0 0 0 0 0 0 0 0 0 0 0 0 0 0 0 127 0" result="hardAlpha"/>
<feOffset dy="4"/>
<feGaussianBlur stdDeviation="1"/>
<feComposite in2="hardAlpha" operator="out"/>
<feColorMatrix type="matrix" values="0 0 0 0 0 0 0 0 0 0 0 0 0 0 0 0 0 0 0.5 0"/>
<feBlend mode="normal" in2="BackgroundImageFix" result="effect1_dropShadow_6_10"/>
<feBlend mode="normal" in="SourceGraphic" in2="effect1_dropShadow_6_10" result="shape"/>
</filter>
</defs>
</svg>
