<svg width="245" height="114" viewBox="0 0 245 114" fill="none" xmlns="http://www.w3.org/2000/svg">
<g filter="url(#filter0_d_6_10)">
<path d="M83.6947 41.1145L90.0358 59.7196L84.9586 61.45L79.9183 46.6613L73.1714 48.9608L78.2117 63.7495L73.1345 65.4799L66.7934 46.8748L83.6947 41.1145Z" fill="black"/>
</g>
<g filter="url(#filter1_d_6_10)">
<path d="M100.945 35.2774C103.106 34.8216 105.034 35.2978 106.729 36.7061C108.419 38.091 109.609 40.4155 110.298 43.6796C110.758 45.8635 110.83 47.7738 110.513 49.4105C110.192 51.0237 109.558 52.3225 108.613 53.3068C107.668 54.2912 106.467 54.937 105.011 55.2442C104.095 55.4374 103.272 55.4885 102.542 55.3973C101.835 55.3012 101.207 55.1149 100.658 54.8383C100.109 54.5616 99.6136 54.2491 99.1721 53.9008L98.8903 53.9602C99.0784 54.3866 99.2479 54.8414 99.399 55.3246C99.545 55.7844 99.6676 56.2491 99.7667 56.7187L101.402 64.4681L96.1534 65.5755L90.3115 37.8892L94.5736 36.9898L95.8411 39.3347L96.0876 39.2826C96.3309 38.6917 96.6545 38.1328 97.0584 37.6061C97.4574 37.0559 97.9701 36.5797 98.5966 36.1777C99.2466 35.7708 100.03 35.4707 100.945 35.2774ZM100.139 39.8259C99.2232 40.0191 98.5349 40.3606 98.0741 40.8503C97.6133 41.34 97.3354 41.9996 97.2406 42.829C97.1644 43.63 97.2359 44.6083 97.4552 45.7639L97.5741 46.3275C97.8367 47.5721 98.1771 48.6041 98.5953 49.4234C99.0085 50.2192 99.544 50.7808 100.202 51.108C100.859 51.4353 101.67 51.4973 102.633 51.2942C103.431 51.1257 104.041 50.7639 104.464 50.2087C104.886 49.6535 105.135 48.9142 105.21 47.9909C105.285 47.0675 105.191 45.9835 104.929 44.7389C104.532 42.8603 103.941 41.5132 103.156 40.6978C102.389 39.8539 101.384 39.5633 100.139 39.8259Z" fill="black"/>
</g>
<g filter="url(#filter2_d_6_10)">
<path d="M132.774 39.8659C132.958 41.4875 132.895 42.9559 132.585 44.2712C132.299 45.5838 131.789 46.7285 131.054 47.7055C130.341 48.656 129.425 49.424 128.308 50.0095C127.188 50.5713 125.889 50.936 124.411 51.1036C123.051 51.2577 121.763 51.1864 120.546 50.8896C119.35 50.5663 118.286 50.0227 117.354 49.2589C116.419 48.4711 115.642 47.4724 115.021 46.2625C114.425 45.05 114.035 43.6329 113.851 42.0113C113.605 39.8412 113.78 37.9737 114.375 36.4086C114.968 34.8197 115.935 33.5507 117.277 32.6015C118.618 31.6523 120.267 31.0669 122.222 30.8451C124.059 30.637 125.725 30.8466 127.221 31.474C128.717 32.1014 129.956 33.1204 130.937 34.5308C131.915 35.9174 132.528 37.6958 132.774 39.8659ZM119.288 41.3949C119.434 42.6826 119.688 43.7528 120.051 44.6054C120.434 45.4315 120.95 46.0372 121.597 46.4227C122.242 46.7844 123.041 46.9111 123.995 46.803C124.949 46.6948 125.688 46.3937 126.212 45.8995C126.757 45.3789 127.111 44.6744 127.276 43.7861C127.463 42.8714 127.483 41.7701 127.337 40.4823C127.191 39.1946 126.926 38.1377 126.542 37.3116C126.183 36.4829 125.68 35.8877 125.036 35.526C124.391 35.1644 123.591 35.0376 122.637 35.1458C121.23 35.3053 120.26 35.9104 119.727 36.9611C119.216 37.9853 119.069 39.4632 119.288 41.3949Z" fill="black"/>
</g>
<g filter="url(#filter3_d_6_10)">
<path d="M150.363 28.402L156.264 28.2207L148.782 37.8871L157.552 47.8465L151.471 48.0333L143.14 38.3125L143.446 48.2798L138.085 48.4445L137.481 28.7978L142.843 28.633L143.136 38.1686L150.363 28.402Z" fill="black"/>
</g>
<g filter="url(#filter4_d_6_10)">
<path d="M169.495 27.4261C172.132 27.5456 174.12 28.2124 175.458 29.4262C176.822 30.6172 177.45 32.3875 177.344 34.7371L176.75 47.8276L173.01 47.6581L172.088 44.9495L171.944 44.943C171.361 45.6133 170.759 46.1626 170.139 46.5909C169.543 47.0204 168.857 47.3136 168.081 47.4706C167.328 47.6527 166.4 47.7188 165.298 47.6688C164.147 47.6166 163.114 47.3535 162.198 46.8796C161.308 46.3827 160.619 45.6668 160.133 44.7319C159.648 43.7729 159.438 42.5862 159.502 41.1716C159.596 39.0858 160.397 37.5845 161.904 36.6678C163.412 35.7271 165.631 35.2752 168.561 35.3119L171.982 35.3589L172.021 34.4958C172.068 33.4648 171.826 32.6971 171.297 32.1926C170.791 31.6892 170.059 31.4157 169.1 31.3722C168.141 31.3288 167.199 31.4302 166.275 31.6766C165.352 31.899 164.426 32.1934 163.496 32.5597L161.898 28.8475C162.978 28.3439 164.161 27.9651 165.446 27.711C166.754 27.458 168.104 27.363 169.495 27.4261ZM169.751 38.465C168.023 38.4347 166.81 38.692 166.112 39.237C165.415 39.782 165.045 40.522 165.003 41.457C164.966 42.2722 165.179 42.8705 165.642 43.2518C166.106 43.6092 166.722 43.8053 167.489 43.8401C168.64 43.8923 169.626 43.6006 170.448 42.9652C171.271 42.3058 171.71 41.3527 171.767 40.106L171.84 38.4877L169.751 38.465Z" fill="black"/>
</g>
<g filter="url(#filter5_d_6_10)">
<path d="M199.992 33.8892L193.592 33.1309L191.754 48.6463L186.427 48.0151L188.266 32.4996L181.866 31.7413L182.341 27.7373L200.466 29.8852L199.992 33.8892Z" fill="black"/>
</g>
<g filter="url(#filter6_d_6_10)">
<path d="M184.831 52.8578C184.896 53.3393 185.301 55.0398 185.738 56.6349C186.224 58.3354 186.597 60.1262 186.694 60.999C186.791 62.0072 186.969 62.7597 187.261 63.4369C187.731 64.4752 187.86 65.7242 187.536 66.0252C187.439 66.1155 186.532 66.266 185.544 66.3412L183.73 66.4917L183.341 66.0553C182.337 64.9267 179.777 60.6529 178.854 58.5762L178.611 58.0194L179.243 57.6432C179.599 57.4325 179.89 57.1466 179.89 56.9961C179.89 56.6801 177.866 55.4912 176.391 54.9646C174.399 54.2272 173.686 54.182 165.797 54.1971C156.369 54.2272 150.149 54.5131 135.262 55.6267C126.19 56.2888 124.408 56.4845 122.951 56.8908C122.238 57.1014 120.877 57.3573 119.937 57.4777C118.172 57.7184 117.232 57.9893 114.64 59.0577C113.814 59.4039 112.065 60.0208 110.769 60.4422C107.011 61.6461 105.65 62.3534 102.297 64.8665C99.1216 67.2441 96.4001 70.0281 94.602 72.7519L94.0189 73.6247L91.8806 73.73C90.6981 73.7752 87.7822 73.8956 85.3685 73.9708C80.0714 74.1514 76.864 74.3621 74.5961 74.663C72.555 74.9339 72.4902 74.9489 72.4902 75.2499C72.4902 75.3854 72.2958 75.7917 72.069 76.1679C71.0971 77.7028 71.4211 81.8713 72.8952 86.5965C73.3002 87.8606 73.3002 88.1164 72.9114 88.1164C72.798 88.1164 72.5874 88.2368 72.4254 88.3873C72.1986 88.6431 72.1824 88.8086 72.3444 89.862C72.5064 90.9455 73.2678 94.4518 73.3488 94.5421C73.3812 94.5571 73.9319 94.6474 74.5961 94.7528C75.4385 94.8732 77.6901 94.9033 81.8857 94.8581L87.9604 94.7829L88.4626 96.1523C88.738 96.9047 89.1429 97.913 89.3859 98.3945L89.8233 99.2824L88.819 99.1921C88.252 99.1469 85.4333 99.0717 82.5499 99.0115L77.3014 98.9212L77.4148 99.4028L77.512 99.8994L75.5357 99.794C71.8585 99.6134 58.6886 99.5382 52.4033 99.6586C46.3448 99.779 46.1666 99.794 46.118 100.08C46.0208 100.592 45.8265 100.637 45.0165 100.381C43.9635 100.05 42.5866 100.08 40.4807 100.456C39.2496 100.682 38.2615 100.757 37.2571 100.727L35.7992 100.682L35.7506 101.464C35.6858 102.427 35.7506 102.443 37.5325 101.901C38.6664 101.555 38.9418 101.525 41.6795 101.57C43.7854 101.6 44.6763 101.66 44.8545 101.811C45.0651 101.961 46.2476 101.991 50.265 101.976C53.0837 101.961 55.6755 101.916 55.9995 101.856C56.4045 101.795 56.7123 101.841 56.8905 101.976C57.0848 102.142 57.6356 102.172 59.1259 102.142L61.086 102.096L61.491 102.668C61.9932 103.391 62.2848 103.436 62.9813 102.879C63.6455 102.337 64.1153 102.292 65.3626 102.698C66.1078 102.924 66.6261 102.969 68.6834 102.924C70.5949 102.879 71.1457 102.819 71.2915 102.653C71.4373 102.458 71.9881 102.443 75.3413 102.563C77.4634 102.638 81.1082 102.713 83.4246 102.713H87.6364L87.928 103.195L88.2196 103.661L91.0058 103.586L93.7921 103.511V104.053C93.7921 104.579 93.8083 104.594 94.4401 104.64C94.7964 104.67 96.9833 104.579 99.2998 104.444C102.864 104.218 105.585 104.203 106.719 104.414C106.832 104.429 106.93 104.263 106.962 104.023C107.027 103.511 107.318 103.496 109.133 103.932C109.894 104.113 110.704 104.218 111.06 104.173C111.563 104.113 111.692 104.158 111.87 104.459L112.065 104.82H120.602C132.654 104.82 138.388 104.685 138.696 104.399C138.89 104.218 139.279 104.173 140.737 104.233C141.742 104.263 143.621 104.294 144.933 104.294H147.314L147.363 104.82C147.411 105.437 147.46 105.437 149.76 105.151C151.412 104.941 155.786 104.926 158.994 105.121C162.768 105.362 167.207 105.317 168.972 105.046C170.139 104.85 170.689 104.835 171.273 104.956C173.702 105.437 176.845 105.287 179 104.579C179.874 104.294 180.474 104.203 181.656 104.203C182.482 104.203 183.373 104.278 183.616 104.369C183.892 104.474 184.507 104.519 185.188 104.459C185.787 104.414 188.006 104.324 190.096 104.233C192.186 104.158 194.956 104.038 196.252 103.977C198.05 103.902 199.103 103.932 200.739 104.128C202.845 104.384 202.909 104.384 204.157 104.083C205.631 103.722 208.628 103.541 216.743 103.3C219.773 103.21 222.915 103.09 223.709 103.014C224.519 102.939 226.301 102.804 227.678 102.713C229.055 102.623 230.999 102.473 232.003 102.382C234.044 102.187 237.819 102.307 240.459 102.623C242.241 102.849 242.776 102.774 242.97 102.307C243.148 101.871 242.516 101.51 241.577 101.51C241.139 101.51 240.653 101.449 240.491 101.374C240.297 101.269 239.973 101.299 239.487 101.464C238.677 101.72 237.138 101.66 236.344 101.344L235.858 101.148L236.344 101.088C236.976 101.013 237.235 100.802 237.235 100.366C237.235 99.8392 236.717 99.6586 235.47 99.7639C234.725 99.8241 234.206 99.794 233.753 99.6285C233.088 99.4178 228.634 99.2974 228.099 99.493C227.597 99.6736 227.84 99.8542 228.569 99.8542C228.974 99.8542 229.298 99.9144 229.298 100.005C229.298 100.17 228.455 100.2 227.889 100.065C227.71 100.02 227.516 99.8542 227.467 99.6887C227.386 99.4178 227.208 99.4028 225.086 99.4028H222.802L223.11 98.9814C223.288 98.7557 223.725 98.0333 224.082 97.3712C224.438 96.7091 224.859 96.062 225.021 95.9266C225.232 95.746 225.783 95.6557 226.868 95.5955C227.71 95.5353 229.395 95.3246 230.594 95.0989C232.197 94.813 233.623 94.6775 235.939 94.5872C238.807 94.4819 239.892 94.3465 240.41 94.0154C240.589 93.9101 240.718 93.3834 240.896 91.9086C240.994 91.2314 241.075 91.0809 241.48 90.8853C242.322 90.479 242.435 89.561 241.658 89.3805C241.301 89.2902 240.022 89.3955 239.26 89.561C239.001 89.6212 238.888 89.5309 238.726 89.1246C238.467 88.4474 237.835 88.1615 236.069 87.9358L234.725 87.7402L235.745 87.6499C236.847 87.5445 237.333 87.3038 236.911 87.063C236.782 86.9877 235.875 86.9125 234.887 86.8975L233.105 86.8674L234.433 86.7169L235.745 86.5664L235.923 85.9193C236.02 85.5581 236.085 85.1819 236.069 85.0766C236.037 84.9712 236.328 84.8208 236.749 84.7305C237.284 84.595 237.495 84.4746 237.527 84.2489C237.608 83.7373 236.652 83.5266 234.433 83.5567C231.469 83.5868 231.501 83.5717 231.161 84.7305C231.015 85.2572 230.918 86.0246 230.95 86.446L230.999 87.1834L229.427 87.2887L227.84 87.3941V87.9659C227.84 88.5377 227.84 88.5377 228.65 88.6431C229.525 88.7484 230.691 88.628 230.853 88.4023C230.902 88.3271 231.096 88.3421 231.29 88.4474C231.517 88.5829 232.359 88.6431 233.704 88.6431C234.951 88.6431 235.826 88.7033 235.939 88.8086C236.247 89.0945 218.639 89.7416 206.878 89.8771L198.001 89.9673L198.374 89.3052C198.633 88.8387 198.762 88.297 198.811 87.4392C198.876 86.1902 198.633 84.58 198.325 84.4145C197.969 84.2038 197.791 84.7305 197.71 86.3256C197.645 87.5596 197.564 88.011 197.386 88.1164C196.802 88.4625 195.83 88.5979 193.239 88.6732L190.469 88.7635L190.371 88.4023C190.274 88.0712 190.258 88.0712 189.966 88.312C189.545 88.6732 188.654 88.8989 188.12 88.7785C187.731 88.7033 187.682 88.6431 187.763 88.3271C187.844 88.011 187.812 87.9659 187.455 87.9659C187.196 87.9659 186.953 87.8154 186.775 87.5746C186.516 87.1984 186.467 87.1834 185.463 87.2887C183.989 87.4242 177.12 87.2135 177.25 87.0178C177.315 86.9276 178.562 86.8975 180.684 86.9426C182.515 86.9877 184.556 86.9576 185.22 86.8975C186.597 86.747 188.087 86.3407 187.877 86.145C187.812 86.0848 187.277 86.0096 186.694 85.9795L185.641 85.9344L186.451 85.7538C186.905 85.6635 187.601 85.528 188.039 85.4829L188.8 85.3926V84.7455C188.8 84.1285 188.816 84.1135 189.254 84.1737C189.788 84.2339 190.258 83.8426 189.966 83.5717C189.756 83.3761 187.909 83.3912 186.451 83.6018C185.868 83.6921 183.47 83.7373 181.073 83.7222C178.157 83.7072 176.489 83.7523 176.003 83.8727C175.322 84.0382 175.258 84.0232 175.031 83.7222C174.124 82.4882 173.216 81.9014 171.921 81.7208C171.321 81.6305 171.143 81.5552 171.111 81.2994C171.078 81.0436 170.9 80.9533 170.333 80.848C169.604 80.7276 163.335 80.8179 161.472 80.9984C160.5 81.0737 160.484 81.0887 160.371 81.5853C160.209 82.398 159.642 82.9096 158.864 82.9096C158.07 82.9247 157.924 83.0751 156.596 85.3324L155.624 86.9877L148.772 87.1382L141.92 87.2887L141.709 87.6649C141.434 88.1766 141.709 88.4174 142.568 88.4174C143.199 88.4174 143.264 88.4474 143.313 88.8237C143.361 89.1848 143.459 89.2601 144.009 89.3504C144.366 89.4106 145.467 89.4557 146.472 89.4557C147.46 89.4707 148.383 89.5159 148.529 89.561C149.096 89.7567 148.626 91.4271 147.8 92.1343C147.589 92.3149 147.039 92.6159 146.601 92.8115C145.824 93.1426 145.581 93.1576 140.705 93.2329C137.384 93.278 135.602 93.263 135.57 93.1576C135.44 92.7212 135.003 82.9397 135.051 81.1941L135.1 79.1625L136.477 79.1324C137.238 79.1023 140.267 78.9819 143.199 78.8616C146.148 78.7412 149.792 78.6358 151.299 78.6358C159.075 78.6208 161.213 78.1091 162.379 75.9572C162.638 75.4606 163.043 74.8587 163.286 74.6028C163.756 74.0761 163.351 74.1213 170.738 73.73C175.808 73.4742 182.142 73.0077 185.123 72.6917C187.601 72.4208 187.779 72.4208 187.569 72.6164C187.488 72.6917 186.613 72.9024 185.641 73.0679C184.653 73.2485 182.774 73.6247 181.446 73.9257L179.048 74.4524L179.129 74.8737C179.21 75.2349 179.162 75.2951 178.643 75.4155C177.817 75.6111 177.59 76.0023 178.092 76.3936C178.449 76.6645 178.724 76.6795 181.948 76.6645C183.859 76.6645 185.447 76.6795 185.495 76.7096C185.576 76.7999 180.976 77.1159 180.133 77.0858C179.631 77.0557 179.486 77.1159 179.437 77.3417C179.372 77.6125 179.469 77.6276 180.927 77.5523C182.563 77.4771 183.292 77.5373 183.292 77.748C183.292 77.8232 182.272 77.8834 181.008 77.8834C178.983 77.8834 178.627 77.9286 177.93 78.2145C177.201 78.5305 176.796 78.9819 177.039 79.1926C177.088 79.2528 179.178 79.313 181.672 79.3582C186.143 79.4334 186.208 79.4184 186.208 79.1174C186.208 78.9218 186.062 78.7863 185.771 78.696C185.333 78.5907 185.333 78.5907 185.965 78.4703C186.322 78.4101 187.261 78.3499 188.039 78.3499L189.464 78.3349L189.416 79.1926L189.367 80.0654L189.902 80.0504C190.501 80.0203 190.485 79.9902 190.226 80.7727C190.064 81.2693 190.08 81.3897 190.274 81.5101C190.89 81.8713 191.181 81.48 191.392 80.1106C191.473 79.5989 191.602 79.1475 191.667 79.0873C191.732 79.012 192.169 79.0421 192.623 79.1324C194.194 79.4334 194.664 79.1023 195.442 77.1611C196.057 75.6261 196.187 74.663 195.944 73.2786C195.847 72.7067 195.814 72.2252 195.863 72.18C195.895 72.1349 196.252 72.3907 196.624 72.7368C197.143 73.2184 197.45 73.3689 197.839 73.3689C198.309 73.3689 198.357 73.3237 198.357 72.9174C198.357 72.6616 198.438 72.466 198.536 72.466C198.843 72.466 198.552 75.3252 198.017 77.5824C197.758 78.696 197.499 80.0654 197.434 80.6072C197.353 81.48 197.386 81.6154 197.645 81.7208C198.131 81.9164 206.02 81.9315 214.022 81.7659C220.777 81.6154 223.142 81.6606 223.142 81.9164C223.142 81.9766 221.879 82.0368 220.324 82.0368C218.752 82.0518 217.375 82.1271 217.213 82.2174C216.954 82.3528 216.986 82.398 217.505 82.6237C218.007 82.8494 218.331 82.8645 220.032 82.7591C221.101 82.6839 222.138 82.6538 222.332 82.6989C222.672 82.7742 222.672 82.7892 222.381 83.0149C222.219 83.1504 221.474 83.5416 220.728 83.8727C219.384 84.4596 219.352 84.4596 219.109 84.1737C218.882 83.9329 218.671 83.8878 217.634 83.9329C216.468 83.978 216.42 83.9931 216.371 84.3693C216.322 84.7756 216.387 84.7606 214.719 84.7907C214.492 84.8057 213.666 84.4897 212.872 84.1135C211.835 83.6169 211.236 83.4213 210.685 83.4062C209.956 83.3761 209.94 83.3912 209.891 83.8577C209.843 84.3242 209.794 84.3543 209.211 84.3543C208.612 84.3543 208.579 84.3844 208.336 85.0615C207.899 86.2504 207.883 86.2353 209.486 86.1902C211.301 86.1149 212.402 86.3407 213.115 86.9276L213.666 87.364L213.309 87.6047C212.84 87.9057 212.84 88.4023 213.277 88.929C213.649 89.3654 214.362 89.4557 214.476 89.0945C214.719 88.3722 214.719 88.3722 214.945 88.5678C215.14 88.7033 215.221 88.6732 215.367 88.4174L215.545 88.1013L215.82 88.4174C215.982 88.613 216.371 88.7635 216.76 88.8237C217.877 88.9591 218.59 88.3572 217.748 88.011C217.391 87.8606 217.359 87.7251 217.262 86.3708C217.181 85.1819 217.197 84.8509 217.391 84.6703C217.586 84.4897 217.699 84.4897 218.056 84.6402L218.493 84.8208L218.38 86.2805C218.299 87.4242 218.315 87.8154 218.493 88.0261C218.72 88.312 218.785 88.2669 220 87.3489C221.101 86.5212 221.393 86.3858 222.089 86.3106C222.834 86.2353 222.899 86.2052 222.996 85.7538C223.045 85.4979 223.401 84.9562 223.774 84.5649C224.146 84.1737 224.422 83.7824 224.389 83.6921C224.357 83.6018 224.098 83.3912 223.823 83.2256C223.547 83.0601 223.32 82.8795 223.304 82.8344C223.304 82.714 233.898 82.8043 236.717 82.9397C237.705 82.9848 238.531 83.0902 238.531 83.1654C238.531 83.2256 238.386 83.4213 238.207 83.5717C237.705 83.9931 237.495 86.9276 237.883 87.8756C238.045 88.297 238.078 88.297 238.337 88.0562C238.564 87.8606 238.629 87.4693 238.661 86.1149L238.71 84.4295L239.519 83.7373C240.297 83.0601 240.491 82.5785 240.184 82.1572C240.119 82.0669 239.6 81.9164 239.017 81.8111C238.45 81.7057 237.705 81.495 237.381 81.3295C236.668 80.9984 235.891 80.1858 236.004 79.8999C236.28 79.2227 237.268 75.4757 237.495 74.2116C237.77 72.7067 237.754 69.5917 237.478 68.9597C237.3 68.5533 236.069 68.1019 234.741 67.9514C233.898 67.8611 232.894 67.8912 230.853 68.1169C229.33 68.2674 227.208 68.4029 226.155 68.4029C225.086 68.4029 223.612 68.5082 222.851 68.6436C221.96 68.7941 221.182 68.8393 220.648 68.7791C220.194 68.7189 218.752 68.6888 217.424 68.7038C215.221 68.7339 214.962 68.7038 213.941 68.3427C212.71 67.9063 207.785 67.1388 204.756 66.9131C203.687 66.8228 200.48 66.6572 197.629 66.5218C194.777 66.3864 191.781 66.2509 190.954 66.2058L189.48 66.1155L188.735 64.5805C187.488 61.9922 187.455 61.8718 187.423 59.8252C187.391 58.1247 187.326 57.7786 186.807 56.2888C186.5 55.3709 186.16 54.167 186.062 53.5951C185.884 52.5117 185.56 52 185.042 52C184.75 52 184.734 52.0752 184.831 52.8578ZM170.949 55.5514C171.256 55.8825 171.418 55.9277 171.823 55.8524C172.342 55.7621 175.015 56.033 175.225 56.1985C175.29 56.2437 171.499 56.2888 166.802 56.2888C154.814 56.2888 145.062 56.6951 143.734 57.2369C142.082 57.9141 140.948 60.0509 139.636 65.0019C138.923 67.6655 138.89 68.6737 139.522 69.3208C140.122 69.9529 141.223 70.2087 142.713 70.0582C143.345 69.9829 145.192 69.8626 146.844 69.7723C148.497 69.6669 154.62 69.2004 160.452 68.7038C171.013 67.816 172.666 67.7106 181.591 67.2742C187.277 67.0033 194.729 67.1237 193.579 67.4849C193.206 67.5902 191.489 67.7257 189.448 67.8009C187.536 67.8611 185.706 67.9664 185.398 68.0116C183.713 68.2825 166.283 69.4562 152.757 70.2087C137.951 71.0363 134.047 71.2621 133.156 71.3524C131.86 71.4728 132.071 71.3373 133.642 71.0363C134.355 70.9009 135.229 70.6451 135.586 70.4645C136.169 70.1635 136.282 70.013 136.671 68.9296C137.271 67.2742 139.101 61.5407 139.555 59.9306C139.911 58.6665 139.911 58.6063 139.636 58.3204C138.907 57.5679 136.801 57.4024 132.913 57.7937C130.775 58.0043 124.408 58.8471 121.493 59.3136C115.499 60.2616 108.663 62.3835 105.423 64.3247C103.609 65.3932 99.883 69.0198 99.397 70.1786C98.9596 71.2019 98.9434 72.3004 99.3808 72.7218C99.64 72.9926 99.6562 73.0528 99.4456 73.1281C99.0892 73.2635 95.655 73.4291 95.655 73.3237C95.655 73.2635 95.979 72.8271 96.3516 72.3606C96.7403 71.8791 97.3559 71.0815 97.7123 70.5849C98.7004 69.2305 102.313 65.9199 104.079 64.7611C107.383 62.5941 113.539 60.066 119.079 58.6213C120.99 58.1247 124.295 57.6432 129.997 57.0563C140.932 55.9126 165.797 54.7087 165.797 55.3107C165.797 55.401 165.619 55.4311 165.376 55.3709C165.052 55.2956 164.971 55.3257 165.02 55.4762C165.149 55.8223 165.635 55.8223 166.137 55.4762C166.785 55.0247 167.855 55.0398 168.081 55.4912C168.227 55.8073 168.34 55.8374 169.134 55.7922C170.106 55.732 170.301 55.3859 169.361 55.3859C169.037 55.3859 168.794 55.2956 168.745 55.1752C168.681 55.0097 168.843 54.9796 169.62 55.0548C170.382 55.1301 170.657 55.2204 170.949 55.5514ZM173.362 58.0645C173.913 58.0796 174.302 58.1548 174.237 58.215C174.156 58.2903 173.816 58.3505 173.459 58.3505C173.119 58.3354 172.698 58.3806 172.536 58.4257C172.228 58.5009 172.228 58.516 172.52 58.7116C172.682 58.832 173.054 58.9223 173.314 58.9223C173.702 58.9223 173.751 58.9674 173.573 59.0728C173.443 59.148 172.99 59.2233 172.568 59.2233C172.018 59.2233 171.791 59.2835 171.791 59.434C171.791 59.75 172.244 59.8553 173.168 59.75C174.237 59.6145 174.35 59.5393 174.626 58.832L174.836 58.2602L175.824 58.2752C177.104 58.2752 177.444 58.5611 178.303 60.2616C178.643 60.9539 179.437 62.2029 180.052 63.0606C181.089 64.4752 181.996 66.0101 181.996 66.3713C181.996 66.582 175.873 66.3713 173.492 66.0703C172.423 65.9349 170.851 65.6941 170.009 65.5286C169.167 65.3631 168.033 65.1674 167.498 65.0771C166.964 65.0019 166.024 64.7912 165.392 64.6257C163.983 64.2344 163.27 64.2946 161.423 65.0019C160.662 65.2878 159.544 65.6038 158.929 65.6941C158.313 65.7844 155.883 66.3412 153.502 66.9281C151.137 67.515 148.399 68.1922 147.411 68.433C145.467 68.8995 142.908 69.1252 141.985 68.8995C141.207 68.7038 140.964 67.9213 141.077 66.0703C141.223 63.6325 142.422 60.3519 143.523 59.3286C144.803 58.1548 149.29 57.8539 163.61 57.9743C168.421 58.0043 172.811 58.0495 173.362 58.0645ZM134.938 59.9607C135.035 60.1111 133.091 61.2398 132.962 61.1194C132.913 61.0893 133.043 60.984 133.221 60.8786C133.415 60.7883 133.561 60.5927 133.561 60.4422C133.561 60.2616 133.755 60.1262 134.177 60.0209C134.501 59.9306 134.792 59.8553 134.808 59.8403C134.824 59.8403 134.873 59.8854 134.938 59.9607ZM137.011 59.9155C137.06 59.9757 136.218 60.6077 135.148 61.3602C133.043 62.7898 130.337 64.4 130.208 64.2946C130.094 64.1742 132.346 62.5189 134.501 61.1495C136.509 59.8704 136.801 59.7199 137.011 59.9155ZM131.617 60.0359C131.617 60.081 131.18 60.4121 130.645 60.7883C130.111 61.1645 129.673 61.4354 129.673 61.3752C129.673 61.1946 131.163 59.9757 131.39 59.9757C131.52 59.9757 131.617 60.0058 131.617 60.0359ZM133.399 60.0509C133.399 60.081 133.172 60.2315 132.913 60.3519C132.638 60.4873 131.682 61.1194 130.759 61.7514C129.009 63.0004 128.701 63.1961 128.701 63.0907C128.701 62.9704 130.872 61.3903 132.022 60.6679C133.059 60.0208 133.399 59.8704 133.399 60.0509ZM129.673 60.5024C129.56 60.6228 129.349 60.7281 129.203 60.7281C129.009 60.7131 129.025 60.6529 129.333 60.4121C129.754 60.081 129.997 60.1412 129.673 60.5024ZM125.461 60.5475C125.461 60.6679 122.837 62.4437 122.222 62.7597C121.719 63.0155 122.335 62.5339 123.841 61.4956C125.542 60.3369 125.461 60.382 125.461 60.5475ZM123.744 60.8485C123.647 60.9087 123.323 61.1344 123.015 61.3602C122.708 61.5859 122.238 61.8417 121.979 61.932L121.493 62.0975L121.979 61.616C122.448 61.1495 123.679 60.5174 123.825 60.6679C123.874 60.7131 123.841 60.7883 123.744 60.8485ZM121.979 60.999C121.574 61.315 120.618 61.932 120.521 61.932C120.31 61.932 120.731 61.4505 121.185 61.1645C121.638 60.8937 122.286 60.7432 121.979 60.999ZM125.721 64.2194C123.939 69.1101 123.777 70.3291 124.878 71.2019C125.607 71.7888 125.478 71.864 123.647 71.864H122.351L122.756 71.2169C123.372 70.2237 123.906 68.8393 124.797 65.965C125.802 62.7296 126.482 60.9689 126.563 61.4354C126.595 61.631 126.207 62.8801 125.721 64.2194ZM118.366 61.7966C118.075 62.0524 117.783 62.2179 117.734 62.1728C117.589 62.0373 118.35 61.3301 118.642 61.3301C118.82 61.3301 118.723 61.4805 118.366 61.7966ZM137.708 62.0373C137.465 62.233 136.93 62.5038 136.509 62.6092C136.088 62.7296 135.165 63.2412 134.468 63.7378C132.929 64.8213 132.508 64.9417 133.788 63.9184C135.764 62.3835 139.279 60.683 137.708 62.0373ZM129.025 62.0073C128.912 62.1427 128.782 62.2029 128.717 62.1577C128.669 62.1126 128.734 62.0072 128.863 61.932C129.203 61.7213 129.252 61.7514 129.025 62.0073ZM124.101 62.6242C123.922 62.7296 123.744 62.7898 123.696 62.7446C123.647 62.6995 123.744 62.564 123.906 62.4437C124.084 62.3383 124.263 62.2781 124.311 62.3233C124.36 62.3684 124.263 62.5038 124.101 62.6242ZM121.088 62.5339C121.088 62.6092 120.845 62.7898 120.569 62.9102L120.035 63.1509L120.521 62.7747C121.071 62.3383 121.088 62.3233 121.088 62.5339ZM112.891 63.0456C112.777 63.3165 112.113 63.7378 111.822 63.7378C111.708 63.7228 111.87 63.5271 112.178 63.2864C112.777 62.7898 113.02 62.7145 112.891 63.0456ZM124.797 63.2262C124.7 63.3466 124.506 63.4369 124.392 63.4369C124.068 63.4369 124.117 63.0155 124.457 62.9403C124.862 62.865 125.024 62.9854 124.797 63.2262ZM113.474 63.5572C113.474 63.7529 113.28 63.8883 113.118 63.798C112.956 63.7077 113.101 63.4369 113.328 63.4369C113.409 63.4369 113.474 63.497 113.474 63.5572ZM114.77 63.7378C114.77 63.8131 114.446 64.8063 114.057 65.95C112.21 71.2621 112.097 71.7286 112.534 72.1349C112.729 72.3155 112.777 72.3004 111.66 72.5863C110.866 72.782 110.72 72.5713 111.271 72.0295C111.498 71.8038 111.692 71.5028 111.692 71.3674C111.692 71.232 111.822 70.9912 111.984 70.8407C112.13 70.7053 112.453 69.9378 112.696 69.1553C113.15 67.6053 114.252 64.0839 114.365 63.7679C114.446 63.5572 114.77 63.5271 114.77 63.7378ZM137.125 63.8733C137.125 64.0388 136.947 64.7009 136.736 65.348C136.525 65.9951 136.185 67.0635 135.991 67.7257C135.586 69.1252 135.359 69.5164 134.646 69.9077C133.755 70.4194 133.674 70.3441 133.788 69.1553C134.015 67.0786 134.63 65.7694 136.039 64.3699C136.914 63.5271 137.125 63.4218 137.125 63.8733ZM122.513 64.1742C123.437 64.2495 124.214 64.3398 124.246 64.3699C124.457 64.5655 122.546 69.8024 121.898 70.7655C121.606 71.2169 121.493 71.2621 120.812 71.2621C120.375 71.2621 119.273 71.3674 118.334 71.4878C117.394 71.6082 116.098 71.7135 115.434 71.7135H114.235L114.333 70.7655C114.381 70.2538 114.576 69.4262 114.754 68.9296C115.629 66.4165 116.406 64.5655 116.617 64.4602C117.265 64.114 120.018 63.9936 122.513 64.1742ZM112.923 65.0621C112.648 66.7475 111.368 70.0883 110.526 71.4126L109.991 72.2402L106.913 72.2252C103.155 72.2101 102.507 72.0747 102.588 71.247C102.621 70.9611 102.75 70.5096 102.88 70.2388C103.171 69.5766 104.775 67.6053 105.796 66.6572C107.027 65.5286 107.756 65.2577 110.267 65.0019C111.433 64.8966 112.47 64.731 112.567 64.6407C112.891 64.3398 113.02 64.5053 112.923 65.0621ZM129.576 65.5436C130.516 66.1305 131.228 66.9432 131.536 67.7859C131.795 68.4781 131.86 70.013 131.649 70.299C131.487 70.5397 128.021 71.0213 127.34 70.9009C126.66 70.7805 126.271 70.2237 126.271 69.381C126.271 69.08 126.563 68.0116 126.919 66.9883C127.276 65.98 127.567 65.032 127.567 64.8966C127.567 64.6708 127.632 64.6708 128.215 64.8665C128.572 64.9869 129.187 65.2878 129.576 65.5436ZM161.877 66.2359C162.59 66.6873 162.136 67.3194 161.31 67.0334C160.873 66.883 160.662 66.3111 160.954 66.1305C161.278 65.95 161.472 65.965 161.877 66.2359ZM164.177 66.266C164.55 66.4767 164.615 66.582 164.469 66.7174C164.048 67.1087 163.043 66.7927 163.043 66.2961C163.043 65.9048 163.513 65.9048 164.177 66.266ZM166.526 66.597C166.478 66.6723 166.364 66.7475 166.267 66.7475C166.186 66.7475 166.121 66.6723 166.121 66.597C166.121 66.5067 166.235 66.4466 166.38 66.4466C166.51 66.4466 166.575 66.5067 166.526 66.597ZM160.079 66.8228C160.192 67.1237 160.079 67.2291 159.755 67.1087C159.35 66.9733 159.269 66.597 159.658 66.597C159.836 66.597 160.014 66.7024 160.079 66.8228ZM158.734 67.1237C158.783 67.2592 158.718 67.3946 158.556 67.4548C158.281 67.5601 157.827 67.3495 157.73 67.0786C157.633 66.8077 158.621 66.8529 158.734 67.1237ZM156.855 67.4699C156.904 67.6053 156.807 67.6655 156.548 67.6203C156.353 67.6053 156.159 67.4849 156.11 67.3796C156.062 67.2441 156.159 67.1839 156.418 67.2291C156.612 67.2441 156.807 67.3645 156.855 67.4699ZM202.747 67.6504C206.765 68.0266 209.81 68.8092 211.657 69.9679L212.694 70.5999L212.71 71.4728C212.742 72.18 212.84 72.481 213.212 72.9776C213.682 73.6096 215.464 74.8286 215.658 74.663C215.853 74.4674 215.885 72.6164 215.691 72.165C215.415 71.5329 214.378 70.6902 212.807 69.8325C212.078 69.4111 211.479 69.0349 211.479 68.9897C211.479 68.9446 212.37 69.0951 213.471 69.3359C221.571 71.1116 226.771 74.5276 228.909 79.4635C229.217 80.1708 229.46 80.7878 229.46 80.8329C229.46 80.8931 226.933 80.9082 223.855 80.848C217.602 80.7577 217.845 80.8028 217.683 79.7043C217.634 79.3582 217.537 79.0421 217.456 78.997C217.181 78.8465 216.679 79.5387 216.582 80.2009C216.468 80.848 216.436 80.8931 215.95 80.8931C212.791 80.8781 198.617 80.5771 198.536 80.5169C198.471 80.4868 198.617 79.4785 198.892 78.3048C199.313 76.3936 199.378 75.8368 199.394 73.2936C199.41 70.6752 199.378 70.3592 199.054 69.5315C198.843 69.0499 198.455 68.3878 198.195 68.0718L197.693 67.4999H199.378C200.318 67.4999 201.824 67.5752 202.747 67.6504ZM153.81 67.9514C153.81 68.0266 153.615 68.1019 153.389 68.1019C153.162 68.1019 153.016 68.0417 153.081 67.9514C153.13 67.8611 153.324 67.8009 153.502 67.8009C153.664 67.8009 153.81 67.8611 153.81 67.9514ZM194.308 68.6286C194.308 68.6737 194.065 69.1252 193.773 69.6368L193.222 70.5849L193.06 70.1033C192.931 69.7271 192.947 69.5616 193.109 69.4412C193.384 69.2305 193.401 68.749 193.141 68.6587C193.028 68.6135 193.239 68.5684 193.627 68.5684C194 68.5533 194.308 68.5834 194.308 68.6286ZM189.237 70.1936L189.27 71.548L188.589 71.6383C186.143 71.9393 181.024 72.3456 177.185 72.5412C174.707 72.6616 171.402 72.8572 169.847 72.9926C168.292 73.113 162.314 73.4892 156.564 73.8203C150.813 74.1514 143.685 74.5878 140.721 74.7684C137.74 74.949 135.294 75.0693 135.278 75.0242C135.132 74.7985 135.715 72.9626 136.056 72.5562C136.444 72.0747 136.493 72.0596 138.048 71.9693C138.923 71.9092 141.061 71.7587 142.794 71.6383C146.52 71.3825 153.551 70.9912 165.473 70.3592C177.833 69.7121 184.005 69.3208 185.398 69.08C186.062 68.9747 187.196 68.8844 187.909 68.8694L189.205 68.8543L189.237 70.1936ZM233.785 69.08C233.817 69.1703 233.672 69.3208 233.493 69.4412C233.186 69.6067 233.121 69.6067 233.007 69.4111C232.894 69.2456 232.7 69.2305 232.019 69.3208C231.55 69.3961 229.849 69.5164 228.245 69.6067C226.641 69.682 224.373 69.8626 223.191 69.998C221.393 70.2237 220.907 70.2237 220.145 70.0732C219.659 69.9679 219.287 69.8325 219.319 69.7723C219.368 69.7121 219.789 69.6519 220.259 69.6218C224.13 69.4713 232.602 69.0048 232.667 68.9296C232.829 68.7941 233.72 68.9145 233.785 69.08ZM227.727 70.4645C227.338 70.4946 227.03 70.5698 227.03 70.63C227.03 70.6902 226.366 70.7504 225.572 70.7504C224.762 70.7655 224.114 70.7203 224.114 70.6451C224.114 70.4495 224.616 70.3893 226.544 70.4043C227.565 70.4043 228.099 70.4344 227.727 70.4645ZM192.364 70.6601C192.364 70.7354 192.153 70.8106 191.878 70.8106C191.619 70.8106 191.392 70.7354 191.392 70.6601C191.392 70.5698 191.619 70.5096 191.878 70.5096C192.153 70.5096 192.364 70.5698 192.364 70.6601ZM227.143 71.3524C227.095 71.3975 226.949 71.4126 226.836 71.3674C226.706 71.3223 226.755 71.2771 226.933 71.2771C227.111 71.2621 227.208 71.3072 227.143 71.3524ZM225.507 71.6082C224.924 71.7737 224.892 71.8038 225.151 72.0145C225.426 72.2101 225.426 72.2402 225.135 72.4208C224.892 72.6014 224.875 72.6465 225.086 72.7669C225.491 73.0077 225.928 72.9324 226.009 72.6164C226.107 72.2703 226.949 72.0145 228.002 72.0145C228.666 72.0295 228.698 72.0446 228.423 72.2402C228.164 72.4208 228.148 72.496 228.326 72.6917C228.504 72.8873 228.391 72.9174 227.386 72.9174C226.722 72.9174 226.188 72.9926 226.123 73.0829C225.961 73.3388 226.366 73.5043 227.014 73.4291C227.597 73.3689 227.597 73.3689 227.16 73.5494C226.641 73.7601 226.56 74.1213 227.03 74.1213C227.241 74.1213 227.354 74.2266 227.354 74.4072C227.354 74.5727 227.581 74.8436 227.84 75.0242C228.115 75.2048 228.326 75.4756 228.326 75.6412C228.326 75.8368 228.439 75.9271 228.715 75.9271C228.941 75.9271 229.168 75.8519 229.217 75.7766C229.411 75.4907 229.622 75.6261 229.541 75.9722C229.476 76.198 229.525 76.3936 229.687 76.514C229.962 76.7247 230.011 77.1159 229.849 77.7028L229.735 78.0489L229.363 77.7179C229.136 77.5222 228.731 77.0256 228.455 76.6193C227.71 75.5208 226.884 74.5727 226.641 74.5727C226.528 74.5727 226.204 74.2718 225.912 73.8956C225.621 73.5043 225.086 73.0378 224.746 72.8271C224.244 72.5412 224.114 72.3757 224.114 72.0295C224.114 71.7286 224.017 71.563 223.839 71.5179C223.677 71.4727 224.13 71.4427 224.843 71.4427C226.09 71.4427 226.107 71.4426 225.507 71.6082ZM194.211 72.1048C194.13 72.3757 194.211 72.5863 194.486 72.8572C194.794 73.1582 194.81 73.2184 194.567 73.2184C194.421 73.2184 194.259 73.113 194.211 72.9926C194.081 72.6917 193.708 72.7067 193.514 73.0227C193.271 73.4441 193.158 73.1582 193.352 72.6014C193.595 71.9693 193.789 71.7135 194.081 71.7135C194.243 71.7135 194.292 71.8189 194.211 72.1048ZM134.905 72.782C134.63 73.1732 134.42 73.6999 134.371 74.1664C134.29 74.8587 134.241 74.9339 133.804 75.0543C133.545 75.1295 131.601 75.28 129.495 75.4004C127.389 75.5057 125.461 75.6562 125.202 75.7164C124.441 75.882 124.846 75.6412 125.802 75.3553C126.725 75.0844 127.227 74.5426 127.017 74.046C126.936 73.8203 126.774 73.7902 125.947 73.8655C125.024 73.9407 124.959 73.9257 124.635 73.5043C124.23 72.9776 123.679 72.9325 122.87 73.3839C122.092 73.8354 121.898 74.1062 122.076 74.5426C122.367 75.2349 122.254 75.581 121.719 75.7616C121.428 75.8519 120.99 75.9271 120.731 75.9271C120.261 75.9271 120.245 75.9121 120.359 75.28C120.423 74.9339 120.699 74.2417 120.99 73.7451L121.525 72.8422L123.372 72.7218C126.514 72.5261 135.262 72.0747 135.31 72.1048C135.343 72.1198 135.165 72.4208 134.905 72.782ZM192.364 72.9776C192.364 73.098 192.299 73.2485 192.202 73.2936C192.121 73.3388 192.04 73.2485 192.04 73.0829C192.04 72.9024 192.121 72.7669 192.202 72.7669C192.299 72.7669 192.364 72.8572 192.364 72.9776ZM120.035 73.6999C119.824 74.1363 119.565 74.8135 119.468 75.2048C119.29 75.8669 119.241 75.897 118.609 75.9873C117.265 76.1528 111.368 76.529 111.368 76.4538C111.368 76.4388 111.838 76.198 112.421 75.9422C114.122 75.1596 114.252 74.5276 112.745 74.347C112.227 74.2868 111.53 74.1514 111.174 74.031C110.267 73.73 109.7 73.7601 109.181 74.1514C108.792 74.4373 108.744 74.5426 108.825 75.0844C108.873 75.4305 108.971 75.8368 109.019 76.0174C109.181 76.4839 108.711 76.83 107.95 76.83C107.156 76.83 107.14 76.7247 107.95 74.8737L108.549 73.4441L111.465 73.3388C113.053 73.2786 115.24 73.1582 116.309 73.098C117.378 73.0227 118.739 72.9475 119.338 72.9325L120.423 72.9174L120.035 73.6999ZM232.538 73.2184C232.538 73.2936 232.473 73.3689 232.376 73.3689C232.295 73.3689 232.214 73.2936 232.214 73.2184C232.214 73.1281 232.295 73.0679 232.376 73.0679C232.473 73.0679 232.538 73.1281 232.538 73.2184ZM234.384 73.7451C234.53 73.9407 234.789 74.2417 234.984 74.4072C235.178 74.5727 235.275 74.7684 235.227 74.8436C235 75.1897 235.081 76.6946 235.34 76.9504C235.583 77.1912 235.583 77.3116 235.356 78.1844C235.227 78.7261 235.097 79.6742 235.081 80.2912L235.049 81.4198L235.664 81.5552C235.988 81.6305 236.263 81.7509 236.263 81.8261C236.263 81.8863 233.915 81.9465 231.047 81.9465C227.613 81.9465 225.896 81.8863 226.058 81.796C226.188 81.7208 227.224 81.6455 228.358 81.6455C230.837 81.6455 230.804 81.6756 230.335 79.5688C230.27 79.298 230.335 79.2378 230.675 79.2378C232.44 79.2378 233.607 77.5222 233.801 74.6028C233.834 73.9257 233.931 73.3689 233.996 73.3689C234.06 73.3689 234.239 73.5344 234.384 73.7451ZM188.476 74.0009C188.476 74.0611 188.039 74.1213 187.488 74.1213C186.889 74.1213 186.548 74.0611 186.613 73.9708C186.662 73.8805 186.888 73.8203 187.099 73.8203C187.31 73.8203 187.52 73.7601 187.585 73.6698C187.698 73.5043 188.476 73.7902 188.476 74.0009ZM107.302 74.332C107.043 74.7082 106.703 75.4456 106.557 75.9873L106.298 76.9654L105.488 77.131C104.062 77.4169 102.864 78.1392 101.438 79.5538C100.369 80.6222 100.061 80.848 99.8344 80.7276C99.6886 80.6523 98.911 80.4417 98.1335 80.2611C96.8861 79.9601 96.2868 79.915 93.3061 79.93C89.4993 79.93 87.9442 80.1106 85.3361 80.9232C83.0521 81.6305 79.715 83.6319 78.0141 85.3174C77.269 86.0848 77.026 86.13 76.8478 85.5431C76.783 85.3475 76.3132 83.9931 75.8111 82.5484C74.4827 78.7261 73.77 75.6261 74.2397 75.6261C74.5313 75.6261 82.7767 75.1295 91.6862 74.5727C105.488 73.715 105.504 73.715 106.703 73.6849L107.788 73.6698L107.302 74.332ZM123.841 74.2718C123.841 74.4674 123.728 74.5727 123.517 74.5727C123.307 74.5727 123.194 74.4674 123.194 74.2718C123.194 74.0761 123.307 73.9708 123.517 73.9708C123.728 73.9708 123.841 74.0761 123.841 74.2718ZM162.071 74.4373C162.071 74.7383 160.597 76.4839 160.209 76.6494C159.301 77.0407 157.827 77.1611 147.573 77.6577C145.079 77.7781 141.871 77.9135 140.446 77.9586C139.02 78.0038 137.173 78.079 136.363 78.1242L134.857 78.1994V77.3266C134.857 75.7315 134.727 75.8218 137.254 75.7164C142.163 75.4907 146.958 75.1295 147.573 74.9339C148.043 74.7834 149.193 74.7232 151.785 74.7082C153.745 74.7082 156.337 74.6028 157.536 74.4975C160.419 74.2417 162.071 74.2266 162.071 74.4373ZM110.639 74.8135C110.963 75.1145 110.882 75.3854 110.461 75.4456C109.975 75.5057 109.7 75.2499 109.829 74.8888C109.959 74.5125 110.267 74.4824 110.639 74.8135ZM186.127 74.8587C186.03 74.9339 185.09 75.0242 184.021 75.0543C182.239 75.1145 182.142 75.0994 182.887 74.9339C183.843 74.7232 186.354 74.663 186.127 74.8587ZM187.585 75.6111C187.812 75.7014 187.569 75.7616 186.775 75.8368C186.16 75.897 185.252 75.9722 184.799 76.0174C184.248 76.0776 183.94 76.0625 183.94 75.9572C183.94 75.8669 184.361 75.7616 184.88 75.7014C185.382 75.6412 185.884 75.581 185.965 75.5509C186.257 75.4606 187.261 75.4907 187.585 75.6111ZM183.049 75.9271C182.58 76.1077 180.652 76.1077 180.781 75.9271C180.83 75.8368 181.446 75.7766 182.126 75.7917C182.968 75.7917 183.276 75.8368 183.049 75.9271ZM133.885 77.1159V78.2897L130.208 78.3951C128.167 78.4402 125.04 78.5305 123.226 78.5756L119.937 78.681L119.986 77.7179L120.035 76.7548L120.926 76.6494C121.412 76.5892 124.376 76.4087 127.486 76.2582C130.613 76.0926 133.318 75.9572 133.529 75.9422C133.869 75.9271 133.885 75.9722 133.885 77.1159ZM180.052 75.9873C180.052 76.1077 179.226 76.1829 179.145 76.0625C179.097 75.9873 179.291 75.9271 179.55 75.9271C179.826 75.9271 180.052 75.9572 180.052 75.9873ZM187.472 76.6043C187.423 76.6494 187.099 76.7247 186.759 76.7849C186.322 76.8451 186.176 76.815 186.289 76.7096C186.386 76.6193 186.678 76.529 186.937 76.4989C187.455 76.4388 187.617 76.4839 187.472 76.6043ZM119.225 77.763C119.16 78.2897 119.095 78.7261 119.063 78.7562C119.047 78.7713 117.394 78.8616 115.402 78.9518C113.409 79.0271 110.753 79.1926 109.505 79.298C108.258 79.4033 107.189 79.4635 107.124 79.4334C106.913 79.3281 106.978 78.1392 107.205 77.7329L107.416 77.3567L111.854 77.1159C114.3 76.9805 116.989 76.8601 117.815 76.8601L119.338 76.83L119.225 77.763ZM73.203 77.6727C73.3812 78.1091 73.3002 78.3349 72.9762 78.3349C72.6198 78.3349 72.6036 78.2897 72.7494 77.763C72.8628 77.3718 73.0572 77.3266 73.203 77.6727ZM185.803 77.5674C185.706 77.7329 185.074 77.7179 185.074 77.5523C185.074 77.4921 185.269 77.432 185.495 77.432C185.722 77.432 185.868 77.4921 185.803 77.5674ZM106.184 78.7713V79.6441L105.455 79.915C104.484 80.2611 103.917 80.7125 103.171 81.7659C102.847 82.2324 102.556 82.6387 102.523 82.6688C102.459 82.7591 100.839 82.0669 100.839 81.9465C100.839 81.8863 101.13 81.4198 101.503 80.9082C102.491 79.5237 103.981 78.4252 105.374 78.0188C106.152 77.8082 106.184 77.8383 106.184 78.7713ZM190.598 79.1926C190.436 79.4485 190.436 79.4485 190.42 79.1625C190.42 78.997 190.485 78.696 190.55 78.4853L190.663 78.1091L190.712 78.5154C190.744 78.7412 190.695 79.0421 190.598 79.1926ZM183.179 78.4853C184.07 78.4853 184.766 78.5154 184.718 78.5606C184.685 78.6057 183.843 78.6659 182.839 78.696C181.429 78.7412 180.976 78.7111 180.749 78.5305C180.49 78.3349 180.506 78.3198 181.008 78.3951C181.3 78.4402 182.288 78.4853 183.179 78.4853ZM179.21 78.5907C179.048 78.6208 178.789 78.6208 178.643 78.5907C178.481 78.5455 178.611 78.5154 178.919 78.5154C179.226 78.5154 179.356 78.5455 179.21 78.5907ZM133.853 79.4184C133.95 79.5387 134.015 80.7426 134.031 82.3227C134.047 85.2722 134.29 89.8921 134.533 91.8033C134.63 92.4804 134.63 93.0523 134.549 93.1275C134.468 93.2028 131.601 93.2329 128.118 93.2028C122.724 93.1576 121.736 93.1125 121.233 92.9018L120.634 92.661L120.537 90.9455C120.472 90.0125 120.359 87.4091 120.278 85.1819C120.18 82.9397 120.067 80.8329 120.018 80.5018L119.921 79.8698L121.525 79.7795C122.4 79.7344 125.154 79.614 127.648 79.5237C130.127 79.4485 132.2 79.3431 132.249 79.298C132.411 79.1475 133.691 79.2528 133.853 79.4184ZM73.9967 80.547C74.4341 81.9615 74.4341 82.0217 73.8186 82.0669C73.3488 82.112 73.2678 82.0518 73.0734 81.6154C72.9438 81.3446 72.798 80.8028 72.7332 80.3965L72.6198 79.6892H73.1706C73.7214 79.6892 73.7376 79.7193 73.9967 80.547ZM119.209 82.8043C119.354 86.9125 119.63 92.029 119.727 92.4955C119.824 92.8717 119.792 92.8868 118.787 92.9921C118.237 93.0372 115.531 93.0372 112.81 92.9921L107.837 92.8868L107.74 92.1945C107.626 91.3217 107.367 86.9276 107.221 83.2106L107.124 80.3363L109.44 80.2159C112.891 80.0504 116.633 79.8849 117.945 79.8698L119.111 79.8397L119.209 82.8043ZM95.655 80.7426C96.4973 80.7878 96.9347 80.863 96.6269 80.8781C95.5254 80.9232 90.5037 80.9683 90.5523 80.9232C90.5847 80.8931 90.9572 80.8179 91.3946 80.7426C92.3666 80.5921 93.6625 80.5921 95.655 80.7426ZM106.022 81.0737C106.022 81.2693 106.136 83.045 106.249 85.0314C106.379 87.0178 106.541 89.6062 106.606 90.78L106.719 92.9319H105.974C105.131 92.9319 104.451 93.3382 104.613 93.7295C104.694 93.9251 104.937 93.9853 105.682 93.9853C106.217 93.9853 106.687 94.0455 106.735 94.1207C106.897 94.3465 106.006 94.4668 104.807 94.3615L103.657 94.2562L103.463 92.5557C103.171 89.9523 102.507 88.2217 101.389 87.063C100.58 86.2353 99.964 85.9344 98.6518 85.6936C97.1615 85.4227 92.7877 85.4227 91.6052 85.6785C90.4227 85.9494 89.0943 86.4009 88.6084 86.7018C88.3492 86.8674 88.0576 86.9125 87.7174 86.8373C86.7131 86.6266 85.1255 88.0261 84.51 89.6363C84.1212 90.7198 83.8296 92.2096 83.8296 93.263V93.9853H82.4041C81.6103 93.9853 79.6502 93.9402 78.0465 93.88L75.1307 93.7897L75.4061 92.9469C76.7668 88.8237 79.877 85.3475 83.9106 83.4965C88.5274 81.3596 94.8288 81.1339 100.045 82.9096C100.612 83.1052 101.454 83.4062 101.892 83.5717C102.442 83.7824 102.799 83.8276 102.977 83.7373C103.123 83.662 103.641 83.0601 104.143 82.413C105.31 80.863 106.022 80.3664 106.022 81.0737ZM98.3278 81.1941C98.4574 81.3897 98.0849 81.3897 97.7609 81.1941C97.5665 81.0737 97.5827 81.0436 97.8743 81.0436C98.0687 81.0436 98.2792 81.1038 98.3278 81.1941ZM171.84 83.1353C172.585 83.3009 173.184 83.7824 173.297 84.2941C173.362 84.6552 173.168 84.8057 173.054 84.4746C172.957 84.2038 172.455 84.4445 172.261 84.8659C171.985 85.3926 172.18 85.7086 172.763 85.7086C173.411 85.7086 173.378 85.9795 172.682 86.6115C172.374 86.8975 172.115 87.1984 172.115 87.3038C172.115 87.3941 172.342 87.9208 172.601 88.4625C172.876 89.0193 173.087 89.5008 173.087 89.546C173.087 89.5911 172.925 89.5911 172.714 89.546C172.374 89.4557 172.358 89.5008 172.309 90.5994C172.277 91.5023 172.309 91.7431 172.52 91.8183C172.844 91.9387 172.828 92.1042 172.423 92.6309C172.228 92.8717 172.115 93.1727 172.163 93.2931C172.342 93.6994 172.131 93.5639 171.872 93.0824C171.597 92.6008 171.548 91.096 171.775 90.178C171.953 89.5008 171.775 89.4557 171.143 90.0426C170.122 91.0057 170.479 93.9251 171.71 94.6775C172.034 94.8732 172.083 94.9785 171.953 95.2042C171.856 95.3547 171.823 95.6557 171.888 95.8814C171.985 96.2426 171.969 96.2727 171.613 96.1673C169.912 95.6858 169.005 92.4804 169.831 89.9222C170.365 88.312 170.041 87.4843 169.361 88.7183C168.081 91.0508 168.389 94.8431 169.993 96.4382C170.949 97.4164 171.904 97.5518 172.455 96.7994C172.666 96.5435 173.249 95.8965 173.767 95.3698C174.707 94.4217 175.063 93.6542 174.383 93.9853C173.929 94.211 173.978 94.0304 174.545 93.4436C175.063 92.8868 175.598 92.029 175.403 92.029C175.339 92.029 175.128 92.1795 174.917 92.3601C174.334 92.8717 174.269 92.5256 174.853 91.9688C175.322 91.5173 175.355 91.412 175.225 90.9605C175.079 90.4339 175.031 90.4188 174.464 90.6144C174.172 90.7198 174.172 90.6897 174.529 90.3285C174.917 89.9222 174.869 89.6212 174.415 89.6212C174.205 89.6212 174.124 89.5008 174.14 89.1999C174.14 88.914 174.026 88.7484 173.783 88.6431C173.573 88.5678 173.411 88.4174 173.411 88.3271C173.411 88.1465 174.253 87.078 174.399 87.063C174.448 87.063 174.691 87.5295 174.95 88.1164C175.274 88.8688 175.371 89.3052 175.306 89.6965C175.225 90.1329 175.258 90.2232 175.517 90.2232C175.743 90.2232 175.841 90.4188 175.986 91.1712C176.229 92.4955 176.213 92.6309 175.841 92.6309C175.549 92.6309 175.517 92.7363 175.517 93.9251C175.517 95.2193 175.517 95.2193 175.905 95.1591C176.229 95.0989 176.343 95.1741 176.505 95.5353C176.699 95.9717 177.704 96.5285 178.319 96.5435C178.643 96.5435 178.611 96.7542 178.011 98.5149C177.574 99.779 176.877 100.893 176.294 101.269C176.1 101.404 175.565 101.75 175.112 102.036C173.557 103.044 172.633 103.391 171.386 103.391C170.106 103.391 169.329 103.075 167.693 101.871C166.51 101.013 166.154 100.531 166.413 100.14C166.591 99.8994 166.542 99.7338 166.202 99.1921C165.57 98.1989 164.858 96.2426 164.582 94.7829C164.323 93.3984 164.275 90.3285 164.501 89.0945C164.566 88.6732 164.598 88.312 164.582 88.297C164.55 88.2669 164.372 88.2819 164.194 88.3421C163.821 88.4474 163.529 89.1698 163.351 90.4489C163.222 91.3518 163.222 91.3518 163.27 90.2232C163.303 89.546 163.481 88.7033 163.691 88.1164C164.194 86.7921 165.295 84.7606 165.603 84.595C165.749 84.5198 166.154 84.2038 166.51 83.8878C167.109 83.3912 167.304 83.3159 168.47 83.1805C170.203 82.9848 171.094 82.9848 171.84 83.1353ZM75.1469 83.8878C75.5519 85.0465 75.5195 85.1067 74.6123 85.1067C73.8348 85.1067 73.8186 85.0916 73.5594 84.5047C73.4136 84.1737 73.3002 83.7222 73.3002 83.5266C73.3002 83.1805 73.365 83.1504 74.0939 83.1504H74.8877L75.1469 83.8878ZM222.98 83.8276C222.98 83.8727 222.413 84.1737 221.717 84.4897C221.004 84.8208 220.21 85.2722 219.935 85.4829C219.514 85.814 219.416 85.8441 219.416 85.6334C219.416 85.1669 220.388 84.5198 221.652 84.1436C223.11 83.7072 222.98 83.7373 222.98 83.8276ZM211.608 84.7907C211.657 84.9412 211.576 84.9562 211.301 84.881C210.863 84.7455 210.653 84.5047 210.782 84.3091C210.879 84.1586 211.511 84.5198 211.608 84.7907ZM183.697 84.4746C183.47 84.6853 181.203 84.9412 179.566 84.9412C178.011 84.9562 176.003 84.7004 175.76 84.4897C175.727 84.4596 177.525 84.4295 179.745 84.4145C181.964 84.4145 183.746 84.4445 183.697 84.4746ZM186.305 85.0314C186.127 85.1518 185.771 85.2572 185.495 85.2572C184.912 85.2572 185.026 85.1067 185.755 84.9562C186.548 84.7756 186.646 84.7907 186.305 85.0314ZM184.475 85.3625C184.361 85.3926 184.167 85.3926 184.07 85.3625C183.956 85.3174 184.037 85.2873 184.264 85.2873C184.491 85.2873 184.572 85.3174 184.475 85.3625ZM174.059 85.7086C174.172 85.9193 174.188 86.0999 174.075 86.2805C173.929 86.4911 173.913 86.4761 173.897 86.1149C173.897 85.8892 173.832 85.7086 173.735 85.7086C173.654 85.7086 173.573 85.6334 173.573 85.5581C173.573 85.3023 173.881 85.3926 174.059 85.7086ZM215.059 85.7086C215.561 86.0848 215.253 86.0999 214.719 85.7086C214.492 85.5431 214.395 85.4077 214.492 85.4077C214.605 85.4077 214.848 85.5431 215.059 85.7086ZM234.206 85.814C234.093 85.8441 233.866 85.8441 233.72 85.814C233.558 85.7688 233.655 85.7387 233.915 85.7387C234.19 85.7387 234.303 85.7688 234.206 85.814ZM78.1599 86.5363C78.0465 86.6717 77.9169 86.7319 77.8683 86.6868C77.8197 86.6567 77.8845 86.5212 77.9979 86.3858C78.1113 86.2504 78.2409 86.1902 78.2895 86.2353C78.3381 86.2654 78.2733 86.4009 78.1599 86.5363ZM76.216 86.6115C76.4266 86.7319 76.3942 86.8523 76.0378 87.4693C75.8111 87.8606 75.5033 88.2368 75.3575 88.3271C74.9687 88.5528 74.4989 88.0411 74.3531 87.2586C74.2721 86.7319 74.2883 86.6266 74.5475 86.5664C75.0821 86.446 75.973 86.461 76.216 86.6115ZM96.2706 86.6717C95.655 87.0931 96.1734 87.7402 97.1939 87.8455C97.6475 87.8907 97.6799 87.8606 97.7285 87.3188C97.7771 86.8072 97.8257 86.762 98.2631 86.762C98.9434 86.762 98.8462 87.1683 97.9067 88.2669C97.6475 88.5528 97.3883 89.0193 97.3397 89.3052C97.2263 89.7868 97.2425 89.8018 97.5665 89.6363C97.7609 89.546 98.2144 89.0644 98.5708 88.5678C99.3808 87.4542 99.721 87.2586 100.272 87.6047C100.644 87.8305 100.661 87.8756 100.45 88.2368C100.32 88.4625 99.883 89.0042 99.478 89.4557C98.4088 90.5994 98.3764 90.6897 98.6518 91.4421C98.7976 91.8033 98.8624 92.1795 98.83 92.2848C98.7814 92.3902 98.8138 92.5105 98.8948 92.5557C98.992 92.6159 99.0568 92.7965 99.0568 92.9921C99.0568 93.1727 99.1378 93.3984 99.2512 93.5037C99.3808 93.6241 99.3808 93.7295 99.2026 93.9251C99.073 94.0605 98.6842 94.6926 98.3116 95.3246L97.6637 96.4683L96.0114 96.5134C94.3915 96.5586 94.3591 96.5586 94.3591 96.9198C94.3591 97.2057 94.4725 97.311 94.9746 97.4314C95.2986 97.5217 95.736 97.5969 95.9304 97.5969C96.6593 97.5969 98.0525 96.9649 99.4294 96.0018C100.806 95.0387 100.855 94.9785 100.774 94.527C100.709 94.1809 100.79 93.8348 101.065 93.3382C101.406 92.7062 101.422 92.6159 101.195 92.4955C100.968 92.3751 100.968 92.33 101.211 91.9688C101.519 91.5474 102.07 91.2164 102.199 91.397C102.378 91.6678 102.621 93.3984 102.523 93.7596C102.475 93.9702 102.28 94.2411 102.102 94.3465C101.827 94.527 101.811 94.6023 101.973 94.8882C102.135 95.1741 102.086 95.3848 101.568 96.3178C100.725 97.8829 99.9154 98.5751 98.5546 98.9513C97.8257 99.162 97.3883 99.3727 97.2587 99.5833C97.0967 99.8693 96.9671 99.8843 95.4768 99.8241L93.8731 99.7639V100.185C93.8731 101.284 92.0588 100.125 90.7304 98.1688C88.6408 95.0838 88.0252 91.412 89.2563 89.1698C90.3741 87.1382 91.7024 86.4911 94.764 86.4761C96.2868 86.4761 96.4973 86.5062 96.2706 86.6717ZM232.214 87.6649C232.343 87.7402 232.392 87.8455 232.327 87.9057C232.262 87.9659 232.084 87.9057 231.938 87.7703C231.647 87.4994 231.809 87.4242 232.214 87.6649ZM156.402 89.0193C156.126 89.9673 155.997 89.6062 156.256 88.613C156.386 88.0863 156.499 87.8756 156.531 88.0712C156.564 88.2518 156.499 88.6732 156.402 89.0193ZM181.429 87.9659C180.96 88.1465 179.68 88.1465 179.809 87.9659C179.858 87.8756 180.328 87.8154 180.83 87.8305C181.494 87.8305 181.656 87.8756 181.429 87.9659ZM149.922 88.4174C149.922 88.5829 150.052 88.8387 150.214 88.9741C150.424 89.1848 150.457 89.3203 150.327 89.5761C150.246 89.7717 150.116 89.9222 150.052 89.9222C149.971 89.9222 149.922 89.7717 149.922 89.5761C149.906 89.3955 149.809 88.9892 149.695 88.6732C149.501 88.2067 149.501 88.1164 149.695 88.1164C149.825 88.1164 149.922 88.2518 149.922 88.4174ZM182.32 88.5678C182.612 88.7484 181.527 88.7484 180.781 88.5678C180.376 88.4775 180.441 88.4474 181.186 88.4324C181.672 88.4324 182.191 88.4926 182.32 88.5678ZM184.054 88.5076C184.005 88.5528 183.859 88.5678 183.746 88.5227C183.616 88.4775 183.665 88.4324 183.843 88.4324C184.021 88.4174 184.118 88.4625 184.054 88.5076ZM100.855 89.2149C100.58 89.4707 100.466 89.23 100.709 88.8839C100.887 88.613 100.936 88.5979 100.968 88.8086C101.001 88.944 100.952 89.1246 100.855 89.2149ZM185.512 88.7484C185.058 88.8538 184.831 88.8538 184.702 88.7334C184.572 88.613 184.734 88.5678 185.333 88.5829L186.127 88.5979L185.512 88.7484ZM74.6609 89.3353C74.7581 89.4256 74.6933 89.7266 74.4665 90.1479C74.2721 90.5241 74.1101 90.9455 74.1101 91.0659C74.1101 91.5775 73.6404 90.9455 73.5432 90.2984C73.3812 89.3353 73.5432 88.9741 74.0777 89.0945C74.3207 89.1397 74.5799 89.2601 74.6609 89.3353ZM187.455 89.5911C192.542 89.6513 196.77 89.7416 196.835 89.8018C196.9 89.8771 195.976 89.9373 194.777 89.9373C193.579 89.9523 190.015 89.9974 186.856 90.0576C181.154 90.1479 181.105 90.1479 181.057 90.4639C181.008 90.7499 180.927 90.78 180.295 90.7047C179.907 90.6746 179.324 90.6897 178.983 90.7499L178.384 90.8402L178.74 91.1712C179.145 91.5474 179.761 91.5775 192.331 91.6227L199.184 91.6528L199.086 92.029C199.038 92.2397 198.973 92.5256 198.957 92.661C198.924 92.9921 198.681 93.0222 198.681 92.6911C198.681 92.345 198.293 92.5256 198.228 92.9018C198.196 93.1426 198.293 93.278 198.584 93.3834C198.795 93.4586 199.07 93.6542 199.167 93.8348C199.265 94.0003 199.41 94.1057 199.508 94.0605C199.589 94.0003 199.653 94.0304 199.653 94.1207C199.653 94.3164 199.119 94.5872 198.698 94.5872C198.519 94.5872 198.276 94.7227 198.147 94.8882C197.92 95.2042 197.855 95.2042 192.429 95.0387C189.399 94.9484 184.896 94.828 182.418 94.7678L177.898 94.6625L177.525 92.2848C177.331 90.9906 177.104 89.7717 177.056 89.6062C176.942 89.3052 176.975 89.2902 177.558 89.3955C177.914 89.4406 182.353 89.546 187.455 89.5911ZM231.728 90.0727C231.404 90.2683 230.432 90.2683 230.432 90.0727C230.432 89.9824 230.772 89.9222 231.209 89.9222C231.76 89.9222 231.906 89.9673 231.728 90.0727ZM155.997 90.9004C155.948 91.2916 155.851 91.5625 155.802 91.5173C155.754 91.4722 155.77 91.1261 155.835 90.7499C155.883 90.3586 155.981 90.0877 156.029 90.1329C156.078 90.178 156.062 90.5241 155.997 90.9004ZM225.167 90.2232C225.118 90.2984 225.005 90.3737 224.908 90.3737C224.827 90.3737 224.762 90.2984 224.762 90.2232C224.762 90.1329 224.875 90.0727 225.021 90.0727C225.151 90.0727 225.216 90.1329 225.167 90.2232ZM228.326 90.2232C228.002 90.4188 227.516 90.4188 227.516 90.2232C227.516 90.1329 227.759 90.0727 228.05 90.0727C228.439 90.0727 228.504 90.1178 228.326 90.2232ZM99.6724 90.5241C99.4456 90.8552 99.2836 90.8101 99.4294 90.4489C99.4942 90.3285 99.6076 90.2232 99.7048 90.2232C99.802 90.2232 99.802 90.3285 99.6724 90.5241ZM101.827 90.494C101.649 90.795 101.001 91.3669 101.001 91.2164C101.001 91.1562 101.163 90.9154 101.357 90.6746C101.746 90.1931 102.086 90.0576 101.827 90.494ZM240.2 90.5542C240.135 90.6596 239.973 91.2615 239.827 91.8785L239.584 93.0071L238.45 93.0523L237.3 93.0974L237.365 92.044C237.43 91.0057 237.43 90.9906 236.992 90.8853C236.766 90.8251 235.794 90.8251 234.838 90.8552C232.57 90.9455 233.283 90.7047 235.761 90.5392C238.839 90.3436 240.346 90.3436 240.2 90.5542ZM195.571 90.9305C195.409 90.9605 195.118 90.9605 194.923 90.9305C194.713 90.9004 194.842 90.8703 195.199 90.8703C195.555 90.8552 195.717 90.8853 195.571 90.9305ZM198.73 90.9305C198.617 90.9605 198.39 90.9605 198.244 90.9305C198.082 90.8853 198.179 90.8552 198.438 90.8552C198.714 90.8552 198.827 90.8853 198.73 90.9305ZM231.242 90.9004C231.242 90.9455 231.096 91.111 230.902 91.2916C230.594 91.5775 230.545 91.5775 230.286 91.3669C229.93 91.0659 229.865 91.0659 229.557 91.3669C229.217 91.6678 229.233 92.4654 229.573 92.8115C229.913 93.1576 230.416 93.1576 230.561 92.8115C230.642 92.6159 230.691 92.646 230.756 93.0071C230.837 93.3683 230.918 93.4586 231.242 93.4285C231.469 93.4285 232.619 93.3382 233.817 93.2479C235.292 93.1275 236.053 93.1275 236.15 93.2178C236.247 93.3081 236.28 93.4285 236.215 93.4736C236.166 93.5338 234.255 93.6091 232.003 93.6542L227.889 93.7295L228.212 92.7814L228.553 91.8334L228.164 91.5474C227.84 91.3067 227.532 91.2766 225.799 91.2916C222.672 91.3217 223.013 91.0659 226.22 90.9756C227.775 90.9305 229.541 90.8703 230.156 90.8552C230.756 90.8402 231.242 90.8552 231.242 90.9004ZM85.2389 91.4571C85.1903 91.5625 85.1579 91.4872 85.1579 91.2766C85.1579 91.0659 85.1903 90.9906 85.2389 91.0809C85.2713 91.1863 85.2713 91.3669 85.2389 91.4571ZM222.899 91.111C222.802 91.2013 221.992 91.3067 221.069 91.3669C220.162 91.4271 219.287 91.5474 219.141 91.6528C218.752 91.9237 218.639 93.5489 218.995 93.8198C219.335 94.0906 219.967 93.9251 220.194 93.5037C220.372 93.1576 220.372 93.1576 220.372 93.5639L220.388 93.9853H223.515C225.232 93.9853 226.528 94.0455 226.414 94.1207C226.139 94.2712 220.777 94.3766 218.687 94.2712L217.732 94.211L217.699 93.0523C217.683 92.4203 217.618 91.8183 217.553 91.713C217.472 91.6076 217.197 91.5775 216.808 91.6377C216.452 91.6829 216.177 91.6979 216.177 91.6528C216.177 91.397 217.408 91.2164 219.902 91.1261C221.457 91.0659 222.802 91.0207 222.899 91.0057C222.996 90.9906 222.996 91.0207 222.899 91.111ZM214.476 91.5625C214.378 91.6377 213.601 91.728 212.726 91.7581C211.43 91.7882 211.203 91.7732 211.43 91.6076C211.754 91.397 214.719 91.3518 214.476 91.5625ZM149.809 92.2096C149.728 92.345 149.274 92.3751 149.274 92.2547C149.274 92.2096 149.371 92.044 149.469 91.8785C149.663 91.6076 149.679 91.5926 149.776 91.8484C149.841 91.9838 149.857 92.1494 149.809 92.2096ZM210.102 91.728C210.053 91.8033 209.794 91.8785 209.519 91.8785C209.26 91.8785 209.049 91.8033 209.049 91.728C209.049 91.6377 209.308 91.5775 209.632 91.5775C209.972 91.5775 210.167 91.6377 210.102 91.728ZM208.19 92.9469C208.288 93.5639 208.385 94.0756 208.385 94.1057C208.401 94.1207 208.757 94.1057 209.195 94.0455C209.891 93.9552 210.005 93.9853 210.167 94.2712C210.361 94.5872 210.426 94.5872 213.066 94.512C215.156 94.4518 215.674 94.4668 215.367 94.6023C215.124 94.7076 213.277 94.828 210.831 94.8882C208.563 94.9634 206.538 95.0688 206.344 95.1139C206.133 95.1741 205.971 95.1591 205.971 95.0688C205.971 94.8431 206.327 94.6324 206.927 94.512L207.478 94.4067L207.38 93.1576C207.283 91.9086 207.364 91.6829 207.834 91.7882C207.931 91.8033 208.077 92.33 208.19 92.9469ZM85.0608 93.2028C84.8502 93.3834 84.7692 93.0673 84.8988 92.5256L85.0284 91.9537L85.0931 92.5406C85.1255 92.8567 85.1093 93.1576 85.0608 93.2028ZM163.319 93.9402C163.286 94.2562 163.254 94.0003 163.254 93.3834C163.254 92.7664 163.286 92.5105 163.319 92.8115C163.351 93.1275 163.351 93.6392 163.319 93.9402ZM149.08 92.962C149.242 93.1125 149.177 93.1877 148.756 93.3232C148.075 93.5338 148.027 93.7596 148.561 94.0906C148.95 94.3164 149.388 94.3615 151.38 94.3766C154.604 94.4067 155.446 94.4668 155.381 94.6474C155.219 95.0838 144.706 95.0838 127.324 94.6625C122.432 94.5421 116.552 94.4518 114.284 94.4819C112.016 94.4969 109.797 94.4518 109.343 94.3766L108.533 94.2261L109.424 94.1207C110.769 93.9552 115.758 93.9702 119.225 94.1508C120.926 94.2411 127.664 94.3314 134.209 94.3615L146.115 94.4217L146.958 94.0455C147.411 93.8499 147.994 93.4887 148.254 93.2479C148.788 92.7363 148.821 92.7212 149.08 92.962ZM117.103 95.6557C119.678 95.7309 121.93 95.8814 122.092 95.9566C122.27 96.0469 122.659 96.4984 122.983 96.9649C123.291 97.4314 123.987 98.2139 124.538 98.6955C125.073 99.162 125.478 99.5984 125.429 99.6285C125.38 99.6736 124.554 99.6435 123.582 99.5683C122.61 99.493 119.338 99.4028 116.309 99.3727L110.801 99.3275L110.753 99.7188C110.704 100.095 110.639 100.11 109.473 100.215C107.983 100.321 106.184 100.336 106.184 100.23C106.184 100.185 106.46 99.6285 106.8 98.9814C107.156 98.3494 107.626 97.296 107.885 96.6489L108.339 95.4901H110.38C111.498 95.4901 114.527 95.5654 117.103 95.6557ZM162.395 96.1071C162.395 96.378 163.351 98.3042 164.015 99.3576C164.355 99.9144 164.615 100.396 164.598 100.426C164.566 100.456 164.08 100.366 163.513 100.215C162.298 99.9294 160.856 99.8994 154.296 100.065C149.987 100.17 149.663 100.2 149.339 100.471C148.999 100.757 148.95 100.772 148.497 100.546C148.059 100.336 147.071 100.306 141.272 100.306C133.723 100.306 133.998 100.351 135.683 99.2523C136.752 98.56 137.076 98.1989 137.724 96.995L138.178 96.1673L150.035 96.0921C156.548 96.0469 161.942 95.9717 162.007 95.9115C162.136 95.7761 162.395 95.9115 162.395 96.1071ZM133.302 96.5285C133.399 96.6639 132.654 96.8445 132.038 96.8445C131.714 96.8295 131.714 96.8144 132.103 96.6188C132.557 96.378 133.172 96.3329 133.302 96.5285ZM206.846 97.1605C206.992 97.4615 207.656 98.229 208.32 98.861C208.984 99.5081 209.535 100.095 209.535 100.185C209.535 100.276 209.34 100.306 209.017 100.245C208.207 100.095 197.288 99.8091 191.635 99.794C187.601 99.779 186.403 99.8241 185.528 100.02C184.653 100.2 184.426 100.215 184.426 100.065C184.426 99.9595 184.685 99.2071 184.993 98.3945C185.317 97.5819 185.593 96.8445 185.625 96.7693C185.657 96.6639 189.318 96.6188 196.138 96.6188H206.587L206.846 97.1605ZM130.807 97.1304C130.807 97.2809 130.127 97.4765 130.013 97.3562C129.9 97.2659 130.337 96.995 130.613 96.995C130.71 96.995 130.807 97.0552 130.807 97.1304ZM179.728 97.311C179.728 97.3863 179.664 97.4464 179.566 97.4464C179.486 97.4464 179.405 97.3411 179.405 97.2057C179.405 97.0853 179.486 97.0251 179.566 97.0702C179.664 97.1154 179.728 97.2207 179.728 97.311ZM218.768 97.3712C218.768 97.4916 216.857 98.3494 215.739 98.7406C214.864 99.0416 214.719 99.0717 214.719 98.861C214.719 98.229 215.707 97.5668 216.258 97.8528C216.42 97.943 216.873 97.8829 217.602 97.6571C218.201 97.4615 218.704 97.311 218.736 97.311C218.752 97.296 218.768 97.3261 218.768 97.3712ZM125.542 97.7474C125.591 97.8227 125.575 97.8979 125.478 97.8979C125.397 97.8979 125.267 97.8227 125.218 97.7474C125.17 97.6571 125.186 97.5969 125.283 97.5969C125.364 97.5969 125.494 97.6571 125.542 97.7474ZM132.427 97.7474C132.103 97.943 131.892 97.943 132.022 97.7474C132.071 97.6571 132.249 97.5969 132.395 97.5969C132.638 97.5969 132.638 97.627 132.427 97.7474ZM179.599 98.3795C179.453 98.5149 179.356 98.5149 179.21 98.3795C179.064 98.244 179.097 98.1989 179.405 98.1989C179.712 98.1989 179.745 98.244 179.599 98.3795ZM212.71 98.5751C212.402 98.7858 211.803 98.8911 211.803 98.7256C211.803 98.6202 212.467 98.3644 212.775 98.3644C212.953 98.3644 212.937 98.4096 212.71 98.5751ZM131.05 98.9362C130.92 99.1319 130.321 99.162 130.321 98.9663C130.321 98.8911 130.483 98.8008 130.694 98.7707C131.131 98.6955 131.196 98.7256 131.05 98.9362ZM216.015 99.2523C216.015 99.3275 215.95 99.4028 215.853 99.4028C215.772 99.4028 215.691 99.3275 215.691 99.2523C215.691 99.162 215.772 99.1018 215.853 99.1018C215.95 99.1018 216.015 99.162 216.015 99.2523ZM79.6502 100.035C79.4559 100.215 78.9375 100.14 78.8565 99.9144C78.8241 99.8091 78.9861 99.779 79.2939 99.8241C79.634 99.8693 79.7474 99.9445 79.6502 100.035ZM127.017 100.23L127.486 100.592L126.725 100.607C125.98 100.607 125.947 100.592 125.947 100.17C125.947 99.6435 126.271 99.6736 127.017 100.23ZM90.9896 100.276C91.2164 100.486 90.7467 100.501 88.2844 100.351C86.1623 100.23 86.7131 99.9896 89.0457 100.05C90.1635 100.065 90.86 100.155 90.9896 100.276ZM113.636 100.261C114.365 100.336 114.446 100.381 114.122 100.471C113.895 100.531 113.296 100.577 112.761 100.592C111.935 100.607 111.838 100.577 112.016 100.381C112.243 100.125 112.389 100.11 113.636 100.261ZM60.8592 100.546C62.8193 100.727 61.8312 100.908 58.9315 100.908C57.3602 100.908 56.1129 100.878 56.1615 100.832C56.4369 100.561 59.1745 100.411 60.8592 100.546ZM94.7964 100.847C94.7478 100.893 94.602 100.908 94.4886 100.862C94.3591 100.817 94.4077 100.772 94.5858 100.772C94.764 100.757 94.8612 100.802 94.7964 100.847ZM105.65 101.058C105.698 101.224 105.731 101.404 105.715 101.464C105.698 101.6 104.079 101.78 104.079 101.645C104.079 101.6 104.338 101.434 104.646 101.269C104.953 101.118 105.212 100.938 105.212 100.878C105.212 100.622 105.569 100.772 105.65 101.058ZM184.086 101.314C184.297 101.75 184.135 101.961 183.568 101.961C183.406 101.961 183.13 102.202 182.952 102.488C182.758 102.774 182.547 103.014 182.466 103.014C182.158 103.014 182.337 102.608 182.968 101.901C183.325 101.51 183.616 101.118 183.616 101.043C183.616 100.757 183.892 100.923 184.086 101.314ZM158.913 101.209C158.653 101.269 158.248 101.329 158.022 101.344C157.698 101.344 157.665 101.329 157.86 101.209C157.989 101.133 158.394 101.073 158.751 101.073C159.382 101.088 159.382 101.103 158.913 101.209ZM121.152 101.314C121.979 101.374 122.335 101.449 122.173 101.54C121.736 101.75 120.099 101.826 118.415 101.69C116.908 101.57 116.827 101.555 117.362 101.404C118.026 101.209 119.419 101.163 121.152 101.314ZM165.781 101.72C165.959 101.871 166.073 102.066 166.024 102.127C165.894 102.337 165.36 102.277 165.084 102.036C164.955 101.916 164.566 101.811 164.21 101.811C163.546 101.811 162.557 101.555 162.557 101.389C162.557 101.329 163.205 101.314 163.999 101.359C165.101 101.419 165.522 101.494 165.781 101.72ZM233.088 101.359C232.975 101.464 232.781 101.464 232.521 101.374C232.149 101.239 232.165 101.224 232.7 101.224C233.072 101.209 233.202 101.254 233.088 101.359ZM107.561 101.51C107.124 101.69 106.994 101.69 106.994 101.51C106.994 101.419 107.189 101.359 107.448 101.374C107.837 101.374 107.853 101.389 107.561 101.51ZM110.72 101.51C110.996 101.585 110.639 101.63 109.667 101.63C108.711 101.63 108.323 101.6 108.533 101.51C108.938 101.344 110.186 101.344 110.72 101.51ZM116.147 101.51C116.098 101.585 115.936 101.66 115.807 101.66C115.677 101.66 115.58 101.585 115.58 101.51C115.58 101.419 115.726 101.359 115.92 101.359C116.098 101.359 116.195 101.419 116.147 101.51ZM228.65 101.51C228.65 101.675 228.212 101.811 227.662 101.811C227.143 101.811 227.014 101.57 227.484 101.464C227.937 101.359 228.65 101.389 228.65 101.51ZM96.8699 103.466C97.0967 103.556 96.8699 103.601 96.141 103.586C95.3796 103.586 95.2014 103.556 95.493 103.466C96.0276 103.3 96.4649 103.3 96.8699 103.466ZM99.7048 103.466C99.7048 103.541 99.4132 103.616 99.0568 103.616C98.7004 103.616 98.4088 103.541 98.4088 103.466C98.4088 103.376 98.7004 103.315 99.0568 103.315C99.4132 103.315 99.7048 103.376 99.7048 103.466ZM150.975 103.917C150.926 103.993 150.359 104.068 149.744 104.068C149.031 104.068 148.642 104.008 148.707 103.917C148.756 103.827 149.323 103.767 149.938 103.767C150.651 103.767 151.04 103.827 150.975 103.917ZM155.025 104.083C155.138 104.188 154.814 104.203 154.053 104.128C152.32 103.962 151.882 103.752 153.486 103.842C154.247 103.887 154.928 103.993 155.025 104.083Z" fill="black"/>
</g>
<path d="M151.267 55.8674C150.651 55.9126 150.198 56.0029 150.084 56.1383C149.906 56.3339 150.036 56.364 150.959 56.364C152.06 56.364 152.757 56.1684 152.595 55.8975C152.53 55.8223 152.449 55.7771 152.384 55.7922C152.32 55.8072 151.817 55.8373 151.267 55.8674Z" fill="black"/>
<path d="M155.511 55.9126C155.559 55.9878 155.754 56.063 155.932 56.063C156.094 56.063 156.24 55.9878 156.24 55.9126C156.24 55.8223 156.045 55.7621 155.819 55.7621C155.592 55.7621 155.446 55.8223 155.511 55.9126Z" fill="black"/>
<path d="M156.645 55.9126C156.693 55.9878 156.888 56.063 157.066 56.063C157.228 56.063 157.374 55.9878 157.374 55.9126C157.374 55.8223 157.179 55.7621 156.953 55.7621C156.726 55.7621 156.58 55.8223 156.645 55.9126Z" fill="black"/>
<path d="M168.049 58.7567C167.693 59.0276 167.676 59.0577 167.952 59.163C168.114 59.2082 168.924 59.1931 169.734 59.1179L171.224 58.9824L170.625 58.7266C169.798 58.3805 168.535 58.3956 168.049 58.7567Z" fill="black"/>
<path d="M150.505 58.7267C150.441 58.8019 149.112 58.8771 147.557 58.9223C144.965 58.9975 144.722 59.0276 144.398 59.3136L144.058 59.6446L144.625 59.8102C145.079 59.9606 145.548 59.9456 146.893 59.765C147.832 59.6296 148.966 59.5242 149.42 59.5242C150.716 59.5242 151.866 58.9825 151.121 58.7116C150.781 58.5912 150.651 58.5912 150.505 58.7267Z" fill="black"/>
<path d="M168.729 59.6597L168.017 59.75L168.681 60.4723C169.053 60.8786 169.361 61.2699 169.361 61.3602C169.361 61.4655 169.847 61.4805 170.868 61.4053C172.18 61.315 172.326 61.3301 172.05 61.5257C171.759 61.7213 171.759 61.7364 172.18 61.8417C172.407 61.8869 173.168 61.9019 173.864 61.8568C175.241 61.7514 175.808 61.917 176.084 62.5038C176.197 62.7296 176.375 62.8349 176.683 62.8349C177.25 62.8349 177.25 62.7296 176.716 62.0072C176.489 61.6912 176.23 61.2699 176.149 61.0742C176.051 60.8485 175.873 60.7281 175.614 60.7281C175.063 60.7281 174.95 60.9689 175.387 61.2398C175.744 61.4655 175.727 61.4805 174.95 61.4655C174.237 61.4655 174.188 61.4354 174.545 61.315C174.95 61.1645 174.95 61.1495 174.626 60.9388C174.415 60.7883 173.962 60.7281 173.2 60.7432C172.601 60.7582 172.066 60.7281 172.002 60.6679C171.953 60.6228 172.05 60.5776 172.245 60.5776C172.666 60.5776 172.876 60.2917 172.585 60.1112C172.455 60.0359 171.71 59.9908 170.9 60.0058C169.588 60.051 169.442 60.0209 169.491 59.7801C169.523 59.6447 169.523 59.5393 169.491 59.5544C169.458 59.5544 169.118 59.6146 168.729 59.6597ZM171.629 60.7281C171.629 60.9087 171.499 60.9087 171.062 60.7281C170.77 60.6077 170.787 60.5927 171.192 60.5927C171.435 60.5776 171.629 60.6378 171.629 60.7281ZM173.702 61.4354C173.54 61.4655 173.249 61.4655 173.055 61.4354C172.844 61.4053 172.974 61.3752 173.33 61.3752C173.686 61.3602 173.848 61.3903 173.702 61.4354Z" fill="black"/>
<path d="M147.654 60.066C147.071 60.1864 146.455 60.2616 146.294 60.2165C146.115 60.1713 145.808 60.2616 145.613 60.4121C145.403 60.5626 144.949 60.7432 144.625 60.7883C143.637 60.9539 143.102 61.1946 143.151 61.4655C143.199 61.6461 143.394 61.7063 143.88 61.6912C144.641 61.6762 144.738 61.8116 144.738 63.0155C144.738 63.5873 144.803 63.7378 145.062 63.8131C145.241 63.8582 145.451 63.8582 145.548 63.8131C145.759 63.6927 145.759 63.9334 145.548 64.1291C145.451 64.2194 145.419 64.415 145.484 64.5504C145.597 64.8213 145.889 64.8364 147.168 64.5805C147.541 64.5053 147.525 64.5053 147.12 64.6708C146.763 64.8213 146.682 64.9417 146.715 65.2427C146.763 65.649 147.055 65.6941 148.059 65.4684C148.529 65.3781 148.561 65.3931 148.545 65.7994C148.545 66.1305 148.61 66.2208 148.869 66.2058C149.209 66.1757 152.401 65.5286 152.482 65.4684C152.498 65.4533 152.401 65.2276 152.239 64.9868C151.979 64.5504 151.898 64.5203 150.716 64.4451C149.29 64.3548 148.853 64.2043 149.42 64.0087C149.955 63.8281 149.744 63.5271 149.015 63.4218C148.675 63.3767 148.497 63.3165 148.642 63.3014C148.788 63.3014 148.95 63.1509 148.999 62.9854C149.064 62.7296 148.999 62.6844 148.61 62.6844C148.351 62.6844 148.14 62.6092 148.14 62.5339C148.14 62.4437 148.221 62.3835 148.318 62.3835C148.416 62.3835 148.934 62.1276 149.469 61.8267C150.165 61.4354 150.635 61.2548 151.072 61.2548C151.607 61.2548 151.704 61.2097 151.704 60.9388C151.704 60.5325 151.429 60.4272 150.392 60.4272C149.89 60.4272 149.614 60.367 149.679 60.2767C149.776 60.1413 149.096 59.7951 148.821 59.8403C148.756 59.8553 148.237 59.9456 147.654 60.066ZM148.383 61.1796C148.659 61.2849 148.61 61.315 148.173 61.315C147.849 61.3301 147.67 61.2699 147.735 61.1796C147.849 60.999 147.946 60.999 148.383 61.1796ZM148.594 64.4451C148.432 64.4752 148.173 64.4752 148.027 64.4451C147.865 64.3999 147.994 64.3699 148.302 64.3699C148.61 64.3699 148.74 64.3999 148.594 64.4451Z" fill="black"/>
<path d="M173.346 60.1111C173.638 60.397 174.302 60.4422 174.626 60.2165C174.934 60.0058 174.885 59.9908 174.075 59.9757C173.524 59.9757 173.249 60.0359 173.346 60.1111Z" fill="black"/>
<path d="M151.736 61.9621C151.785 62.0674 151.979 62.2329 152.174 62.3383L152.546 62.5038L152.206 62.6844C151.753 62.8951 151.915 63.1359 152.53 63.1359C152.919 63.1359 153 63.0757 153 62.7898C153 62.2781 152.546 61.7815 152.093 61.7815C151.834 61.7815 151.704 61.8567 151.736 61.9621Z" fill="black"/>
<path d="M172.925 62.1878C172.795 62.233 172.585 62.3383 172.471 62.4286C172.18 62.6543 172.601 62.8048 173.492 62.8198C174.253 62.8349 174.707 62.6242 174.448 62.3834C174.237 62.1878 173.265 62.0524 172.925 62.1878Z" fill="black"/>
<path d="M150.521 62.9251C150.635 63.196 151.396 63.1659 151.51 62.865C151.542 62.7446 151.38 62.6844 150.991 62.6844C150.538 62.6844 150.44 62.7296 150.521 62.9251Z" fill="black"/>
<path d="M175.047 63.2713C174.642 63.5121 175.031 63.7378 175.841 63.7378C176.651 63.7378 177.039 63.5121 176.634 63.2713C176.505 63.1961 176.149 63.1359 175.841 63.1359C175.533 63.1359 175.177 63.1961 175.047 63.2713Z" fill="black"/>
<path d="M177.056 63.2863C176.894 63.5271 177.12 63.7378 177.509 63.7378C177.882 63.7378 178.4 63.497 178.271 63.3917C178.076 63.2412 177.137 63.1659 177.056 63.2863Z" fill="black"/>
<path d="M231.76 79.8397C231.08 79.9902 231.031 80.0504 231.161 80.4417C231.307 80.8931 231.89 81.1941 232.797 81.2844C233.963 81.3897 234.109 81.2392 233.639 80.3965C233.234 79.6441 232.991 79.5688 231.76 79.8397Z" fill="black"/>
<path d="M89.0134 75.4756C88.8838 75.5509 88.5436 75.6261 88.2682 75.6261C87.7823 75.6261 87.7337 75.6863 87.1505 76.9203C86.8265 77.6426 86.5187 78.5907 86.4701 79.0421L86.373 79.8848L87.0047 79.7945C87.3449 79.7343 88.9972 79.6591 90.6657 79.5989L93.6787 79.4936L93.9541 78.8766C95.0556 76.3785 95.2986 75.6261 95.0718 75.4606C94.9261 75.3402 94.6021 75.3251 94.1485 75.4004C93.7759 75.4606 92.966 75.5057 92.3504 75.4907C91.7348 75.4606 91.0221 75.5358 90.7629 75.6412C90.3417 75.8067 90.2445 75.7916 90.1149 75.581C89.9529 75.295 89.386 75.2499 89.0134 75.4756Z" fill="black"/>
<path d="M169.717 85.513C169.037 85.6334 167.838 87.5295 167.32 89.3203C166.332 92.7814 167.903 97.4464 170.252 97.9882C170.673 98.0785 170.689 98.0785 170.495 97.7474C170.382 97.5518 169.977 96.995 169.588 96.4984C169.183 96.0018 168.875 95.445 168.875 95.2193C168.875 95.0086 168.697 94.5571 168.47 94.211C167.968 93.4135 167.806 92.029 168.049 90.5091C168.292 88.8387 168.778 87.7552 169.717 86.8072C170.706 85.7989 170.706 85.3475 169.717 85.513Z" fill="black"/>
<path d="M171.921 98.1537C170.965 98.1988 170.657 98.259 170.657 98.4246C170.657 98.9814 172.309 99.3426 173.103 98.9513C173.395 98.8008 173.573 98.0032 173.297 98.0784C173.216 98.0935 172.601 98.1386 171.921 98.1537Z" fill="black"/>
<path d="M92.9174 87.3338C92.561 87.6799 92.1722 88.3119 91.9292 88.944C91.5728 89.862 91.5242 90.2532 91.5242 91.8785C91.5242 93.7294 91.5404 93.7896 92.0912 94.813C92.4962 95.5804 92.8526 95.9867 93.3386 96.3028C93.7273 96.5435 94.0675 96.7091 94.1161 96.6639C94.1809 96.6188 93.8407 95.8814 93.371 95.0236C92.6096 93.6091 92.5124 93.3382 92.4476 92.2396C92.3666 90.8251 92.5934 89.9372 93.5492 88.026C94.1485 86.8221 94.1647 86.7619 93.8407 86.7619C93.6464 86.7619 93.2414 87.0178 92.9174 87.3338Z" fill="black"/>
<path d="M99.1054 88.5678C98.5061 88.9741 97.9229 89.8319 98.1173 89.9974C98.2955 90.163 99.316 89.3503 99.6076 88.8236C99.7696 88.5076 99.8668 88.2217 99.8344 88.1916C99.802 88.1464 99.4618 88.327 99.1054 88.5678Z" fill="black"/>
<path d="M93.9217 88.4926C93.3872 88.8387 92.9012 90.2232 92.9012 91.397C92.9012 92.646 93.128 93.4135 93.6302 93.9402L94.0189 94.3615L94.0351 93.9853C94.0351 93.7746 93.9217 93.0072 93.7922 92.2698C93.533 90.8251 93.5654 90.5392 94.0513 89.4256C94.4725 88.4926 94.4239 88.1615 93.9217 88.4926Z" fill="black"/>
<path d="M94.8289 91.2615C94.5859 91.9989 94.7641 93.0824 95.1852 93.594C95.5416 94.0154 96.222 94.1057 96.789 93.8348C97.3722 93.5489 97.6637 91.6378 97.194 91.2766C96.9996 91.1261 96.9348 91.1562 96.789 91.5023C96.708 91.713 96.627 92.0742 96.627 92.2999C96.627 92.7062 96.384 93.2178 96.2544 93.0824C96.0924 92.9018 95.655 91.4722 95.655 91.096C95.655 90.78 95.574 90.6747 95.331 90.6747C95.1042 90.6747 94.9747 90.8402 94.8289 91.2615Z" fill="black"/>
<path d="M196.252 92.4052C196.171 92.6159 196.09 93.1727 196.09 93.6091C196.09 94.4217 196.09 94.4217 196.657 94.5271C197.434 94.6625 197.71 94.5271 197.71 94.0304C197.71 93.8047 197.758 93.3683 197.791 93.0824C197.904 92.4052 197.774 92.2246 197.029 92.1042C196.478 91.9989 196.397 92.029 196.252 92.4052Z" fill="black"/>
<path d="M193.563 79.8548C192.672 80.2611 191.505 81.3596 191.651 81.6907C191.781 82.0217 192.299 82.0217 192.429 81.7057C192.51 81.495 192.785 81.48 194.713 81.5703C196.187 81.6455 196.9 81.6305 196.9 81.5251C196.9 81.1188 196.64 80.8479 195.911 80.5169C195.474 80.3062 195.053 80.0052 194.956 79.8397C194.745 79.4635 194.421 79.4635 193.563 79.8548Z" fill="black"/>
<path d="M186.208 81.2994C185.641 81.48 184.297 81.5552 180.215 81.6455C177.315 81.7057 174.934 81.7659 174.917 81.7809C174.885 81.7809 174.869 81.9164 174.869 82.0819C174.869 82.2474 175.063 82.428 175.371 82.5484C175.646 82.6688 175.825 82.8193 175.776 82.9397C175.727 83.06 175.922 83.1654 176.343 83.2256C176.699 83.2858 181.608 83.2557 187.229 83.1654C192.866 83.0751 201.711 82.9697 206.894 82.9547C212.078 82.9397 216.371 82.8644 216.452 82.8042C216.517 82.729 216.436 82.5634 216.258 82.4431C215.966 82.2324 214.589 82.2173 204.189 82.3076C192.931 82.3979 186.111 82.3227 186.775 82.097C186.953 82.0368 187.504 82.0217 187.99 82.0518C189.059 82.1421 189.659 81.8411 189.351 81.3897C189.108 81.0285 187.229 80.9683 186.208 81.2994ZM185.965 82.3979C186.03 82.4882 185.836 82.5484 185.495 82.5484C185.171 82.5484 184.912 82.4732 184.912 82.3979C184.912 82.3076 185.123 82.2474 185.382 82.2474C185.657 82.2474 185.917 82.3076 185.965 82.3979Z" fill="black"/>
<path d="M191.602 83.6018C190.841 83.8877 191.165 84.0984 192.574 84.294C192.996 84.3392 193.336 84.4445 193.336 84.5047C193.336 84.58 193.19 84.595 193.012 84.5499C192.834 84.5047 192.51 84.5198 192.283 84.5649C191.959 84.6402 191.862 84.7455 191.91 85.0013C191.943 85.2571 192.088 85.3474 192.493 85.3775C192.785 85.4076 193.077 85.528 193.125 85.6484C193.174 85.7989 193.465 85.8591 194.049 85.844C195.215 85.829 195.474 85.6935 195.685 85.0164C195.847 84.4445 195.863 84.4295 196.705 84.3843C197.467 84.3392 197.548 84.3091 197.548 83.9931C197.548 83.5115 197.094 83.4213 195.361 83.6169C194.405 83.7072 193.644 83.7072 193.044 83.6018C192.007 83.4213 192.072 83.4213 191.602 83.6018Z" fill="black"/>
<path d="M228.212 84.0532C227.807 84.279 227.678 84.4596 227.678 84.7906C227.678 85.0314 227.791 85.3173 227.937 85.4227C228.164 85.5882 228.229 85.5731 228.423 85.3324C228.553 85.1819 228.65 84.9863 228.65 84.911C228.65 84.7756 228.958 84.8057 229.751 85.0314C230.075 85.1367 230.108 85.0916 230.108 84.5348C230.108 84.1285 230.027 83.9028 229.849 83.8426C229.379 83.677 228.731 83.7523 228.212 84.0532Z" fill="black"/>
<path d="M199.751 84.4445C199.702 84.58 199.653 84.8659 199.653 85.1067C199.653 85.9343 199.767 86.0096 200.949 86.0096C201.549 86.0096 202.262 85.9343 202.553 85.844C203.007 85.6936 203.055 85.6183 203.055 85.0916C203.055 84.3392 202.78 84.2038 201.144 84.2038C200.107 84.2038 199.832 84.2489 199.751 84.4445Z" fill="black"/>
<path d="M203.962 84.58C203.817 84.9411 203.849 85.9042 204.011 86.145C204.108 86.2955 204.448 86.3256 205.307 86.2804C206.749 86.2052 207.348 85.8591 207.348 85.0916C207.348 84.6101 207.316 84.58 206.781 84.5649C206.473 84.5649 205.728 84.5047 205.145 84.4445C204.222 84.3542 204.06 84.3693 203.962 84.58Z" fill="black"/>
<path d="M226.026 84.595C225.783 84.8207 225.653 84.8358 225.102 84.6853C224.082 84.3843 223.628 84.7756 224.179 85.4829C224.357 85.7086 224.665 85.7839 225.54 85.829C226.657 85.8892 226.69 85.8741 226.787 85.513C227.046 84.595 226.593 84.0683 226.026 84.595Z" fill="black"/>
<path d="M189.578 84.9712C189.076 85.2421 189.221 85.5581 189.853 85.5581C190.307 85.5581 190.42 85.4979 190.42 85.2722C190.42 85.1217 190.307 84.9412 190.161 84.896C189.853 84.7907 189.918 84.7756 189.578 84.9712Z" fill="black"/>
<path d="M189.286 86.115C189.286 86.5664 189.545 86.8072 189.902 86.7019C190.307 86.5815 190.501 86.1451 190.226 85.9795C189.837 85.7538 189.286 85.8441 189.286 86.115Z" fill="black"/>
<path d="M189.48 87.093C189.367 87.1984 189.286 87.4091 189.286 87.5596C189.286 87.8154 189.367 87.8455 189.804 87.7552C190.436 87.6348 190.663 87.4542 190.533 87.1532C190.42 86.8673 189.756 86.8372 189.48 87.093Z" fill="black"/>
<path d="M200.528 87.0179C200.123 87.0931 199.702 87.4843 199.654 87.8154C199.492 88.8688 199.88 89.1697 201.452 89.1697C202.618 89.1697 202.991 89.0192 203.104 88.4625C203.153 88.2367 203.25 87.9207 203.298 87.7703C203.396 87.5746 203.282 87.4693 202.877 87.3038C202.245 87.063 201.03 86.9125 200.528 87.0179Z" fill="black"/>
<path d="M225.086 87.1984C224.746 87.2887 224.665 87.4091 224.633 87.9358L224.584 88.5678H225.443C226.528 88.5678 227.111 88.2969 227.111 87.8154C227.111 87.2135 226.172 86.9125 225.086 87.1984Z" fill="black"/>
<path d="M204.546 87.4843C204.465 87.7101 204.627 88.9591 204.772 89.1848C204.886 89.3654 206.068 89.3504 206.83 89.1547C207.559 88.9742 207.964 88.4625 207.883 87.8154L207.834 87.3338L206.23 87.3188C205.048 87.2887 204.61 87.3338 204.546 87.4843Z" fill="black"/>
<path d="M209.94 87.3037C208.855 87.5596 208.725 87.6799 208.725 88.3722C208.725 88.9892 208.774 89.0494 209.292 89.26C210.183 89.6062 211.479 89.4858 211.479 89.0644C211.479 88.944 211.641 88.5829 211.835 88.2668C212.094 87.8455 212.159 87.6348 212.03 87.5144C211.835 87.3338 210.426 87.1984 209.94 87.3037Z" fill="black"/>
<path d="M222.122 87.7853C221.571 88.3571 221.765 88.5678 222.818 88.5678C223.725 88.5678 223.79 88.5377 223.79 88.2217C223.79 88.0261 223.709 87.8004 223.596 87.695C223.304 87.4242 222.413 87.4844 222.122 87.7853Z" fill="black"/>
<path d="M219.562 87.981C219.384 88.1465 219.254 88.3572 219.303 88.4625C219.384 88.6882 220.097 88.8538 220.615 88.7635C220.972 88.6882 221.036 88.5979 221.036 88.1766C221.036 87.695 221.004 87.6649 220.469 87.6649C220.113 87.6649 219.773 87.7853 219.562 87.981Z" fill="black"/>
<g filter="url(#filter7_d_6_10)">
<path d="M68.324 83.3595C68.5252 86.7598 67.9248 89.8375 66.5227 92.5928C65.1188 95.3169 63.2383 97.6564 60.8811 99.6114C58.5221 101.535 55.8572 103.051 52.8864 104.158C49.9468 105.265 47.0099 105.886 44.0756 106.022C38.5815 106.277 33.4497 105.514 28.6804 103.734C23.911 101.953 19.6013 99.2126 15.7513 95.5125L15.8177 96.6355C15.8768 97.6337 15.9506 98.6157 16.039 99.5813C16.1275 100.547 16.2315 101.512 16.3512 102.476L16.3622 102.663C16.3992 103.287 16.2129 103.843 15.8036 104.331C15.4255 104.818 14.8949 105.109 14.2118 105.203C13.4938 105.236 12.8878 105.045 12.3937 104.63C11.8996 104.215 11.6011 103.666 11.498 102.983C11.3765 101.987 11.2706 100.991 11.1803 99.9945C11.0882 98.9665 11.0126 97.9534 10.9535 96.9551C10.7652 93.7732 10.7478 90.8336 10.9012 88.1363C11.0528 85.4078 11.3155 82.7054 11.6892 80.0292C11.8102 79.4292 12.0626 78.9326 12.4462 78.5395C12.8611 78.1448 13.3651 77.9337 13.9582 77.9062C14.6762 77.8729 15.2859 78.1261 15.7874 78.6659C16.287 79.1745 16.5534 79.7095 16.5867 80.2711C16.5904 80.3334 16.595 80.4114 16.6005 80.505C16.6042 80.5674 16.5776 80.6469 16.5207 80.7433C16.4071 81.4681 16.3063 82.1453 16.2184 82.775C16.1598 83.3721 16.0856 83.9698 15.9958 84.5684C15.9354 85.1342 15.8768 85.7313 15.8201 86.3595C15.7927 86.9551 15.7544 87.6295 15.705 88.3825C19.4671 92.7124 23.6677 95.9896 28.3068 98.2142C32.9441 100.408 38.0722 101.374 43.6912 101.113C45.2832 101.039 46.9762 100.82 48.7701 100.455C50.5953 100.089 52.2514 99.5114 53.7386 98.7229C55.2551 97.9018 56.4768 96.8597 57.4038 95.5968C58.3601 94.3011 58.7819 92.7018 58.6693 90.7989C58.5899 89.4575 58.159 88.2576 57.3764 87.199C56.5919 86.1093 55.5964 85.1546 54.3897 84.3347C53.183 83.5148 51.8267 82.8114 50.3207 82.2244C48.8442 81.6047 47.3576 81.0794 45.8608 80.6484C44.3641 80.2174 42.9354 79.877 41.5746 79.6274C40.2432 79.3451 39.1038 79.1321 38.1562 78.9884C35.9121 78.6233 33.6809 78.2107 31.4626 77.7506C29.2423 77.2594 27.1249 76.6538 25.1103 75.934C23.0957 75.2142 21.2132 74.3475 19.4629 73.3339C17.7126 72.3203 16.1698 71.1094 14.8343 69.7012C13.5283 68.2603 12.4581 66.5739 11.6239 64.6419C10.8208 62.7085 10.3436 60.4627 10.1922 57.9047C10.0446 55.4091 10.2367 53.101 10.7685 50.9805C11.3298 48.8273 12.1537 46.8809 13.2402 45.1413C14.3267 43.4017 15.6291 41.871 17.1473 40.5493C18.6949 39.1949 20.3958 38.0524 22.2502 37.1218C24.1027 36.1599 26.0627 35.4277 28.1302 34.9251C30.2271 34.3898 32.3525 34.0722 34.5064 33.9722C35.8175 33.9113 37.2131 33.9561 38.6932 34.1063C40.2027 34.2239 41.7021 34.4359 43.1914 34.7421C44.6788 35.0172 46.1397 35.3717 47.574 35.8056C49.0376 36.2069 50.3957 36.6756 51.6482 37.2118C52.8989 37.7168 54.0119 38.2751 54.9871 38.8868C55.9605 39.4672 56.7476 40.072 57.3482 40.701C57.7151 39.4953 58.1141 38.3037 58.5453 37.1263C59.0058 35.9162 59.482 34.7055 59.9737 33.4939C60.1976 33.0456 60.4904 32.7036 60.8521 32.4678C61.2431 32.1994 61.6571 32.0551 62.0942 32.0348C62.8121 32.0015 63.4209 32.2391 63.9206 32.7477C64.4184 33.2251 64.6857 33.7757 64.7226 34.3996C64.7429 34.7428 64.6705 35.1059 64.5054 35.4889C63.0815 38.9334 61.9394 42.3804 61.0793 45.8299C60.2485 49.2469 59.7171 52.6968 59.4849 56.1798C59.4594 56.8066 59.2245 57.3336 58.7803 57.7609C58.3654 58.1555 57.8458 58.3674 57.2215 58.3963C56.5035 58.4297 55.8947 58.192 55.3951 57.6834C54.8954 57.1748 54.6299 56.6554 54.5986 56.1251L54.5819 55.8443C54.7609 52.5202 55.2391 49.2291 56.0167 45.9711C55.7962 45.4183 55.2773 44.848 54.4599 44.2603C53.6408 43.6414 52.6361 43.0625 51.446 42.5233C50.2872 41.9828 48.9741 41.4807 47.5067 41.017C46.0376 40.5221 44.5418 40.1067 43.0194 39.7707C41.497 39.4347 39.9792 39.1767 38.4661 38.9967C36.9529 38.8167 35.572 38.7557 34.3234 38.8136C32.4192 38.902 30.605 39.1895 28.8809 39.6762C27.1568 40.1629 25.6347 40.8905 24.3147 41.8589C23.026 42.8259 22.0026 44.0464 21.2447 45.5205C20.4849 46.9634 20.1485 48.6839 20.2354 50.6818C20.4636 52.423 21.0214 53.9142 21.9087 55.1555C22.8254 56.3642 23.9202 57.4083 25.193 58.2876C26.497 59.1655 27.9488 59.8958 29.5484 60.4785C31.1461 61.0299 32.7549 61.5027 34.3746 61.8967C36.0237 62.2581 37.6232 62.5749 39.1731 62.847C40.7212 63.088 42.1278 63.3199 43.3931 63.5427C46.5903 64.145 49.6525 64.8475 52.5798 65.65C55.507 66.4526 58.0929 67.5682 60.3373 68.9968C62.6129 70.4239 64.4607 72.2932 65.8809 74.6047C67.2992 76.8849 68.1136 79.8032 68.324 83.3595Z" fill="black"/>
</g>
<defs>
<filter id="filter0_d_6_10" x="62.7934" y="41.1145" width="31.2424" height="32.3654" filterUnits="userSpaceOnUse" color-interpolation-filters="sRGB">
<feFlood flood-opacity="0" result="BackgroundImageFix"/>
<feColorMatrix in="SourceAlpha" type="matrix" values="0 0 0 0 0 0 0 0 0 0 0 0 0 0 0 0 0 0 127 0" result="hardAlpha"/>
<feOffset dy="4"/>
<feGaussianBlur stdDeviation="2"/>
<feComposite in2="hardAlpha" operator="out"/>
<feColorMatrix type="matrix" values="0 0 0 0 0 0 0 0 0 0 0 0 0 0 0 0 0 0 0.25 0"/>
<feBlend mode="normal" in2="BackgroundImageFix" result="effect1_dropShadow_6_10"/>
<feBlend mode="normal" in="SourceGraphic" in2="effect1_dropShadow_6_10" result="shape"/>
</filter>
<filter id="filter1_d_6_10" x="86.2372" y="33.7463" width="31.8807" height="39.8292" filterUnits="userSpaceOnUse" color-interpolation-filters="sRGB">
<feFlood flood-opacity="0" result="BackgroundImageFix"/>
<feColorMatrix in="SourceAlpha" type="matrix" values="0 0 0 0 0 0 0 0 0 0 0 0 0 0 0 0 0 0 127 0" result="hardAlpha"/>
<feOffset dy="4"/>
<feGaussianBlur stdDeviation="2"/>
<feComposite in2="hardAlpha" operator="out"/>
<feColorMatrix type="matrix" values="0 0 0 0 0 0 0 0 0 0 0 0 0 0 0 0 0 0 0.25 0"/>
<feBlend mode="normal" in2="BackgroundImageFix" result="effect1_dropShadow_6_10"/>
<feBlend mode="normal" in="SourceGraphic" in2="effect1_dropShadow_6_10" result="shape"/>
</filter>
<filter id="filter2_d_6_10" x="108.707" y="29.7785" width="29.2183" height="30.3917" filterUnits="userSpaceOnUse" color-interpolation-filters="sRGB">
<feFlood flood-opacity="0" result="BackgroundImageFix"/>
<feColorMatrix in="SourceAlpha" type="matrix" values="0 0 0 0 0 0 0 0 0 0 0 0 0 0 0 0 0 0 127 0" result="hardAlpha"/>
<feOffset dy="4"/>
<feGaussianBlur stdDeviation="2"/>
<feComposite in2="hardAlpha" operator="out"/>
<feColorMatrix type="matrix" values="0 0 0 0 0 0 0 0 0 0 0 0 0 0 0 0 0 0 0.25 0"/>
<feBlend mode="normal" in2="BackgroundImageFix" result="effect1_dropShadow_6_10"/>
<feBlend mode="normal" in="SourceGraphic" in2="effect1_dropShadow_6_10" result="shape"/>
</filter>
<filter id="filter3_d_6_10" x="133.481" y="28.1997" width="28.0704" height="28.2448" filterUnits="userSpaceOnUse" color-interpolation-filters="sRGB">
<feFlood flood-opacity="0" result="BackgroundImageFix"/>
<feColorMatrix in="SourceAlpha" type="matrix" values="0 0 0 0 0 0 0 0 0 0 0 0 0 0 0 0 0 0 127 0" result="hardAlpha"/>
<feOffset dy="4"/>
<feGaussianBlur stdDeviation="2"/>
<feComposite in2="hardAlpha" operator="out"/>
<feColorMatrix type="matrix" values="0 0 0 0 0 0 0 0 0 0 0 0 0 0 0 0 0 0 0.25 0"/>
<feBlend mode="normal" in2="BackgroundImageFix" result="effect1_dropShadow_6_10"/>
<feBlend mode="normal" in="SourceGraphic" in2="effect1_dropShadow_6_10" result="shape"/>
</filter>
<filter id="filter4_d_6_10" x="155.22" y="27.0022" width="26.4385" height="29.1851" filterUnits="userSpaceOnUse" color-interpolation-filters="sRGB">
<feFlood flood-opacity="0" result="BackgroundImageFix"/>
<feColorMatrix in="SourceAlpha" type="matrix" values="0 0 0 0 0 0 0 0 0 0 0 0 0 0 0 0 0 0 127 0" result="hardAlpha"/>
<feOffset dy="4"/>
<feGaussianBlur stdDeviation="2"/>
<feComposite in2="hardAlpha" operator="out"/>
<feColorMatrix type="matrix" values="0 0 0 0 0 0 0 0 0 0 0 0 0 0 0 0 0 0 0.25 0"/>
<feBlend mode="normal" in2="BackgroundImageFix" result="effect1_dropShadow_6_10"/>
<feBlend mode="normal" in="SourceGraphic" in2="effect1_dropShadow_6_10" result="shape"/>
</filter>
<filter id="filter5_d_6_10" x="176.028" y="27.7373" width="28.4383" height="29.6673" filterUnits="userSpaceOnUse" color-interpolation-filters="sRGB">
<feFlood flood-opacity="0" result="BackgroundImageFix"/>
<feColorMatrix in="SourceAlpha" type="matrix" values="0 0 0 0 0 0 0 0 0 0 0 0 0 0 0 0 0 0 127 0" result="hardAlpha"/>
<feOffset dy="4"/>
<feGaussianBlur stdDeviation="2"/>
<feComposite in2="hardAlpha" operator="out"/>
<feColorMatrix type="matrix" values="0 0 0 0 0 0 0 0 0 0 0 0 0 0 0 0 0 0 0.25 0"/>
<feBlend mode="normal" in2="BackgroundImageFix" result="effect1_dropShadow_6_10"/>
<feBlend mode="normal" in="SourceGraphic" in2="effect1_dropShadow_6_10" result="shape"/>
</filter>
<filter id="filter6_d_6_10" x="33.7353" y="52" width="211.265" height="59.336" filterUnits="userSpaceOnUse" color-interpolation-filters="sRGB">
<feFlood flood-opacity="0" result="BackgroundImageFix"/>
<feColorMatrix in="SourceAlpha" type="matrix" values="0 0 0 0 0 0 0 0 0 0 0 0 0 0 0 0 0 0 127 0" result="hardAlpha"/>
<feOffset dy="4"/>
<feGaussianBlur stdDeviation="1"/>
<feComposite in2="hardAlpha" operator="out"/>
<feColorMatrix type="matrix" values="0 0 0 0 0 0 0 0 0 0 0 0 0 0 0 0 0 0 0.5 0"/>
<feBlend mode="normal" in2="BackgroundImageFix" result="effect1_dropShadow_6_10"/>
<feBlend mode="normal" in="SourceGraphic" in2="effect1_dropShadow_6_10" result="shape"/>
</filter>
<filter id="filter7_d_6_10" x="5.26257" y="31.887" width="66.3324" height="81.6434" filterUnits="userSpaceOnUse" color-interpolation-filters="sRGB">
<feFlood flood-opacity="0" result="BackgroundImageFix"/>
<feColorMatrix in="SourceAlpha" type="matrix" values="0 0 0 0 0 0 0 0 0 0 0 0 0 0 0 0 0 0 127 0" result="hardAlpha"/>
<feOffset dy="4"/>
<feGaussianBlur stdDeviation="1"/>
<feComposite in2="hardAlpha" operator="out"/>
<feColorMatrix type="matrix" values="0 0 0 0 0 0 0 0 0 0 0 0 0 0 0 0 0 0 0.5 0"/>
<feBlend mode="normal" in2="BackgroundImageFix" result="effect1_dropShadow_6_10"/>
<feBlend mode="normal" in="SourceGraphic" in2="effect1_dropShadow_6_10" result="shape"/>
</filter>
</defs>
</svg>
