<svg width="235" height="149" viewBox="0 0 235 149" fill="none" xmlns="http://www.w3.org/2000/svg">
<g style="mix-blend-mode:color-burn" filter="url(#filter0_if_6_10)">
<ellipse cx="117.5" cy="74.5" rx="97.5" ry="54.5" fill="#484B8C" fill-opacity="0.29"/>
<ellipse cx="117.5" cy="74.5" rx="97.5" ry="54.5" fill="#2A4F2D" fill-opacity="0.2"/>
</g>
<g filter="url(#filter1_d_6_10)">
<path d="M155.708 77.4727C155.748 77.7559 155.998 78.756 156.268 79.6941C156.568 80.6942 156.798 81.7474 156.858 82.2607C156.917 82.8537 157.027 83.2962 157.207 83.6944C157.497 84.3051 157.577 85.0397 157.377 85.2167C157.317 85.2698 156.758 85.3583 156.148 85.4025L155.029 85.491L154.789 85.2344C154.169 84.5706 152.591 82.0571 152.021 80.8358L151.871 80.5083L152.261 80.2871C152.481 80.1632 152.661 79.995 152.661 79.9065C152.661 79.7207 151.411 79.0215 150.502 78.7117C149.273 78.2781 148.833 78.2515 143.967 78.2604C138.151 78.2781 134.314 78.4462 125.13 79.1011C119.534 79.4906 118.435 79.6056 117.536 79.8446C117.096 79.9685 116.257 80.1189 115.677 80.1897C114.588 80.3313 114.008 80.4906 112.41 81.119C111.9 81.3226 110.821 81.6854 110.021 81.9332C107.703 82.6413 106.864 83.0572 104.795 84.5352C102.837 85.9335 101.158 87.5708 100.049 89.1727L99.6888 89.6861L98.3698 89.748C97.6403 89.7746 95.8416 89.8454 94.3527 89.8896C91.085 89.9958 89.1064 90.1197 87.7075 90.2967C86.4484 90.456 86.4084 90.4649 86.4084 90.6419C86.4084 90.7215 86.2885 90.9605 86.1486 91.1818C85.549 92.0845 85.7489 94.536 86.6582 97.315C86.908 98.0584 86.908 98.2089 86.6682 98.2089C86.5983 98.2089 86.4684 98.2797 86.3684 98.3682C86.2285 98.5186 86.2185 98.616 86.3185 99.2355C86.4184 99.8727 86.8881 101.935 86.938 101.988C86.958 101.997 87.2978 102.05 87.7075 102.112C88.2271 102.183 89.6161 102.2 92.2042 102.174L95.9515 102.13L96.2613 102.935C96.4312 103.377 96.681 103.97 96.8309 104.254L97.1007 104.776L96.4811 104.723C96.1314 104.696 94.3926 104.652 92.6139 104.616L89.3763 104.563L89.4462 104.847L89.5062 105.139L88.287 105.077C86.0187 104.97 77.8945 104.926 74.0173 104.997C70.28 105.068 70.1701 105.077 70.1401 105.245C70.0802 105.546 69.9603 105.572 69.4606 105.422C68.8111 105.227 67.9617 105.245 66.6627 105.466C65.9032 105.599 65.2936 105.643 64.6741 105.625L63.7747 105.599L63.7448 106.059C63.7048 106.625 63.7448 106.634 64.844 106.316C65.5435 106.112 65.7133 106.094 67.4021 106.121C68.7012 106.139 69.2508 106.174 69.3607 106.263C69.4906 106.351 70.2201 106.369 72.6983 106.36C74.437 106.351 76.0359 106.325 76.2357 106.289C76.4856 106.254 76.6754 106.28 76.7853 106.36C76.9053 106.457 77.245 106.475 78.1643 106.457L79.3735 106.431L79.6233 106.767C79.9331 107.192 80.1129 107.218 80.5426 106.891C80.9523 106.572 81.2421 106.546 82.0116 106.785C82.4712 106.918 82.791 106.944 84.0601 106.918C85.2392 106.891 85.579 106.856 85.6689 106.758C85.7589 106.643 86.0986 106.634 88.1671 106.705C89.4762 106.749 91.7246 106.794 93.1535 106.794H95.7517L95.9315 107.077L96.1114 107.351L97.8302 107.307L99.5489 107.263V107.581C99.5489 107.891 99.5589 107.9 99.9486 107.926C100.168 107.944 101.517 107.891 102.946 107.811C105.145 107.679 106.824 107.67 107.523 107.794C107.593 107.803 107.653 107.705 107.673 107.564C107.713 107.263 107.893 107.254 109.012 107.51C109.482 107.617 109.981 107.679 110.201 107.652C110.511 107.617 110.591 107.643 110.701 107.82L110.821 108.033H116.087C123.522 108.033 127.059 107.953 127.249 107.785C127.369 107.679 127.609 107.652 128.508 107.687C129.128 107.705 130.287 107.723 131.096 107.723H132.565L132.595 108.033C132.625 108.396 132.655 108.396 134.074 108.227C135.093 108.103 137.791 108.095 139.77 108.21C142.098 108.351 144.836 108.325 145.925 108.165C146.645 108.05 146.985 108.041 147.344 108.112C148.843 108.396 150.782 108.307 152.111 107.891C152.651 107.723 153.02 107.67 153.75 107.67C154.259 107.67 154.809 107.714 154.959 107.767C155.129 107.829 155.509 107.856 155.928 107.82C156.298 107.794 157.667 107.741 158.956 107.687C160.245 107.643 161.954 107.572 162.753 107.537C163.862 107.493 164.512 107.51 165.521 107.626C166.82 107.776 166.86 107.776 167.63 107.599C168.539 107.387 170.388 107.28 175.394 107.139C177.263 107.086 179.201 107.015 179.691 106.971C180.191 106.926 181.29 106.847 182.139 106.794C182.989 106.741 184.188 106.652 184.807 106.599C186.066 106.484 188.395 106.555 190.024 106.741C191.123 106.873 191.453 106.829 191.572 106.555C191.682 106.298 191.293 106.086 190.713 106.086C190.443 106.086 190.143 106.05 190.044 106.006C189.924 105.944 189.724 105.962 189.424 106.059C188.924 106.209 187.975 106.174 187.485 105.988L187.186 105.873L187.485 105.838C187.875 105.794 188.035 105.67 188.035 105.413C188.035 105.103 187.715 104.997 186.946 105.059C186.486 105.094 186.166 105.077 185.887 104.979C185.477 104.855 182.729 104.785 182.399 104.9C182.089 105.006 182.239 105.112 182.689 105.112C182.939 105.112 183.139 105.147 183.139 105.201C183.139 105.298 182.619 105.316 182.269 105.236C182.159 105.209 182.039 105.112 182.009 105.015C181.959 104.855 181.849 104.847 180.54 104.847H179.131L179.321 104.599C179.431 104.466 179.701 104.041 179.921 103.652C180.141 103.262 180.401 102.882 180.5 102.802C180.63 102.696 180.97 102.643 181.64 102.607C182.159 102.572 183.199 102.448 183.938 102.315C184.927 102.147 185.807 102.068 187.236 102.014C189.004 101.953 189.674 101.873 189.994 101.678C190.104 101.616 190.183 101.306 190.293 100.439C190.353 100.041 190.403 99.9524 190.653 99.8373C191.173 99.5984 191.243 99.0585 190.763 98.9523C190.543 98.8992 189.754 98.9611 189.284 99.0585C189.124 99.0939 189.054 99.0408 188.954 98.8018C188.794 98.4036 188.405 98.2354 187.316 98.1027L186.486 97.9876L187.116 97.9345C187.795 97.8725 188.095 97.7309 187.835 97.5893C187.755 97.5451 187.196 97.5008 186.586 97.492L185.487 97.4743L186.306 97.3858L187.116 97.2973L187.226 96.9167C187.286 96.7043 187.326 96.4831 187.316 96.4211C187.296 96.3592 187.475 96.2707 187.735 96.2176C188.065 96.1379 188.195 96.0671 188.215 95.9343C188.265 95.6334 187.675 95.5095 186.306 95.5272C184.478 95.5449 184.498 95.5361 184.288 96.2176C184.198 96.5273 184.138 96.9787 184.158 97.2265L184.188 97.6601L183.218 97.7221L182.239 97.784V98.1204C182.239 98.4567 182.239 98.4567 182.739 98.5186C183.278 98.5806 183.998 98.5098 184.098 98.377C184.128 98.3328 184.248 98.3416 184.368 98.4036C184.508 98.4832 185.027 98.5186 185.857 98.5186C186.626 98.5186 187.166 98.554 187.236 98.616C187.425 98.7841 176.563 99.1647 169.309 99.2443L163.832 99.2974L164.062 98.908C164.222 98.6337 164.302 98.3151 164.332 97.8106C164.372 97.076 164.222 96.129 164.032 96.0317C163.813 95.9078 163.703 96.2176 163.653 97.1557C163.613 97.8814 163.563 98.1469 163.453 98.2089C163.093 98.4124 162.493 98.4921 160.895 98.5363L159.186 98.5894L159.126 98.377C159.066 98.1823 159.056 98.1823 158.876 98.3239C158.616 98.5363 158.067 98.6691 157.737 98.5983C157.497 98.554 157.467 98.5186 157.517 98.3328C157.567 98.1469 157.547 98.1204 157.327 98.1204C157.167 98.1204 157.017 98.0319 156.907 97.8903C156.748 97.669 156.718 97.6601 156.098 97.7221C155.189 97.8017 150.952 97.6778 151.032 97.5628C151.072 97.5097 151.841 97.492 153.15 97.5185C154.279 97.5451 155.538 97.5274 155.948 97.492C156.798 97.4035 157.717 97.1645 157.587 97.0495C157.547 97.0141 157.217 96.9698 156.858 96.9521L156.208 96.9256L156.708 96.8194C156.987 96.7663 157.417 96.6866 157.687 96.6601L158.157 96.607V96.2264C158.157 95.8635 158.167 95.8547 158.436 95.8901C158.766 95.9255 159.056 95.6954 158.876 95.5361C158.746 95.421 157.607 95.4299 156.708 95.5538C156.348 95.6069 154.869 95.6334 153.39 95.6246C151.591 95.6157 150.562 95.6423 150.262 95.7131C149.843 95.8104 149.803 95.8016 149.663 95.6246C149.103 94.8989 148.544 94.5537 147.744 94.4475C147.374 94.3944 147.264 94.3501 147.244 94.1997C147.224 94.0492 147.115 93.9961 146.765 93.9342C146.315 93.8634 142.448 93.9165 141.299 94.0227C140.699 94.0669 140.689 94.0758 140.619 94.3678C140.519 94.8458 140.17 95.1467 139.69 95.1467C139.2 95.1555 139.11 95.244 138.291 96.5716L137.691 97.5451L133.464 97.6336L129.237 97.7221L129.108 97.9434C128.938 98.2443 129.108 98.3859 129.637 98.3859C130.027 98.3859 130.067 98.4036 130.097 98.6248C130.127 98.8372 130.187 98.8815 130.527 98.9346C130.746 98.97 131.426 98.9965 132.045 98.9965C132.655 99.0054 133.225 99.0319 133.315 99.0585C133.664 99.1735 133.374 100.156 132.865 100.572C132.735 100.678 132.395 100.855 132.125 100.97C131.646 101.165 131.496 101.174 128.488 101.218C126.439 101.244 125.34 101.236 125.32 101.174C125.24 100.917 124.971 95.1644 125.001 94.1377L125.031 92.943L125.88 92.9253C126.35 92.9076 128.218 92.8368 130.027 92.7659C131.846 92.6951 134.094 92.6332 135.023 92.6332C139.82 92.6243 141.139 92.3234 141.858 91.0578C142.018 90.7658 142.268 90.4118 142.418 90.2613C142.708 89.9516 142.458 89.9781 147.015 89.748C150.142 89.5976 154.05 89.3232 155.888 89.1373C157.417 88.978 157.527 88.978 157.397 89.0931C157.347 89.1373 156.808 89.2612 156.208 89.3586C155.598 89.4648 154.439 89.6861 153.62 89.8631L152.141 90.1728L152.191 90.4206C152.241 90.633 152.211 90.6684 151.891 90.7392C151.381 90.8543 151.242 91.0844 151.551 91.3145C151.771 91.4738 151.941 91.4827 153.93 91.4738C155.109 91.4738 156.088 91.4827 156.118 91.5004C156.168 91.5535 153.33 91.7393 152.81 91.7216C152.501 91.7039 152.411 91.7393 152.381 91.8721C152.341 92.0314 152.401 92.0402 153.3 91.996C154.309 91.9517 154.759 91.9871 154.759 92.111C154.759 92.1553 154.129 92.1907 153.35 92.1907C152.101 92.1907 151.881 92.2172 151.451 92.3854C151.002 92.5712 150.752 92.8368 150.902 92.9607C150.932 92.9961 152.221 93.0315 153.76 93.058C156.518 93.1023 156.558 93.0934 156.558 92.9164C156.558 92.8013 156.468 92.7217 156.288 92.6686C156.018 92.6066 156.018 92.6066 156.408 92.5358C156.628 92.5004 157.207 92.465 157.687 92.465L158.566 92.4562L158.536 92.9607L158.506 93.474L158.836 93.4651C159.206 93.4474 159.196 93.4297 159.036 93.8899C158.936 94.182 158.946 94.2528 159.066 94.3236C159.446 94.536 159.626 94.3059 159.755 93.5005C159.805 93.1996 159.885 92.9341 159.925 92.8987C159.965 92.8545 160.235 92.8722 160.515 92.9253C161.484 93.1023 161.774 92.9076 162.254 91.7659C162.633 90.8631 162.713 90.2967 162.563 89.4825C162.503 89.1462 162.483 88.863 162.513 88.8364C162.533 88.8099 162.753 88.9603 162.983 89.1639C163.303 89.4471 163.493 89.5356 163.733 89.5356C164.022 89.5356 164.052 89.5091 164.052 89.2701C164.052 89.1196 164.102 89.0046 164.162 89.0046C164.352 89.0046 164.172 90.6861 163.842 92.0137C163.683 92.6686 163.523 93.474 163.483 93.7926C163.433 94.3059 163.453 94.3855 163.613 94.4475C163.912 94.5626 168.779 94.5714 173.715 94.4741C177.882 94.3855 179.341 94.4121 179.341 94.5626C179.341 94.598 178.562 94.6334 177.603 94.6334C176.633 94.6422 175.784 94.6865 175.684 94.7396C175.524 94.8192 175.544 94.8458 175.864 94.9785C176.174 95.1113 176.373 95.1201 177.423 95.0582C178.082 95.0139 178.722 94.9962 178.842 95.0228C179.052 95.067 179.052 95.0759 178.872 95.2086C178.772 95.2883 178.312 95.5184 177.852 95.7131C177.023 96.0582 177.003 96.0582 176.853 95.8901C176.713 95.7485 176.583 95.7219 175.944 95.7485C175.224 95.775 175.194 95.7839 175.164 96.0051C175.134 96.2441 175.174 96.2353 174.145 96.253C174.005 96.2618 173.496 96.0759 173.006 95.8547C172.366 95.5626 171.997 95.4476 171.657 95.4387C171.207 95.421 171.197 95.4299 171.167 95.7042C171.137 95.9786 171.107 95.9963 170.747 95.9963C170.378 95.9963 170.358 96.014 170.208 96.4123C169.938 97.1114 169.928 97.1026 170.917 97.076C172.037 97.0318 172.716 97.1645 173.156 97.5097L173.496 97.7663L173.276 97.908C172.986 98.085 172.986 98.377 173.256 98.6868C173.486 98.9434 173.925 98.9965 173.995 98.7841C174.145 98.3593 174.145 98.3593 174.285 98.4744C174.405 98.554 174.455 98.5363 174.545 98.3859L174.655 98.2L174.825 98.3859C174.924 98.5009 175.164 98.5894 175.404 98.6248C176.094 98.7045 176.533 98.3505 176.014 98.1469C175.794 98.0584 175.774 97.9788 175.714 97.1822C175.664 96.4831 175.674 96.2884 175.794 96.1821C175.914 96.0759 175.984 96.0759 176.204 96.1644L176.473 96.2707L176.403 97.1291C176.353 97.8017 176.363 98.0319 176.473 98.1558C176.613 98.3239 176.653 98.2974 177.403 97.7575C178.082 97.2707 178.262 97.1911 178.692 97.1468C179.151 97.1026 179.191 97.0849 179.251 96.8194C179.281 96.6689 179.501 96.3503 179.731 96.1202C179.961 95.8901 180.131 95.66 180.111 95.6069C180.091 95.5538 179.931 95.4299 179.761 95.3325C179.591 95.2352 179.451 95.129 179.441 95.1024C179.441 95.0316 185.977 95.0847 187.715 95.1644C188.325 95.1909 188.834 95.2529 188.834 95.2971C188.834 95.3325 188.745 95.4476 188.635 95.5361C188.325 95.7839 188.195 97.5097 188.435 98.0673C188.535 98.3151 188.555 98.3151 188.715 98.1735C188.854 98.0584 188.894 97.8283 188.914 97.0318L188.944 96.0405L189.444 95.6334C189.924 95.2352 190.044 94.952 189.854 94.7042C189.814 94.6511 189.494 94.5626 189.134 94.5006C188.784 94.4386 188.325 94.3147 188.125 94.2174C187.685 94.0227 187.206 93.5448 187.276 93.3766C187.445 92.9784 188.055 90.7746 188.195 90.0312C188.365 89.1462 188.355 87.3142 188.185 86.9425C188.075 86.7035 187.316 86.438 186.496 86.3495C185.977 86.2964 185.357 86.3141 184.098 86.4469C183.159 86.5354 181.849 86.615 181.2 86.615C180.54 86.615 179.631 86.677 179.161 86.7566C178.612 86.8451 178.132 86.8717 177.802 86.8363C177.523 86.8009 176.633 86.7832 175.814 86.792C174.455 86.8097 174.295 86.792 173.665 86.5796C172.906 86.323 169.868 85.8716 167.999 85.7388C167.34 85.6857 165.361 85.5884 163.603 85.5087C161.844 85.4291 159.995 85.3494 159.486 85.3229L158.576 85.2698L158.117 84.3671C157.347 82.8448 157.327 82.774 157.307 81.5704C157.287 80.5703 157.247 80.3667 156.927 79.4906C156.738 78.9507 156.528 78.2427 156.468 77.9064C156.358 77.2691 156.158 76.9682 155.838 76.9682C155.658 76.9682 155.648 77.0125 155.708 77.4727ZM147.145 79.0569C147.334 79.2516 147.434 79.2782 147.684 79.2339C148.004 79.1808 149.653 79.3401 149.783 79.4375C149.823 79.464 147.484 79.4906 144.586 79.4906C137.192 79.4906 131.176 79.7295 130.357 80.0481C129.337 80.4464 128.638 81.7031 127.828 84.6149C127.389 86.1814 127.369 86.7743 127.759 87.1549C128.128 87.5266 128.808 87.677 129.727 87.5885C130.117 87.5443 131.256 87.4735 132.275 87.4204C133.295 87.3584 137.072 87.0841 140.669 86.792C147.185 86.2699 148.204 86.2079 153.71 85.9512C157.217 85.7919 161.814 85.8627 161.104 86.0752C160.875 86.1371 159.815 86.2168 158.556 86.261C157.377 86.2964 156.248 86.3584 156.058 86.3849C155.019 86.5442 144.267 87.2345 135.923 87.677C126.789 88.1638 124.381 88.2966 123.831 88.3497C123.032 88.4205 123.162 88.3408 124.131 88.1638C124.571 88.0842 125.11 87.9337 125.33 87.8275C125.69 87.6505 125.76 87.562 126 86.9248C126.37 85.9512 127.499 82.5793 127.779 81.6323C127.998 80.8889 127.998 80.8535 127.828 80.6853C127.379 80.2428 126.08 80.1455 123.681 80.3756C122.362 80.4995 118.435 80.9951 116.637 81.2695C112.939 81.827 108.722 83.0749 106.724 84.2166C105.605 84.845 103.306 86.9779 103.006 87.6593C102.737 88.2612 102.727 88.9072 102.996 89.155C103.156 89.3143 103.166 89.3497 103.036 89.394C102.817 89.4737 100.698 89.571 100.698 89.5091C100.698 89.4737 100.898 89.217 101.128 88.9426C101.368 88.6594 101.747 88.1904 101.967 87.8983C102.577 87.1018 104.805 85.1547 105.894 84.4733C107.933 83.1988 111.73 81.712 115.148 80.8624C116.327 80.5703 118.365 80.2871 121.883 79.9419C128.628 79.2693 143.967 78.5613 143.967 78.9153C143.967 78.9684 143.857 78.9861 143.707 78.9507C143.507 78.9064 143.457 78.9241 143.487 79.0126C143.567 79.2162 143.867 79.2162 144.177 79.0126C144.576 78.7471 145.236 78.756 145.376 79.0215C145.466 79.2074 145.536 79.2251 146.025 79.1985C146.625 79.1631 146.745 78.9595 146.165 78.9595C145.965 78.9595 145.816 78.9064 145.786 78.8356C145.746 78.7383 145.845 78.7206 146.325 78.7648C146.795 78.8091 146.965 78.8622 147.145 79.0569ZM148.633 80.5349C148.973 80.5437 149.213 80.588 149.173 80.6234C149.123 80.6676 148.913 80.703 148.693 80.703C148.484 80.6942 148.224 80.7207 148.124 80.7473C147.934 80.7915 147.934 80.8004 148.114 80.9155C148.214 80.9863 148.444 81.0394 148.603 81.0394C148.843 81.0394 148.873 81.0659 148.763 81.1279C148.683 81.1721 148.404 81.2164 148.144 81.2164C147.804 81.2164 147.664 81.2518 147.664 81.3403C147.664 81.5261 147.944 81.5881 148.514 81.5261C149.173 81.4465 149.243 81.4022 149.413 80.9863L149.543 80.6499L150.152 80.6588C150.942 80.6588 151.152 80.8269 151.681 81.827C151.891 82.2341 152.381 82.9687 152.76 83.4732C153.4 84.3051 153.96 85.2078 153.96 85.4202C153.96 85.5441 150.182 85.4202 148.713 85.2432C148.054 85.1636 147.085 85.022 146.565 84.9246C146.045 84.8273 145.346 84.7122 145.016 84.6591C144.686 84.6149 144.107 84.491 143.717 84.3936C142.848 84.1635 142.408 84.1989 141.269 84.6149C140.799 84.783 140.11 84.9689 139.73 85.022C139.35 85.0751 137.851 85.4025 136.382 85.7477C134.923 86.0929 133.235 86.4911 132.625 86.6327C131.426 86.9071 129.847 87.0398 129.277 86.9071C128.798 86.792 128.648 86.3318 128.718 85.2432C128.808 83.8095 129.547 81.8801 130.227 81.2783C131.016 80.588 133.784 80.411 142.618 80.4818C145.586 80.4995 148.294 80.526 148.633 80.5349ZM124.931 81.65C124.991 81.7385 123.791 82.4023 123.711 82.3315C123.681 82.3138 123.761 82.2518 123.871 82.1899C123.991 82.1368 124.081 82.0217 124.081 81.9332C124.081 81.827 124.201 81.7474 124.461 81.6854C124.661 81.6323 124.841 81.5881 124.851 81.5792C124.861 81.5792 124.891 81.6058 124.931 81.65ZM126.21 81.6235C126.24 81.6589 125.72 82.0306 125.06 82.4731C123.761 83.3139 122.093 84.2608 122.013 84.1989C121.943 84.1281 123.332 83.1546 124.661 82.3492C125.9 81.5969 126.08 81.5084 126.21 81.6235ZM122.882 81.6943C122.882 81.7208 122.612 81.9155 122.282 82.1368C121.953 82.358 121.683 82.5173 121.683 82.4819C121.683 82.3757 122.602 81.6589 122.742 81.6589C122.822 81.6589 122.882 81.6766 122.882 81.6943ZM123.981 81.7031C123.981 81.7208 123.841 81.8093 123.681 81.8801C123.512 81.9598 122.922 82.3315 122.352 82.7032C121.273 83.4378 121.083 83.5528 121.083 83.4909C121.083 83.4201 122.422 82.4908 123.132 82.066C123.771 81.6854 123.981 81.5969 123.981 81.7031ZM121.683 81.9686C121.613 82.0394 121.483 82.1014 121.393 82.1014C121.273 82.0925 121.283 82.0571 121.473 81.9155C121.733 81.7208 121.883 81.7562 121.683 81.9686ZM119.085 81.9952C119.085 82.066 117.466 83.1103 117.086 83.2962C116.776 83.4466 117.156 83.1634 118.086 82.5527C119.135 81.8713 119.085 81.8978 119.085 81.9952ZM118.026 82.1722C117.966 82.2076 117.766 82.3403 117.576 82.4731C117.386 82.6059 117.096 82.7563 116.936 82.8094L116.637 82.9068L116.936 82.6236C117.226 82.3492 117.986 81.9775 118.076 82.066C118.106 82.0925 118.086 82.1368 118.026 82.1722ZM116.936 82.2607C116.687 82.4465 116.097 82.8094 116.037 82.8094C115.907 82.8094 116.167 82.5262 116.447 82.358C116.727 82.1987 117.126 82.1102 116.936 82.2607ZM119.245 84.1546C118.145 87.031 118.046 87.7479 118.725 88.2612C119.175 88.6063 119.095 88.6506 117.966 88.6506H117.166L117.416 88.27C117.796 87.6859 118.125 86.8717 118.675 85.1813C119.295 83.2785 119.714 82.243 119.764 82.5173C119.784 82.6324 119.544 83.367 119.245 84.1546ZM114.708 82.7298C114.528 82.8802 114.348 82.9776 114.318 82.951C114.228 82.8714 114.698 82.4554 114.878 82.4554C114.988 82.4554 114.928 82.5439 114.708 82.7298ZM126.639 82.8714C126.489 82.9864 126.16 83.1457 125.9 83.2077C125.64 83.2785 125.07 83.5794 124.641 83.8714C123.691 84.5087 123.432 84.5795 124.221 83.9776C125.44 83.0749 127.609 82.0748 126.639 82.8714ZM121.283 82.8537C121.213 82.9333 121.133 82.9687 121.093 82.9422C121.063 82.9156 121.103 82.8537 121.183 82.8094C121.393 82.6855 121.423 82.7032 121.283 82.8537ZM118.245 83.2165C118.135 83.2785 118.026 83.3139 117.996 83.2873C117.966 83.2608 118.026 83.1811 118.125 83.1103C118.235 83.0484 118.345 83.013 118.375 83.0395C118.405 83.0661 118.345 83.1457 118.245 83.2165ZM116.387 83.1634C116.387 83.2077 116.237 83.3139 116.067 83.3847L115.737 83.5263L116.037 83.305C116.377 83.0484 116.387 83.0395 116.387 83.1634ZM111.33 83.4643C111.26 83.6236 110.851 83.8714 110.671 83.8714C110.601 83.8626 110.701 83.7475 110.891 83.6059C111.26 83.3139 111.41 83.2696 111.33 83.4643ZM118.675 83.5705C118.615 83.6413 118.495 83.6944 118.425 83.6944C118.225 83.6944 118.255 83.4466 118.465 83.4024C118.715 83.3581 118.815 83.4289 118.675 83.5705ZM111.69 83.7652C111.69 83.8803 111.57 83.9599 111.47 83.9068C111.37 83.8537 111.46 83.6944 111.6 83.6944C111.65 83.6944 111.69 83.7298 111.69 83.7652ZM112.49 83.8714C112.49 83.9157 112.29 84.4998 112.05 85.1724C110.911 88.2966 110.841 88.5709 111.111 88.8099C111.23 88.9161 111.26 88.9072 110.571 89.0754C110.081 89.1904 109.991 89.0665 110.331 88.7479C110.471 88.6152 110.591 88.4382 110.591 88.3585C110.591 88.2789 110.671 88.1373 110.771 88.0488C110.861 87.9691 111.061 87.5177 111.21 87.0575C111.49 86.146 112.17 84.075 112.24 83.8891C112.29 83.7652 112.49 83.7475 112.49 83.8714ZM126.28 83.9511C126.28 84.0484 126.17 84.4379 126.04 84.8184C125.91 85.199 125.7 85.8273 125.58 86.2168C125.33 87.0398 125.19 87.2699 124.751 87.5C124.201 87.801 124.151 87.7567 124.221 87.0575C124.361 85.8362 124.741 85.0662 125.61 84.2431C126.15 83.7475 126.28 83.6856 126.28 83.9511ZM117.266 84.1281C117.836 84.1723 118.315 84.2254 118.335 84.2431C118.465 84.3582 117.286 87.4381 116.886 88.0045C116.707 88.27 116.637 88.2966 116.217 88.2966C115.947 88.2966 115.268 88.3585 114.688 88.4293C114.108 88.5001 113.309 88.5621 112.899 88.5621H112.16L112.22 88.0045C112.25 87.7036 112.37 87.2168 112.48 86.9248C113.019 85.4468 113.499 84.3582 113.629 84.2963C114.028 84.0927 115.727 84.0219 117.266 84.1281ZM111.35 84.6503C111.181 85.6415 110.391 87.6062 109.871 88.3851L109.542 88.8718L107.643 88.863C105.325 88.8541 104.925 88.7745 104.975 88.2877C104.995 88.1196 105.075 87.8541 105.155 87.6948C105.335 87.3053 106.324 86.146 106.954 85.5884C107.713 84.9246 108.163 84.7653 109.712 84.6149C110.431 84.5529 111.071 84.4556 111.131 84.4025C111.33 84.2254 111.41 84.3228 111.35 84.6503ZM121.623 84.9335C122.203 85.2786 122.642 85.7565 122.832 86.2522C122.992 86.6593 123.032 87.562 122.902 87.7302C122.802 87.8718 120.664 88.155 120.244 88.0842C119.824 88.0134 119.584 87.6859 119.584 87.1903C119.584 87.0133 119.764 86.3849 119.984 85.7831C120.204 85.1901 120.384 84.6326 120.384 84.5529C120.384 84.4202 120.424 84.4202 120.784 84.5352C121.003 84.606 121.383 84.783 121.623 84.9335ZM141.549 85.3406C141.988 85.6061 141.708 85.9778 141.199 85.8096C140.929 85.7211 140.799 85.3848 140.979 85.2786C141.179 85.1724 141.299 85.1813 141.549 85.3406ZM142.968 85.3583C143.197 85.4822 143.237 85.5441 143.147 85.6238C142.888 85.8539 142.268 85.668 142.268 85.376C142.268 85.1459 142.558 85.1459 142.968 85.3583ZM144.417 85.553C144.387 85.5972 144.317 85.6415 144.257 85.6415C144.207 85.6415 144.167 85.5972 144.167 85.553C144.167 85.4999 144.237 85.4645 144.327 85.4645C144.407 85.4645 144.446 85.4999 144.417 85.553ZM140.439 85.6857C140.509 85.8627 140.439 85.9247 140.24 85.8539C139.99 85.7742 139.94 85.553 140.18 85.553C140.289 85.553 140.399 85.6149 140.439 85.6857ZM139.61 85.8627C139.64 85.9424 139.6 86.0221 139.5 86.0575C139.33 86.1194 139.05 85.9955 138.99 85.8362C138.93 85.6769 139.54 85.7034 139.61 85.8627ZM138.451 86.0663C138.481 86.146 138.421 86.1814 138.261 86.1548C138.141 86.146 138.021 86.0752 137.991 86.0132C137.961 85.9335 138.021 85.8981 138.181 85.9247C138.301 85.9335 138.421 86.0044 138.451 86.0663ZM166.76 86.1725C169.239 86.3938 171.117 86.854 172.256 87.5354L172.896 87.9072L172.906 88.4205C172.926 88.8364 172.986 89.0134 173.216 89.3055C173.506 89.6772 174.605 90.3941 174.725 90.2967C174.845 90.1817 174.865 89.0931 174.745 88.8276C174.575 88.4559 173.935 87.9603 172.966 87.4558C172.516 87.208 172.146 86.9867 172.146 86.9602C172.146 86.9336 172.696 87.0221 173.376 87.1637C178.372 88.2081 181.58 90.2171 182.899 93.12C183.089 93.5359 183.238 93.8988 183.238 93.9253C183.238 93.9607 181.68 93.9696 179.781 93.9342C175.924 93.8811 176.074 93.9076 175.974 93.2616C175.944 93.058 175.884 92.8722 175.834 92.8456C175.664 92.7571 175.354 93.1642 175.294 93.5536C175.224 93.9342 175.204 93.9607 174.904 93.9607C172.956 93.9519 164.212 93.7749 164.162 93.7395C164.122 93.7218 164.212 93.1288 164.382 92.4385C164.642 91.3145 164.682 90.987 164.692 89.4914C164.702 87.9514 164.682 87.7656 164.482 87.2788C164.352 86.9956 164.112 86.6062 163.952 86.4203L163.643 86.084H164.682C165.261 86.084 166.191 86.1283 166.76 86.1725ZM136.572 86.3495C136.572 86.3938 136.452 86.438 136.312 86.438C136.172 86.438 136.083 86.4026 136.122 86.3495C136.152 86.2964 136.272 86.261 136.382 86.261C136.482 86.261 136.572 86.2964 136.572 86.3495ZM161.554 86.7478C161.554 86.7743 161.404 87.0398 161.224 87.3407L160.885 87.8983L160.785 87.6151C160.705 87.3938 160.715 87.2965 160.815 87.2257C160.985 87.1018 160.995 86.8186 160.835 86.7655C160.765 86.7389 160.895 86.7124 161.134 86.7124C161.364 86.7035 161.554 86.7212 161.554 86.7478ZM158.426 87.6682L158.446 88.4647L158.027 88.5178C156.518 88.6948 153.36 88.9338 150.992 89.0488C149.463 89.1196 147.424 89.2347 146.465 89.3143C145.506 89.3851 141.818 89.6064 138.271 89.8011C134.724 89.9958 130.327 90.2525 128.498 90.3587C126.659 90.4649 125.15 90.5357 125.14 90.5091C125.05 90.3764 125.41 89.2966 125.62 89.0577C125.86 88.7745 125.89 88.7656 126.849 88.7125C127.389 88.6771 128.708 88.5886 129.777 88.5178C132.075 88.3674 136.412 88.1373 143.767 87.7656C151.391 87.385 155.199 87.1549 156.058 87.0133C156.468 86.9513 157.167 86.8982 157.607 86.8894L158.406 86.8805L158.426 87.6682ZM185.907 87.0133C185.927 87.0664 185.837 87.1549 185.727 87.2257C185.537 87.323 185.497 87.323 185.427 87.208C185.357 87.1106 185.237 87.1018 184.817 87.1549C184.528 87.1991 183.478 87.2699 182.489 87.323C181.5 87.3673 180.101 87.4735 179.371 87.5531C178.262 87.6859 177.962 87.6859 177.493 87.5974C177.193 87.5354 176.963 87.4558 176.983 87.4204C177.013 87.385 177.273 87.3496 177.563 87.3319C179.951 87.2434 185.177 86.969 185.217 86.9248C185.317 86.8451 185.867 86.9159 185.907 87.0133ZM182.169 87.8275C181.929 87.8452 181.74 87.8895 181.74 87.9249C181.74 87.9603 181.33 87.9957 180.84 87.9957C180.341 88.0045 179.941 87.978 179.941 87.9337C179.941 87.8187 180.251 87.7833 181.44 87.7921C182.069 87.7921 182.399 87.8098 182.169 87.8275ZM160.355 87.9426C160.355 87.9868 160.225 88.0311 160.055 88.0311C159.895 88.0311 159.755 87.9868 159.755 87.9426C159.755 87.8895 159.895 87.8541 160.055 87.8541C160.225 87.8541 160.355 87.8895 160.355 87.9426ZM181.81 88.3497C181.78 88.3762 181.69 88.3851 181.62 88.3585C181.54 88.332 181.57 88.3054 181.68 88.3054C181.79 88.2966 181.849 88.3231 181.81 88.3497ZM180.8 88.5001C180.44 88.5975 180.421 88.6152 180.58 88.7391C180.75 88.8541 180.75 88.8718 180.57 88.978C180.421 89.0842 180.411 89.1108 180.54 89.1816C180.79 89.3232 181.06 89.2789 181.11 89.0931C181.17 88.8895 181.69 88.7391 182.339 88.7391C182.749 88.7479 182.769 88.7568 182.599 88.8718C182.439 88.978 182.429 89.0223 182.539 89.1373C182.649 89.2524 182.579 89.2701 181.959 89.2701C181.55 89.2701 181.22 89.3143 181.18 89.3674C181.08 89.5179 181.33 89.6153 181.73 89.571C182.089 89.5356 182.089 89.5356 181.82 89.6418C181.5 89.7657 181.45 89.9781 181.74 89.9781C181.869 89.9781 181.939 90.0401 181.939 90.1463C181.939 90.2436 182.079 90.4029 182.239 90.5091C182.409 90.6153 182.539 90.7746 182.539 90.872C182.539 90.987 182.609 91.0401 182.779 91.0401C182.919 91.0401 183.059 90.9959 183.089 90.9516C183.209 90.7835 183.338 90.8631 183.288 91.0667C183.248 91.1995 183.278 91.3145 183.378 91.3853C183.548 91.5092 183.578 91.7393 183.478 92.0845L183.408 92.288L183.179 92.0933C183.039 91.9783 182.789 91.6862 182.619 91.4473C182.159 90.8012 181.65 90.2436 181.5 90.2436C181.43 90.2436 181.23 90.0666 181.05 89.8454C180.87 89.6153 180.54 89.3409 180.331 89.217C180.021 89.0488 179.941 88.9515 179.941 88.7479C179.941 88.5709 179.881 88.4736 179.771 88.447C179.671 88.4205 179.951 88.4028 180.391 88.4028C181.16 88.4028 181.17 88.4028 180.8 88.5001ZM161.494 88.7922C161.444 88.9515 161.494 89.0754 161.664 89.2347C161.854 89.4117 161.864 89.4471 161.714 89.4471C161.624 89.4471 161.524 89.3851 161.494 89.3143C161.414 89.1373 161.184 89.1462 161.064 89.332C160.915 89.5799 160.845 89.4117 160.965 89.0842C161.114 88.7125 161.234 88.5621 161.414 88.5621C161.514 88.5621 161.544 88.624 161.494 88.7922ZM124.911 89.1904C124.741 89.4206 124.611 89.7303 124.581 90.0047C124.531 90.4118 124.501 90.456 124.231 90.5268C124.071 90.5711 122.872 90.6596 121.573 90.7304C120.274 90.7923 119.085 90.8808 118.925 90.9162C118.455 91.0136 118.705 90.872 119.295 90.7038C119.864 90.5445 120.174 90.2259 120.044 89.9339C119.994 89.8011 119.894 89.7834 119.385 89.8277C118.815 89.8719 118.775 89.8631 118.575 89.6153C118.325 89.3055 117.986 89.2789 117.486 89.5445C117.006 89.81 116.886 89.9693 116.996 90.2259C117.176 90.633 117.106 90.8366 116.776 90.9428C116.597 90.9959 116.327 91.0401 116.167 91.0401C115.877 91.0401 115.867 91.0313 115.937 90.6596C115.977 90.456 116.147 90.0489 116.327 89.7569L116.657 89.2258L117.796 89.155C119.734 89.04 125.13 88.7745 125.16 88.7922C125.18 88.801 125.07 88.978 124.911 89.1904ZM160.355 89.3055C160.355 89.3763 160.315 89.4648 160.255 89.4914C160.205 89.5179 160.155 89.4648 160.155 89.3674C160.155 89.2612 160.205 89.1816 160.255 89.1816C160.315 89.1816 160.355 89.2347 160.355 89.3055ZM115.737 89.7303C115.607 89.987 115.447 90.3852 115.387 90.6153C115.278 91.0047 115.248 91.0224 114.858 91.0756C114.028 91.1729 110.391 91.3942 110.391 91.3499C110.391 91.3411 110.681 91.1995 111.041 91.049C112.09 90.5888 112.17 90.2171 111.24 90.1109C110.921 90.0755 110.491 89.9958 110.271 89.925C109.712 89.748 109.362 89.7657 109.042 89.9958C108.802 90.164 108.772 90.2259 108.822 90.5445C108.852 90.7481 108.912 90.987 108.942 91.0933C109.042 91.3676 108.752 91.5712 108.283 91.5712C107.793 91.5712 107.783 91.5092 108.283 90.4206L108.652 89.5799L110.451 89.5179C111.43 89.4825 112.779 89.4117 113.439 89.3763C114.098 89.332 114.938 89.2878 115.308 89.2789L115.977 89.2701L115.737 89.7303ZM185.137 89.4471C185.137 89.4914 185.097 89.5356 185.037 89.5356C184.987 89.5356 184.937 89.4914 184.937 89.4471C184.937 89.394 184.987 89.3586 185.037 89.3586C185.097 89.3586 185.137 89.394 185.137 89.4471ZM186.276 89.7569C186.366 89.8719 186.526 90.0489 186.646 90.1463C186.766 90.2436 186.826 90.3587 186.796 90.4029C186.656 90.6065 186.706 91.4915 186.866 91.642C187.016 91.7836 187.016 91.8544 186.876 92.3677C186.796 92.6863 186.716 93.2439 186.706 93.6067L186.686 94.2705L187.066 94.3501C187.266 94.3944 187.435 94.4652 187.435 94.5095C187.435 94.5449 185.986 94.5803 184.218 94.5803C182.099 94.5803 181.04 94.5449 181.14 94.4918C181.22 94.4475 181.859 94.4032 182.559 94.4032C184.088 94.4032 184.068 94.4209 183.778 93.1819C183.738 93.0226 183.778 92.9872 183.988 92.9872C185.077 92.9872 185.797 91.9783 185.917 90.2613C185.937 89.8631 185.996 89.5356 186.036 89.5356C186.076 89.5356 186.186 89.633 186.276 89.7569ZM157.957 89.9073C157.957 89.9427 157.687 89.9781 157.347 89.9781C156.977 89.9781 156.768 89.9427 156.808 89.8896C156.838 89.8365 156.977 89.8011 157.107 89.8011C157.237 89.8011 157.367 89.7657 157.407 89.7126C157.477 89.6153 157.957 89.7834 157.957 89.9073ZM107.883 90.102C107.723 90.3233 107.513 90.7569 107.423 91.0756L107.263 91.6508L106.764 91.7482C105.884 91.9163 105.145 92.3411 104.266 93.1731C103.606 93.8014 103.416 93.9342 103.276 93.8634C103.186 93.8191 102.707 93.6952 102.227 93.589C101.458 93.412 101.088 93.3855 99.2491 93.3943C96.9008 93.3943 95.9415 93.5005 94.3327 93.9784C92.9237 94.3944 90.8652 95.5715 89.8159 96.5627C89.3563 97.0141 89.2064 97.0406 89.0965 96.6955C89.0565 96.5804 88.7667 95.7839 88.4569 94.9343C87.6375 92.6863 87.1978 90.8631 87.4876 90.8631C87.6675 90.8631 92.7538 90.5711 98.2498 90.2436C106.764 89.7392 106.774 89.7392 107.513 89.7215L108.183 89.7126L107.883 90.102ZM118.086 90.0666C118.086 90.1817 118.016 90.2436 117.886 90.2436C117.756 90.2436 117.686 90.1817 117.686 90.0666C117.686 89.9516 117.756 89.8896 117.886 89.8896C118.016 89.8896 118.086 89.9516 118.086 90.0666ZM141.668 90.164C141.668 90.341 140.759 91.3676 140.519 91.465C139.96 91.6951 139.05 91.7659 132.725 92.0579C131.186 92.1287 129.207 92.2084 128.328 92.2349C127.449 92.2615 126.31 92.3057 125.81 92.3323L124.881 92.3765V91.8632C124.881 90.9251 124.801 90.9782 126.36 90.9162C129.387 90.7835 132.345 90.5711 132.725 90.456C133.015 90.3675 133.724 90.3321 135.323 90.3233C136.532 90.3233 138.131 90.2613 138.871 90.1994C140.649 90.0489 141.668 90.0401 141.668 90.164ZM109.941 90.3852C110.141 90.5622 110.091 90.7215 109.831 90.7569C109.532 90.7923 109.362 90.6419 109.442 90.4295C109.522 90.2082 109.712 90.1905 109.941 90.3852ZM156.508 90.4118C156.448 90.456 155.868 90.5091 155.209 90.5268C154.11 90.5622 154.05 90.5534 154.509 90.456C155.099 90.3321 156.648 90.2967 156.508 90.4118ZM157.407 90.8543C157.547 90.9074 157.397 90.9428 156.907 90.987C156.528 91.0224 155.968 91.0667 155.688 91.0933C155.349 91.1287 155.159 91.1198 155.159 91.0578C155.159 91.0047 155.419 90.9428 155.738 90.9074C156.048 90.872 156.358 90.8366 156.408 90.8189C156.588 90.7658 157.207 90.7835 157.407 90.8543ZM154.609 91.0401C154.319 91.1464 153.13 91.1464 153.21 91.0401C153.24 90.987 153.62 90.9516 154.04 90.9605C154.559 90.9605 154.749 90.987 154.609 91.0401ZM124.281 91.7393V92.4296L122.013 92.4916C120.754 92.5181 118.825 92.5712 117.706 92.5978L115.677 92.6597L115.707 92.0933L115.737 91.5269L116.287 91.465C116.587 91.4296 118.415 91.3234 120.334 91.2349C122.263 91.1375 123.931 91.0578 124.061 91.049C124.271 91.0401 124.281 91.0667 124.281 91.7393ZM152.76 91.0756C152.76 91.1464 152.251 91.1906 152.201 91.1198C152.171 91.0755 152.291 91.0401 152.451 91.0401C152.621 91.0401 152.76 91.0578 152.76 91.0756ZM157.337 91.4384C157.307 91.465 157.107 91.5092 156.897 91.5446C156.628 91.58 156.538 91.5623 156.608 91.5004C156.668 91.4473 156.848 91.3942 157.007 91.3765C157.327 91.3411 157.427 91.3676 157.337 91.4384ZM115.238 92.1199C115.198 92.4296 115.158 92.6863 115.138 92.704C115.128 92.7128 114.108 92.7659 112.879 92.8191C111.65 92.8633 110.011 92.9607 109.242 93.0226C108.472 93.0846 107.813 93.12 107.773 93.1023C107.643 93.0403 107.683 92.3411 107.823 92.1022L107.953 91.8809L110.691 91.7393C112.2 91.6597 113.859 91.5889 114.368 91.5889L115.308 91.5712L115.238 92.1199ZM86.8481 92.0668C86.958 92.3234 86.908 92.4562 86.7082 92.4562C86.4883 92.4562 86.4783 92.4296 86.5683 92.1199C86.6382 91.8898 86.7581 91.8632 86.8481 92.0668ZM156.308 92.0048C156.248 92.1022 155.858 92.0933 155.858 91.996C155.858 91.9606 155.978 91.9252 156.118 91.9252C156.258 91.9252 156.348 91.9606 156.308 92.0048ZM107.193 92.7128V93.2262L106.744 93.3855C106.144 93.589 105.794 93.8545 105.335 94.4741C105.135 94.7484 104.955 94.9874 104.935 95.0051C104.895 95.0582 103.896 94.6511 103.896 94.5803C103.896 94.5449 104.076 94.2705 104.305 93.9696C104.915 93.1554 105.834 92.5093 106.694 92.2703C107.173 92.1464 107.193 92.1641 107.193 92.7128ZM159.266 92.9607C159.166 93.1111 159.166 93.1111 159.156 92.943C159.156 92.8456 159.196 92.6686 159.236 92.5447L159.306 92.3234L159.336 92.5624C159.356 92.6951 159.326 92.8722 159.266 92.9607ZM154.689 92.5447C155.239 92.5447 155.668 92.5624 155.638 92.5889C155.618 92.6155 155.099 92.6509 154.479 92.6686C153.61 92.6951 153.33 92.6774 153.19 92.5712C153.03 92.4562 153.04 92.4473 153.35 92.4916C153.53 92.5181 154.139 92.5447 154.689 92.5447ZM152.241 92.6066C152.141 92.6243 151.981 92.6243 151.891 92.6066C151.791 92.5801 151.871 92.5624 152.061 92.5624C152.251 92.5624 152.331 92.5801 152.241 92.6066ZM124.261 93.0934C124.321 93.1642 124.361 93.8722 124.371 94.8015C124.381 96.5362 124.531 99.2532 124.681 100.377C124.741 100.775 124.741 101.112 124.691 101.156C124.641 101.2 122.872 101.218 120.724 101.2C117.396 101.174 116.786 101.147 116.477 101.023L116.107 100.882L116.047 99.8727C116.007 99.324 115.937 97.7929 115.887 96.4831C115.827 95.1644 115.757 93.9253 115.727 93.7306L115.667 93.3589L116.657 93.3058C117.196 93.2793 118.895 93.2085 120.434 93.1554C121.963 93.1111 123.242 93.0492 123.272 93.0226C123.372 92.9341 124.161 92.9961 124.261 93.0934ZM87.3377 93.7572C87.6075 94.5891 87.6075 94.6245 87.2278 94.6511C86.938 94.6776 86.8881 94.6422 86.7681 94.3855C86.6882 94.2262 86.5983 93.9076 86.5583 93.6687L86.4883 93.2527H86.8281C87.1678 93.2527 87.1778 93.2704 87.3377 93.7572ZM115.228 95.0847C115.318 97.5008 115.487 100.51 115.547 100.784C115.607 101.006 115.587 101.014 114.968 101.076C114.628 101.103 112.959 101.103 111.28 101.076L108.213 101.014L108.153 100.607C108.083 100.094 107.923 97.5097 107.833 95.3237L107.773 93.6333L109.202 93.5625C111.33 93.4651 113.639 93.3678 114.448 93.3589L115.168 93.3412L115.228 95.0847ZM100.698 93.8722C101.218 93.8988 101.488 93.943 101.298 93.9519C100.618 93.9784 97.5204 94.005 97.5504 93.9784C97.5703 93.9607 97.8002 93.9165 98.07 93.8722C98.6695 93.7837 99.469 93.7837 100.698 93.8722ZM107.093 94.0669C107.093 94.182 107.163 95.2263 107.233 96.3946C107.313 97.5628 107.413 99.085 107.453 99.7754L107.523 101.041H107.063C106.544 101.041 106.124 101.28 106.224 101.51C106.274 101.625 106.424 101.66 106.884 101.66C107.213 101.66 107.503 101.696 107.533 101.74C107.633 101.873 107.083 101.944 106.344 101.882L105.635 101.82L105.515 100.82C105.335 99.2886 104.925 98.2708 104.236 97.5893C103.736 97.1026 103.356 96.9256 102.547 96.784C101.627 96.6247 98.9294 96.6247 98.1999 96.7751C97.4704 96.9344 96.651 97.1999 96.3512 97.3769C96.1913 97.4743 96.0115 97.5008 95.8016 97.4566C95.1821 97.3327 94.2028 98.1558 93.823 99.1027C93.5832 99.74 93.4033 100.616 93.4033 101.236V101.66H92.524C92.0343 101.66 90.8252 101.634 89.8359 101.599L88.0372 101.545L88.2071 101.05C89.0465 98.6248 90.9651 96.5804 93.4533 95.4918C96.3013 94.2351 100.188 94.1023 103.406 95.1467C103.756 95.2617 104.275 95.4387 104.545 95.5361C104.885 95.66 105.105 95.6865 105.215 95.6334C105.305 95.5892 105.625 95.2352 105.934 94.8546C106.654 93.943 107.093 93.651 107.093 94.0669ZM102.347 94.1377C102.427 94.2528 102.197 94.2528 101.997 94.1377C101.877 94.0669 101.887 94.0492 102.067 94.0492C102.187 94.0492 102.317 94.0846 102.347 94.1377ZM147.694 95.2794C148.154 95.3768 148.524 95.66 148.593 95.9609C148.633 96.1733 148.514 96.2618 148.444 96.0671C148.384 95.9078 148.074 96.0494 147.954 96.2972C147.784 96.607 147.904 96.7928 148.264 96.7928C148.663 96.7928 148.643 96.9521 148.214 97.3238C148.024 97.492 147.864 97.669 147.864 97.7309C147.864 97.784 148.004 98.0938 148.164 98.4124C148.334 98.7399 148.464 99.0231 148.464 99.0496C148.464 99.0762 148.364 99.0762 148.234 99.0496C148.024 98.9965 148.014 99.0231 147.984 99.6692C147.964 100.2 147.984 100.342 148.114 100.386C148.314 100.457 148.304 100.554 148.054 100.864C147.934 101.006 147.864 101.183 147.894 101.253C148.004 101.492 147.874 101.413 147.714 101.129C147.544 100.846 147.514 99.9612 147.654 99.4213C147.764 99.0231 147.654 98.9965 147.264 99.3417C146.635 99.9081 146.855 101.625 147.614 102.068C147.814 102.183 147.844 102.245 147.764 102.377C147.704 102.466 147.684 102.643 147.724 102.776C147.784 102.988 147.774 103.006 147.554 102.944C146.505 102.661 145.945 100.775 146.455 99.2709C146.785 98.3239 146.585 97.8371 146.165 98.5629C145.376 99.9347 145.566 102.165 146.555 103.103C147.145 103.678 147.734 103.758 148.074 103.315C148.204 103.165 148.564 102.784 148.883 102.475C149.463 101.917 149.683 101.466 149.263 101.66C148.983 101.793 149.013 101.687 149.363 101.342C149.683 101.014 150.012 100.51 149.893 100.51C149.853 100.51 149.723 100.598 149.593 100.705C149.233 101.006 149.193 100.802 149.553 100.475C149.843 100.209 149.863 100.147 149.783 99.8816C149.693 99.5718 149.663 99.5629 149.313 99.678C149.133 99.74 149.133 99.7223 149.353 99.5098C149.593 99.2709 149.563 99.0939 149.283 99.0939C149.153 99.0939 149.103 99.0231 149.113 98.8461C149.113 98.6779 149.043 98.5806 148.893 98.5186C148.763 98.4744 148.663 98.3859 148.663 98.3328C148.663 98.2266 149.183 97.5982 149.273 97.5893C149.303 97.5893 149.453 97.8637 149.613 98.2089C149.813 98.6514 149.873 98.908 149.833 99.1381C149.783 99.3948 149.803 99.4479 149.963 99.4479C150.102 99.4479 150.162 99.5629 150.252 100.005C150.402 100.784 150.392 100.864 150.162 100.864C149.982 100.864 149.963 100.926 149.963 101.625C149.963 102.386 149.963 102.386 150.202 102.351C150.402 102.315 150.472 102.36 150.572 102.572C150.692 102.829 151.312 103.156 151.691 103.165C151.891 103.165 151.871 103.289 151.501 104.324C151.232 105.068 150.802 105.723 150.442 105.944C150.322 106.024 149.992 106.227 149.713 106.395C148.753 106.988 148.184 107.192 147.414 107.192C146.625 107.192 146.145 107.006 145.136 106.298C144.407 105.794 144.187 105.51 144.347 105.28C144.456 105.139 144.427 105.041 144.217 104.723C143.827 104.139 143.387 102.988 143.217 102.13C143.057 101.315 143.028 99.5098 143.167 98.7841C143.207 98.5363 143.227 98.3239 143.217 98.3151C143.197 98.2974 143.087 98.3062 142.978 98.3416C142.748 98.4036 142.568 98.8284 142.458 99.5806C142.378 100.112 142.378 100.112 142.408 99.4479C142.428 99.0496 142.538 98.554 142.668 98.2089C142.978 97.43 143.657 96.2353 143.847 96.1379C143.937 96.0936 144.187 95.9078 144.407 95.7219C144.776 95.4299 144.896 95.3856 145.616 95.306C146.685 95.1909 147.234 95.1909 147.694 95.2794ZM88.0472 95.7219C88.297 96.4034 88.277 96.4388 87.7175 96.4388C87.2378 96.4388 87.2278 96.43 87.0679 96.0848C86.978 95.8901 86.908 95.6246 86.908 95.5095C86.908 95.306 86.948 95.2883 87.3977 95.2883H87.8873L88.0472 95.7219ZM179.241 95.6865C179.241 95.7131 178.892 95.8901 178.462 96.0759C178.022 96.2707 177.533 96.5362 177.363 96.6601C177.103 96.8548 177.043 96.8725 177.043 96.7486C177.043 96.4742 177.643 96.0936 178.422 95.8724C179.321 95.6157 179.241 95.6334 179.241 95.6865ZM172.226 96.253C172.256 96.3415 172.206 96.3503 172.037 96.3061C171.767 96.2264 171.637 96.0848 171.717 95.9697C171.777 95.8812 172.166 96.0936 172.226 96.253ZM155.009 96.0671C154.869 96.191 153.47 96.3415 152.461 96.3415C151.501 96.3503 150.262 96.1999 150.112 96.0759C150.092 96.0582 151.202 96.0405 152.571 96.0317C153.94 96.0317 155.039 96.0494 155.009 96.0671ZM156.618 96.3946C156.508 96.4654 156.288 96.5273 156.118 96.5273C155.758 96.5273 155.828 96.4388 156.278 96.3503C156.768 96.2441 156.828 96.253 156.618 96.3946ZM155.489 96.5893C155.419 96.607 155.299 96.607 155.239 96.5893C155.169 96.5627 155.219 96.545 155.359 96.545C155.499 96.545 155.548 96.5627 155.489 96.5893ZM149.063 96.7928C149.133 96.9167 149.143 97.0229 149.073 97.1291C148.983 97.253 148.973 97.2442 148.963 97.0318C148.963 96.899 148.923 96.7928 148.863 96.7928C148.813 96.7928 148.763 96.7486 148.763 96.7043C148.763 96.5539 148.953 96.607 149.063 96.7928ZM174.355 96.7928C174.665 97.0141 174.475 97.0229 174.145 96.7928C174.005 96.6955 173.945 96.6158 174.005 96.6158C174.075 96.6158 174.225 96.6955 174.355 96.7928ZM186.166 96.8548C186.096 96.8725 185.957 96.8725 185.867 96.8548C185.767 96.8282 185.827 96.8105 185.986 96.8105C186.156 96.8105 186.226 96.8282 186.166 96.8548ZM89.9059 97.2796C89.8359 97.3592 89.756 97.3946 89.726 97.3681C89.696 97.3504 89.736 97.2707 89.8059 97.1911C89.8759 97.1114 89.9558 97.076 89.9858 97.1026C90.0158 97.1203 89.9758 97.1999 89.9059 97.2796ZM88.7067 97.3238C88.8366 97.3946 88.8167 97.4654 88.5968 97.8283C88.4569 98.0584 88.2671 98.2797 88.1771 98.3328C87.9373 98.4655 87.6475 98.1646 87.5576 97.7044C87.5076 97.3946 87.5176 97.3327 87.6775 97.2973C88.0072 97.2265 88.5568 97.2353 88.7067 97.3238ZM101.078 97.3592C100.698 97.607 101.018 97.9876 101.647 98.0496C101.927 98.0761 101.947 98.0584 101.977 97.7398C102.007 97.4389 102.037 97.4123 102.307 97.4123C102.727 97.4123 102.667 97.6513 102.087 98.2974C101.927 98.4655 101.767 98.7399 101.737 98.908C101.667 99.1912 101.677 99.2001 101.877 99.1027C101.997 99.0496 102.277 98.7664 102.497 98.4744C102.996 97.8194 103.206 97.7044 103.546 97.908C103.776 98.0407 103.786 98.0673 103.656 98.2797C103.576 98.4124 103.306 98.731 103.056 98.9965C102.397 99.6692 102.377 99.7223 102.547 100.165C102.637 100.377 102.677 100.598 102.657 100.66C102.627 100.722 102.647 100.793 102.697 100.82C102.757 100.855 102.797 100.961 102.797 101.076C102.797 101.183 102.847 101.315 102.916 101.377C102.996 101.448 102.996 101.51 102.886 101.625C102.807 101.705 102.567 102.076 102.337 102.448L101.937 103.121L100.918 103.147C99.9186 103.174 99.8987 103.174 99.8987 103.386C99.8987 103.554 99.9686 103.616 100.278 103.687C100.478 103.74 100.748 103.785 100.868 103.785C101.318 103.785 102.177 103.413 103.026 102.846C103.876 102.28 103.906 102.245 103.856 101.979C103.816 101.776 103.866 101.572 104.036 101.28C104.246 100.908 104.256 100.855 104.116 100.784C103.976 100.713 103.976 100.687 104.126 100.475C104.315 100.227 104.655 100.032 104.735 100.138C104.845 100.298 104.995 101.315 104.935 101.528C104.905 101.652 104.785 101.811 104.675 101.873C104.505 101.979 104.495 102.023 104.595 102.191C104.695 102.36 104.665 102.484 104.345 103.032C103.826 103.953 103.326 104.36 102.487 104.581C102.037 104.705 101.767 104.829 101.687 104.953C101.587 105.121 101.507 105.13 100.588 105.094L99.5989 105.059V105.307C99.5989 105.953 98.4797 105.271 97.6603 104.121C96.3712 102.307 95.9915 100.147 96.7509 98.8284C97.4404 97.6336 98.2598 97.253 100.148 97.2442C101.088 97.2442 101.218 97.2619 101.078 97.3592ZM184.937 97.9434C185.017 97.9876 185.047 98.0496 185.007 98.085C184.967 98.1204 184.857 98.085 184.767 98.0053C184.588 97.846 184.687 97.8017 184.937 97.9434ZM138.171 98.7399C138.001 99.2974 137.921 99.085 138.081 98.5009C138.161 98.1912 138.231 98.0673 138.251 98.1823C138.271 98.2885 138.231 98.5363 138.171 98.7399ZM153.61 98.1204C153.32 98.2266 152.531 98.2266 152.611 98.1204C152.641 98.0673 152.93 98.0319 153.24 98.0407C153.65 98.0407 153.75 98.0673 153.61 98.1204ZM134.174 98.3859C134.174 98.4832 134.254 98.6337 134.354 98.7133C134.484 98.8372 134.504 98.9169 134.424 99.0673C134.374 99.1824 134.294 99.2709 134.254 99.2709C134.204 99.2709 134.174 99.1824 134.174 99.0673C134.164 98.9611 134.104 98.7222 134.034 98.5363C133.914 98.262 133.914 98.2089 134.034 98.2089C134.114 98.2089 134.174 98.2885 134.174 98.3859ZM154.159 98.4744C154.339 98.5806 153.67 98.5806 153.21 98.4744C152.96 98.4213 153 98.4036 153.46 98.3947C153.76 98.3947 154.08 98.4301 154.159 98.4744ZM155.229 98.439C155.199 98.4655 155.109 98.4744 155.039 98.4478C154.959 98.4213 154.989 98.3947 155.099 98.3947C155.209 98.3859 155.269 98.4124 155.229 98.439ZM103.906 98.8549C103.736 99.0054 103.666 98.8638 103.816 98.6602C103.926 98.5009 103.956 98.4921 103.976 98.616C103.996 98.6956 103.966 98.8018 103.906 98.8549ZM156.128 98.5806C155.848 98.6425 155.708 98.6425 155.628 98.5717C155.548 98.5009 155.648 98.4744 156.018 98.4832L156.508 98.4921L156.128 98.5806ZM87.7474 98.9257C87.8074 98.9788 87.7674 99.1558 87.6275 99.4036C87.5076 99.6249 87.4077 99.8727 87.4077 99.9435C87.4077 100.244 87.1179 99.8727 87.0579 99.4921C86.958 98.9257 87.0579 98.7133 87.3877 98.7841C87.5376 98.8107 87.6975 98.8815 87.7474 98.9257ZM157.327 99.0762C160.465 99.1116 163.073 99.1647 163.113 99.2001C163.153 99.2443 162.583 99.2797 161.844 99.2797C161.104 99.2886 158.906 99.3151 156.957 99.3505C153.44 99.4036 153.41 99.4036 153.38 99.5895C153.35 99.7577 153.3 99.7754 152.91 99.7311C152.671 99.7134 152.311 99.7223 152.101 99.7577L151.731 99.8108L151.951 100.005C152.201 100.227 152.581 100.244 160.335 100.271L164.562 100.289L164.502 100.51C164.472 100.634 164.432 100.802 164.422 100.882C164.402 101.076 164.252 101.094 164.252 100.899C164.252 100.696 164.012 100.802 163.972 101.023C163.952 101.165 164.012 101.244 164.192 101.306C164.322 101.351 164.492 101.466 164.552 101.572C164.612 101.669 164.702 101.731 164.762 101.705C164.812 101.669 164.852 101.687 164.852 101.74C164.852 101.855 164.522 102.014 164.262 102.014C164.152 102.014 164.002 102.094 163.922 102.191C163.783 102.377 163.743 102.377 160.395 102.28C158.526 102.227 155.748 102.156 154.219 102.121L151.431 102.059L151.202 100.66C151.082 99.8993 150.942 99.1824 150.912 99.085C150.842 98.908 150.862 98.8992 151.222 98.9611C151.441 98.9877 154.179 99.0496 157.327 99.0762ZM184.637 99.3594C184.438 99.4744 183.838 99.4744 183.838 99.3594C183.838 99.3063 184.048 99.2709 184.318 99.2709C184.657 99.2709 184.747 99.2974 184.637 99.3594ZM137.921 99.8462C137.891 100.076 137.831 100.236 137.801 100.209C137.771 100.182 137.781 99.9789 137.821 99.7577C137.851 99.5275 137.911 99.3682 137.941 99.3948C137.971 99.4213 137.961 99.6249 137.921 99.8462ZM180.59 99.4479C180.56 99.4921 180.49 99.5364 180.431 99.5364C180.381 99.5364 180.341 99.4921 180.341 99.4479C180.341 99.3948 180.411 99.3594 180.5 99.3594C180.58 99.3594 180.62 99.3948 180.59 99.4479ZM182.539 99.4479C182.339 99.5629 182.039 99.5629 182.039 99.4479C182.039 99.3948 182.189 99.3594 182.369 99.3594C182.609 99.3594 182.649 99.3859 182.539 99.4479ZM103.176 99.6249C103.036 99.8196 102.936 99.7931 103.026 99.5806C103.066 99.5098 103.136 99.4479 103.196 99.4479C103.256 99.4479 103.256 99.5098 103.176 99.6249ZM104.505 99.6072C104.395 99.7842 103.996 100.121 103.996 100.032C103.996 99.9966 104.096 99.855 104.216 99.7134C104.455 99.4302 104.665 99.3505 104.505 99.6072ZM189.864 99.6426C189.824 99.7046 189.724 100.059 189.634 100.421L189.484 101.085L188.784 101.112L188.075 101.138L188.115 100.519C188.155 99.9081 188.155 99.8993 187.885 99.8373C187.745 99.8019 187.146 99.8019 186.556 99.8196C185.157 99.8727 185.597 99.7311 187.126 99.6338C189.024 99.5187 189.954 99.5187 189.864 99.6426ZM162.334 99.8639C162.234 99.8816 162.054 99.8816 161.934 99.8639C161.804 99.8462 161.884 99.8285 162.104 99.8285C162.324 99.8196 162.424 99.8373 162.334 99.8639ZM164.282 99.8639C164.212 99.8816 164.072 99.8816 163.982 99.8639C163.882 99.8373 163.942 99.8196 164.102 99.8196C164.272 99.8196 164.342 99.8373 164.282 99.8639ZM184.338 99.8462C184.338 99.8727 184.248 99.9701 184.128 100.076C183.938 100.244 183.908 100.244 183.748 100.121C183.528 99.9435 183.488 99.9435 183.298 100.121C183.089 100.298 183.099 100.767 183.308 100.97C183.518 101.174 183.828 101.174 183.918 100.97C183.968 100.855 183.998 100.873 184.038 101.085C184.088 101.298 184.138 101.351 184.338 101.333C184.478 101.333 185.187 101.28 185.927 101.227C186.836 101.156 187.306 101.156 187.365 101.209C187.425 101.262 187.445 101.333 187.405 101.36C187.375 101.395 186.196 101.439 184.807 101.466L182.269 101.51L182.469 100.952L182.679 100.395L182.439 100.227C182.239 100.085 182.049 100.067 180.98 100.076C179.052 100.094 179.261 99.9435 181.24 99.8904C182.199 99.8639 183.288 99.8285 183.668 99.8196C184.038 99.8108 184.338 99.8196 184.338 99.8462ZM94.2727 100.174C94.2427 100.236 94.2228 100.191 94.2228 100.067C94.2228 99.9435 94.2427 99.8993 94.2727 99.9524C94.2927 100.014 94.2927 100.121 94.2727 100.174ZM179.191 99.9701C179.131 100.023 178.632 100.085 178.062 100.121C177.503 100.156 176.963 100.227 176.873 100.289C176.633 100.448 176.563 101.404 176.783 101.563C176.993 101.722 177.383 101.625 177.523 101.377C177.633 101.174 177.633 101.174 177.633 101.413L177.643 101.66H179.571C180.63 101.66 181.43 101.696 181.36 101.74C181.19 101.829 177.882 101.891 176.593 101.829L176.004 101.793L175.984 101.112C175.974 100.74 175.934 100.386 175.894 100.324C175.844 100.262 175.674 100.244 175.434 100.28C175.214 100.306 175.044 100.315 175.044 100.289C175.044 100.138 175.804 100.032 177.343 99.9789C178.302 99.9435 179.131 99.917 179.191 99.9081C179.251 99.8993 179.251 99.917 179.191 99.9701ZM173.995 100.236C173.935 100.28 173.456 100.333 172.916 100.351C172.117 100.368 171.977 100.359 172.117 100.262C172.316 100.138 174.145 100.112 173.995 100.236ZM134.104 100.616C134.054 100.696 133.774 100.713 133.774 100.643C133.774 100.616 133.834 100.519 133.894 100.421C134.014 100.262 134.024 100.253 134.084 100.404C134.124 100.483 134.134 100.581 134.104 100.616ZM171.297 100.333C171.267 100.377 171.107 100.421 170.937 100.421C170.777 100.421 170.648 100.377 170.648 100.333C170.648 100.28 170.807 100.244 171.007 100.244C171.217 100.244 171.337 100.28 171.297 100.333ZM170.118 101.05C170.178 101.413 170.238 101.714 170.238 101.731C170.248 101.74 170.468 101.731 170.738 101.696C171.167 101.643 171.237 101.66 171.337 101.829C171.457 102.014 171.497 102.014 173.126 101.97C174.415 101.935 174.735 101.944 174.545 102.023C174.395 102.085 173.256 102.156 171.747 102.191C170.348 102.236 169.099 102.298 168.979 102.324C168.849 102.36 168.749 102.351 168.749 102.298C168.749 102.165 168.969 102.041 169.339 101.97L169.678 101.908L169.618 101.174C169.558 100.439 169.608 100.306 169.898 100.368C169.958 100.377 170.048 100.687 170.118 101.05ZM94.1628 101.2C94.0329 101.306 93.9829 101.121 94.0629 100.802L94.1428 100.466L94.1828 100.811C94.2028 100.997 94.1928 101.174 94.1628 101.2ZM142.438 101.634C142.418 101.82 142.398 101.669 142.398 101.306C142.398 100.944 142.418 100.793 142.438 100.97C142.458 101.156 142.458 101.457 142.438 101.634ZM133.654 101.059C133.754 101.147 133.714 101.191 133.454 101.271C133.035 101.395 133.005 101.528 133.335 101.722C133.574 101.855 133.844 101.882 135.073 101.891C137.062 101.908 137.581 101.944 137.541 102.05C137.442 102.307 130.956 102.307 120.234 102.059C117.216 101.988 113.589 101.935 112.19 101.953C110.791 101.961 109.422 101.935 109.142 101.891L108.642 101.802L109.192 101.74C110.021 101.643 113.099 101.652 115.238 101.758C116.287 101.811 120.444 101.864 124.481 101.882L131.826 101.917L132.345 101.696C132.625 101.581 132.985 101.368 133.145 101.227C133.474 100.926 133.494 100.917 133.654 101.059ZM113.929 102.643C115.517 102.687 116.906 102.776 117.006 102.82C117.116 102.873 117.356 103.138 117.556 103.413C117.746 103.687 118.175 104.147 118.515 104.431C118.845 104.705 119.095 104.962 119.065 104.979C119.035 105.006 118.525 104.988 117.926 104.944C117.326 104.9 115.308 104.847 113.439 104.829L110.041 104.802L110.011 105.032C109.981 105.254 109.941 105.263 109.222 105.324C108.303 105.386 107.193 105.395 107.193 105.333C107.193 105.307 107.363 104.979 107.573 104.599C107.793 104.227 108.083 103.608 108.243 103.227L108.522 102.545H109.782C110.471 102.545 112.34 102.59 113.929 102.643ZM141.868 102.908C141.868 103.068 142.458 104.2 142.868 104.82C143.077 105.147 143.237 105.431 143.227 105.448C143.207 105.466 142.908 105.413 142.558 105.324C141.808 105.156 140.919 105.139 136.872 105.236C134.214 105.298 134.014 105.316 133.814 105.475C133.604 105.643 133.574 105.652 133.295 105.519C133.025 105.395 132.415 105.378 128.838 105.378C124.181 105.378 124.351 105.404 125.39 104.758C126.05 104.351 126.25 104.139 126.649 103.431L126.929 102.944L134.244 102.899C138.261 102.873 141.589 102.829 141.629 102.793C141.708 102.714 141.868 102.793 141.868 102.908ZM123.921 103.156C123.981 103.236 123.522 103.342 123.142 103.342C122.942 103.333 122.942 103.324 123.182 103.209C123.462 103.068 123.841 103.041 123.921 103.156ZM169.289 103.528C169.378 103.705 169.788 104.156 170.198 104.528C170.608 104.909 170.947 105.254 170.947 105.307C170.947 105.36 170.827 105.378 170.628 105.342C170.128 105.254 163.393 105.086 159.905 105.077C157.417 105.068 156.678 105.094 156.138 105.209C155.598 105.316 155.459 105.324 155.459 105.236C155.459 105.174 155.618 104.732 155.808 104.254C156.008 103.776 156.178 103.342 156.198 103.298C156.218 103.236 158.476 103.209 162.683 103.209H169.129L169.289 103.528ZM122.382 103.51C122.382 103.599 121.963 103.714 121.893 103.643C121.823 103.59 122.093 103.431 122.263 103.431C122.322 103.431 122.382 103.466 122.382 103.51ZM152.561 103.616C152.561 103.661 152.521 103.696 152.461 103.696C152.411 103.696 152.361 103.634 152.361 103.554C152.361 103.484 152.411 103.448 152.461 103.475C152.521 103.501 152.561 103.563 152.561 103.616ZM176.643 103.652C176.643 103.723 175.464 104.227 174.775 104.457C174.235 104.634 174.145 104.652 174.145 104.528C174.145 104.156 174.755 103.767 175.094 103.935C175.194 103.988 175.474 103.953 175.924 103.82C176.293 103.705 176.603 103.616 176.623 103.616C176.633 103.608 176.643 103.625 176.643 103.652ZM119.135 103.873C119.165 103.917 119.155 103.962 119.095 103.962C119.045 103.962 118.965 103.917 118.935 103.873C118.905 103.82 118.915 103.785 118.975 103.785C119.025 103.785 119.105 103.82 119.135 103.873ZM123.382 103.873C123.182 103.988 123.052 103.988 123.132 103.873C123.162 103.82 123.272 103.785 123.362 103.785C123.512 103.785 123.512 103.802 123.382 103.873ZM152.481 104.245C152.391 104.324 152.331 104.324 152.241 104.245C152.151 104.165 152.171 104.139 152.361 104.139C152.551 104.139 152.571 104.165 152.481 104.245ZM172.906 104.36C172.716 104.484 172.346 104.546 172.346 104.448C172.346 104.386 172.756 104.236 172.946 104.236C173.056 104.236 173.046 104.262 172.906 104.36ZM122.532 104.572C122.452 104.687 122.083 104.705 122.083 104.59C122.083 104.546 122.183 104.493 122.312 104.475C122.582 104.431 122.622 104.448 122.532 104.572ZM174.944 104.758C174.944 104.802 174.904 104.847 174.845 104.847C174.795 104.847 174.745 104.802 174.745 104.758C174.745 104.705 174.795 104.67 174.845 104.67C174.904 104.67 174.944 104.705 174.944 104.758ZM90.8252 105.218C90.7053 105.324 90.3855 105.28 90.3356 105.147C90.3156 105.086 90.4155 105.068 90.6054 105.094C90.8152 105.121 90.8852 105.165 90.8252 105.218ZM120.044 105.333L120.334 105.546L119.864 105.555C119.405 105.555 119.385 105.546 119.385 105.298C119.385 104.988 119.584 105.006 120.044 105.333ZM97.8202 105.36C97.9601 105.484 97.6703 105.493 96.1514 105.404C94.8423 105.333 95.1821 105.192 96.621 105.227C97.3105 105.236 97.7402 105.289 97.8202 105.36ZM111.79 105.351C112.24 105.395 112.29 105.422 112.09 105.475C111.95 105.51 111.58 105.537 111.25 105.546C110.741 105.555 110.681 105.537 110.791 105.422C110.931 105.271 111.021 105.263 111.79 105.351ZM79.2336 105.519C80.4427 105.625 79.8331 105.732 78.0444 105.732C77.0751 105.732 76.3057 105.714 76.3357 105.687C76.5055 105.528 78.1943 105.44 79.2336 105.519ZM100.168 105.696C100.138 105.723 100.049 105.732 99.9786 105.705C99.8987 105.678 99.9286 105.652 100.039 105.652C100.148 105.643 100.208 105.67 100.168 105.696ZM106.864 105.82C106.894 105.917 106.914 106.024 106.904 106.059C106.894 106.139 105.894 106.245 105.894 106.165C105.894 106.139 106.054 106.041 106.244 105.944C106.434 105.855 106.594 105.749 106.594 105.714C106.594 105.563 106.814 105.652 106.864 105.82ZM155.249 105.971C155.379 106.227 155.279 106.351 154.929 106.351C154.829 106.351 154.659 106.493 154.549 106.661C154.429 106.829 154.299 106.971 154.249 106.971C154.06 106.971 154.169 106.732 154.559 106.316C154.779 106.086 154.959 105.855 154.959 105.811C154.959 105.643 155.129 105.74 155.249 105.971ZM139.72 105.909C139.56 105.944 139.31 105.979 139.17 105.988C138.97 105.988 138.95 105.979 139.07 105.909C139.15 105.864 139.4 105.829 139.62 105.829C140.01 105.838 140.01 105.847 139.72 105.909ZM116.427 105.971C116.936 106.006 117.156 106.05 117.056 106.103C116.786 106.227 115.777 106.271 114.738 106.192C113.809 106.121 113.759 106.112 114.088 106.024C114.498 105.909 115.357 105.882 116.427 105.971ZM143.957 106.209C144.067 106.298 144.137 106.413 144.107 106.448C144.027 106.572 143.697 106.537 143.527 106.395C143.447 106.325 143.207 106.263 142.988 106.263C142.578 106.263 141.968 106.112 141.968 106.015C141.968 105.979 142.368 105.971 142.858 105.997C143.537 106.032 143.797 106.077 143.957 106.209ZM185.477 105.997C185.407 106.059 185.287 106.059 185.127 106.006C184.897 105.926 184.907 105.917 185.237 105.917C185.467 105.909 185.547 105.935 185.477 105.997ZM108.043 106.086C107.773 106.192 107.693 106.192 107.693 106.086C107.693 106.032 107.813 105.997 107.973 106.006C108.213 106.006 108.223 106.015 108.043 106.086ZM109.991 106.086C110.161 106.13 109.941 106.156 109.342 106.156C108.752 106.156 108.512 106.139 108.642 106.086C108.892 105.988 109.662 105.988 109.991 106.086ZM113.339 106.086C113.309 106.13 113.209 106.174 113.129 106.174C113.049 106.174 112.989 106.13 112.989 106.086C112.989 106.032 113.079 105.997 113.199 105.997C113.309 105.997 113.369 106.032 113.339 106.086ZM182.739 106.086C182.739 106.183 182.469 106.263 182.129 106.263C181.81 106.263 181.73 106.121 182.019 106.059C182.299 105.997 182.739 106.015 182.739 106.086ZM101.448 107.236C101.587 107.289 101.448 107.316 100.998 107.307C100.528 107.307 100.418 107.289 100.598 107.236C100.928 107.139 101.198 107.139 101.448 107.236ZM103.196 107.236C103.196 107.28 103.016 107.325 102.797 107.325C102.577 107.325 102.397 107.28 102.397 107.236C102.397 107.183 102.577 107.148 102.797 107.148C103.016 107.148 103.196 107.183 103.196 107.236ZM134.823 107.502C134.793 107.546 134.444 107.59 134.064 107.59C133.624 107.59 133.384 107.555 133.424 107.502C133.454 107.449 133.804 107.413 134.184 107.413C134.624 107.413 134.863 107.449 134.823 107.502ZM137.322 107.599C137.392 107.661 137.192 107.67 136.722 107.626C135.653 107.528 135.383 107.404 136.372 107.457C136.842 107.484 137.262 107.546 137.322 107.599Z" fill="black"/>
<path d="M135.003 79.2427C134.624 79.2693 134.344 79.3224 134.274 79.402C134.164 79.5171 134.244 79.5348 134.813 79.5348C135.493 79.5348 135.923 79.4197 135.823 79.2604C135.783 79.2162 135.733 79.1896 135.693 79.1985C135.653 79.2073 135.343 79.225 135.003 79.2427Z" fill="black"/>
<path d="M137.621 79.2693C137.651 79.3135 137.771 79.3578 137.881 79.3578C137.981 79.3578 138.071 79.3135 138.071 79.2693C138.071 79.2162 137.951 79.1808 137.811 79.1808C137.671 79.1808 137.582 79.2162 137.621 79.2693Z" fill="black"/>
<path d="M138.321 79.2693C138.351 79.3135 138.471 79.3578 138.581 79.3578C138.681 79.3578 138.771 79.3135 138.771 79.2693C138.771 79.2162 138.651 79.1808 138.511 79.1808C138.371 79.1808 138.281 79.2162 138.321 79.2693Z" fill="black"/>
<path d="M145.356 80.942C145.136 81.1013 145.126 81.119 145.296 81.1809C145.396 81.2075 145.895 81.1986 146.395 81.1544L147.314 81.0747L146.945 80.9243C146.435 80.7207 145.656 80.7296 145.356 80.942Z" fill="black"/>
<path d="M134.534 80.9243C134.494 80.9685 133.674 81.0128 132.715 81.0393C131.116 81.0836 130.966 81.1013 130.766 81.2695L130.557 81.4642L130.906 81.5615C131.186 81.65 131.476 81.6412 132.305 81.535C132.885 81.4553 133.584 81.3934 133.864 81.3934C134.664 81.3934 135.373 81.0747 134.913 80.9154C134.704 80.8446 134.624 80.8446 134.534 80.9243Z" fill="black"/>
<path d="M145.776 81.473L145.336 81.5261L145.746 81.9509C145.975 82.1899 146.165 82.42 146.165 82.4731C146.165 82.535 146.465 82.5439 147.095 82.4996C147.904 82.4465 147.994 82.4554 147.824 82.5704C147.644 82.6855 147.644 82.6943 147.904 82.7563C148.044 82.7828 148.514 82.7917 148.943 82.7651C149.793 82.7032 150.142 82.8005 150.312 83.1457C150.382 83.2785 150.492 83.3404 150.682 83.3404C151.032 83.3404 151.032 83.2785 150.702 82.8536C150.562 82.6678 150.402 82.42 150.352 82.3049C150.292 82.1722 150.182 82.1014 150.022 82.1014C149.683 82.1014 149.613 82.243 149.883 82.4023C150.102 82.535 150.092 82.5439 149.613 82.535C149.173 82.535 149.143 82.5173 149.363 82.4465C149.613 82.358 149.613 82.3492 149.413 82.2253C149.283 82.1368 149.003 82.1014 148.534 82.1102C148.164 82.1191 147.834 82.1014 147.794 82.066C147.764 82.0394 147.824 82.0129 147.944 82.0129C148.204 82.0129 148.334 81.8447 148.154 81.7385C148.074 81.6943 147.614 81.6677 147.115 81.6766C146.305 81.7031 146.215 81.6854 146.245 81.5438C146.265 81.4642 146.265 81.4022 146.245 81.4111C146.225 81.4111 146.015 81.4465 145.776 81.473ZM147.564 82.1014C147.564 82.2076 147.484 82.2076 147.215 82.1014C147.035 82.0306 147.045 82.0217 147.294 82.0217C147.444 82.0129 147.564 82.0483 147.564 82.1014ZM148.843 82.5173C148.743 82.535 148.564 82.535 148.444 82.5173C148.314 82.4996 148.394 82.4819 148.614 82.4819C148.833 82.4731 148.933 82.4908 148.843 82.5173Z" fill="black"/>
<path d="M132.775 81.712C132.415 81.7828 132.035 81.827 131.936 81.8005C131.826 81.7739 131.636 81.827 131.516 81.9155C131.386 82.004 131.106 82.1102 130.906 82.1368C130.297 82.2341 129.967 82.3757 129.997 82.535C130.027 82.6413 130.147 82.6767 130.447 82.6678C130.916 82.659 130.976 82.7386 130.976 83.4466C130.976 83.7829 131.016 83.8714 131.176 83.9157C131.286 83.9422 131.416 83.9422 131.476 83.9157C131.606 83.8449 131.606 83.9865 131.476 84.1015C131.416 84.1546 131.396 84.2697 131.436 84.3493C131.506 84.5086 131.686 84.5175 132.475 84.367C132.705 84.3228 132.695 84.3228 132.445 84.4201C132.225 84.5086 132.175 84.5794 132.195 84.7564C132.225 84.9954 132.405 85.022 133.025 84.8892C133.315 84.8361 133.335 84.845 133.325 85.0839C133.325 85.2786 133.365 85.3317 133.524 85.3229C133.734 85.3052 135.703 84.9246 135.753 84.8892C135.763 84.8804 135.703 84.7476 135.603 84.606C135.443 84.3493 135.393 84.3316 134.664 84.2874C133.784 84.2343 133.514 84.1458 133.864 84.0307C134.194 83.9245 134.064 83.7475 133.614 83.6856C133.404 83.659 133.295 83.6236 133.385 83.6148C133.474 83.6148 133.574 83.5263 133.604 83.4289C133.644 83.2785 133.604 83.2519 133.365 83.2519C133.205 83.2519 133.075 83.2077 133.075 83.1634C133.075 83.1103 133.125 83.0749 133.185 83.0749C133.245 83.0749 133.564 82.9245 133.894 82.7475C134.324 82.5173 134.614 82.4111 134.883 82.4111C135.213 82.4111 135.273 82.3846 135.273 82.2253C135.273 81.9863 135.103 81.9244 134.464 81.9244C134.154 81.9244 133.984 81.889 134.024 81.8359C134.084 81.7562 133.664 81.5527 133.494 81.5792C133.454 81.5881 133.135 81.6412 132.775 81.712ZM133.225 82.3669C133.394 82.4288 133.365 82.4465 133.095 82.4465C132.895 82.4554 132.785 82.42 132.825 82.3669C132.895 82.2607 132.955 82.2607 133.225 82.3669ZM133.355 84.2874C133.255 84.3051 133.095 84.3051 133.005 84.2874C132.905 84.2608 132.985 84.2431 133.175 84.2431C133.365 84.2431 133.444 84.2608 133.355 84.2874Z" fill="black"/>
<path d="M148.624 81.7385C148.803 81.9067 149.213 81.9332 149.413 81.8005C149.603 81.6766 149.573 81.6677 149.073 81.6589C148.733 81.6589 148.564 81.6943 148.624 81.7385Z" fill="black"/>
<path d="M135.293 82.8271C135.323 82.889 135.443 82.9864 135.563 83.0483L135.793 83.1457L135.583 83.2519C135.303 83.3758 135.403 83.5174 135.783 83.5174C136.023 83.5174 136.073 83.482 136.073 83.3139C136.073 83.0129 135.793 82.7209 135.513 82.7209C135.353 82.7209 135.273 82.7651 135.293 82.8271Z" fill="black"/>
<path d="M148.364 82.9598C148.284 82.9864 148.154 83.0483 148.084 83.1014C147.904 83.2342 148.164 83.3227 148.713 83.3315C149.183 83.3404 149.463 83.2165 149.303 83.0749C149.173 82.9598 148.574 82.8802 148.364 82.9598Z" fill="black"/>
<path d="M134.544 83.3935C134.614 83.5528 135.083 83.5351 135.153 83.3581C135.173 83.2873 135.073 83.2519 134.833 83.2519C134.554 83.2519 134.494 83.2785 134.544 83.3935Z" fill="black"/>
<path d="M149.673 83.5971C149.423 83.7387 149.663 83.8714 150.162 83.8714C150.662 83.8714 150.902 83.7387 150.652 83.5971C150.572 83.5528 150.352 83.5174 150.162 83.5174C149.973 83.5174 149.753 83.5528 149.673 83.5971Z" fill="black"/>
<path d="M150.912 83.6059C150.812 83.7475 150.952 83.8714 151.192 83.8714C151.421 83.8714 151.741 83.7298 151.661 83.6678C151.541 83.5793 150.962 83.5351 150.912 83.6059Z" fill="black"/>
<path d="M184.657 93.3412C184.238 93.4297 184.208 93.4651 184.288 93.6952C184.378 93.9607 184.737 94.1377 185.297 94.1908C186.017 94.2528 186.106 94.1643 185.817 93.6687C185.567 93.2262 185.417 93.1819 184.657 93.3412Z" fill="black"/>
<path d="M96.6011 90.7746C96.5211 90.8189 96.3113 90.8631 96.1414 90.8631C95.8416 90.8631 95.8116 90.8985 95.4519 91.6242C95.2521 92.0491 95.0622 92.6066 95.0322 92.8721L94.9723 93.3677L95.362 93.3146C95.5718 93.2792 96.5911 93.235 97.6203 93.1996L99.479 93.1376L99.6489 92.7748C100.328 91.3056 100.478 90.8631 100.338 90.7658C100.248 90.695 100.049 90.6861 99.7688 90.7304C99.5389 90.7658 99.0393 90.7923 98.6596 90.7835C98.2799 90.7658 97.8402 90.81 97.6803 90.872C97.4205 90.9693 97.3605 90.9605 97.2806 90.8366C97.1807 90.6684 96.8309 90.6419 96.6011 90.7746Z" fill="black"/>
<path d="M146.385 96.6778C145.965 96.7486 145.226 97.8637 144.906 98.9169C144.297 100.952 145.266 103.696 146.715 104.015C146.975 104.068 146.985 104.068 146.865 103.873C146.795 103.758 146.545 103.431 146.305 103.138C146.055 102.846 145.865 102.519 145.865 102.386C145.865 102.262 145.756 101.997 145.616 101.793C145.306 101.324 145.206 100.51 145.356 99.616C145.506 98.6337 145.806 97.9964 146.385 97.4389C146.995 96.8459 146.995 96.5804 146.385 96.6778Z" fill="black"/>
<path d="M147.744 104.112C147.155 104.139 146.965 104.174 146.965 104.271C146.965 104.599 147.984 104.811 148.474 104.581C148.653 104.493 148.763 104.023 148.594 104.068C148.544 104.077 148.164 104.103 147.744 104.112Z" fill="black"/>
<path d="M99.0093 97.7486C98.7895 97.9522 98.5497 98.3239 98.3998 98.6956C98.1799 99.2355 98.1499 99.4656 98.1499 100.421C98.1499 101.51 98.1599 101.545 98.4997 102.147C98.7495 102.599 98.9694 102.838 99.2692 103.023C99.509 103.165 99.7188 103.262 99.7488 103.236C99.7888 103.209 99.5789 102.776 99.2891 102.271C98.8195 101.439 98.7595 101.28 98.7195 100.634C98.6696 99.8019 98.8095 99.2797 99.3991 98.1557C99.7688 97.4477 99.7788 97.4123 99.5789 97.4123C99.459 97.4123 99.2092 97.5627 99.0093 97.7486Z" fill="black"/>
<path d="M102.827 98.4743C102.457 98.7133 102.097 99.2178 102.217 99.3151C102.327 99.4125 102.956 98.9346 103.136 98.6248C103.236 98.4389 103.296 98.2708 103.276 98.2531C103.256 98.2265 103.046 98.3327 102.827 98.4743Z" fill="black"/>
<path d="M99.6289 98.4301C99.2991 98.6337 98.9994 99.4479 98.9994 100.138C98.9994 100.873 99.1393 101.324 99.449 101.634L99.6889 101.882L99.6988 101.66C99.6988 101.537 99.6289 101.085 99.549 100.652C99.3891 99.8019 99.4091 99.6338 99.7088 98.9788C99.9686 98.4301 99.9387 98.2354 99.6289 98.4301Z" fill="black"/>
<path d="M100.188 100.059C100.039 100.492 100.148 101.129 100.408 101.43C100.628 101.678 101.048 101.731 101.398 101.572C101.757 101.404 101.937 100.28 101.647 100.067C101.528 99.9789 101.488 99.9966 101.398 100.2C101.348 100.324 101.298 100.536 101.298 100.669C101.298 100.908 101.148 101.209 101.068 101.129C100.968 101.023 100.698 100.182 100.698 99.9612C100.698 99.7754 100.648 99.7134 100.498 99.7134C100.358 99.7134 100.278 99.8108 100.188 100.059Z" fill="black"/>
<path d="M162.753 100.731C162.703 100.855 162.653 101.183 162.653 101.439C162.653 101.917 162.653 101.917 163.003 101.979C163.483 102.059 163.653 101.979 163.653 101.687C163.653 101.554 163.683 101.298 163.703 101.129C163.773 100.731 163.693 100.625 163.233 100.554C162.893 100.492 162.843 100.51 162.753 100.731Z" fill="black"/>
<path d="M161.095 93.3501C160.545 93.589 159.825 94.2351 159.915 94.4298C159.995 94.6245 160.315 94.6245 160.395 94.4386C160.445 94.3147 160.615 94.3059 161.804 94.359C162.713 94.4032 163.153 94.3944 163.153 94.3324C163.153 94.0935 162.993 93.9342 162.543 93.7395C162.274 93.6156 162.014 93.4386 161.954 93.3412C161.824 93.12 161.624 93.12 161.095 93.3501Z" fill="black"/>
<path d="M156.558 94.1997C156.208 94.3059 155.379 94.3501 152.86 94.4032C151.072 94.4386 149.603 94.474 149.593 94.4829C149.573 94.4829 149.563 94.5625 149.563 94.6599C149.563 94.7572 149.683 94.8634 149.873 94.9342C150.042 95.005 150.152 95.0935 150.122 95.1643C150.092 95.2351 150.212 95.2971 150.472 95.3325C150.692 95.3679 153.72 95.3502 157.187 95.2971C160.665 95.244 166.121 95.182 169.319 95.1732C172.516 95.1643 175.164 95.1201 175.214 95.0847C175.254 95.0404 175.204 94.9431 175.094 94.8723C174.915 94.7484 174.065 94.7395 167.65 94.7926C160.705 94.8457 156.498 94.8015 156.908 94.6687C157.017 94.6333 157.357 94.6245 157.657 94.6422C158.317 94.6953 158.686 94.5183 158.496 94.2528C158.346 94.0404 157.187 94.005 156.558 94.1997ZM156.408 94.8457C156.448 94.8988 156.328 94.9342 156.118 94.9342C155.918 94.9342 155.758 94.89 155.758 94.8457C155.758 94.7926 155.888 94.7572 156.048 94.7572C156.218 94.7572 156.378 94.7926 156.408 94.8457Z" fill="black"/>
<path d="M159.885 95.5538C159.416 95.7219 159.616 95.8458 160.485 95.9609C160.745 95.9874 160.955 96.0494 160.955 96.0848C160.955 96.129 160.865 96.1379 160.755 96.1113C160.645 96.0848 160.445 96.0936 160.305 96.1202C160.105 96.1644 160.045 96.2264 160.075 96.3768C160.095 96.5273 160.185 96.5804 160.435 96.5981C160.615 96.6158 160.795 96.6866 160.825 96.7574C160.855 96.8459 161.035 96.8813 161.394 96.8724C162.114 96.8636 162.274 96.7839 162.404 96.3857C162.503 96.0494 162.513 96.0405 163.033 96.014C163.503 95.9874 163.553 95.9697 163.553 95.7839C163.553 95.5007 163.273 95.4476 162.204 95.5626C161.614 95.6157 161.144 95.6157 160.775 95.5538C160.135 95.4476 160.175 95.4476 159.885 95.5538Z" fill="black"/>
<path d="M182.469 95.8193C182.219 95.952 182.139 96.0582 182.139 96.2529C182.139 96.3945 182.209 96.5627 182.299 96.6246C182.439 96.722 182.479 96.7131 182.599 96.5715C182.679 96.483 182.739 96.368 182.739 96.3237C182.739 96.2441 182.929 96.2618 183.418 96.3945C183.618 96.4565 183.638 96.4299 183.638 96.1025C183.638 95.8635 183.588 95.7308 183.478 95.6954C183.189 95.598 182.789 95.6423 182.469 95.8193Z" fill="black"/>
<path d="M164.912 96.0494C164.882 96.129 164.852 96.2972 164.852 96.4388C164.852 96.9256 164.922 96.9698 165.651 96.9698C166.021 96.9698 166.461 96.9256 166.641 96.8725C166.92 96.784 166.95 96.7397 166.95 96.4299C166.95 95.9874 166.78 95.9078 165.771 95.9078C165.132 95.9078 164.962 95.9343 164.912 96.0494Z" fill="black"/>
<path d="M167.51 96.129C167.42 96.3414 167.44 96.9078 167.54 97.0494C167.6 97.1379 167.81 97.1556 168.339 97.1291C169.229 97.0848 169.598 96.8813 169.598 96.4299C169.598 96.1467 169.578 96.129 169.249 96.1202C169.059 96.1202 168.599 96.0848 168.239 96.0494C167.67 95.9963 167.57 96.0051 167.51 96.129Z" fill="black"/>
<path d="M181.12 96.1379C180.97 96.2706 180.89 96.2795 180.55 96.191C179.921 96.014 179.641 96.2441 179.981 96.6601C180.091 96.7928 180.281 96.8371 180.82 96.8636C181.51 96.899 181.53 96.8902 181.59 96.6778C181.75 96.1379 181.47 95.8281 181.12 96.1379Z" fill="black"/>
<path d="M158.636 96.3592C158.327 96.5185 158.416 96.7043 158.806 96.7043C159.086 96.7043 159.156 96.6689 159.156 96.5362C159.156 96.4477 159.086 96.3415 158.996 96.3149C158.806 96.253 158.846 96.2441 158.636 96.3592Z" fill="black"/>
<path d="M158.456 97.0318C158.456 97.2973 158.616 97.4389 158.836 97.377C159.086 97.3062 159.206 97.0495 159.036 96.9521C158.796 96.8194 158.456 96.8725 158.456 97.0318Z" fill="black"/>
<path d="M158.576 97.607C158.506 97.6689 158.456 97.7929 158.456 97.8814C158.456 98.0318 158.506 98.0495 158.776 97.9964C159.166 97.9256 159.306 97.8194 159.226 97.6424C159.156 97.4742 158.746 97.4565 158.576 97.607Z" fill="black"/>
<path d="M165.391 97.5628C165.142 97.607 164.882 97.8371 164.852 98.0318C164.752 98.6513 164.992 98.8283 165.961 98.8283C166.681 98.8283 166.91 98.7398 166.98 98.4124C167.01 98.2796 167.07 98.0938 167.1 98.0053C167.16 97.8902 167.09 97.8283 166.84 97.7309C166.451 97.5893 165.701 97.5009 165.391 97.5628Z" fill="black"/>
<path d="M180.541 97.669C180.331 97.7221 180.281 97.7929 180.261 98.1026L180.231 98.4743H180.76C181.43 98.4743 181.79 98.315 181.79 98.0318C181.79 97.6778 181.21 97.5008 180.541 97.669Z" fill="black"/>
<path d="M167.87 97.8371C167.82 97.9699 167.92 98.7045 168.009 98.8372C168.079 98.9434 168.809 98.9346 169.279 98.8195C169.728 98.7133 169.978 98.4124 169.928 98.0318L169.898 97.7486L168.909 97.7398C168.179 97.7221 167.91 97.7486 167.87 97.8371Z" fill="black"/>
<path d="M171.197 97.7309C170.528 97.8814 170.448 97.9522 170.448 98.3593C170.448 98.7222 170.478 98.7576 170.797 98.8815C171.347 99.085 172.146 99.0142 172.146 98.7664C172.146 98.6956 172.246 98.4832 172.366 98.2973C172.526 98.0495 172.566 97.9256 172.486 97.8548C172.366 97.7486 171.497 97.669 171.197 97.7309Z" fill="black"/>
<path d="M178.712 98.0142C178.372 98.3505 178.492 98.4743 179.141 98.4743C179.701 98.4743 179.741 98.4567 179.741 98.2708C179.741 98.1558 179.691 98.023 179.621 97.9611C179.441 97.8018 178.892 97.8372 178.712 98.0142Z" fill="black"/>
<path d="M177.133 98.1292C177.023 98.2266 176.943 98.3505 176.973 98.4124C177.023 98.5452 177.463 98.6425 177.782 98.5894C178.002 98.5452 178.042 98.4921 178.042 98.2443C178.042 97.9611 178.022 97.9434 177.693 97.9434C177.473 97.9434 177.263 98.0142 177.133 98.1292Z" fill="black"/>
</g>
<path d="M104.266 51.8164C104.266 52.0508 104.189 52.2559 104.037 52.4316C103.896 52.6074 103.709 52.707 103.475 52.7305C102.186 52.9062 100.908 53.041 99.6426 53.1348C98.3887 53.2168 97.1172 53.2578 95.8281 53.2578C93.332 53.2578 90.8008 53.082 88.2344 52.7305C88 52.707 87.8066 52.6074 87.6543 52.4316C87.5137 52.2559 87.4434 52.0508 87.4434 51.8164C87.4434 51.5703 87.5312 51.3535 87.707 51.166C87.8945 50.9785 88.123 50.8848 88.3926 50.8848C88.416 50.8848 88.4336 50.8906 88.4453 50.9023C88.457 50.9141 88.4746 50.9199 88.498 50.9199C90.0098 51.1191 91.3516 51.2715 92.5234 51.377C93.707 51.4824 94.8379 51.5352 95.916 51.5352C96.4785 51.5352 97.041 51.5234 97.6035 51.5C98.1777 51.4766 98.7578 51.4414 99.3438 51.3945C99.9414 51.3359 100.557 51.2715 101.189 51.2012C101.822 51.1191 102.496 51.0254 103.211 50.9199C103.234 50.9199 103.258 50.9141 103.281 50.9023C103.305 50.8906 103.328 50.8848 103.352 50.8848C103.609 50.8848 103.826 50.9785 104.002 51.166C104.178 51.3535 104.266 51.5703 104.266 51.8164ZM125.201 53.3281C125.166 53.5625 125.055 53.7559 124.867 53.9082C124.691 54.0605 124.486 54.1367 124.252 54.1367C124.018 54.1367 123.812 54.0547 123.637 53.8906C123.473 53.7266 123.379 53.5156 123.355 53.2578C123.355 52.7539 123.25 52.2266 123.039 51.6758C122.828 51.125 122.541 50.6211 122.178 50.1641C121.814 49.707 121.398 49.332 120.93 49.0391C120.461 48.7344 119.963 48.582 119.436 48.582C118.779 48.582 118.199 48.7227 117.695 49.0039C117.191 49.2734 116.752 49.6367 116.377 50.0938C116.002 50.5508 115.691 51.0723 115.445 51.6582C115.199 52.2441 115 52.8477 114.848 53.4688C114.695 54.0781 114.584 54.6816 114.514 55.2793C114.455 55.877 114.426 56.416 114.426 56.8965C114.426 57.7168 114.514 58.5371 114.689 59.3574C114.877 60.1777 115.158 60.916 115.533 61.5723C115.908 62.2168 116.389 62.7441 116.975 63.1543C117.561 63.5645 118.258 63.7695 119.066 63.7695C119.664 63.7695 120.227 63.6348 120.754 63.3652C121.281 63.0957 121.75 62.75 122.16 62.3281C122.582 61.8945 122.939 61.4199 123.232 60.9043C123.525 60.3887 123.736 59.8848 123.865 59.3926C123.924 59.1699 124.029 58.9883 124.182 58.8477C124.346 58.707 124.539 58.6367 124.762 58.6367C125.02 58.6367 125.236 58.7363 125.412 58.9355C125.6 59.123 125.693 59.334 125.693 59.5684C125.693 59.6387 125.682 59.6973 125.658 59.7441C125.576 60.1309 125.436 60.5527 125.236 61.0098C125.037 61.4668 124.773 61.9238 124.445 62.3809C124.129 62.8379 123.742 63.2832 123.285 63.7168C122.828 64.1387 122.307 64.5137 121.721 64.8418C121.135 65.1699 120.484 65.4336 119.77 65.6328C119.055 65.832 118.27 65.9316 117.414 65.9316C116.066 65.9316 114.824 65.7031 113.688 65.2461C112.551 64.8008 111.572 64.1738 110.752 63.3652C109.932 62.5449 109.287 61.5664 108.818 60.4297C108.361 59.2812 108.133 58.0215 108.133 56.6504C108.133 55.1738 108.332 53.8027 108.73 52.5371C109.141 51.2715 109.732 50.1758 110.506 49.25C111.291 48.3242 112.252 47.5977 113.389 47.0703C114.537 46.543 115.855 46.2793 117.344 46.2793C118.68 46.2793 119.922 46.5488 121.07 47.0879C122.219 47.6152 123.162 48.4121 123.9 49.4785L124.48 45.8926C124.516 45.6699 124.615 45.4883 124.779 45.3477C124.955 45.207 125.154 45.1367 125.377 45.1367C125.67 45.1367 125.898 45.2363 126.062 45.4355C126.227 45.6348 126.309 45.834 126.309 46.0332V46.1738L125.201 53.3281ZM140.758 58.8477C140.734 58.6484 140.717 58.4434 140.705 58.2324C140.693 58.0215 140.688 57.8047 140.688 57.582H140.037C139.568 57.582 139.012 57.6172 138.367 57.6875C137.734 57.7578 137.078 57.8691 136.398 58.0215C135.719 58.1738 135.045 58.3789 134.377 58.6367C133.709 58.8828 133.111 59.1875 132.584 59.5508C132.057 59.9023 131.629 60.3184 131.301 60.7988C130.984 61.2793 130.826 61.8301 130.826 62.4512C130.826 62.7793 130.902 63.0605 131.055 63.2949C131.219 63.5293 131.418 63.7227 131.652 63.875C131.898 64.0156 132.168 64.1211 132.461 64.1914C132.754 64.25 133.035 64.2793 133.305 64.2793C134.137 64.2793 134.922 64.1211 135.66 63.8047C136.41 63.4766 137.102 63.0547 137.734 62.5391C138.367 62.0117 138.936 61.4258 139.439 60.7812C139.943 60.1367 140.383 59.4922 140.758 58.8477ZM149.178 64.9297H149.107C148.908 64.9062 148.703 64.8945 148.492 64.8945C148.281 64.8945 148.076 64.8945 147.877 64.8945C146.775 64.8945 145.715 64.9648 144.695 65.1055C143.688 65.2461 142.674 65.4629 141.654 65.7559C141.619 65.7559 141.584 65.7617 141.549 65.7734C141.514 65.7852 141.467 65.791 141.408 65.791C141.139 65.791 140.916 65.6855 140.74 65.4746C140.576 65.2754 140.494 65.0703 140.494 64.8594V64.7188C140.494 64.6953 140.523 64.4609 140.582 64.0156C140.641 63.5586 140.699 62.9258 140.758 62.1172C140.254 62.6797 139.715 63.207 139.141 63.6992C138.578 64.1797 137.98 64.6016 137.348 64.9648C136.727 65.3164 136.082 65.5918 135.414 65.791C134.746 66.002 134.055 66.1074 133.34 66.1074C132.777 66.1074 132.232 66.0195 131.705 65.8438C131.178 65.6797 130.709 65.4395 130.299 65.123C129.9 64.8066 129.578 64.4258 129.332 63.9805C129.098 63.5234 128.98 63.0137 128.98 62.4512C128.98 61.5723 129.168 60.7988 129.543 60.1309C129.93 59.4629 130.434 58.8828 131.055 58.3906C131.676 57.8867 132.379 57.4707 133.164 57.1426C133.961 56.8027 134.77 56.5332 135.59 56.334C136.41 56.123 137.207 55.9766 137.98 55.8945C138.754 55.8008 139.439 55.7539 140.037 55.7539H140.459C140.459 55.0391 140.33 54.3418 140.072 53.6621C139.826 52.9824 139.475 52.3789 139.018 51.8516C138.572 51.3242 138.039 50.9023 137.418 50.5859C136.797 50.2578 136.111 50.0938 135.361 50.0938C134.811 50.0938 134.271 50.252 133.744 50.5684C133.217 50.873 132.748 51.2656 132.338 51.7461C131.928 52.2266 131.594 52.7656 131.336 53.3633C131.09 53.9609 130.967 54.541 130.967 55.1035C130.967 55.3379 130.867 55.5371 130.668 55.7012C130.48 55.8535 130.27 55.9297 130.035 55.9297C129.777 55.9297 129.555 55.8359 129.367 55.6484C129.18 55.4492 129.086 55.2324 129.086 54.998C129.086 54.4355 129.186 53.8496 129.385 53.2402C129.584 52.6191 129.871 52.0156 130.246 51.4297C130.633 50.832 131.096 50.2695 131.635 49.7422C132.186 49.2148 132.807 48.752 133.498 48.3535C134.201 47.9434 134.969 47.6211 135.801 47.3867C136.633 47.1523 137.518 47.0352 138.455 47.0352C139.768 47.0352 140.887 47.2402 141.812 47.6504C142.75 48.0605 143.529 48.6172 144.15 49.3203C144.783 50.0234 145.281 50.8379 145.645 51.7637C146.008 52.6895 146.283 53.668 146.471 54.6992C146.658 55.7305 146.775 56.7793 146.822 57.8457C146.881 58.9121 146.91 59.9316 146.91 60.9043C146.91 61.3965 146.904 61.8184 146.893 62.1699C146.881 62.5215 146.875 62.8145 146.875 63.0488C147.051 63.0488 147.227 63.043 147.402 63.0312C147.59 63.0195 147.771 63.0137 147.947 63.0137C148.146 63.0137 148.352 63.0195 148.562 63.0312C148.785 63.043 149.002 63.0488 149.213 63.0488C149.471 63.0723 149.676 63.1719 149.828 63.3477C149.992 63.5234 150.074 63.7402 150.074 63.998C150.074 64.2441 149.986 64.4609 149.811 64.6484C149.646 64.8359 149.436 64.9297 149.178 64.9297ZM166.826 56.2812C166.393 56.2812 165.982 56.1992 165.596 56.0352C165.221 55.8711 164.893 55.6484 164.611 55.3672C164.33 55.0859 164.107 54.7578 163.943 54.3828C163.779 53.9961 163.697 53.5859 163.697 53.1523C163.697 52.7188 163.779 52.3145 163.943 51.9395C164.107 51.5527 164.33 51.2188 164.611 50.9375C164.893 50.6445 165.221 50.416 165.596 50.252C165.982 50.0762 166.393 49.9883 166.826 49.9883C166.885 49.9883 166.938 49.9941 166.984 50.0059C167.043 50.0176 167.102 50.0234 167.16 50.0234C166.855 49.7891 166.498 49.6133 166.088 49.4961C165.689 49.3672 165.227 49.3027 164.699 49.3027C164.031 49.3027 163.451 49.4434 162.959 49.7246C162.467 49.9941 162.045 50.3398 161.693 50.7617C161.354 51.1719 161.078 51.623 160.867 52.1152C160.656 52.5957 160.486 53.0527 160.357 53.4863C160.24 53.9082 160.158 54.2715 160.111 54.5762C160.076 54.8809 160.059 55.0566 160.059 55.1035L160.023 62.9082C160.434 62.9434 160.844 62.9961 161.254 63.0664C161.676 63.1367 162.104 63.207 162.537 63.2773C162.76 63.3359 162.941 63.4531 163.082 63.6289C163.223 63.793 163.293 63.9863 163.293 64.209C163.293 64.4668 163.193 64.6836 162.994 64.8594C162.795 65.0234 162.584 65.1055 162.361 65.1055H162.186C161.236 64.9297 160.334 64.7949 159.479 64.7012C158.623 64.6074 157.773 64.5605 156.93 64.5605C156.086 64.5605 155.242 64.6074 154.398 64.7012C153.555 64.7949 152.658 64.9297 151.709 65.1055H151.533C151.264 65.1055 151.047 65.0176 150.883 64.8418C150.719 64.6543 150.637 64.4434 150.637 64.209C150.637 63.9863 150.701 63.793 150.83 63.6289C150.959 63.4531 151.135 63.3359 151.357 63.2773C151.768 63.207 152.178 63.1367 152.588 63.0664C152.998 62.9961 153.402 62.9434 153.801 62.9082V49.8125C153.062 49.7773 152.441 49.7305 151.938 49.6719C151.434 49.6133 151.152 49.5723 151.094 49.5488C150.859 49.5254 150.666 49.4316 150.514 49.2676C150.373 49.0918 150.303 48.8867 150.303 48.6523C150.303 48.3594 150.402 48.1309 150.602 47.9668C150.812 47.8027 151.023 47.7207 151.234 47.7207H151.357C151.369 47.7324 151.504 47.7559 151.762 47.791C152.02 47.8145 152.354 47.8438 152.764 47.8789C153.174 47.9141 153.643 47.9434 154.17 47.9668C154.709 47.9902 155.254 48.002 155.805 48.002C156.367 48.002 156.918 47.9844 157.457 47.9492C157.996 47.9141 158.494 47.8496 158.951 47.7559C158.975 47.7324 159.033 47.7207 159.127 47.7207C159.396 47.7207 159.619 47.8203 159.795 48.0195C159.971 48.207 160.059 48.418 160.059 48.6523V49.918C160.562 49.2148 161.195 48.6348 161.957 48.1777C162.73 47.709 163.645 47.4746 164.699 47.4746C165.496 47.498 166.223 47.6387 166.879 47.8965C167.535 48.1426 168.098 48.4883 168.566 48.9336C169.047 49.3672 169.416 49.8945 169.674 50.5156C169.943 51.125 170.078 51.8105 170.078 52.5723C170.078 53.0527 170.002 53.5156 169.85 53.9609C169.697 54.4062 169.48 54.8047 169.199 55.1562C168.918 55.4961 168.572 55.7715 168.162 55.9824C167.764 56.1816 167.318 56.2812 166.826 56.2812Z" fill="black"/>
<path d="M96.324 86.3595C96.5252 89.7598 95.9248 92.8375 94.5227 95.5928C93.1188 98.3169 91.2383 100.656 88.8811 102.611C86.5221 104.535 83.8572 106.051 80.8864 107.158C77.9468 108.265 75.0099 108.886 72.0756 109.022C66.5815 109.277 61.4497 108.514 56.6804 106.734C51.911 104.953 47.6013 102.213 43.7513 98.5125L43.8177 99.6355C43.8768 100.634 43.9506 101.616 44.039 102.581C44.1275 103.547 44.2315 104.512 44.3512 105.476L44.3622 105.663C44.3992 106.287 44.2129 106.843 43.8036 107.331C43.4255 107.818 42.8949 108.109 42.2118 108.203C41.4938 108.236 40.8878 108.045 40.3937 107.63C39.8996 107.215 39.6011 106.666 39.498 105.983C39.3765 104.987 39.2706 103.991 39.1803 102.994C39.0882 101.966 39.0126 100.953 38.9535 99.9551C38.7652 96.7732 38.7478 93.8336 38.9012 91.1363C39.0528 88.4078 39.3155 85.7054 39.6892 83.0292C39.8102 82.4292 40.0626 81.9326 40.4462 81.5395C40.8611 81.1448 41.3651 80.9337 41.9582 80.9062C42.6762 80.8729 43.2859 81.1261 43.7874 81.6659C44.287 82.1745 44.5534 82.7095 44.5867 83.2711C44.5904 83.3334 44.595 83.4114 44.6005 83.505C44.6042 83.5674 44.5776 83.6469 44.5207 83.7433C44.4071 84.4681 44.3063 85.1453 44.2184 85.775C44.1598 86.3721 44.0856 86.9698 43.9958 87.5684C43.9354 88.1342 43.8768 88.7313 43.8201 89.3595C43.7927 89.9551 43.7544 90.6295 43.705 91.3825C47.4671 95.7124 51.6677 98.9896 56.3068 101.214C60.9441 103.408 66.0722 104.374 71.6912 104.113C73.2832 104.039 74.9762 103.82 76.7701 103.455C78.5953 103.089 80.2514 102.511 81.7386 101.723C83.2551 100.902 84.4768 99.8597 85.4038 98.5968C86.3601 97.3011 86.7819 95.7018 86.6693 93.7989C86.5899 92.4575 86.159 91.2576 85.3764 90.199C84.5919 89.1093 83.5964 88.1546 82.3897 87.3347C81.183 86.5148 79.8267 85.8114 78.3207 85.2244C76.8442 84.6047 75.3576 84.0794 73.8608 83.6484C72.3641 83.2174 70.9354 82.877 69.5746 82.6274C68.2432 82.3451 67.1038 82.1321 66.1562 81.9884C63.9121 81.6233 61.6809 81.2107 59.4626 80.7506C57.2423 80.2594 55.1249 79.6538 53.1103 78.934C51.0957 78.2142 49.2132 77.3475 47.4629 76.3339C45.7126 75.3203 44.1698 74.1094 42.8343 72.7012C41.5283 71.2603 40.4581 69.5739 39.6239 67.6419C38.8208 65.7085 38.3436 63.4627 38.1922 60.9047C38.0446 58.4091 38.2367 56.101 38.7685 53.9805C39.3298 51.8273 40.1537 49.8809 41.2402 48.1413C42.3267 46.4017 43.6291 44.871 45.1473 43.5493C46.6949 42.1949 48.3958 41.0524 50.2502 40.1218C52.1027 39.1599 54.0627 38.4277 56.1302 37.9251C58.2271 37.3898 60.3525 37.0722 62.5064 36.9722C63.8175 36.9113 65.2131 36.9561 66.6932 37.1063C68.2027 37.2239 69.7021 37.4359 71.1914 37.7421C72.6788 38.0172 74.1397 38.3717 75.574 38.8056C77.0376 39.2069 78.3957 39.6756 79.6482 40.2118C80.8989 40.7168 82.0119 41.2751 82.9871 41.8868C83.9605 42.4672 84.7476 43.072 85.3482 43.701C85.7151 42.4953 86.1141 41.3037 86.5453 40.1263C87.0058 38.9162 87.482 37.7055 87.9737 36.4939C88.1976 36.0456 88.4904 35.7036 88.8521 35.4678C89.2431 35.1994 89.6571 35.0551 90.0942 35.0348C90.8121 35.0015 91.4209 35.2391 91.9206 35.7477C92.4184 36.2251 92.6857 36.7757 92.7226 37.3996C92.7429 37.7428 92.6705 38.1059 92.5054 38.4889C91.0815 41.9334 89.9394 45.3804 89.0793 48.8299C88.2485 52.2469 87.7171 55.6968 87.4849 59.1798C87.4594 59.8066 87.2245 60.3336 86.7803 60.7609C86.3654 61.1555 85.8458 61.3674 85.2215 61.3963C84.5035 61.4297 83.8947 61.192 83.3951 60.6834C82.8954 60.1748 82.6299 59.6554 82.5986 59.1251L82.5819 58.8443C82.7609 55.5202 83.2391 52.2291 84.0167 48.9711C83.7962 48.4183 83.2773 47.848 82.4599 47.2603C81.6408 46.6414 80.6361 46.0625 79.446 45.5233C78.2872 44.9828 76.9741 44.4807 75.5067 44.017C74.0376 43.5221 72.5418 43.1067 71.0194 42.7707C69.497 42.4347 67.9792 42.1767 66.4661 41.9967C64.9529 41.8167 63.572 41.7557 62.3234 41.8136C60.4192 41.902 58.605 42.1895 56.8809 42.6762C55.1568 43.1629 53.6347 43.8905 52.3147 44.8589C51.026 45.8259 50.0026 47.0464 49.2447 48.5205C48.4849 49.9634 48.1485 51.6839 48.2354 53.6818C48.4636 55.423 49.0214 56.9142 49.9087 58.1555C50.8254 59.3642 51.9202 60.4083 53.193 61.2876C54.497 62.1655 55.9488 62.8958 57.5484 63.4785C59.1461 64.0299 60.7549 64.5027 62.3746 64.8967C64.0237 65.2581 65.6232 65.5749 67.1731 65.847C68.7212 66.088 70.1278 66.3199 71.3931 66.5427C74.5903 67.145 77.6525 67.8475 80.5798 68.65C83.507 69.4526 86.0929 70.5682 88.3373 71.9968C90.6129 73.4239 92.4607 75.2932 93.8809 77.6047C95.2992 79.8849 96.1136 82.8032 96.324 86.3595Z" fill="black"/>
<defs>
<filter id="filter0_if_6_10" x="0" y="0" width="255" height="149" filterUnits="userSpaceOnUse" color-interpolation-filters="sRGB">
<feFlood flood-opacity="0" result="BackgroundImageFix"/>
<feBlend mode="normal" in="SourceGraphic" in2="BackgroundImageFix" result="shape"/>
<feColorMatrix in="SourceAlpha" type="matrix" values="0 0 0 0 0 0 0 0 0 0 0 0 0 0 0 0 0 0 127 0" result="hardAlpha"/>
<feMorphology radius="40" operator="erode" in="SourceAlpha" result="effect1_innerShadow_6_10"/>
<feOffset dx="40" dy="10"/>
<feGaussianBlur stdDeviation="25"/>
<feComposite in2="hardAlpha" operator="arithmetic" k2="-1" k3="1"/>
<feColorMatrix type="matrix" values="0 0 0 0 0 0 0 0 0 0 0 0 0 0 0 0 0 0 0.26 0"/>
<feBlend mode="normal" in2="shape" result="effect1_innerShadow_6_10"/>
<feGaussianBlur stdDeviation="10" result="effect2_foregroundBlur_6_10"/>
</filter>
<filter id="filter1_d_6_10" x="59.7354" y="76.9682" width="135.856" height="39.3678" filterUnits="userSpaceOnUse" color-interpolation-filters="sRGB">
<feFlood flood-opacity="0" result="BackgroundImageFix"/>
<feColorMatrix in="SourceAlpha" type="matrix" values="0 0 0 0 0 0 0 0 0 0 0 0 0 0 0 0 0 0 127 0" result="hardAlpha"/>
<feOffset dy="4"/>
<feGaussianBlur stdDeviation="2"/>
<feComposite in2="hardAlpha" operator="out"/>
<feColorMatrix type="matrix" values="0 0 0 0 0 0 0 0 0 0 0 0 0 0 0 0 0 0 0.25 0"/>
<feBlend mode="normal" in2="BackgroundImageFix" result="effect1_dropShadow_6_10"/>
<feBlend mode="normal" in="SourceGraphic" in2="effect1_dropShadow_6_10" result="shape"/>
</filter>
</defs>
</svg>
